<?xml version="1.0" encoding="utf-8"?><svg xmlns:xlink="http://www.w3.org/1999/xlink" id="escena_torta_candado" image-rendering="auto" baseProfile="basic" version="1.1" x="0px" y="0px" width="546" height="307" xmlns="http://www.w3.org/2000/svg"><g id="Scene_1" overflow="visible"><path fill="#FEED72" d="M547.001,14.951Q547.001,0.051 528.101,0.051L18.901,0.051Q0.051,0.051 0.051,14.951L0.051,292.801Q0.051,307.701 18.901,307.701L528.101,307.701Q547.001,307.701 547.001,292.801L547.001,14.951"/><g><path fill="#A5A7AA" d="M69.45,111.8Q68.65,111.75 67.8,111.9 67,112 66.2,112.2 65.45,112.45 64.7,112.75 64,113.05 63.35,113.45 63.2,113.5 63.1,113.6L63.1,135.1 63.1,113.6Q62.55,113.9 62,114.3 61.4,114.75 60.85,115.35 60.3,115.9 59.8,116.5 59.3,117.15 58.95,117.85 58.55,118.45 58.25,119.2 57.95,119.95 57.7,120.7 57.5,121.5 57.4,122.3 57.25,123.1 57.3,123.95L57.3,134.5Q57.25,135.3 57.4,136.15 57.5,136.9 57.7,137.75 57.95,138.45 58.25,139.25 58.55,139.9 58.95,140.6 59.3,141.3 59.8,141.95 60.3,142.55 60.85,143.05 61.4,143.6 62,144.1 62.65,144.6 63.35,145 64,145.35 64.7,145.7 65.45,146 66.2,146.2 67,146.4 67.8,146.55 68.65,146.65 69.45,146.65L82.65,146.65 95.85,146.65Q96.65,146.65 97.5,146.55 98.3,146.4 99.1,146.2 99.8,146 100.6,145.7 101.3,145.35 102,145 102.65,144.6 103.3,144.1 103.9,143.6 104.45,143.05 105,142.55 105.5,141.95 105.95,141.3 106.35,140.6 106.75,139.9 107.05,139.25 107.35,138.45 107.6,137.75 107.8,136.9 107.9,136.15 108,135.3 108.05,134.5L108.05,123.95Q108,121.4 107.05,119.2 106.1,117 104.45,115.35 103.55,114.45 102.45,113.75L102.45,135.1 102.45,113.75Q101.6,113.15 100.6,112.75 98.35,111.8 95.85,111.8L82.6,111.8 69.45,111.8"/><path fill="none" stroke="#A5A7AA" stroke-width="12.3" stroke-linecap="round" stroke-linejoin="round" d="M63.1,113.6L63.1,94.75M102.45,113.75L102.45,94.75M82.6,111.8L82.6,94.75"/><path fill="none" stroke="#A5A7AA" stroke-width="9.19" stroke-linecap="round" stroke-linejoin="round" d="M82.65,146.65L82.65,182.75"/><path fill="none" stroke="#A5A7AA" stroke-width="12.3" stroke-linecap="round" stroke-linejoin="round" d="M63.1,113.6L63.1,135.1M102.45,113.75L102.45,135.1"/></g><g><path fill="#EA2127" d="M95.291,175.873Q95.289,175.002 95.177,174.161 95.061,173.319 94.835,172.517 94.609,171.707 94.287,170.942 93.968,170.184 93.556,169.481 93.142,168.777 92.643,168.135 92.145,167.495 91.571,166.925 91.001,166.35 90.361,165.852 89.718,165.354 89.014,164.939 88.311,164.527 87.553,164.209 86.799,163.886 86.001,163.661 85.199,163.446 84.358,163.341 83.505,163.228 82.623,163.227 81.752,163.228 80.911,163.341 80.069,163.446 79.267,163.661 78.457,163.886 77.692,164.209 76.934,164.527 76.231,164.939 75.527,165.354 74.885,165.852 74.245,166.35 73.675,166.925 73.1,167.495 72.602,168.135 72.104,168.777 71.689,169.481 71.277,170.184 70.959,170.942 70.636,171.707 70.411,172.517 70.196,173.319 70.091,174.161 69.978,175.002 69.977,175.873L69.977,229.057Q69.99,231.685 70.959,233.965 71.94,236.26 73.675,238.005 75.408,239.74 77.692,240.721 79.984,241.69 82.623,241.703 83.505,241.701 84.358,241.589 85.199,241.473 86.001,241.246 86.799,241.032 87.553,240.721 88.311,240.392 89.014,239.968 89.718,239.565 90.361,239.078 91.001,238.58 91.571,238.005 92.145,237.424 92.643,236.773 93.142,236.13 93.556,235.426 93.968,234.722 94.287,233.965 94.609,233.211 94.835,232.413 95.061,231.611 95.177,230.769 95.289,229.928 95.291,229.057L95.291,175.873"/><path fill="#FDD900" d="M86.8,216.55Q86.8,214.815 85.567,213.583 84.335,212.35 82.6,212.35 80.865,212.35 79.633,213.583 78.4,214.815 78.4,216.55 78.4,218.285 79.633,219.517 80.865,220.75 82.6,220.75 84.335,220.75 85.567,219.517 86.8,218.285 86.8,216.55"/><path fill="#FDD900" d="M86.8,191.3Q86.8,189.565 85.567,188.333 84.335,187.1 82.6,187.1 80.865,187.1 79.633,188.333 78.4,189.565 78.4,191.3 78.4,193.035 79.633,194.267 80.865,195.5 82.6,195.5 84.335,195.5 85.567,194.267 86.8,193.035 86.8,191.3"/></g><g><path fill="none" stroke="#221F1F" stroke-width="4.05" stroke-linecap="round" stroke-linejoin="round" d="M77.149,119.999L77.149,124.427"/><path fill="none" stroke="#221F1F" stroke-width="4.05" stroke-linecap="round" stroke-linejoin="round" d="M88.105,119.999L88.105,124.427"/><path fill="#EA2127" d="M93.093,133.308Q93.405,132.966 93.596,132.623 93.783,132.258 93.733,131.892 93.679,131.537 93.276,131.185 92.943,130.9 92.568,130.728 92.198,130.557 91.815,130.5L91.427,130.477 91.062,130.5Q90.697,130.557 90.377,130.728 90.055,130.888 89.807,131.162 89.506,131.52 89.396,131.961 89.282,132.404 89.35,132.874 89.411,133.343 89.647,133.787 89.894,134.226 90.309,134.586 90.71,134.942 90.993,135.042 91.114,135.075 91.222,135.065 91.38,135.064 91.518,134.997 91.745,134.888 91.975,134.632L92.5,134.015 93.093,133.308"/><path fill="none" stroke="#221F1F" stroke-width="3.2" stroke-linecap="round" stroke-linejoin="round" d="M91.035,136.109Q90.229,136.461 89.3,136.474M91.035,136.109Q91.84,135.763 92.45,135.15 93.063,134.54 93.409,133.735 93.761,132.929 93.774,132"/></g><g><path fill="#F17AA9" d="M517.25,130.05Q515.45,129.3 512.85,129.3L410.1,129.3Q401.35,129.3 401.35,138.05L401.35,145.05 521.6,145.05 521.6,138.05Q521.6,131.9 517.25,130.05"/><path fill="#8C5430" d="M401.35,222Q401.35,225.6 402.85,227.75L520.15,227.75Q521.6,225.6 521.6,222L521.6,145.05 401.35,145.05 401.35,222"/><path fill="#8C5430" d="M402.85,227.75Q404.95,230.75 410.1,230.75L512.85,230.75Q518,230.75 520.15,227.75L402.85,227.75"/><path fill="none" stroke="#27B373" stroke-width="12.7" stroke-linecap="round" stroke-linejoin="round" d="M402.85,227.75L393.25,227.75M520.15,227.75L529.95,227.75"/><path fill="none" stroke="#27B373" stroke-width="12.7" stroke-linecap="round" stroke-linejoin="round" d="M402.85,227.75L520.15,227.75"/></g><g><path fill="#FFF" d="M509.925,202.129L509.84,202.129Q509.229,202.125 508.622,202.171 508.028,202.233 507.446,202.342 506.857,202.441 506.271,202.577 505.678,202.72 505.095,202.898L503.941,203.261 502.809,203.667 501.697,204.116 500.586,204.565 499.09,205.142 498.385,205.42 497.658,205.676Q496.959,205.931 496.29,206.125 495.62,206.304 494.986,206.403L494.345,206.488 493.747,206.51Q493.098,206.497 492.379,206.36 491.671,206.228 490.904,205.976 490.125,205.722 489.302,205.42L487.613,204.757 485.711,204.009 484.728,203.646 483.702,203.304 482.655,202.984 481.586,202.684Q481.04,202.553 480.475,202.449L479.342,202.278Q478.764,202.196 478.167,202.15 477.574,202.121 476.97,202.129 475.977,202.131 475.068,202.193 474.154,202.249 473.337,202.364 472.523,202.494 471.777,202.663 471.021,202.826 470.345,203.026 469.678,203.231 469.062,203.454 468.445,203.67 467.887,203.902L466.797,204.373 465.793,204.843 464.617,205.377Q464.047,205.623 463.484,205.826 462.928,206.036 462.352,206.189 461.768,206.342 461.134,206.424 460.5,206.509 459.787,206.51 459.285,206.512 458.761,206.403 458.244,206.288 457.693,206.082 457.14,205.88 456.539,205.612L455.278,205.035 453.824,204.373 453.034,204.031 452.221,203.71 451.367,203.39 450.469,203.09 449.507,202.813 448.503,202.577 447.456,202.385 446.344,202.235Q445.774,202.177 445.169,202.15 444.563,202.124 443.929,202.129 443.136,202.132 442.369,202.193 441.603,202.25 440.873,202.364 440.156,202.473 439.462,202.62 438.752,202.773 438.073,202.962L436.77,203.368 435.487,203.817 434.269,204.266 433.094,204.736 431.32,205.42 430.486,205.719 429.674,205.997 428.905,206.211 428.135,206.382Q427.759,206.452 427.387,206.488 427.018,206.516 426.661,206.51 426.099,206.506 425.464,206.382 424.834,206.249 424.139,205.997 423.444,205.743 422.707,205.441L421.19,204.779 419.736,204.159 418.967,203.838 418.197,203.539 417.407,203.24 416.595,202.984 415.761,202.748 414.928,202.535 414.051,202.364 413.175,202.235 412.277,202.15 411.337,202.129Q410.516,202.132 409.734,202.193 408.951,202.25 408.217,202.364 407.479,202.482 406.785,202.642 406.086,202.793 405.438,202.984 404.796,203.185 404.199,203.411 403.606,203.624 403.066,203.86 402.518,204.101 402.019,204.351 401.528,204.603 401.079,204.886L401.079,211.853 401.121,211.874Q401.509,211.666 401.827,211.34L402.126,211.083Q402.429,210.824 403.002,210.421L403.643,210.015 404.391,209.566Q404.799,209.346 405.268,209.139 405.742,208.929 406.272,208.733 406.798,208.533 407.383,208.369 407.967,208.201 408.602,208.07 409.237,207.943 409.927,207.878 410.61,207.814 411.337,207.814 411.805,207.812 412.277,207.856 412.749,207.909 413.218,208.006L414.158,208.22 415.12,208.497 416.039,208.839 416.979,209.203 418.839,209.993 420.356,210.635Q421.121,210.964 421.895,211.254L422.664,211.511 423.455,211.746 424.246,211.938 425.036,212.088Q425.439,212.146 425.849,212.173L426.661,212.216Q427.229,212.217 427.793,212.173 428.355,212.121 428.905,212.024 429.452,211.933 429.995,211.81 430.546,211.687 431.085,211.532L432.132,211.19 433.179,210.827 434.226,210.421 435.252,210.015 436.278,209.609 437.325,209.224 438.372,208.839 439.462,208.519Q439.991,208.354 440.531,208.22 441.084,208.097 441.642,208.006 442.201,207.909 442.775,207.856 443.349,207.812 443.929,207.814 444.636,207.821 445.297,207.878 445.954,207.928 446.558,208.027 447.162,208.127 447.733,208.262 448.309,208.395 448.845,208.562L449.892,208.925 450.875,209.31 451.837,209.737 452.777,210.186 454.081,210.784 454.743,211.062 455.406,211.319 456.09,211.575 456.795,211.789 457.5,211.96 458.248,212.109 458.996,212.195 459.787,212.216Q460.473,212.218 461.112,212.173 461.749,212.121 462.33,212.024 462.913,211.923 463.463,211.789 464.018,211.666 464.532,211.511L465.515,211.169 466.476,210.784 467.374,210.4 468.272,209.972 469.169,209.566 470.067,209.181Q470.521,208.979 471.007,208.797L472.012,208.476Q472.518,208.322 473.08,208.198 473.634,208.086 474.234,208.006 474.848,207.909 475.538,207.856 476.221,207.813 476.97,207.814 477.514,207.812 478.06,207.856 478.609,207.908 479.15,208.006 479.684,208.097 480.219,208.22 480.746,208.354 481.266,208.519L482.334,208.861 483.36,209.224 484.407,209.63 485.433,210.036 487.058,210.677 487.87,210.977 488.703,211.276 489.537,211.532 490.37,211.746 491.204,211.938 492.037,212.088 492.892,212.173 493.747,212.216Q494.336,212.208 494.922,212.152 495.506,212.102 496.076,212.002 496.643,211.903 497.209,211.767 497.791,211.635 498.363,211.468L499.475,211.105 500.586,210.699 501.697,210.271 502.787,209.822 504.305,209.224 505.031,208.946 505.779,208.668 506.485,208.433 507.19,208.241 507.895,208.049 508.558,207.92Q509.227,207.815 509.861,207.814L509.925,207.814Q511.173,207.827 512.298,207.963 513.425,208.106 514.414,208.369 515.391,208.624 516.23,208.925 517.075,209.236 517.769,209.587 518.466,209.936 519.008,210.25 519.549,210.558 519.927,210.827L520.419,211.19 520.654,211.383 520.74,211.447Q520.883,211.576 521.039,211.682L521.359,211.874 521.402,211.831 521.381,205.014Q520.901,204.756 520.355,204.501 519.818,204.242 519.222,203.988 518.624,203.732 517.961,203.496 517.294,203.26 516.572,203.048 515.854,202.834 515.076,202.663 514.3,202.503 513.473,202.385 512.637,202.258 511.742,202.193 510.857,202.13 509.925,202.129"/><path fill="#FFF" d="M509.925,183.929L509.84,183.929Q509.229,183.925 508.622,183.971 508.028,184.033 507.446,184.142 506.857,184.243 506.271,184.377 505.678,184.521 505.095,184.698L503.941,185.061 502.809,185.467 501.697,185.916 500.586,186.365 499.09,186.942 498.385,187.22 497.658,187.476Q496.959,187.731 496.29,187.925 495.62,188.104 494.986,188.203L494.345,188.288 493.747,188.31Q493.098,188.297 492.379,188.16 491.671,188.028 490.904,187.776 490.125,187.522 489.302,187.22L487.613,186.557 485.711,185.809 484.728,185.446 483.702,185.104 482.655,184.784 481.586,184.484Q481.04,184.353 480.475,184.249L479.342,184.078Q478.764,183.996 478.167,183.95 477.574,183.921 476.97,183.929 475.977,183.931 475.068,183.993 474.154,184.049 473.337,184.164 472.523,184.294 471.777,184.463 471.021,184.626 470.345,184.826 469.678,185.031 469.062,185.254 468.445,185.47 467.887,185.702L466.797,186.173 465.793,186.643 464.617,187.177Q464.047,187.423 463.484,187.626 462.928,187.836 462.352,187.989 461.768,188.142 461.134,188.224L460.471,188.288 459.787,188.31Q459.285,188.312 458.761,188.203 458.244,188.087 457.693,187.882 457.14,187.68 456.539,187.412L455.278,186.835 453.824,186.173 453.034,185.831 452.221,185.51 451.367,185.19 450.469,184.89 449.507,184.613 448.503,184.377 447.456,184.185 446.344,184.035Q445.774,183.977 445.169,183.95 444.563,183.924 443.929,183.929 443.136,183.932 442.369,183.993 441.603,184.05 440.873,184.164 440.156,184.273 439.462,184.42 438.752,184.573 438.073,184.762L436.77,185.168 435.487,185.617 434.269,186.066 433.094,186.536 431.32,187.22 430.486,187.519 429.674,187.797 428.905,188.011 428.135,188.182 427.387,188.288Q427.018,188.316 426.661,188.31 426.099,188.306 425.464,188.182 424.834,188.049 424.139,187.797 423.444,187.543 422.707,187.241L421.19,186.579 419.736,185.959 418.967,185.638 418.197,185.339 417.407,185.04 416.595,184.784 415.761,184.548 414.928,184.335 414.051,184.164 413.175,184.035 412.277,183.95 411.337,183.929Q410.516,183.932 409.734,183.993 408.951,184.05 408.217,184.164 407.479,184.282 406.785,184.442 406.086,184.593 405.438,184.784 404.796,184.985 404.199,185.211 403.606,185.424 403.066,185.66 402.518,185.902 402.019,186.151 401.528,186.403 401.079,186.686L401.079,193.653 401.121,193.674Q401.509,193.465 401.827,193.14L402.126,192.883Q402.429,192.624 403.002,192.221L403.643,191.815 404.391,191.366Q404.799,191.147 405.268,190.939 405.742,190.729 406.272,190.533 406.798,190.333 407.383,190.169 407.967,190.001 408.602,189.87 409.237,189.743 409.927,189.678 410.61,189.614 411.337,189.614 411.806,189.612 412.277,189.656 412.749,189.709 413.218,189.806 413.686,189.897 414.158,190.02 414.641,190.143 415.12,190.297L416.039,190.639 416.979,191.003 418.839,191.793 420.356,192.435 421.125,192.755 421.895,193.054 422.664,193.311 423.455,193.546 424.246,193.738 425.036,193.888Q425.439,193.946 425.849,193.973L426.661,194.016Q427.229,194.017 427.793,193.973 428.355,193.921 428.905,193.824 429.452,193.733 429.995,193.61 430.546,193.487 431.085,193.332L432.132,192.99 433.179,192.627 434.226,192.221 435.252,191.815 436.278,191.409 437.325,191.024 438.372,190.639 439.462,190.319Q439.991,190.154 440.531,190.02 441.084,189.897 441.642,189.806 442.201,189.708 442.775,189.656 443.349,189.612 443.929,189.614 444.636,189.621 445.297,189.678 445.955,189.728 446.558,189.827 447.162,189.927 447.733,190.062 448.309,190.195 448.845,190.362L449.892,190.725 450.875,191.11 451.837,191.537 452.777,191.986 454.081,192.584Q454.733,192.869 455.406,193.119L456.09,193.375 456.795,193.589Q457.503,193.792 458.248,193.909L458.996,193.995 459.787,194.016Q460.473,194.018 461.112,193.973 461.749,193.921 462.33,193.824 462.913,193.723 463.463,193.589 464.018,193.466 464.532,193.311L465.515,192.969 466.476,192.584 467.374,192.2 468.272,191.772 469.169,191.366 470.067,190.981 471.007,190.597 472.012,190.276Q472.518,190.122 473.08,189.998 473.634,189.886 474.234,189.806 474.848,189.709 475.538,189.656 476.221,189.613 476.97,189.614 477.514,189.612 478.06,189.656 478.609,189.708 479.15,189.806 479.684,189.896 480.219,190.02 480.746,190.154 481.266,190.319L482.334,190.661 483.36,191.024 485.433,191.836 487.058,192.477 487.87,192.777 488.703,193.054 489.537,193.332 490.37,193.546 491.204,193.738 492.037,193.888 492.892,193.973 493.747,194.016Q494.336,194.008 494.922,193.952 495.506,193.902 496.076,193.802 496.643,193.703 497.209,193.567 497.791,193.434 498.363,193.268L499.475,192.905 500.586,192.499 501.697,192.071 502.787,191.622 504.305,191.024 505.031,190.746 505.779,190.468Q506.497,190.224 507.19,190.041L507.895,189.849 508.558,189.72Q509.227,189.614 509.861,189.614L509.925,189.614Q510.753,189.614 511.528,189.678 512.308,189.743 513.024,189.87 513.748,190.001 514.414,190.169 515.066,190.332 515.653,190.533 516.25,190.728 516.786,190.939 517.312,191.157 517.769,191.387L518.645,191.836 519.35,192.242Q520,192.652 520.355,192.926L520.74,193.247Q520.883,193.376 521.039,193.482L521.359,193.674 521.402,193.631 521.381,186.814Q520.901,186.556 520.355,186.301 519.818,186.041 519.222,185.788 518.624,185.532 517.961,185.296 517.294,185.059 516.572,184.848 515.854,184.634 515.076,184.463 514.3,184.303 513.473,184.185 512.637,184.058 511.742,183.993 510.856,183.93 509.925,183.929"/></g><g><path fill="#E7242B" d="M446.202,127.876Q446.202,125.269 444.321,123.388 442.483,121.55 439.876,121.55 437.269,121.55 435.388,123.388 433.55,125.269 433.55,127.876 433.55,130.483 435.388,132.321 437.269,134.202 439.876,134.202 442.483,134.202 444.321,132.321 446.202,130.483 446.202,127.876"/><path fill="#E7242B" d="M467.988,127.876Q467.988,125.226 466.107,123.345 464.269,121.507 461.619,121.507 458.969,121.507 457.088,123.345 455.25,125.226 455.25,127.876 455.25,130.526 457.088,132.364 458.969,134.245 461.619,134.245 464.269,134.245 466.107,132.364 467.988,130.526 467.988,127.876"/><path fill="#E7242B" d="M489.588,127.876Q489.588,125.226 487.707,123.345 485.869,121.507 483.219,121.507 480.569,121.507 478.688,123.345 476.85,125.226 476.85,127.876 476.85,130.526 478.688,132.364 480.569,134.245 483.219,134.245 485.869,134.245 487.707,132.364 489.588,130.526 489.588,127.876"/></g><g><path fill="#F17AA9" d="M516.25,129.95Q514.7,129.3 512.85,129.3L410.15,129.3Q409.6,129.25 408.95,129.35 408.35,129.45 407.8,129.6 407.25,129.7 406.7,129.95 406.15,130.2 405.7,130.45 405.2,130.75 404.75,131.15 404.3,131.45 403.9,131.9 403.55,132.25 403.2,132.7 402.8,133.15 402.55,133.65 402.25,134.1 402.05,134.7 401.75,135.2 401.65,135.75 401.5,136.3 401.4,136.9 401.3,137.5 401.35,138.1L401.35,162.55Q401.35,163.4 401.45,164.25 401.6,165 401.75,165.8 401.95,166.5 402.3,167.3 402.6,167.95 403,168.65 403.35,169.35 403.8,170 404.3,170.6 404.85,171.15 405.4,171.65 406,172.2 406.65,172.65 407.3,173.05 408,173.4 408.7,173.75 409.45,174.05 410.2,174.25 410.95,174.5 411.75,174.6 412.6,174.7 413.4,174.7 414.2,174.7 415,174.6 415.8,174.5 416.6,174.25 417.35,174.05 418.05,173.75 418.8,173.4 419.45,173.05 420.1,172.65 420.75,172.2 421.4,171.65 421.9,171.15 422.45,170.6 422.9,170 423.4,169.35 423.8,168.65 424.2,167.95 424.5,167.3 424.85,166.5 425.05,165.8 425.35,164.6 425.4,163.4 425.45,164 425.55,164.6 425.65,165.2 425.85,165.8 426,166.5 426.35,167.3 426.6,167.95 427.05,168.65 427.4,169.35 427.9,170 428.35,170.6 428.9,171.15 429.45,171.65 430.1,172.2 430.7,172.65 431.35,173.05 432,173.4 432.75,173.75 433.45,174.05 434.2,174.25 435,174.5 435.8,174.6 436.65,174.7 437.45,174.7 438.3,174.7 439.1,174.6 439.85,174.5 440.6,174.25 441.4,174.05 442.1,173.75 442.85,173.4 443.5,173.05 444.2,172.65 444.85,172.2 445.45,171.65 446,171.15 446.45,170.6 447,170 447.45,169.35 447.9,168.65 448.25,167.95 448.55,167.3 448.85,166.5 449.05,165.8 449.25,165.2 449.35,164.6 449.4,164 449.45,163.4 449.55,164.6 449.9,165.8 450.1,166.5 450.4,167.3 450.7,167.95 451.05,168.65 451.45,169.35 451.95,170 452.4,170.6 453,171.15 453.5,171.65 454.15,172.2 454.75,172.65 455.4,173.05 456.05,173.4 456.8,173.75 457.5,174.05 458.25,174.25 459.05,174.5 459.85,174.6 460.65,174.7 461.5,174.7 462.3,174.7 463.15,174.6 463.95,174.5 464.7,174.25 465.5,174.05 466.2,173.75 466.9,173.4 467.6,173.05 468.25,172.65 468.85,172.2 469.5,171.65 470.05,171.15 470.6,170.6 471.05,170 471.5,169.35 471.95,168.65 472.3,167.95 472.6,167.3 472.9,166.5 473.1,165.8 473.3,165.2 473.4,164.6 473.5,164 473.55,163.4 473.6,164.6 473.95,165.8 474.1,166.5 474.45,167.3 474.75,167.95 475.1,168.65 475.5,169.35 475.95,170 476.5,170.6 477,171.15 477.55,171.65 478.15,172.2 478.75,172.65 479.45,173.05 480.15,173.4 480.9,173.75 481.6,174.05 482.4,174.25 483.15,174.5 483.9,174.6 484.7,174.7 485.55,174.7 486.35,174.7 487.2,174.6 488,174.5 488.75,174.25 489.5,174.05 490.25,173.75 490.95,173.4 491.65,173.05 492.3,172.65 492.9,172.2 493.5,171.65 494.1,171.15 494.65,170.6 495.1,170 495.6,169.35 495.95,168.65 496.35,167.95 496.65,167.3 497,166.5 497.15,165.8 497.3,165.2 497.45,164.6 497.55,164 497.6,163.4 497.65,164.6 497.95,165.8 498.15,166.5 498.55,167.3 498.75,167.95 499.2,168.65 499.55,169.35 500.05,170 500.55,170.6 501.05,171.15 501.6,171.65 502.25,172.2 502.85,172.65 503.5,173.05 504.2,173.4 504.95,173.75 505.6,174.05 506.4,174.25 507.15,174.5 507.95,174.6 508.8,174.7 509.6,174.7 510.4,174.7 511.25,174.6 512,174.5 512.8,174.25 513.55,174.05 514.3,173.75 515,173.4 515.7,173.05 516.3,172.65 516.95,172.2 517.6,171.65 518.15,171.15 518.65,170.6 519.15,170 519.65,169.35 520,168.65 520.4,167.95 520.7,167.3 521,166.5 521.2,165.8 521.4,165 521.55,164.25 521.65,163.4 521.7,162.55L521.7,138.1Q521.65,136.3 520.95,134.7 520.25,133.05 519.1,131.9 517.8,130.65 516.25,129.95"/><path fill="#FFF" d="M420.244,150.047Q420.244,148.465 419.09,147.311 417.978,146.2 416.397,146.2 414.815,146.2 413.661,147.311 412.55,148.465 412.55,150.047 412.55,151.628 413.661,152.74 414.815,153.894 416.397,153.894 417.978,153.894 419.09,152.74 420.244,151.628 420.244,150.047"/><path fill="#FFF" d="M442.694,150.047Q442.694,148.465 441.54,147.311 440.428,146.2 438.847,146.2 437.265,146.2 436.111,147.311 435,148.465 435,150.047 435,151.628 436.111,152.74 437.265,153.894 438.847,153.894 440.428,153.894 441.54,152.74 442.694,151.628 442.694,150.047"/><path fill="#FFF" d="M465.244,150.047Q465.244,148.465 464.09,147.311 462.978,146.2 461.397,146.2 459.815,146.2 458.661,147.311 457.55,148.465 457.55,150.047 457.55,151.628 458.661,152.74 459.815,153.894 461.397,153.894 462.978,153.894 464.09,152.74 465.244,151.628 465.244,150.047"/><path fill="#FFF" d="M488.144,150.047Q488.144,148.465 486.99,147.311 485.878,146.2 484.297,146.2 482.715,146.2 481.561,147.311 480.45,148.465 480.45,150.047 480.45,151.628 481.561,152.74 482.715,153.894 484.297,153.894 485.878,153.894 486.99,152.74 488.144,151.628 488.144,150.047"/><path fill="#FFF" d="M510.694,150.047Q510.694,148.465 509.54,147.311 508.428,146.2 506.847,146.2 505.265,146.2 504.111,147.311 503,148.465 503,150.047 503,151.628 504.111,152.74 505.265,153.894 506.847,153.894 508.428,153.894 509.54,152.74 510.694,151.628 510.694,150.047"/></g><g><g id="parte_candado_1" transform="matrix(0.885 0.003 -0.003 0.835 218.85 111.55)"><g id="parte candado 1_0.0"><path fill="none" stroke="#6D6F70" stroke-width="14.75" stroke-linecap="round" stroke-linejoin="round" d="M75.7,28.3Q77.06,33.199 77.075,38.525L77.075,89.7M75.7,28.3Q74.331,23.382 71.8,19.075 69.277,14.778 65.775,11.275 62.272,7.773 57.975,5.25 53.68,2.731 48.775,1.375 43.864,0.014 38.525,0 33.199,0.014 28.3,1.375 23.382,2.731 19.075,5.25 14.778,7.773 11.275,11.275 7.773,14.778 5.25,19.075 2.731,23.382 1.375,28.3 0.014,33.199 0,38.525L0,93.425"/></g></g><g><path fill="#6D6F70" d="M298.216,161.93L207.35,161.93 207.328,161.95 207.328,194.737Q207.344,200.616 208.941,206.026 210.546,211.436 213.517,216.175 216.504,220.902 220.642,224.759 224.773,228.61 229.838,231.389 234.905,234.161 240.689,235.661 246.485,237.16 252.783,237.186 259.08,237.16 264.876,235.661 270.661,234.161 275.728,231.389 280.804,228.61 284.945,224.759 289.073,220.902 292.049,216.175 295.02,211.436 296.625,206.026 298.233,200.616 298.259,194.737L298.259,161.95 298.216,161.93"/><path fill="#6D6F70" stroke-width="7.95" stroke-linecap="round" stroke-linejoin="round" d="M298.216,194.737L298.216,161.95 207.35,161.95 207.35,194.737Q207.363,200.617 208.962,206.026 210.576,211.427 213.56,216.155 216.535,220.884 220.664,224.738 224.793,228.592 229.859,231.369 234.925,234.144 240.711,235.64 246.495,237.144 252.783,237.166 259.071,237.144 264.855,235.64 270.652,234.144 275.728,231.369 280.794,228.592 284.924,224.738 289.052,220.884 292.027,216.155 295,211.427 296.603,206.026 298.203,200.617 298.216,194.737"/><path fill="none" stroke="#6D6F70" stroke-width="7.95" stroke-linecap="round" stroke-linejoin="round" d="M298.216,194.737L298.216,161.95 207.35,161.95 207.35,194.737Q207.363,200.617 208.962,206.026 210.576,211.427 213.56,216.155 216.535,220.884 220.664,224.738 224.793,228.592 229.859,231.369 234.925,234.144 240.711,235.64 246.495,237.144 252.783,237.166 259.071,237.144 264.855,235.64 270.652,234.144 275.728,231.369 280.794,228.592 284.924,224.738 289.052,220.884 292.027,216.155 295,211.427 296.603,206.026 298.203,200.617 298.216,194.737"/></g><path fill="#221F1F" d="M263.926,189.933Q263.926,185.621 260.658,182.57 257.433,179.559 252.813,179.559 248.194,179.559 244.925,182.57 241.7,185.621 241.7,189.933 241.7,194.245 244.925,197.255 248.194,200.306 252.813,200.306 257.433,200.306 260.658,197.255 263.926,194.245 263.926,189.933"/><path fill="none" stroke="#221F1F" stroke-width="11.9" stroke-linecap="round" stroke-linejoin="round" d="M252.747,191.439L252.747,211.819"/></g><g style="display:none;"><path fill="none" stroke="#E0860C" stroke-width="10" stroke-linecap="round" stroke-linejoin="round" d="M369.55,164.65L354.35,177.55M369.55,164.65L354.35,151.8"/><animate attributeName="display" repeatCount="indefinite" dur="7.958s" keyTimes="0;0.89;0.906;1" values="none;inline;none;none"/></g><g style="display:none;"><g><path fill="none" stroke="#E0860C" stroke-width="10" stroke-linecap="round" stroke-linejoin="round" d="M326.85,165.1L337.9,165.1"/><path fill="none" stroke="#E0860C" stroke-width="10" stroke-linecap="round" stroke-linejoin="round" d="M369.55,164.65L354.35,177.55M369.55,164.65L354.35,151.8"/></g><animate attributeName="display" repeatCount="indefinite" dur="7.958s" keyTimes="0;0.874;0.89;1" values="none;inline;none;none"/></g><g style="display:none;"><g><path fill="none" stroke="#E0860C" stroke-width="10" stroke-linecap="round" stroke-linejoin="round" d="M326.85,165.1L337.9,165.1"/><path fill="none" stroke="#E0860C" stroke-width="10" stroke-linecap="round" stroke-linejoin="round" d="M369.55,164.65L354.35,177.55M369.55,164.65L354.35,151.8"/><path fill="none" stroke="#E0860C" stroke-width="10" stroke-linecap="round" stroke-linejoin="round" d="M318.15,132.7L321,143.4"/></g><animate attributeName="display" repeatCount="indefinite" dur="7.958s" keyTimes="0;0.859;0.874;1" values="none;inline;none;none"/></g><g style="display:none;"><g><path fill="none" stroke="#E0860C" stroke-width="10" stroke-linecap="round" stroke-linejoin="round" d="M326.85,165.1L337.9,165.1"/><path fill="none" stroke="#E0860C" stroke-width="10" stroke-linecap="round" stroke-linejoin="round" d="M369.55,164.65L354.35,177.55M369.55,164.65L354.35,151.8"/><path fill="none" stroke="#E0860C" stroke-width="10" stroke-linecap="round" stroke-linejoin="round" d="M318.15,132.7L321,143.4"/><path fill="none" stroke="#E0860C" stroke-width="10" stroke-linecap="round" stroke-linejoin="round" d="M304.3,107.15L310.95,116"/></g><animate attributeName="display" repeatCount="indefinite" dur="7.958s" keyTimes="0;0.843;0.859;1" values="none;inline;none;none"/></g><g style="display:none;"><g><path fill="none" stroke="#E0860C" stroke-width="10" stroke-linecap="round" stroke-linejoin="round" d="M326.85,165.1L337.9,165.1"/><path fill="none" stroke="#E0860C" stroke-width="10" stroke-linecap="round" stroke-linejoin="round" d="M369.55,164.65L354.35,177.55M369.55,164.65L354.35,151.8"/><path fill="none" stroke="#E0860C" stroke-width="10" stroke-linecap="round" stroke-linejoin="round" d="M290.1,92.45L280.1,87.75"/><path fill="none" stroke="#E0860C" stroke-width="10" stroke-linecap="round" stroke-linejoin="round" d="M318.15,132.7L321,143.4"/><path fill="none" stroke="#E0860C" stroke-width="10" stroke-linecap="round" stroke-linejoin="round" d="M304.3,107.15L310.95,116"/></g><animate attributeName="display" repeatCount="indefinite" dur="7.958s" keyTimes="0;0.827;0.843;1" values="none;inline;none;none"/></g><g style="display:none;"><g><path fill="none" stroke="#E0860C" stroke-width="10" stroke-linecap="round" stroke-linejoin="round" d="M326.85,165.1L337.9,165.1"/><path fill="none" stroke="#E0860C" stroke-width="10" stroke-linecap="round" stroke-linejoin="round" d="M369.55,164.65L354.35,177.55M369.55,164.65L354.35,151.8"/><path fill="none" stroke="#E0860C" stroke-width="10" stroke-linecap="round" stroke-linejoin="round" d="M246.7,83.45L257.75,83.45"/><path fill="none" stroke="#E0860C" stroke-width="10" stroke-linecap="round" stroke-linejoin="round" d="M290.1,92.45L280.1,87.75"/><path fill="none" stroke="#E0860C" stroke-width="10" stroke-linecap="round" stroke-linejoin="round" d="M318.15,132.7L321,143.4"/><path fill="none" stroke="#E0860C" stroke-width="10" stroke-linecap="round" stroke-linejoin="round" d="M304.3,107.15L310.95,116"/></g><animate attributeName="display" repeatCount="indefinite" dur="7.958s" keyTimes="0;0.812;0.827;1" values="none;inline;none;none"/></g><g style="display:none;"><g><path fill="none" stroke="#E0860C" stroke-width="10" stroke-linecap="round" stroke-linejoin="round" d="M326.85,165.1L337.9,165.1"/><path fill="none" stroke="#E0860C" stroke-width="10" stroke-linecap="round" stroke-linejoin="round" d="M369.55,164.65L354.35,177.55M369.55,164.65L354.35,151.8"/><path fill="none" stroke="#E0860C" stroke-width="10" stroke-linecap="round" stroke-linejoin="round" d="M246.7,83.45L257.75,83.45"/><path fill="none" stroke="#E0860C" stroke-width="10" stroke-linecap="round" stroke-linejoin="round" d="M290.1,92.45L280.1,87.75"/><path fill="none" stroke="#E0860C" stroke-width="10" stroke-linecap="round" stroke-linejoin="round" d="M215.7,92.45L225.7,87.75"/><path fill="none" stroke="#E0860C" stroke-width="10" stroke-linecap="round" stroke-linejoin="round" d="M318.15,132.7L321,143.4"/><path fill="none" stroke="#E0860C" stroke-width="10" stroke-linecap="round" stroke-linejoin="round" d="M304.3,107.15L310.95,116"/></g><animate attributeName="display" repeatCount="indefinite" dur="7.958s" keyTimes="0;0.796;0.812;1" values="none;inline;none;none"/></g><g style="display:none;"><g><path fill="none" stroke="#E0860C" stroke-width="10" stroke-linecap="round" stroke-linejoin="round" d="M326.85,165.1L337.9,165.1"/><path fill="none" stroke="#E0860C" stroke-width="10" stroke-linecap="round" stroke-linejoin="round" d="M369.55,164.65L354.35,177.55M369.55,164.65L354.35,151.8"/><path fill="none" stroke="#E0860C" stroke-width="10" stroke-linecap="round" stroke-linejoin="round" d="M246.7,83.45L257.75,83.45"/><path fill="none" stroke="#E0860C" stroke-width="10" stroke-linecap="round" stroke-linejoin="round" d="M290.1,92.45L280.1,87.75"/><path fill="none" stroke="#E0860C" stroke-width="10" stroke-linecap="round" stroke-linejoin="round" d="M215.7,92.45L225.7,87.75"/><path fill="none" stroke="#E0860C" stroke-width="10" stroke-linecap="round" stroke-linejoin="round" d="M201.5,107.15L194.85,116"/><path fill="none" stroke="#E0860C" stroke-width="10" stroke-linecap="round" stroke-linejoin="round" d="M318.15,132.7L321,143.4"/><path fill="none" stroke="#E0860C" stroke-width="10" stroke-linecap="round" stroke-linejoin="round" d="M304.3,107.15L310.95,116"/></g><animate attributeName="display" repeatCount="indefinite" dur="7.958s" keyTimes="0;0.78;0.796;1" values="none;inline;none;none"/></g><g style="display:none;"><g><path fill="none" stroke="#E0860C" stroke-width="10" stroke-linecap="round" stroke-linejoin="round" d="M326.85,165.1L337.9,165.1"/><path fill="none" stroke="#E0860C" stroke-width="10" stroke-linecap="round" stroke-linejoin="round" d="M369.55,164.65L354.35,177.55M369.55,164.65L354.35,151.8"/><path fill="none" stroke="#E0860C" stroke-width="10" stroke-linecap="round" stroke-linejoin="round" d="M246.7,83.45L257.75,83.45"/><path fill="none" stroke="#E0860C" stroke-width="10" stroke-linecap="round" stroke-linejoin="round" d="M290.1,92.45L280.1,87.75"/><path fill="none" stroke="#E0860C" stroke-width="10" stroke-linecap="round" stroke-linejoin="round" d="M215.7,92.45L225.7,87.75"/><path fill="none" stroke="#E0860C" stroke-width="10" stroke-linecap="round" stroke-linejoin="round" d="M201.5,107.15L194.85,116"/><path fill="none" stroke="#E0860C" stroke-width="10" stroke-linecap="round" stroke-linejoin="round" d="M187.65,132.7L184.8,143.4"/><path fill="none" stroke="#E0860C" stroke-width="10" stroke-linecap="round" stroke-linejoin="round" d="M318.15,132.7L321,143.4"/><path fill="none" stroke="#E0860C" stroke-width="10" stroke-linecap="round" stroke-linejoin="round" d="M304.3,107.15L310.95,116"/></g><animate attributeName="display" repeatCount="indefinite" dur="7.958s" keyTimes="0;0.764;0.78;1" values="none;inline;none;none"/></g><g style="display:none;"><g><path fill="none" stroke="#E0860C" stroke-width="10" stroke-linecap="round" stroke-linejoin="round" d="M326.85,165.1L337.9,165.1"/><path fill="none" stroke="#E0860C" stroke-width="10" stroke-linecap="round" stroke-linejoin="round" d="M369.55,164.65L354.35,177.55M369.55,164.65L354.35,151.8"/><path fill="none" stroke="#E0860C" stroke-width="10" stroke-linecap="round" stroke-linejoin="round" d="M246.7,83.45L257.75,83.45"/><path fill="none" stroke="#E0860C" stroke-width="10" stroke-linecap="round" stroke-linejoin="round" d="M290.1,92.45L280.1,87.75"/><path fill="none" stroke="#E0860C" stroke-width="10" stroke-linecap="round" stroke-linejoin="round" d="M215.7,92.45L225.7,87.75"/><path fill="none" stroke="#E0860C" stroke-width="10" stroke-linecap="round" stroke-linejoin="round" d="M201.5,107.15L194.85,116"/><path fill="none" stroke="#E0860C" stroke-width="10" stroke-linecap="round" stroke-linejoin="round" d="M187.65,132.7L184.8,143.4"/><path fill="none" stroke="#E0860C" stroke-width="10" stroke-linecap="round" stroke-linejoin="round" d="M166.7,161.9L177.75,161.9"/><path fill="none" stroke="#E0860C" stroke-width="10" stroke-linecap="round" stroke-linejoin="round" d="M318.15,132.7L321,143.4"/><path fill="none" stroke="#E0860C" stroke-width="10" stroke-linecap="round" stroke-linejoin="round" d="M304.3,107.15L310.95,116"/></g><animate attributeName="display" repeatCount="indefinite" dur="7.958s" keyTimes="0;0.749;0.764;1" values="none;inline;none;none"/></g><g style="display:none;"><g><path fill="none" stroke="#E0860C" stroke-width="10" stroke-linecap="round" stroke-linejoin="round" d="M326.85,165.1L337.9,165.1"/><path fill="none" stroke="#E0860C" stroke-width="10" stroke-linecap="round" stroke-linejoin="round" d="M369.55,164.65L354.35,177.55M369.55,164.65L354.35,151.8"/><path fill="none" stroke="#E0860C" stroke-width="10" stroke-linecap="round" stroke-linejoin="round" d="M246.7,83.45L257.75,83.45"/><path fill="none" stroke="#E0860C" stroke-width="10" stroke-linecap="round" stroke-linejoin="round" d="M290.1,92.45L280.1,87.75"/><path fill="none" stroke="#E0860C" stroke-width="10" stroke-linecap="round" stroke-linejoin="round" d="M215.7,92.45L225.7,87.75"/><path fill="none" stroke="#E0860C" stroke-width="10" stroke-linecap="round" stroke-linejoin="round" d="M201.5,107.15L194.85,116"/><path fill="none" stroke="#E0860C" stroke-width="10" stroke-linecap="round" stroke-linejoin="round" d="M187.65,132.7L184.8,143.4"/><path fill="none" stroke="#E0860C" stroke-width="10" stroke-linecap="round" stroke-linejoin="round" d="M166.7,161.9L177.75,161.9"/><path fill="none" stroke="#E0860C" stroke-width="10" stroke-linecap="round" stroke-linejoin="round" d="M318.15,132.7L321,143.4"/><path fill="none" stroke="#E0860C" stroke-width="10" stroke-linecap="round" stroke-linejoin="round" d="M304.3,107.15L310.95,116"/><path fill="none" stroke="#E0860C" stroke-width="10" stroke-linecap="round" stroke-linejoin="round" d="M137.5,161.9L148.55,161.9"/></g><animate attributeName="display" repeatCount="indefinite" dur="7.958s" keyTimes="0;0.597;0.749;1" values="none;inline;none;none"/></g><g style="display:none;"><g><path fill="none" stroke="#E0860C" stroke-width="10" stroke-linecap="round" stroke-linejoin="round" d="M326.85,165.1L337.9,165.1"/><path fill="none" stroke="#E0860C" stroke-width="10" stroke-linecap="round" stroke-linejoin="round" d="M246.7,83.45L257.75,83.45"/><path fill="none" stroke="#E0860C" stroke-width="10" stroke-linecap="round" stroke-linejoin="round" d="M290.1,92.45L280.1,87.75"/><path fill="none" stroke="#E0860C" stroke-width="10" stroke-linecap="round" stroke-linejoin="round" d="M215.7,92.45L225.7,87.75"/><path fill="none" stroke="#E0860C" stroke-width="10" stroke-linecap="round" stroke-linejoin="round" d="M201.5,107.15L194.85,116"/><path fill="none" stroke="#E0860C" stroke-width="10" stroke-linecap="round" stroke-linejoin="round" d="M187.65,132.7L184.8,143.4"/><path fill="none" stroke="#E0860C" stroke-width="10" stroke-linecap="round" stroke-linejoin="round" d="M166.7,161.9L177.75,161.9"/><path fill="none" stroke="#E0860C" stroke-width="10" stroke-linecap="round" stroke-linejoin="round" d="M318.15,132.7L321,143.4"/><path fill="none" stroke="#E0860C" stroke-width="10" stroke-linecap="round" stroke-linejoin="round" d="M304.3,107.15L310.95,116"/><path fill="none" stroke="#E0860C" stroke-width="10" stroke-linecap="round" stroke-linejoin="round" d="M137.5,161.9L148.55,161.9"/></g><animate attributeName="display" repeatCount="indefinite" dur="7.958s" keyTimes="0;0.581;0.597;1" values="none;inline;none;none"/></g><g style="display:none;"><g><path fill="none" stroke="#E0860C" stroke-width="10" stroke-linecap="round" stroke-linejoin="round" d="M246.7,83.45L257.75,83.45"/><path fill="none" stroke="#E0860C" stroke-width="10" stroke-linecap="round" stroke-linejoin="round" d="M290.1,92.45L280.1,87.75"/><path fill="none" stroke="#E0860C" stroke-width="10" stroke-linecap="round" stroke-linejoin="round" d="M215.7,92.45L225.7,87.75"/><path fill="none" stroke="#E0860C" stroke-width="10" stroke-linecap="round" stroke-linejoin="round" d="M201.5,107.15L194.85,116"/><path fill="none" stroke="#E0860C" stroke-width="10" stroke-linecap="round" stroke-linejoin="round" d="M187.65,132.7L184.8,143.4"/><path fill="none" stroke="#E0860C" stroke-width="10" stroke-linecap="round" stroke-linejoin="round" d="M166.7,161.9L177.75,161.9"/><path fill="none" stroke="#E0860C" stroke-width="10" stroke-linecap="round" stroke-linejoin="round" d="M318.15,132.7L321,143.4"/><path fill="none" stroke="#E0860C" stroke-width="10" stroke-linecap="round" stroke-linejoin="round" d="M304.3,107.15L310.95,116"/><path fill="none" stroke="#E0860C" stroke-width="10" stroke-linecap="round" stroke-linejoin="round" d="M137.5,161.9L148.55,161.9"/></g><animate attributeName="display" repeatCount="indefinite" dur="7.958s" keyTimes="0;0.565;0.581;1" values="none;inline;none;none"/></g><g style="display:none;"><g><path fill="none" stroke="#E0860C" stroke-width="10" stroke-linecap="round" stroke-linejoin="round" d="M246.7,83.45L257.75,83.45"/><path fill="none" stroke="#E0860C" stroke-width="10" stroke-linecap="round" stroke-linejoin="round" d="M290.1,92.45L280.1,87.75"/><path fill="none" stroke="#E0860C" stroke-width="10" stroke-linecap="round" stroke-linejoin="round" d="M215.7,92.45L225.7,87.75"/><path fill="none" stroke="#E0860C" stroke-width="10" stroke-linecap="round" stroke-linejoin="round" d="M201.5,107.15L194.85,116"/><path fill="none" stroke="#E0860C" stroke-width="10" stroke-linecap="round" stroke-linejoin="round" d="M187.65,132.7L184.8,143.4"/><path fill="none" stroke="#E0860C" stroke-width="10" stroke-linecap="round" stroke-linejoin="round" d="M166.7,161.9L177.75,161.9"/><path fill="none" stroke="#E0860C" stroke-width="10" stroke-linecap="round" stroke-linejoin="round" d="M304.3,107.15L310.95,116"/><path fill="none" stroke="#E0860C" stroke-width="10" stroke-linecap="round" stroke-linejoin="round" d="M137.5,161.9L148.55,161.9"/></g><animate attributeName="display" repeatCount="indefinite" dur="7.958s" keyTimes="0;0.55;0.565;1" values="none;inline;none;none"/></g><g style="display:none;"><g><path fill="none" stroke="#E0860C" stroke-width="10" stroke-linecap="round" stroke-linejoin="round" d="M246.7,83.45L257.75,83.45"/><path fill="none" stroke="#E0860C" stroke-width="10" stroke-linecap="round" stroke-linejoin="round" d="M290.1,92.45L280.1,87.75"/><path fill="none" stroke="#E0860C" stroke-width="10" stroke-linecap="round" stroke-linejoin="round" d="M215.7,92.45L225.7,87.75"/><path fill="none" stroke="#E0860C" stroke-width="10" stroke-linecap="round" stroke-linejoin="round" d="M201.5,107.15L194.85,116"/><path fill="none" stroke="#E0860C" stroke-width="10" stroke-linecap="round" stroke-linejoin="round" d="M187.65,132.7L184.8,143.4"/><path fill="none" stroke="#E0860C" stroke-width="10" stroke-linecap="round" stroke-linejoin="round" d="M166.7,161.9L177.75,161.9"/><path fill="none" stroke="#E0860C" stroke-width="10" stroke-linecap="round" stroke-linejoin="round" d="M137.5,161.9L148.55,161.9"/></g><animate attributeName="display" repeatCount="indefinite" dur="7.958s" keyTimes="0;0.534;0.55;1" values="none;inline;none;none"/></g><g style="display:none;"><g><path fill="none" stroke="#E0860C" stroke-width="10" stroke-linecap="round" stroke-linejoin="round" d="M246.7,83.45L257.75,83.45"/><path fill="none" stroke="#E0860C" stroke-width="10" stroke-linecap="round" stroke-linejoin="round" d="M215.7,92.45L225.7,87.75"/><path fill="none" stroke="#E0860C" stroke-width="10" stroke-linecap="round" stroke-linejoin="round" d="M201.5,107.15L194.85,116"/><path fill="none" stroke="#E0860C" stroke-width="10" stroke-linecap="round" stroke-linejoin="round" d="M187.65,132.7L184.8,143.4"/><path fill="none" stroke="#E0860C" stroke-width="10" stroke-linecap="round" stroke-linejoin="round" d="M166.7,161.9L177.75,161.9"/><path fill="none" stroke="#E0860C" stroke-width="10" stroke-linecap="round" stroke-linejoin="round" d="M137.5,161.9L148.55,161.9"/></g><animate attributeName="display" repeatCount="indefinite" dur="7.958s" keyTimes="0;0.518;0.534;1" values="none;inline;none;none"/></g><g style="display:none;"><g><path fill="none" stroke="#E0860C" stroke-width="10" stroke-linecap="round" stroke-linejoin="round" d="M215.7,92.45L225.7,87.75"/><path fill="none" stroke="#E0860C" stroke-width="10" stroke-linecap="round" stroke-linejoin="round" d="M201.5,107.15L194.85,116"/><path fill="none" stroke="#E0860C" stroke-width="10" stroke-linecap="round" stroke-linejoin="round" d="M187.65,132.7L184.8,143.4"/><path fill="none" stroke="#E0860C" stroke-width="10" stroke-linecap="round" stroke-linejoin="round" d="M166.7,161.9L177.75,161.9"/><path fill="none" stroke="#E0860C" stroke-width="10" stroke-linecap="round" stroke-linejoin="round" d="M137.5,161.9L148.55,161.9"/></g><animate attributeName="display" repeatCount="indefinite" dur="7.958s" keyTimes="0;0.503;0.518;1" values="none;inline;none;none"/></g><g style="display:none;"><g><path fill="none" stroke="#E0860C" stroke-width="10" stroke-linecap="round" stroke-linejoin="round" d="M201.5,107.15L194.85,116"/><path fill="none" stroke="#E0860C" stroke-width="10" stroke-linecap="round" stroke-linejoin="round" d="M187.65,132.7L184.8,143.4"/><path fill="none" stroke="#E0860C" stroke-width="10" stroke-linecap="round" stroke-linejoin="round" d="M166.7,161.9L177.75,161.9"/><path fill="none" stroke="#E0860C" stroke-width="10" stroke-linecap="round" stroke-linejoin="round" d="M137.5,161.9L148.55,161.9"/></g><animate attributeName="display" repeatCount="indefinite" dur="7.958s" keyTimes="0;0.487;0.503;1" values="none;inline;none;none"/></g><g style="display:none;"><g><path fill="none" stroke="#E0860C" stroke-width="10" stroke-linecap="round" stroke-linejoin="round" d="M187.65,132.7L184.8,143.4"/><path fill="none" stroke="#E0860C" stroke-width="10" stroke-linecap="round" stroke-linejoin="round" d="M166.7,161.9L177.75,161.9"/><path fill="none" stroke="#E0860C" stroke-width="10" stroke-linecap="round" stroke-linejoin="round" d="M137.5,161.9L148.55,161.9"/></g><animate attributeName="display" repeatCount="indefinite" dur="7.958s" keyTimes="0;0.471;0.487;1" values="none;inline;none;none"/></g><g style="display:none;"><g><path fill="none" stroke="#E0860C" stroke-width="10" stroke-linecap="round" stroke-linejoin="round" d="M166.7,161.9L177.75,161.9"/><path fill="none" stroke="#E0860C" stroke-width="10" stroke-linecap="round" stroke-linejoin="round" d="M137.5,161.9L148.55,161.9"/></g><animate attributeName="display" repeatCount="indefinite" dur="7.958s" keyTimes="0;0.455;0.471;1" values="none;inline;none;none"/></g><g style="display:none;"><path fill="none" stroke="#E0860C" stroke-width="10" stroke-linecap="round" stroke-linejoin="round" d="M137.5,161.9L148.55,161.9"/><animate attributeName="display" repeatCount="indefinite" dur="7.958s" keyTimes="0;0.44;0.455;1" values="none;inline;none;none"/></g><g style="display:none;"><path fill="none" stroke="#EC1C24" stroke-width="10" stroke-linecap="round" stroke-linejoin="round" d="M253.901,62.101L253.901,81.951"/><path fill="none" stroke="#EC1C24" stroke-width="10" stroke-linecap="round" stroke-linejoin="round" d="M301.385,79.976L287.349,94.012"/><path fill="none" stroke="#EC1C24" stroke-width="10" stroke-linecap="round" stroke-linejoin="round" d="M206.376,79.915L220.412,93.951"/><animate attributeName="display" repeatCount="indefinite" dur="7.958s" keyTimes="0;0.052;0.105;0.173;0.22;0.288;0.346;1" values="none;inline;none;inline;none;inline;none;none"/></g></g></svg>