<?xml version="1.0" encoding="utf-8"?><svg xmlns:xlink="http://www.w3.org/1999/xlink" id="escena_dientes_candado" image-rendering="auto" baseProfile="basic" version="1.1" x="0px" y="0px" width="547" height="308" xmlns="http://www.w3.org/2000/svg"><g id="Scene_1" overflow="visible"><path fill="#80CEEF" d="M546.951,14.879Q546.951,-0.012 528.075,-0.012L18.855,-0.012Q-0.021,-0.012 -0.021,14.879L-0.021,292.766Q-0.021,307.656 18.855,307.656L528.075,307.656Q546.951,307.656 546.951,292.766L546.951,14.879"/><g><path fill="#FFF" d="M477.625,99.875L423.025,99.875Q418.223,99.883 413.8,101.1 409.377,102.341 405.5,104.625 401.62,106.899 398.45,110.05 395.299,113.219 393.025,117.1 390.741,120.977 389.5,125.4 388.283,129.822 388.275,134.625L388.275,150.25Q388.265,151.141 388.3,152.1 388.352,153.06 388.45,154.075 388.541,155.075 388.675,156.125L389,158.3 389.4,160.525 389.875,162.8 390.425,165.125 391.025,167.475 391.725,169.825 392.475,172.175 393.275,174.5 394.15,176.775Q394.725,178.222 395.325,179.575 395.929,180.919 396.55,182.15 397.164,183.381 397.8,184.525 398.444,185.676 399.1,186.725 399.754,187.777 400.425,188.75 401.095,189.71 401.775,190.575L401.775,213.4Q401.775,214.786 401.95,216.125 402.139,217.47 402.5,218.75 402.847,220.023 403.35,221.225 403.864,222.431 404.525,223.55 405.846,225.795 407.675,227.625 409.506,229.454 411.75,230.775 412.856,231.424 414.05,231.925 415.265,232.44 416.55,232.8 417.83,233.149 419.175,233.325 420.515,233.513 421.9,233.525 423.286,233.513 424.625,233.325 425.971,233.149 427.25,232.8 428.523,232.44 429.725,231.925 430.931,231.424 432.05,230.775 434.293,229.454 436.125,227.625 437.955,225.795 439.275,223.55 439.936,222.431 440.45,221.225 440.953,220.023 441.3,218.75 441.663,217.47 441.85,216.125 442.026,214.786 442.025,213.4L442.05,201.95 442.1,201.9Q442.102,201.34 442.175,200.8 442.252,200.249 442.4,199.725 442.543,199.198 442.75,198.7 442.957,198.207 443.225,197.75 443.498,197.293 443.825,196.875 444.138,196.464 444.5,196.1 444.877,195.725 445.3,195.4 445.718,195.073 446.175,194.8 446.632,194.532 447.125,194.325 447.622,194.118 448.15,193.975 448.662,193.826 449.2,193.75 449.753,193.676 450.325,193.675 450.897,193.676 451.45,193.75 452,193.826 452.525,193.975 453.039,194.118 453.525,194.325 454.019,194.532 454.475,194.8 454.931,195.073 455.35,195.4 455.772,195.725 456.15,196.1 456.525,196.464 456.85,196.875 457.164,197.293 457.425,197.75 457.693,198.207 457.9,198.7 458.107,199.198 458.25,199.725 458.398,200.249 458.475,200.8 458.55,201.337 458.575,201.925L458.625,201.95 458.625,213.4Q458.637,214.786 458.825,216.125 459.001,217.47 459.35,218.75 459.711,220.023 460.225,221.225 460.726,222.431 461.375,223.55 462.696,225.795 464.525,227.625 466.356,229.454 468.6,230.775 469.718,231.424 470.925,231.925 472.138,232.44 473.425,232.8 474.692,233.149 476.025,233.325 477.376,233.513 478.775,233.525 480.16,233.513 481.5,233.325 482.846,233.149 484.125,232.8 485.398,232.44 486.6,231.925 487.806,231.424 488.925,230.775 491.17,229.454 493,227.625 494.829,225.795 496.15,223.55 496.798,222.431 497.3,221.225 497.815,220.023 498.175,218.75 498.524,217.47 498.7,216.125 498.888,214.786 498.9,213.4L498.9,190.575Q499.58,189.709 500.25,188.75 500.909,187.777 501.55,186.725 502.207,185.677 502.85,184.525 503.499,183.381 504.125,182.15 504.734,180.919 505.325,179.575 505.925,178.222 506.5,176.775L507.375,174.5Q507.791,173.344 508.175,172.175L508.95,169.825 509.625,167.475 510.25,165.125 510.8,162.8 511.275,160.525 511.675,158.3 511.975,156.125Q512.109,155.074 512.2,154.075 512.298,153.06 512.35,152.1 512.399,151.141 512.4,150.25L512.4,134.625Q512.4,132.831 512.225,131.075 512.048,129.318 511.7,127.625 511.342,125.934 510.825,124.3 510.314,122.672 509.65,121.125 508.996,119.562 508.2,118.075 507.391,116.59 506.45,115.2 504.566,112.419 502.2,110.05 499.831,107.684 497.05,105.8 495.672,104.871 494.2,104.075 492.713,103.265 491.15,102.6 489.59,101.937 487.95,101.425 486.316,100.92 484.625,100.575 482.932,100.227 481.175,100.05 479.42,99.876 477.625,99.875"/><g><g><path fill="none" stroke="#F59120" stroke-width="8.69" stroke-linecap="round" stroke-linejoin="round" d="M86.6,123.675L110.9,123.675"/><path fill="none" stroke="#F59120" stroke-width="8.69" stroke-linecap="round" stroke-linejoin="round" d="M86.6,111.325L110.9,111.325"/><path fill="none" stroke="#F59120" stroke-width="8.69" stroke-linecap="round" stroke-linejoin="round" d="M86.6,99L110.9,99"/><path fill="none" stroke="#F59120" stroke-width="8.69" stroke-linecap="round" stroke-linejoin="round" d="M86.6,86.65L110.9,86.65"/></g><path fill="none" stroke="#1B75BA" stroke-width="8.69" stroke-linecap="round" stroke-linejoin="round" d="M77.1,107.4L77.1,165.875"/><path fill="none" stroke="#1B75BA" stroke-width="29.65" stroke-linecap="round" stroke-linejoin="round" d="M77.1,171.125L77.1,227.675"/><path fill="#1B75BA" stroke="#1B75BA" stroke-width="9.6" stroke-linecap="round" stroke-linejoin="round" d="M91.45,124L91.45,86.3Q91.45,78.55 83.7,78.55L70.5,78.55Q62.75,78.55 62.75,86.3L62.75,124Q62.75,131.75 70.5,131.75L83.7,131.75Q91.45,131.75 91.45,124"/><g><path fill="none" stroke="#221F1F" stroke-width="5.3" stroke-linecap="round" stroke-linejoin="round" d="M70.1,101.95L70.1,106.55"/><path fill="none" stroke="#221F1F" stroke-width="5.3" stroke-linecap="round" stroke-linejoin="round" d="M84.075,101.95L84.075,106.55"/></g><path fill="none" stroke="#221F1F" stroke-width="3.05" stroke-linecap="round" stroke-linejoin="round" d="M73.85,119.125Q72.548,117.817 72.5,115.85M73.85,119.125Q75.158,120.426 77.125,120.475 78.076,120.462 78.9,120.1 79.738,119.751 80.375,119.125 81.013,118.488 81.375,117.65 81.725,116.814 81.725,115.85"/><path fill="none" stroke="#F59120" stroke-width="8.69" stroke-linecap="round" stroke-linejoin="round" d="M77.1,214.475L77.1,227.675"/></g></g><g><g id="parte_candado_1" transform="matrix(0.885 0.003 -0.003 0.835 210.85 111.55)"><g id="parte candado 1_0.0"><path fill="none" stroke="#6D6F70" stroke-width="14.75" stroke-linecap="round" stroke-linejoin="round" d="M75.7,28.3Q77.06,33.199 77.075,38.525L77.075,89.7M75.7,28.3Q74.331,23.382 71.8,19.075 69.277,14.778 65.775,11.275 62.272,7.773 57.975,5.25 53.68,2.731 48.775,1.375 43.864,0.014 38.525,0 33.199,0.014 28.3,1.375 23.382,2.731 19.075,5.25 14.778,7.773 11.275,11.275 7.773,14.778 5.25,19.075 2.731,23.382 1.375,28.3 0.014,33.199 0,38.525L0,93.425"/></g></g><g><path fill="#6D6F70" d="M290.216,161.93L199.35,161.93 199.328,161.95 199.328,194.737Q199.344,200.616 200.941,206.026 202.546,211.436 205.517,216.175 208.504,220.902 212.642,224.759 216.773,228.61 221.838,231.389 226.905,234.161 232.689,235.661 238.485,237.16 244.783,237.186 251.08,237.16 256.876,235.661 262.661,234.161 267.728,231.389 272.804,228.61 276.945,224.759 281.073,220.902 284.049,216.175 287.02,211.436 288.625,206.026 290.233,200.616 290.259,194.737L290.259,161.95 290.216,161.93"/><path fill="#6D6F70" stroke-width="7.95" stroke-linecap="round" stroke-linejoin="round" d="M290.216,194.737L290.216,161.95 199.35,161.95 199.35,194.737Q199.363,200.617 200.962,206.026 202.576,211.427 205.56,216.155 208.535,220.884 212.664,224.738 216.793,228.592 221.859,231.369 226.925,234.144 232.711,235.64 238.495,237.144 244.783,237.166 251.071,237.144 256.855,235.64 262.652,234.144 267.728,231.369 272.794,228.592 276.924,224.738 281.052,220.884 284.027,216.155 287,211.427 288.603,206.026 290.203,200.617 290.216,194.737"/><path fill="none" stroke="#6D6F70" stroke-width="7.95" stroke-linecap="round" stroke-linejoin="round" d="M290.216,194.737L290.216,161.95 199.35,161.95 199.35,194.737Q199.363,200.617 200.962,206.026 202.576,211.427 205.56,216.155 208.535,220.884 212.664,224.738 216.793,228.592 221.859,231.369 226.925,234.144 232.711,235.64 238.495,237.144 244.783,237.166 251.071,237.144 256.855,235.64 262.652,234.144 267.728,231.369 272.794,228.592 276.924,224.738 281.052,220.884 284.027,216.155 287,211.427 288.603,206.026 290.203,200.617 290.216,194.737"/></g><path fill="#221F1F" d="M255.926,189.933Q255.926,185.621 252.658,182.57 249.433,179.559 244.813,179.559 240.194,179.559 236.925,182.57 233.7,185.621 233.7,189.933 233.7,194.245 236.925,197.255 240.194,200.306 244.813,200.306 249.433,200.306 252.658,197.255 255.926,194.245 255.926,189.933"/><path fill="none" stroke="#221F1F" stroke-width="11.9" stroke-linecap="round" stroke-linejoin="round" d="M244.747,191.439L244.747,211.819"/></g><g style="display:none;"><path fill="none" stroke="#12678B" stroke-width="10" stroke-linecap="round" stroke-linejoin="round" d="M363.15,164.65L347.95,177.55M363.15,164.65L347.95,151.8"/><animate attributeName="display" repeatCount="indefinite" dur="7.958s" keyTimes="0;0.89;0.906;1" values="none;inline;none;none"/></g><g style="display:none;"><g><path fill="none" stroke="#12678B" stroke-width="10" stroke-linecap="round" stroke-linejoin="round" d="M363.15,164.65L347.95,177.55M363.15,164.65L347.95,151.8"/><path fill="none" stroke="#12678B" stroke-width="10" stroke-linecap="round" stroke-linejoin="round" d="M320.45,165.1L331.5,165.1"/></g><animate attributeName="display" repeatCount="indefinite" dur="7.958s" keyTimes="0;0.874;0.89;1" values="none;inline;none;none"/></g><g style="display:none;"><g><path fill="none" stroke="#12678B" stroke-width="10" stroke-linecap="round" stroke-linejoin="round" d="M363.15,164.65L347.95,177.55M363.15,164.65L347.95,151.8"/><path fill="none" stroke="#12678B" stroke-width="10" stroke-linecap="round" stroke-linejoin="round" d="M311.75,132.7L314.6,143.4"/><path fill="none" stroke="#12678B" stroke-width="10" stroke-linecap="round" stroke-linejoin="round" d="M320.45,165.1L331.5,165.1"/></g><animate attributeName="display" repeatCount="indefinite" dur="7.958s" keyTimes="0;0.859;0.874;1" values="none;inline;none;none"/></g><g style="display:none;"><g><path fill="none" stroke="#12678B" stroke-width="10" stroke-linecap="round" stroke-linejoin="round" d="M363.15,164.65L347.95,177.55M363.15,164.65L347.95,151.8"/><path fill="none" stroke="#12678B" stroke-width="10" stroke-linecap="round" stroke-linejoin="round" d="M297.9,107.15L304.55,116"/><path fill="none" stroke="#12678B" stroke-width="10" stroke-linecap="round" stroke-linejoin="round" d="M311.75,132.7L314.6,143.4"/><path fill="none" stroke="#12678B" stroke-width="10" stroke-linecap="round" stroke-linejoin="round" d="M320.45,165.1L331.5,165.1"/></g><animate attributeName="display" repeatCount="indefinite" dur="7.958s" keyTimes="0;0.843;0.859;1" values="none;inline;none;none"/></g><g style="display:none;"><g><path fill="none" stroke="#12678B" stroke-width="10" stroke-linecap="round" stroke-linejoin="round" d="M363.15,164.65L347.95,177.55M363.15,164.65L347.95,151.8"/><path fill="none" stroke="#12678B" stroke-width="10" stroke-linecap="round" stroke-linejoin="round" d="M283.7,92.45L273.7,87.75"/><path fill="none" stroke="#12678B" stroke-width="10" stroke-linecap="round" stroke-linejoin="round" d="M297.9,107.15L304.55,116"/><path fill="none" stroke="#12678B" stroke-width="10" stroke-linecap="round" stroke-linejoin="round" d="M311.75,132.7L314.6,143.4"/><path fill="none" stroke="#12678B" stroke-width="10" stroke-linecap="round" stroke-linejoin="round" d="M320.45,165.1L331.5,165.1"/></g><animate attributeName="display" repeatCount="indefinite" dur="7.958s" keyTimes="0;0.827;0.843;1" values="none;inline;none;none"/></g><g style="display:none;"><g><path fill="none" stroke="#12678B" stroke-width="10" stroke-linecap="round" stroke-linejoin="round" d="M363.15,164.65L347.95,177.55M363.15,164.65L347.95,151.8"/><path fill="none" stroke="#12678B" stroke-width="10" stroke-linecap="round" stroke-linejoin="round" d="M283.7,92.45L273.7,87.75"/><path fill="none" stroke="#12678B" stroke-width="10" stroke-linecap="round" stroke-linejoin="round" d="M297.9,107.15L304.55,116"/><path fill="none" stroke="#12678B" stroke-width="10" stroke-linecap="round" stroke-linejoin="round" d="M311.75,132.7L314.6,143.4"/><path fill="none" stroke="#12678B" stroke-width="10" stroke-linecap="round" stroke-linejoin="round" d="M240.3,83.45L251.35,83.45"/><path fill="none" stroke="#12678B" stroke-width="10" stroke-linecap="round" stroke-linejoin="round" d="M320.45,165.1L331.5,165.1"/></g><animate attributeName="display" repeatCount="indefinite" dur="7.958s" keyTimes="0;0.812;0.827;1" values="none;inline;none;none"/></g><g style="display:none;"><g><path fill="none" stroke="#12678B" stroke-width="10" stroke-linecap="round" stroke-linejoin="round" d="M363.15,164.65L347.95,177.55M363.15,164.65L347.95,151.8"/><path fill="none" stroke="#12678B" stroke-width="10" stroke-linecap="round" stroke-linejoin="round" d="M283.7,92.45L273.7,87.75"/><path fill="none" stroke="#12678B" stroke-width="10" stroke-linecap="round" stroke-linejoin="round" d="M209.3,92.45L219.3,87.75"/><path fill="none" stroke="#12678B" stroke-width="10" stroke-linecap="round" stroke-linejoin="round" d="M297.9,107.15L304.55,116"/><path fill="none" stroke="#12678B" stroke-width="10" stroke-linecap="round" stroke-linejoin="round" d="M311.75,132.7L314.6,143.4"/><path fill="none" stroke="#12678B" stroke-width="10" stroke-linecap="round" stroke-linejoin="round" d="M240.3,83.45L251.35,83.45"/><path fill="none" stroke="#12678B" stroke-width="10" stroke-linecap="round" stroke-linejoin="round" d="M320.45,165.1L331.5,165.1"/></g><animate attributeName="display" repeatCount="indefinite" dur="7.958s" keyTimes="0;0.796;0.812;1" values="none;inline;none;none"/></g><g style="display:none;"><g><path fill="none" stroke="#12678B" stroke-width="10" stroke-linecap="round" stroke-linejoin="round" d="M363.15,164.65L347.95,177.55M363.15,164.65L347.95,151.8"/><path fill="none" stroke="#12678B" stroke-width="10" stroke-linecap="round" stroke-linejoin="round" d="M283.7,92.45L273.7,87.75"/><path fill="none" stroke="#12678B" stroke-width="10" stroke-linecap="round" stroke-linejoin="round" d="M209.3,92.45L219.3,87.75"/><path fill="none" stroke="#12678B" stroke-width="10" stroke-linecap="round" stroke-linejoin="round" d="M195.1,107.15L188.45,116"/><path fill="none" stroke="#12678B" stroke-width="10" stroke-linecap="round" stroke-linejoin="round" d="M297.9,107.15L304.55,116"/><path fill="none" stroke="#12678B" stroke-width="10" stroke-linecap="round" stroke-linejoin="round" d="M311.75,132.7L314.6,143.4"/><path fill="none" stroke="#12678B" stroke-width="10" stroke-linecap="round" stroke-linejoin="round" d="M240.3,83.45L251.35,83.45"/><path fill="none" stroke="#12678B" stroke-width="10" stroke-linecap="round" stroke-linejoin="round" d="M320.45,165.1L331.5,165.1"/></g><animate attributeName="display" repeatCount="indefinite" dur="7.958s" keyTimes="0;0.78;0.796;1" values="none;inline;none;none"/></g><g style="display:none;"><g><path fill="none" stroke="#12678B" stroke-width="10" stroke-linecap="round" stroke-linejoin="round" d="M363.15,164.65L347.95,177.55M363.15,164.65L347.95,151.8"/><path fill="none" stroke="#12678B" stroke-width="10" stroke-linecap="round" stroke-linejoin="round" d="M283.7,92.45L273.7,87.75"/><path fill="none" stroke="#12678B" stroke-width="10" stroke-linecap="round" stroke-linejoin="round" d="M209.3,92.45L219.3,87.75"/><path fill="none" stroke="#12678B" stroke-width="10" stroke-linecap="round" stroke-linejoin="round" d="M195.1,107.15L188.45,116"/><path fill="none" stroke="#12678B" stroke-width="10" stroke-linecap="round" stroke-linejoin="round" d="M181.25,132.7L178.4,143.4"/><path fill="none" stroke="#12678B" stroke-width="10" stroke-linecap="round" stroke-linejoin="round" d="M297.9,107.15L304.55,116"/><path fill="none" stroke="#12678B" stroke-width="10" stroke-linecap="round" stroke-linejoin="round" d="M311.75,132.7L314.6,143.4"/><path fill="none" stroke="#12678B" stroke-width="10" stroke-linecap="round" stroke-linejoin="round" d="M240.3,83.45L251.35,83.45"/><path fill="none" stroke="#12678B" stroke-width="10" stroke-linecap="round" stroke-linejoin="round" d="M320.45,165.1L331.5,165.1"/></g><animate attributeName="display" repeatCount="indefinite" dur="7.958s" keyTimes="0;0.764;0.78;1" values="none;inline;none;none"/></g><g style="display:none;"><g><path fill="none" stroke="#12678B" stroke-width="10" stroke-linecap="round" stroke-linejoin="round" d="M363.15,164.65L347.95,177.55M363.15,164.65L347.95,151.8"/><path fill="none" stroke="#12678B" stroke-width="10" stroke-linecap="round" stroke-linejoin="round" d="M283.7,92.45L273.7,87.75"/><path fill="none" stroke="#12678B" stroke-width="10" stroke-linecap="round" stroke-linejoin="round" d="M209.3,92.45L219.3,87.75"/><path fill="none" stroke="#12678B" stroke-width="10" stroke-linecap="round" stroke-linejoin="round" d="M195.1,107.15L188.45,116"/><path fill="none" stroke="#12678B" stroke-width="10" stroke-linecap="round" stroke-linejoin="round" d="M181.25,132.7L178.4,143.4"/><path fill="none" stroke="#12678B" stroke-width="10" stroke-linecap="round" stroke-linejoin="round" d="M297.9,107.15L304.55,116"/><path fill="none" stroke="#12678B" stroke-width="10" stroke-linecap="round" stroke-linejoin="round" d="M311.75,132.7L314.6,143.4"/><path fill="none" stroke="#12678B" stroke-width="10" stroke-linecap="round" stroke-linejoin="round" d="M240.3,83.45L251.35,83.45"/><path fill="none" stroke="#12678B" stroke-width="10" stroke-linecap="round" stroke-linejoin="round" d="M160.3,161.9L171.35,161.9"/><path fill="none" stroke="#12678B" stroke-width="10" stroke-linecap="round" stroke-linejoin="round" d="M320.45,165.1L331.5,165.1"/></g><animate attributeName="display" repeatCount="indefinite" dur="7.958s" keyTimes="0;0.749;0.764;1" values="none;inline;none;none"/></g><g style="display:none;"><g><path fill="none" stroke="#12678B" stroke-width="10" stroke-linecap="round" stroke-linejoin="round" d="M363.15,164.65L347.95,177.55M363.15,164.65L347.95,151.8"/><path fill="none" stroke="#12678B" stroke-width="10" stroke-linecap="round" stroke-linejoin="round" d="M283.7,92.45L273.7,87.75"/><path fill="none" stroke="#12678B" stroke-width="10" stroke-linecap="round" stroke-linejoin="round" d="M209.3,92.45L219.3,87.75"/><path fill="none" stroke="#12678B" stroke-width="10" stroke-linecap="round" stroke-linejoin="round" d="M195.1,107.15L188.45,116"/><path fill="none" stroke="#12678B" stroke-width="10" stroke-linecap="round" stroke-linejoin="round" d="M181.25,132.7L178.4,143.4"/><path fill="none" stroke="#12678B" stroke-width="10" stroke-linecap="round" stroke-linejoin="round" d="M297.9,107.15L304.55,116"/><path fill="none" stroke="#12678B" stroke-width="10" stroke-linecap="round" stroke-linejoin="round" d="M311.75,132.7L314.6,143.4"/><path fill="none" stroke="#12678B" stroke-width="10" stroke-linecap="round" stroke-linejoin="round" d="M240.3,83.45L251.35,83.45"/><path fill="none" stroke="#12678B" stroke-width="10" stroke-linecap="round" stroke-linejoin="round" d="M131.1,161.9L142.15,161.9"/><path fill="none" stroke="#12678B" stroke-width="10" stroke-linecap="round" stroke-linejoin="round" d="M160.3,161.9L171.35,161.9"/><path fill="none" stroke="#12678B" stroke-width="10" stroke-linecap="round" stroke-linejoin="round" d="M320.45,165.1L331.5,165.1"/></g><animate attributeName="display" repeatCount="indefinite" dur="7.958s" keyTimes="0;0.597;0.749;1" values="none;inline;none;none"/></g><g style="display:none;"><g><path fill="none" stroke="#12678B" stroke-width="10" stroke-linecap="round" stroke-linejoin="round" d="M283.7,92.45L273.7,87.75"/><path fill="none" stroke="#12678B" stroke-width="10" stroke-linecap="round" stroke-linejoin="round" d="M209.3,92.45L219.3,87.75"/><path fill="none" stroke="#12678B" stroke-width="10" stroke-linecap="round" stroke-linejoin="round" d="M195.1,107.15L188.45,116"/><path fill="none" stroke="#12678B" stroke-width="10" stroke-linecap="round" stroke-linejoin="round" d="M181.25,132.7L178.4,143.4"/><path fill="none" stroke="#12678B" stroke-width="10" stroke-linecap="round" stroke-linejoin="round" d="M297.9,107.15L304.55,116"/><path fill="none" stroke="#12678B" stroke-width="10" stroke-linecap="round" stroke-linejoin="round" d="M311.75,132.7L314.6,143.4"/><path fill="none" stroke="#12678B" stroke-width="10" stroke-linecap="round" stroke-linejoin="round" d="M240.3,83.45L251.35,83.45"/><path fill="none" stroke="#12678B" stroke-width="10" stroke-linecap="round" stroke-linejoin="round" d="M131.1,161.9L142.15,161.9"/><path fill="none" stroke="#12678B" stroke-width="10" stroke-linecap="round" stroke-linejoin="round" d="M160.3,161.9L171.35,161.9"/><path fill="none" stroke="#12678B" stroke-width="10" stroke-linecap="round" stroke-linejoin="round" d="M320.45,165.1L331.5,165.1"/></g><animate attributeName="display" repeatCount="indefinite" dur="7.958s" keyTimes="0;0.581;0.597;1" values="none;inline;none;none"/></g><g style="display:none;"><g><path fill="none" stroke="#12678B" stroke-width="10" stroke-linecap="round" stroke-linejoin="round" d="M283.7,92.45L273.7,87.75"/><path fill="none" stroke="#12678B" stroke-width="10" stroke-linecap="round" stroke-linejoin="round" d="M209.3,92.45L219.3,87.75"/><path fill="none" stroke="#12678B" stroke-width="10" stroke-linecap="round" stroke-linejoin="round" d="M195.1,107.15L188.45,116"/><path fill="none" stroke="#12678B" stroke-width="10" stroke-linecap="round" stroke-linejoin="round" d="M181.25,132.7L178.4,143.4"/><path fill="none" stroke="#12678B" stroke-width="10" stroke-linecap="round" stroke-linejoin="round" d="M297.9,107.15L304.55,116"/><path fill="none" stroke="#12678B" stroke-width="10" stroke-linecap="round" stroke-linejoin="round" d="M311.75,132.7L314.6,143.4"/><path fill="none" stroke="#12678B" stroke-width="10" stroke-linecap="round" stroke-linejoin="round" d="M240.3,83.45L251.35,83.45"/><path fill="none" stroke="#12678B" stroke-width="10" stroke-linecap="round" stroke-linejoin="round" d="M131.1,161.9L142.15,161.9"/><path fill="none" stroke="#12678B" stroke-width="10" stroke-linecap="round" stroke-linejoin="round" d="M160.3,161.9L171.35,161.9"/></g><animate attributeName="display" repeatCount="indefinite" dur="7.958s" keyTimes="0;0.565;0.581;1" values="none;inline;none;none"/></g><g style="display:none;"><g><path fill="none" stroke="#12678B" stroke-width="10" stroke-linecap="round" stroke-linejoin="round" d="M283.7,92.45L273.7,87.75"/><path fill="none" stroke="#12678B" stroke-width="10" stroke-linecap="round" stroke-linejoin="round" d="M209.3,92.45L219.3,87.75"/><path fill="none" stroke="#12678B" stroke-width="10" stroke-linecap="round" stroke-linejoin="round" d="M195.1,107.15L188.45,116"/><path fill="none" stroke="#12678B" stroke-width="10" stroke-linecap="round" stroke-linejoin="round" d="M181.25,132.7L178.4,143.4"/><path fill="none" stroke="#12678B" stroke-width="10" stroke-linecap="round" stroke-linejoin="round" d="M297.9,107.15L304.55,116"/><path fill="none" stroke="#12678B" stroke-width="10" stroke-linecap="round" stroke-linejoin="round" d="M240.3,83.45L251.35,83.45"/><path fill="none" stroke="#12678B" stroke-width="10" stroke-linecap="round" stroke-linejoin="round" d="M131.1,161.9L142.15,161.9"/><path fill="none" stroke="#12678B" stroke-width="10" stroke-linecap="round" stroke-linejoin="round" d="M160.3,161.9L171.35,161.9"/></g><animate attributeName="display" repeatCount="indefinite" dur="7.958s" keyTimes="0;0.55;0.565;1" values="none;inline;none;none"/></g><g style="display:none;"><g><path fill="none" stroke="#12678B" stroke-width="10" stroke-linecap="round" stroke-linejoin="round" d="M283.7,92.45L273.7,87.75"/><path fill="none" stroke="#12678B" stroke-width="10" stroke-linecap="round" stroke-linejoin="round" d="M209.3,92.45L219.3,87.75"/><path fill="none" stroke="#12678B" stroke-width="10" stroke-linecap="round" stroke-linejoin="round" d="M195.1,107.15L188.45,116"/><path fill="none" stroke="#12678B" stroke-width="10" stroke-linecap="round" stroke-linejoin="round" d="M181.25,132.7L178.4,143.4"/><path fill="none" stroke="#12678B" stroke-width="10" stroke-linecap="round" stroke-linejoin="round" d="M240.3,83.45L251.35,83.45"/><path fill="none" stroke="#12678B" stroke-width="10" stroke-linecap="round" stroke-linejoin="round" d="M131.1,161.9L142.15,161.9"/><path fill="none" stroke="#12678B" stroke-width="10" stroke-linecap="round" stroke-linejoin="round" d="M160.3,161.9L171.35,161.9"/></g><animate attributeName="display" repeatCount="indefinite" dur="7.958s" keyTimes="0;0.534;0.55;1" values="none;inline;none;none"/></g><g style="display:none;"><g><path fill="none" stroke="#12678B" stroke-width="10" stroke-linecap="round" stroke-linejoin="round" d="M209.3,92.45L219.3,87.75"/><path fill="none" stroke="#12678B" stroke-width="10" stroke-linecap="round" stroke-linejoin="round" d="M195.1,107.15L188.45,116"/><path fill="none" stroke="#12678B" stroke-width="10" stroke-linecap="round" stroke-linejoin="round" d="M181.25,132.7L178.4,143.4"/><path fill="none" stroke="#12678B" stroke-width="10" stroke-linecap="round" stroke-linejoin="round" d="M240.3,83.45L251.35,83.45"/><path fill="none" stroke="#12678B" stroke-width="10" stroke-linecap="round" stroke-linejoin="round" d="M131.1,161.9L142.15,161.9"/><path fill="none" stroke="#12678B" stroke-width="10" stroke-linecap="round" stroke-linejoin="round" d="M160.3,161.9L171.35,161.9"/></g><animate attributeName="display" repeatCount="indefinite" dur="7.958s" keyTimes="0;0.518;0.534;1" values="none;inline;none;none"/></g><g style="display:none;"><g><path fill="none" stroke="#12678B" stroke-width="10" stroke-linecap="round" stroke-linejoin="round" d="M209.3,92.45L219.3,87.75"/><path fill="none" stroke="#12678B" stroke-width="10" stroke-linecap="round" stroke-linejoin="round" d="M181.25,132.7L178.4,143.4"/><path fill="none" stroke="#12678B" stroke-width="10" stroke-linecap="round" stroke-linejoin="round" d="M195.1,107.15L188.45,116"/><path fill="none" stroke="#12678B" stroke-width="10" stroke-linecap="round" stroke-linejoin="round" d="M131.1,161.9L142.15,161.9"/><path fill="none" stroke="#12678B" stroke-width="10" stroke-linecap="round" stroke-linejoin="round" d="M160.3,161.9L171.35,161.9"/></g><animate attributeName="display" repeatCount="indefinite" dur="7.958s" keyTimes="0;0.503;0.518;1" values="none;inline;none;none"/></g><g style="display:none;"><g><path fill="none" stroke="#12678B" stroke-width="10" stroke-linecap="round" stroke-linejoin="round" d="M181.25,132.7L178.4,143.4"/><path fill="none" stroke="#12678B" stroke-width="10" stroke-linecap="round" stroke-linejoin="round" d="M195.1,107.15L188.45,116"/><path fill="none" stroke="#12678B" stroke-width="10" stroke-linecap="round" stroke-linejoin="round" d="M131.1,161.9L142.15,161.9"/><path fill="none" stroke="#12678B" stroke-width="10" stroke-linecap="round" stroke-linejoin="round" d="M160.3,161.9L171.35,161.9"/></g><animate attributeName="display" repeatCount="indefinite" dur="7.958s" keyTimes="0;0.487;0.503;1" values="none;inline;none;none"/></g><g style="display:none;"><g><path fill="none" stroke="#12678B" stroke-width="10" stroke-linecap="round" stroke-linejoin="round" d="M181.25,132.7L178.4,143.4"/><path fill="none" stroke="#12678B" stroke-width="10" stroke-linecap="round" stroke-linejoin="round" d="M131.1,161.9L142.15,161.9"/><path fill="none" stroke="#12678B" stroke-width="10" stroke-linecap="round" stroke-linejoin="round" d="M160.3,161.9L171.35,161.9"/></g><animate attributeName="display" repeatCount="indefinite" dur="7.958s" keyTimes="0;0.471;0.487;1" values="none;inline;none;none"/></g><g style="display:none;"><g><path fill="none" stroke="#12678B" stroke-width="10" stroke-linecap="round" stroke-linejoin="round" d="M131.1,161.9L142.15,161.9"/><path fill="none" stroke="#12678B" stroke-width="10" stroke-linecap="round" stroke-linejoin="round" d="M160.3,161.9L171.35,161.9"/></g><animate attributeName="display" repeatCount="indefinite" dur="7.958s" keyTimes="0;0.455;0.471;1" values="none;inline;none;none"/></g><g style="display:none;"><path fill="none" stroke="#12678B" stroke-width="10" stroke-linecap="round" stroke-linejoin="round" d="M131.1,161.9L142.15,161.9"/><animate attributeName="display" repeatCount="indefinite" dur="7.958s" keyTimes="0;0.44;0.455;1" values="none;inline;none;none"/></g><g style="display:none;"><path fill="none" stroke="#EC1C24" stroke-width="10" stroke-linecap="round" stroke-linejoin="round" d="M245.901,62.101L245.901,81.951"/><path fill="none" stroke="#EC1C24" stroke-width="10" stroke-linecap="round" stroke-linejoin="round" d="M293.385,79.976L279.349,94.012"/><path fill="none" stroke="#EC1C24" stroke-width="10" stroke-linecap="round" stroke-linejoin="round" d="M198.376,79.915L212.412,93.951"/><animate attributeName="display" repeatCount="indefinite" dur="7.958s" keyTimes="0;0.052;0.105;0.173;0.22;0.288;0.346;1" values="none;inline;none;inline;none;inline;none;none"/></g></g></svg>