<?xml version="1.0" encoding="utf-8"?><svg xmlns:xlink="http://www.w3.org/1999/xlink" id="escena_basquet_candado" image-rendering="auto" baseProfile="basic" version="1.1" x="0px" y="0px" width="546" height="307" xmlns="http://www.w3.org/2000/svg"><g id="Scene_1" overflow="visible"><path fill="#96E072" d="M546.951,14.879Q546.951,-0.012 528.075,-0.012L18.855,-0.012Q-0.021,-0.012 -0.021,14.879L-0.021,292.766Q-0.021,307.656 18.855,307.656L528.075,307.656Q546.951,307.656 546.951,292.766L546.951,14.879"/><g><path fill="none" stroke="#FFF" stroke-width="9.25" stroke-linecap="round" stroke-linejoin="round" d="M423.94,227.552L406.536,149.789"/><path fill="none" stroke="#FFF" stroke-width="9.25" stroke-linecap="round" stroke-linejoin="round" d="M493.022,227.552L510.425,149.789"/><path fill="none" stroke="#FFF" stroke-width="9.25" stroke-linecap="round" stroke-linejoin="round" d="M434.988,149.236L413.436,173.49"/><path fill="none" stroke="#FFF" stroke-width="9.25" stroke-linecap="round" stroke-linejoin="round" d="M471.391,149.789L420.117,207.51"/><path fill="none" stroke="#FFF" stroke-width="9.25" stroke-linecap="round" stroke-linejoin="round" d="M493.922,165.98L439.541,227.169"/><path fill="none" stroke="#FFF" stroke-width="9.25" stroke-linecap="round" stroke-linejoin="round" d="M495.752,205.446L476.433,227.169"/><path fill="none" stroke="#FFF" stroke-width="9.25" stroke-linecap="round" stroke-linejoin="round" d="M481.488,149.736L503.402,174.416"/><path fill="none" stroke="#FFF" stroke-width="9.25" stroke-linecap="round" stroke-linejoin="round" d="M445.17,150.396L497.168,208.946"/><path fill="none" stroke="#FFF" stroke-width="9.25" stroke-linecap="round" stroke-linejoin="round" d="M421.086,164.82L476.445,227.137"/><path fill="none" stroke="#FFF" stroke-width="9.25" stroke-linecap="round" stroke-linejoin="round" d="M421.107,206.372L439.532,227.137"/></g><path fill="none" stroke="#2A3B8E" stroke-width="14.65" stroke-linecap="round" stroke-linejoin="round" d="M398.85,149.45L518.2,149.45"/><path fill="#F16623" d="M76.33,116.129L75.883,116.129 75.819,116.129 75.33,116.129 74.819,116.171 74.33,116.193 73.84,116.214Q72.129,116.281 70.436,116.448 68.756,116.611 67.117,116.873 65.477,117.144 63.862,117.512 62.243,117.87 60.671,118.32 59.091,118.763 57.543,119.299 56.007,119.842 54.522,120.469 53.034,121.095 51.586,121.809 50.131,122.525 48.735,123.32 47.341,124.108 45.99,124.979 44.65,125.859 43.374,126.809 42.082,127.749 40.842,128.766 39.606,129.788 38.438,130.873 37.704,131.549 36.991,132.256 36.284,132.958 35.608,133.681 34.513,134.859 33.48,136.107 32.452,137.347 31.502,138.638 30.552,139.926 29.672,141.277 28.79,142.637 27.991,144.042 27.197,145.439 26.481,146.893 25.767,148.353 25.14,149.851 24.503,151.346 23.949,152.893 23.403,154.441 22.949,156.021 22.499,157.603 22.14,159.233 21.783,160.87 21.523,162.531 21.261,164.18 21.098,165.871 20.93,167.564 20.864,169.275L20.843,169.786 20.8,170.275 20.779,170.765 20.779,171.275 20.779,171.786 20.821,172.275 20.843,172.765 20.864,173.275Q20.93,174.987 21.098,176.679 21.271,178.37 21.545,180.02 21.805,181.671 22.162,183.296 22.53,184.927 22.991,186.509 23.445,188.088 23.991,189.636 24.533,191.184 25.162,192.679 25.799,194.176 26.523,195.636 27.25,197.101 28.055,198.508 28.854,199.903 29.736,201.253 30.616,202.604 31.566,203.891 32.516,205.183 33.544,206.423 34.576,207.659 35.672,208.827 36.36,209.564 37.076,210.274L37.778,210.955 38.501,211.635Q39.67,212.72 40.906,213.742 42.146,214.758 43.437,215.699 44.725,216.638 46.076,217.507 47.425,218.379 48.82,219.167 50.217,219.961 51.671,220.678 53.121,221.391 54.607,222.018 56.102,222.634 57.65,223.167 59.187,223.712 60.756,224.167 62.328,224.616 63.947,224.975 65.573,225.332 67.224,225.592 68.862,225.854 70.543,226.018 72.225,226.175 73.925,226.231L74.436,226.252 74.925,226.294 75.415,226.316 75.925,226.337 76.436,226.316 76.925,226.294 77.415,226.252 77.925,226.231Q79.626,226.164 81.308,225.996 82.988,225.833 84.627,225.571 86.278,225.311 87.904,224.954 89.523,224.596 91.095,224.146 92.664,223.691 94.201,223.146 95.738,222.602 97.222,221.975 98.719,221.349 100.18,220.635 101.623,219.918 103.009,219.124 104.403,218.336 105.754,217.465 107.105,216.585 108.392,215.635 109.683,214.694 110.924,213.678 112.161,212.656 113.328,211.572L114.051,210.891 114.754,210.189 115.456,209.487 116.136,208.763Q117.231,207.586 118.264,206.338 119.292,205.098 120.243,203.806 121.193,202.518 122.072,201.168 122.955,199.807 123.753,198.402 124.548,197.006 125.264,195.551 125.989,194.091 126.625,192.594 127.253,191.099 127.796,189.551 128.341,188.003 128.796,186.424 129.246,184.841 129.604,183.211 129.961,181.575 130.221,179.913 130.483,178.264 130.646,176.573 130.814,174.88 130.881,173.169L130.902,172.658 130.944,172.169 130.966,171.68 130.987,171.169 130.966,170.68 130.944,170.169 130.902,169.68 130.881,169.169Q130.679,164.016 129.583,159.148 128.49,154.273 126.583,149.766 124.662,145.255 122.009,141.192 119.365,137.14 116.073,133.617 115.397,132.895 114.69,132.192 113.977,131.485 113.243,130.809 109.716,127.55 105.669,124.937 101.622,122.329 97.137,120.448 92.648,118.556 87.797,117.469 82.948,116.399 77.819,116.214L77.33,116.193 76.819,116.15 76.33,116.129"/><path fill="#C75822" d="M43.4,144.05Q44.2,145.45 44.95,146.9 45.7,148.35 46.35,149.85 47,151.35 47.6,152.85 48.15,154.4 48.6,156 49.1,157.6 49.45,159.2 49.85,160.85 50.15,162.5 50.4,164.15 50.55,165.85 50.75,167.5 50.85,169.25L20.85,169.3 20.85,172.8 20.9,173.3 50.8,173.25Q50.7,174.95 50.55,176.6 50.35,178.3 50.1,180 49.85,181.65 49.45,183.25 49.1,184.85 48.6,186.5 48.15,188.05 47.6,189.6 47,191.15 46.35,192.65 45.7,194.1 44.95,195.6 44.2,197 43.4,198.4 42.55,199.8 41.65,201.15 40.75,202.5 39.75,203.75 38.75,205 37.7,206.25 36.6,207.45 35.5,208.65 36.15,209.4 36.85,210.1 37.6,210.8 38.3,211.45L38.35,211.45Q39.55,210.25 40.75,208.9 41.9,207.6 42.95,206.25 44,204.85 45,203.4 46,201.95 46.85,200.45 47.75,198.95 48.55,197.4 49.4,195.8 50.1,194.25 50.8,192.6 51.4,190.95 52,189.25 52.55,187.55 53,185.85 53.4,184.1 53.85,182.3 54.15,180.55 54.4,178.75 54.6,176.9 54.8,175.1 54.85,173.25L73.85,173.25 73.9,226.25 77.4,226.25 77.95,226.2 77.9,173.25 96.85,173.25Q96.9,175.1 97.1,176.85 97.25,178.7 97.6,180.5 97.85,182.3 98.25,184.05 98.7,185.8 99.2,187.5 99.7,189.2 100.3,190.85 100.9,192.55 101.65,194.2 102.35,195.75 103.15,197.35 103.95,198.9 104.85,200.4 105.75,201.9 106.75,203.4 107.7,204.8 108.85,206.2 109.85,207.55 111.05,208.85 112.2,210.15 113.45,211.4L115.6,209.3Q115.95,208.95 116.25,208.55 112.85,205.1 110.1,201.1 107.35,197.1 105.4,192.55 103.4,188.1 102.25,183.2 101.1,178.4 100.85,173.25L100.9,173.2 130.85,173.15 131,171.15 130.85,169.15 100.9,169.2Q100.95,167.45 101.1,165.75 101.3,164.05 101.55,162.45 101.85,160.75 102.25,159.15 102.55,157.5 103.1,155.95 103.55,154.35 104.1,152.85 104.65,151.25 105.35,149.75 105.95,148.3 106.75,146.85 107.45,145.4 108.3,144 109.1,142.6 110.05,141.25 110.95,139.9 111.95,138.65 112.9,137.4 113.95,136.15 115.05,134.9 116.2,133.75L114.1,131.65Q113.75,131.25 113.35,130.95 112.1,132.2 110.95,133.5 109.8,134.8 108.75,136.2 107.7,137.55 106.7,139 105.7,140.45 104.85,141.95 103.9,143.45 103.1,145 102.3,146.6 101.6,148.2 100.85,149.8 100.25,151.45 99.7,153.15 99.15,154.85 98.65,156.6 98.25,158.3 97.85,160.05 97.55,161.9 97.25,163.65 97.1,165.5 96.9,167.35 96.85,169.2L77.9,169.2 77.8,116.25 74.3,116.2 73.8,116.3 73.85,169.2 54.85,169.2Q54.65,163.65 53.4,158.4 52.2,153.15 50.05,148.3 47.95,143.4 44.95,139.1 42,134.75 38.25,131.05 37.55,131.7 36.85,132.4 36.1,133.15 35.45,133.9 36.55,135.05 37.7,136.3 38.7,137.45 39.7,138.75 40.7,140 41.65,141.35 42.55,142.65 43.4,144.05"/><g><path fill="none" stroke="#221F1F" stroke-width="3.7" stroke-linecap="round" stroke-linejoin="round" d="M72.6,183.55Q71.25,182.2 71.2,180.15M72.6,183.55Q74,184.9 76,184.95 77,184.95 77.9,184.55 78.75,184.2 79.4,183.55 80.05,182.85 80.45,182 80.8,181.15 80.85,180.2"/><path fill="#221F1F" d="M68.427,163.364Q68.427,161.279 66.938,159.789 65.449,158.3 63.364,158.3 61.279,158.3 59.789,159.789 58.3,161.279 58.3,163.364 58.3,165.449 59.789,166.938 61.279,168.427 63.364,168.427 65.449,168.427 66.938,166.938 68.427,165.449 68.427,163.364"/><path fill="#221F1F" d="M95.227,163.364Q95.227,161.279 93.738,159.789 92.249,158.3 90.164,158.3 88.079,158.3 86.589,159.789 85.1,161.279 85.1,163.364 85.1,165.449 86.589,166.938 88.079,168.427 90.164,168.427 92.249,168.427 93.738,166.938 95.227,165.449 95.227,163.364"/></g><g><g id="parte_candado_1" transform="matrix(0.885 0.003 -0.003 0.835 226.85 111.55)"><g id="parte candado 1_0.0"><path fill="none" stroke="#6D6F70" stroke-width="14.75" stroke-linecap="round" stroke-linejoin="round" d="M75.7,28.3Q77.06,33.199 77.075,38.525L77.075,89.7M75.7,28.3Q74.331,23.382 71.8,19.075 69.277,14.778 65.775,11.275 62.272,7.773 57.975,5.25 53.68,2.731 48.775,1.375 43.864,0.014 38.525,0 33.199,0.014 28.3,1.375 23.382,2.731 19.075,5.25 14.778,7.773 11.275,11.275 7.773,14.778 5.25,19.075 2.731,23.382 1.375,28.3 0.014,33.199 0,38.525L0,93.425"/></g></g><g><path fill="#6D6F70" d="M306.216,161.93L215.35,161.93 215.328,161.95 215.328,194.737Q215.344,200.616 216.941,206.026 218.546,211.436 221.517,216.175 224.504,220.902 228.642,224.759 232.773,228.61 237.838,231.389 242.905,234.161 248.689,235.661 254.485,237.16 260.783,237.186 267.08,237.16 272.876,235.661 278.661,234.161 283.728,231.389 288.804,228.61 292.945,224.759 297.073,220.902 300.049,216.175 303.02,211.436 304.625,206.026 306.233,200.616 306.259,194.737L306.259,161.95 306.216,161.93"/><path fill="#6D6F70" stroke-width="7.95" stroke-linecap="round" stroke-linejoin="round" d="M306.216,194.737L306.216,161.95 215.35,161.95 215.35,194.737Q215.363,200.617 216.962,206.026 218.576,211.427 221.56,216.155 224.535,220.884 228.664,224.738 232.793,228.592 237.859,231.369 242.925,234.144 248.711,235.64 254.495,237.144 260.783,237.166 267.071,237.144 272.855,235.64 278.652,234.144 283.728,231.369 288.794,228.592 292.924,224.738 297.052,220.884 300.027,216.155 303,211.427 304.603,206.026 306.203,200.617 306.216,194.737"/><path fill="none" stroke="#6D6F70" stroke-width="7.95" stroke-linecap="round" stroke-linejoin="round" d="M306.216,194.737L306.216,161.95 215.35,161.95 215.35,194.737Q215.363,200.617 216.962,206.026 218.576,211.427 221.56,216.155 224.535,220.884 228.664,224.738 232.793,228.592 237.859,231.369 242.925,234.144 248.711,235.64 254.495,237.144 260.783,237.166 267.071,237.144 272.855,235.64 278.652,234.144 283.728,231.369 288.794,228.592 292.924,224.738 297.052,220.884 300.027,216.155 303,211.427 304.603,206.026 306.203,200.617 306.216,194.737"/></g><path fill="#221F1F" d="M271.926,189.933Q271.926,185.621 268.658,182.57 265.433,179.559 260.813,179.559 256.194,179.559 252.925,182.57 249.7,185.621 249.7,189.933 249.7,194.245 252.925,197.255 256.194,200.306 260.813,200.306 265.433,200.306 268.658,197.255 271.926,194.245 271.926,189.933"/><path fill="none" stroke="#221F1F" stroke-width="11.9" stroke-linecap="round" stroke-linejoin="round" d="M260.747,191.439L260.747,211.819"/></g><g style="display:none;"><path fill="none" stroke="#26AA6B" stroke-width="10" stroke-linecap="round" stroke-linejoin="round" d="M379.15,164.65L363.95,177.55M379.15,164.65L363.95,151.8"/><animate attributeName="display" repeatCount="indefinite" dur="7.958s" keyTimes="0;0.89;0.906;1" values="none;inline;none;none"/></g><g style="display:none;"><g><path fill="none" stroke="#26AA6B" stroke-width="10" stroke-linecap="round" stroke-linejoin="round" d="M336.45,165.1L347.5,165.1"/><path fill="none" stroke="#26AA6B" stroke-width="10" stroke-linecap="round" stroke-linejoin="round" d="M379.15,164.65L363.95,177.55M379.15,164.65L363.95,151.8"/></g><animate attributeName="display" repeatCount="indefinite" dur="7.958s" keyTimes="0;0.874;0.89;1" values="none;inline;none;none"/></g><g style="display:none;"><g><path fill="none" stroke="#26AA6B" stroke-width="10" stroke-linecap="round" stroke-linejoin="round" d="M327.75,132.7L330.6,143.4"/><path fill="none" stroke="#26AA6B" stroke-width="10" stroke-linecap="round" stroke-linejoin="round" d="M336.45,165.1L347.5,165.1"/><path fill="none" stroke="#26AA6B" stroke-width="10" stroke-linecap="round" stroke-linejoin="round" d="M379.15,164.65L363.95,177.55M379.15,164.65L363.95,151.8"/></g><animate attributeName="display" repeatCount="indefinite" dur="7.958s" keyTimes="0;0.859;0.874;1" values="none;inline;none;none"/></g><g style="display:none;"><g><path fill="none" stroke="#26AA6B" stroke-width="10" stroke-linecap="round" stroke-linejoin="round" d="M327.75,132.7L330.6,143.4"/><path fill="none" stroke="#26AA6B" stroke-width="10" stroke-linecap="round" stroke-linejoin="round" d="M336.45,165.1L347.5,165.1"/><path fill="none" stroke="#26AA6B" stroke-width="10" stroke-linecap="round" stroke-linejoin="round" d="M379.15,164.65L363.95,177.55M379.15,164.65L363.95,151.8"/><path fill="none" stroke="#26AA6B" stroke-width="10" stroke-linecap="round" stroke-linejoin="round" d="M313.9,107.15L320.55,116"/></g><animate attributeName="display" repeatCount="indefinite" dur="7.958s" keyTimes="0;0.843;0.859;1" values="none;inline;none;none"/></g><g style="display:none;"><g><path fill="none" stroke="#26AA6B" stroke-width="10" stroke-linecap="round" stroke-linejoin="round" d="M327.75,132.7L330.6,143.4"/><path fill="none" stroke="#26AA6B" stroke-width="10" stroke-linecap="round" stroke-linejoin="round" d="M336.45,165.1L347.5,165.1"/><path fill="none" stroke="#26AA6B" stroke-width="10" stroke-linecap="round" stroke-linejoin="round" d="M379.15,164.65L363.95,177.55M379.15,164.65L363.95,151.8"/><path fill="none" stroke="#26AA6B" stroke-width="10" stroke-linecap="round" stroke-linejoin="round" d="M299.7,92.45L289.7,87.75"/><path fill="none" stroke="#26AA6B" stroke-width="10" stroke-linecap="round" stroke-linejoin="round" d="M313.9,107.15L320.55,116"/></g><animate attributeName="display" repeatCount="indefinite" dur="7.958s" keyTimes="0;0.827;0.843;1" values="none;inline;none;none"/></g><g style="display:none;"><g><path fill="none" stroke="#26AA6B" stroke-width="10" stroke-linecap="round" stroke-linejoin="round" d="M327.75,132.7L330.6,143.4"/><path fill="none" stroke="#26AA6B" stroke-width="10" stroke-linecap="round" stroke-linejoin="round" d="M336.45,165.1L347.5,165.1"/><path fill="none" stroke="#26AA6B" stroke-width="10" stroke-linecap="round" stroke-linejoin="round" d="M379.15,164.65L363.95,177.55M379.15,164.65L363.95,151.8"/><path fill="none" stroke="#26AA6B" stroke-width="10" stroke-linecap="round" stroke-linejoin="round" d="M256.3,83.45L267.35,83.45"/><path fill="none" stroke="#26AA6B" stroke-width="10" stroke-linecap="round" stroke-linejoin="round" d="M299.7,92.45L289.7,87.75"/><path fill="none" stroke="#26AA6B" stroke-width="10" stroke-linecap="round" stroke-linejoin="round" d="M313.9,107.15L320.55,116"/></g><animate attributeName="display" repeatCount="indefinite" dur="7.958s" keyTimes="0;0.812;0.827;1" values="none;inline;none;none"/></g><g style="display:none;"><g><path fill="none" stroke="#26AA6B" stroke-width="10" stroke-linecap="round" stroke-linejoin="round" d="M327.75,132.7L330.6,143.4"/><path fill="none" stroke="#26AA6B" stroke-width="10" stroke-linecap="round" stroke-linejoin="round" d="M336.45,165.1L347.5,165.1"/><path fill="none" stroke="#26AA6B" stroke-width="10" stroke-linecap="round" stroke-linejoin="round" d="M379.15,164.65L363.95,177.55M379.15,164.65L363.95,151.8"/><path fill="none" stroke="#26AA6B" stroke-width="10" stroke-linecap="round" stroke-linejoin="round" d="M256.3,83.45L267.35,83.45"/><path fill="none" stroke="#26AA6B" stroke-width="10" stroke-linecap="round" stroke-linejoin="round" d="M299.7,92.45L289.7,87.75"/><path fill="none" stroke="#26AA6B" stroke-width="10" stroke-linecap="round" stroke-linejoin="round" d="M225.3,92.45L235.3,87.75"/><path fill="none" stroke="#26AA6B" stroke-width="10" stroke-linecap="round" stroke-linejoin="round" d="M313.9,107.15L320.55,116"/></g><animate attributeName="display" repeatCount="indefinite" dur="7.958s" keyTimes="0;0.796;0.812;1" values="none;inline;none;none"/></g><g style="display:none;"><g><path fill="none" stroke="#26AA6B" stroke-width="10" stroke-linecap="round" stroke-linejoin="round" d="M327.75,132.7L330.6,143.4"/><path fill="none" stroke="#26AA6B" stroke-width="10" stroke-linecap="round" stroke-linejoin="round" d="M336.45,165.1L347.5,165.1"/><path fill="none" stroke="#26AA6B" stroke-width="10" stroke-linecap="round" stroke-linejoin="round" d="M379.15,164.65L363.95,177.55M379.15,164.65L363.95,151.8"/><path fill="none" stroke="#26AA6B" stroke-width="10" stroke-linecap="round" stroke-linejoin="round" d="M256.3,83.45L267.35,83.45"/><path fill="none" stroke="#26AA6B" stroke-width="10" stroke-linecap="round" stroke-linejoin="round" d="M299.7,92.45L289.7,87.75"/><path fill="none" stroke="#26AA6B" stroke-width="10" stroke-linecap="round" stroke-linejoin="round" d="M225.3,92.45L235.3,87.75"/><path fill="none" stroke="#26AA6B" stroke-width="10" stroke-linecap="round" stroke-linejoin="round" d="M211.1,107.15L204.45,116"/><path fill="none" stroke="#26AA6B" stroke-width="10" stroke-linecap="round" stroke-linejoin="round" d="M313.9,107.15L320.55,116"/></g><animate attributeName="display" repeatCount="indefinite" dur="7.958s" keyTimes="0;0.78;0.796;1" values="none;inline;none;none"/></g><g style="display:none;"><g><path fill="none" stroke="#26AA6B" stroke-width="10" stroke-linecap="round" stroke-linejoin="round" d="M327.75,132.7L330.6,143.4"/><path fill="none" stroke="#26AA6B" stroke-width="10" stroke-linecap="round" stroke-linejoin="round" d="M336.45,165.1L347.5,165.1"/><path fill="none" stroke="#26AA6B" stroke-width="10" stroke-linecap="round" stroke-linejoin="round" d="M379.15,164.65L363.95,177.55M379.15,164.65L363.95,151.8"/><path fill="none" stroke="#26AA6B" stroke-width="10" stroke-linecap="round" stroke-linejoin="round" d="M256.3,83.45L267.35,83.45"/><path fill="none" stroke="#26AA6B" stroke-width="10" stroke-linecap="round" stroke-linejoin="round" d="M299.7,92.45L289.7,87.75"/><path fill="none" stroke="#26AA6B" stroke-width="10" stroke-linecap="round" stroke-linejoin="round" d="M225.3,92.45L235.3,87.75"/><path fill="none" stroke="#26AA6B" stroke-width="10" stroke-linecap="round" stroke-linejoin="round" d="M211.1,107.15L204.45,116"/><path fill="none" stroke="#26AA6B" stroke-width="10" stroke-linecap="round" stroke-linejoin="round" d="M197.25,132.7L194.4,143.4"/><path fill="none" stroke="#26AA6B" stroke-width="10" stroke-linecap="round" stroke-linejoin="round" d="M313.9,107.15L320.55,116"/></g><animate attributeName="display" repeatCount="indefinite" dur="7.958s" keyTimes="0;0.764;0.78;1" values="none;inline;none;none"/></g><g style="display:none;"><g><path fill="none" stroke="#26AA6B" stroke-width="10" stroke-linecap="round" stroke-linejoin="round" d="M327.75,132.7L330.6,143.4"/><path fill="none" stroke="#26AA6B" stroke-width="10" stroke-linecap="round" stroke-linejoin="round" d="M336.45,165.1L347.5,165.1"/><path fill="none" stroke="#26AA6B" stroke-width="10" stroke-linecap="round" stroke-linejoin="round" d="M379.15,164.65L363.95,177.55M379.15,164.65L363.95,151.8"/><path fill="none" stroke="#26AA6B" stroke-width="10" stroke-linecap="round" stroke-linejoin="round" d="M256.3,83.45L267.35,83.45"/><path fill="none" stroke="#26AA6B" stroke-width="10" stroke-linecap="round" stroke-linejoin="round" d="M299.7,92.45L289.7,87.75"/><path fill="none" stroke="#26AA6B" stroke-width="10" stroke-linecap="round" stroke-linejoin="round" d="M225.3,92.45L235.3,87.75"/><path fill="none" stroke="#26AA6B" stroke-width="10" stroke-linecap="round" stroke-linejoin="round" d="M211.1,107.15L204.45,116"/><path fill="none" stroke="#26AA6B" stroke-width="10" stroke-linecap="round" stroke-linejoin="round" d="M197.25,132.7L194.4,143.4"/><path fill="none" stroke="#26AA6B" stroke-width="10" stroke-linecap="round" stroke-linejoin="round" d="M176.3,161.9L187.35,161.9"/><path fill="none" stroke="#26AA6B" stroke-width="10" stroke-linecap="round" stroke-linejoin="round" d="M313.9,107.15L320.55,116"/></g><animate attributeName="display" repeatCount="indefinite" dur="7.958s" keyTimes="0;0.749;0.764;1" values="none;inline;none;none"/></g><g style="display:none;"><g><path fill="none" stroke="#26AA6B" stroke-width="10" stroke-linecap="round" stroke-linejoin="round" d="M327.75,132.7L330.6,143.4"/><path fill="none" stroke="#26AA6B" stroke-width="10" stroke-linecap="round" stroke-linejoin="round" d="M336.45,165.1L347.5,165.1"/><path fill="none" stroke="#26AA6B" stroke-width="10" stroke-linecap="round" stroke-linejoin="round" d="M379.15,164.65L363.95,177.55M379.15,164.65L363.95,151.8"/><path fill="none" stroke="#26AA6B" stroke-width="10" stroke-linecap="round" stroke-linejoin="round" d="M256.3,83.45L267.35,83.45"/><path fill="none" stroke="#26AA6B" stroke-width="10" stroke-linecap="round" stroke-linejoin="round" d="M299.7,92.45L289.7,87.75"/><path fill="none" stroke="#26AA6B" stroke-width="10" stroke-linecap="round" stroke-linejoin="round" d="M225.3,92.45L235.3,87.75"/><path fill="none" stroke="#26AA6B" stroke-width="10" stroke-linecap="round" stroke-linejoin="round" d="M211.1,107.15L204.45,116"/><path fill="none" stroke="#26AA6B" stroke-width="10" stroke-linecap="round" stroke-linejoin="round" d="M197.25,132.7L194.4,143.4"/><path fill="none" stroke="#26AA6B" stroke-width="10" stroke-linecap="round" stroke-linejoin="round" d="M176.3,161.9L187.35,161.9"/><path fill="none" stroke="#26AA6B" stroke-width="10" stroke-linecap="round" stroke-linejoin="round" d="M313.9,107.15L320.55,116"/><path fill="none" stroke="#26AA6B" stroke-width="10" stroke-linecap="round" stroke-linejoin="round" d="M147.1,161.9L158.15,161.9"/></g><animate attributeName="display" repeatCount="indefinite" dur="7.958s" keyTimes="0;0.597;0.749;1" values="none;inline;none;none"/></g><g style="display:none;"><g><path fill="none" stroke="#26AA6B" stroke-width="10" stroke-linecap="round" stroke-linejoin="round" d="M327.75,132.7L330.6,143.4"/><path fill="none" stroke="#26AA6B" stroke-width="10" stroke-linecap="round" stroke-linejoin="round" d="M336.45,165.1L347.5,165.1"/><path fill="none" stroke="#26AA6B" stroke-width="10" stroke-linecap="round" stroke-linejoin="round" d="M256.3,83.45L267.35,83.45"/><path fill="none" stroke="#26AA6B" stroke-width="10" stroke-linecap="round" stroke-linejoin="round" d="M299.7,92.45L289.7,87.75"/><path fill="none" stroke="#26AA6B" stroke-width="10" stroke-linecap="round" stroke-linejoin="round" d="M225.3,92.45L235.3,87.75"/><path fill="none" stroke="#26AA6B" stroke-width="10" stroke-linecap="round" stroke-linejoin="round" d="M211.1,107.15L204.45,116"/><path fill="none" stroke="#26AA6B" stroke-width="10" stroke-linecap="round" stroke-linejoin="round" d="M197.25,132.7L194.4,143.4"/><path fill="none" stroke="#26AA6B" stroke-width="10" stroke-linecap="round" stroke-linejoin="round" d="M176.3,161.9L187.35,161.9"/><path fill="none" stroke="#26AA6B" stroke-width="10" stroke-linecap="round" stroke-linejoin="round" d="M313.9,107.15L320.55,116"/><path fill="none" stroke="#26AA6B" stroke-width="10" stroke-linecap="round" stroke-linejoin="round" d="M147.1,161.9L158.15,161.9"/></g><animate attributeName="display" repeatCount="indefinite" dur="7.958s" keyTimes="0;0.581;0.597;1" values="none;inline;none;none"/></g><g style="display:none;"><g><path fill="none" stroke="#26AA6B" stroke-width="10" stroke-linecap="round" stroke-linejoin="round" d="M327.75,132.7L330.6,143.4"/><path fill="none" stroke="#26AA6B" stroke-width="10" stroke-linecap="round" stroke-linejoin="round" d="M256.3,83.45L267.35,83.45"/><path fill="none" stroke="#26AA6B" stroke-width="10" stroke-linecap="round" stroke-linejoin="round" d="M299.7,92.45L289.7,87.75"/><path fill="none" stroke="#26AA6B" stroke-width="10" stroke-linecap="round" stroke-linejoin="round" d="M225.3,92.45L235.3,87.75"/><path fill="none" stroke="#26AA6B" stroke-width="10" stroke-linecap="round" stroke-linejoin="round" d="M211.1,107.15L204.45,116"/><path fill="none" stroke="#26AA6B" stroke-width="10" stroke-linecap="round" stroke-linejoin="round" d="M197.25,132.7L194.4,143.4"/><path fill="none" stroke="#26AA6B" stroke-width="10" stroke-linecap="round" stroke-linejoin="round" d="M176.3,161.9L187.35,161.9"/><path fill="none" stroke="#26AA6B" stroke-width="10" stroke-linecap="round" stroke-linejoin="round" d="M313.9,107.15L320.55,116"/><path fill="none" stroke="#26AA6B" stroke-width="10" stroke-linecap="round" stroke-linejoin="round" d="M147.1,161.9L158.15,161.9"/></g><animate attributeName="display" repeatCount="indefinite" dur="7.958s" keyTimes="0;0.565;0.581;1" values="none;inline;none;none"/></g><g style="display:none;"><g><path fill="none" stroke="#26AA6B" stroke-width="10" stroke-linecap="round" stroke-linejoin="round" d="M256.3,83.45L267.35,83.45"/><path fill="none" stroke="#26AA6B" stroke-width="10" stroke-linecap="round" stroke-linejoin="round" d="M299.7,92.45L289.7,87.75"/><path fill="none" stroke="#26AA6B" stroke-width="10" stroke-linecap="round" stroke-linejoin="round" d="M225.3,92.45L235.3,87.75"/><path fill="none" stroke="#26AA6B" stroke-width="10" stroke-linecap="round" stroke-linejoin="round" d="M211.1,107.15L204.45,116"/><path fill="none" stroke="#26AA6B" stroke-width="10" stroke-linecap="round" stroke-linejoin="round" d="M197.25,132.7L194.4,143.4"/><path fill="none" stroke="#26AA6B" stroke-width="10" stroke-linecap="round" stroke-linejoin="round" d="M176.3,161.9L187.35,161.9"/><path fill="none" stroke="#26AA6B" stroke-width="10" stroke-linecap="round" stroke-linejoin="round" d="M313.9,107.15L320.55,116"/><path fill="none" stroke="#26AA6B" stroke-width="10" stroke-linecap="round" stroke-linejoin="round" d="M147.1,161.9L158.15,161.9"/></g><animate attributeName="display" repeatCount="indefinite" dur="7.958s" keyTimes="0;0.55;0.565;1" values="none;inline;none;none"/></g><g style="display:none;"><g><path fill="none" stroke="#26AA6B" stroke-width="10" stroke-linecap="round" stroke-linejoin="round" d="M256.3,83.45L267.35,83.45"/><path fill="none" stroke="#26AA6B" stroke-width="10" stroke-linecap="round" stroke-linejoin="round" d="M299.7,92.45L289.7,87.75"/><path fill="none" stroke="#26AA6B" stroke-width="10" stroke-linecap="round" stroke-linejoin="round" d="M225.3,92.45L235.3,87.75"/><path fill="none" stroke="#26AA6B" stroke-width="10" stroke-linecap="round" stroke-linejoin="round" d="M211.1,107.15L204.45,116"/><path fill="none" stroke="#26AA6B" stroke-width="10" stroke-linecap="round" stroke-linejoin="round" d="M197.25,132.7L194.4,143.4"/><path fill="none" stroke="#26AA6B" stroke-width="10" stroke-linecap="round" stroke-linejoin="round" d="M176.3,161.9L187.35,161.9"/><path fill="none" stroke="#26AA6B" stroke-width="10" stroke-linecap="round" stroke-linejoin="round" d="M147.1,161.9L158.15,161.9"/></g><animate attributeName="display" repeatCount="indefinite" dur="7.958s" keyTimes="0;0.534;0.55;1" values="none;inline;none;none"/></g><g style="display:none;"><g><path fill="none" stroke="#26AA6B" stroke-width="10" stroke-linecap="round" stroke-linejoin="round" d="M256.3,83.45L267.35,83.45"/><path fill="none" stroke="#26AA6B" stroke-width="10" stroke-linecap="round" stroke-linejoin="round" d="M225.3,92.45L235.3,87.75"/><path fill="none" stroke="#26AA6B" stroke-width="10" stroke-linecap="round" stroke-linejoin="round" d="M211.1,107.15L204.45,116"/><path fill="none" stroke="#26AA6B" stroke-width="10" stroke-linecap="round" stroke-linejoin="round" d="M197.25,132.7L194.4,143.4"/><path fill="none" stroke="#26AA6B" stroke-width="10" stroke-linecap="round" stroke-linejoin="round" d="M176.3,161.9L187.35,161.9"/><path fill="none" stroke="#26AA6B" stroke-width="10" stroke-linecap="round" stroke-linejoin="round" d="M147.1,161.9L158.15,161.9"/></g><animate attributeName="display" repeatCount="indefinite" dur="7.958s" keyTimes="0;0.518;0.534;1" values="none;inline;none;none"/></g><g style="display:none;"><g><path fill="none" stroke="#26AA6B" stroke-width="10" stroke-linecap="round" stroke-linejoin="round" d="M225.3,92.45L235.3,87.75"/><path fill="none" stroke="#26AA6B" stroke-width="10" stroke-linecap="round" stroke-linejoin="round" d="M211.1,107.15L204.45,116"/><path fill="none" stroke="#26AA6B" stroke-width="10" stroke-linecap="round" stroke-linejoin="round" d="M197.25,132.7L194.4,143.4"/><path fill="none" stroke="#26AA6B" stroke-width="10" stroke-linecap="round" stroke-linejoin="round" d="M176.3,161.9L187.35,161.9"/><path fill="none" stroke="#26AA6B" stroke-width="10" stroke-linecap="round" stroke-linejoin="round" d="M147.1,161.9L158.15,161.9"/></g><animate attributeName="display" repeatCount="indefinite" dur="7.958s" keyTimes="0;0.503;0.518;1" values="none;inline;none;none"/></g><g style="display:none;"><g><path fill="none" stroke="#26AA6B" stroke-width="10" stroke-linecap="round" stroke-linejoin="round" d="M211.1,107.15L204.45,116"/><path fill="none" stroke="#26AA6B" stroke-width="10" stroke-linecap="round" stroke-linejoin="round" d="M197.25,132.7L194.4,143.4"/><path fill="none" stroke="#26AA6B" stroke-width="10" stroke-linecap="round" stroke-linejoin="round" d="M176.3,161.9L187.35,161.9"/><path fill="none" stroke="#26AA6B" stroke-width="10" stroke-linecap="round" stroke-linejoin="round" d="M147.1,161.9L158.15,161.9"/></g><animate attributeName="display" repeatCount="indefinite" dur="7.958s" keyTimes="0;0.487;0.503;1" values="none;inline;none;none"/></g><g style="display:none;"><g><path fill="none" stroke="#26AA6B" stroke-width="10" stroke-linecap="round" stroke-linejoin="round" d="M197.25,132.7L194.4,143.4"/><path fill="none" stroke="#26AA6B" stroke-width="10" stroke-linecap="round" stroke-linejoin="round" d="M176.3,161.9L187.35,161.9"/><path fill="none" stroke="#26AA6B" stroke-width="10" stroke-linecap="round" stroke-linejoin="round" d="M147.1,161.9L158.15,161.9"/></g><animate attributeName="display" repeatCount="indefinite" dur="7.958s" keyTimes="0;0.471;0.487;1" values="none;inline;none;none"/></g><g style="display:none;"><g><path fill="none" stroke="#26AA6B" stroke-width="10" stroke-linecap="round" stroke-linejoin="round" d="M176.3,161.9L187.35,161.9"/><path fill="none" stroke="#26AA6B" stroke-width="10" stroke-linecap="round" stroke-linejoin="round" d="M147.1,161.9L158.15,161.9"/></g><animate attributeName="display" repeatCount="indefinite" dur="7.958s" keyTimes="0;0.455;0.471;1" values="none;inline;none;none"/></g><g style="display:none;"><path fill="none" stroke="#26AA6B" stroke-width="10" stroke-linecap="round" stroke-linejoin="round" d="M147.1,161.9L158.15,161.9"/><animate attributeName="display" repeatCount="indefinite" dur="7.958s" keyTimes="0;0.44;0.455;1" values="none;inline;none;none"/></g><g style="display:none;"><path fill="none" stroke="#EC1C24" stroke-width="10" stroke-linecap="round" stroke-linejoin="round" d="M261.901,62.101L261.901,81.951"/><path fill="none" stroke="#EC1C24" stroke-width="10" stroke-linecap="round" stroke-linejoin="round" d="M309.385,79.976L295.349,94.012"/><path fill="none" stroke="#EC1C24" stroke-width="10" stroke-linecap="round" stroke-linejoin="round" d="M214.376,79.915L228.412,93.951"/><animate attributeName="display" repeatCount="indefinite" dur="7.958s" keyTimes="0;0.052;0.105;0.173;0.22;0.288;0.346;1" values="none;inline;none;inline;none;inline;none;none"/></g></g></svg>