<?xml version="1.0" encoding="utf-8"?>
<!-- Generator: Adobe Illustrator 16.0.0, SVG Export Plug-In . SVG Version: 6.00 Build 0)  -->
<!DOCTYPE svg PUBLIC "-//W3C//DTD SVG 1.1//EN" "http://www.w3.org/Graphics/SVG/1.1/DTD/svg11.dtd">
<svg version="1.1" xmlns="http://www.w3.org/2000/svg" xmlns:xlink="http://www.w3.org/1999/xlink" x="0px" y="0px"
	 width="288.28px" height="412px" viewBox="0 0 288.28 412" enable-background="new 0 0 288.28 412" xml:space="preserve">
<g id="cositas" display="none">
	
		<path display="inline" fill="#FFFFFF" stroke="#404041" stroke-width="4" stroke-linecap="round" stroke-linejoin="round" stroke-miterlimit="10" d="
		M22.196-37.863c0-8.729,6.185-16.012,14.41-17.71v-104.42c0-11.526-9.344-20.87-20.869-20.87h-119.542
		c-11.525,0-20.869,9.344-20.869,20.87V77.268c0,11.525,9.344,20.869,20.869,20.869H15.737c11.525,0,20.869-9.344,20.869-20.869
		v-97.421C28.381-21.851,22.196-29.133,22.196-37.863z"/>
	<g display="inline">
		
			<path fill="#FFC85E" stroke="#FFFFFF" stroke-width="1.8007" stroke-linecap="round" stroke-linejoin="round" stroke-miterlimit="10" d="
			M7.007-11.577h-53.556l-5.118,3.575C-52.146-7.667-52.705-7.5-53.263-7.5c-0.559,0-1.117-0.167-1.597-0.502l-5.116-3.575h-0.308
			c-1.053,0-4.698,0-5.565,0c-5.266,0-9.533,4.268-9.533,9.532V52.31c0,5.264,4.268,9.533,9.533,9.533c0.204,0,2.578,0,6.348,0
			l4.642,3.243c0.479,0.336,1.038,0.502,1.597,0.502c0.558,0,1.116-0.166,1.596-0.502l4.644-3.243c21.591,0,54.03,0,54.03,0V-11.577
			z"/>
	</g>
	
		<path display="inline" fill="#FFFFFF" stroke="#404041" stroke-width="4" stroke-linecap="round" stroke-linejoin="round" stroke-miterlimit="10" d="
		M210.196-37.863c0-8.729,6.185-16.012,14.409-17.71v-104.42c0-11.526-9.344-20.87-20.869-20.87H84.195
		c-11.525,0-20.869,9.344-20.869,20.87V77.268c0,11.525,9.344,20.869,20.869,20.869h119.542c11.525,0,20.869-9.344,20.869-20.869
		v-97.421C216.381-21.851,210.196-29.133,210.196-37.863z"/>
	<path display="inline" fill="#EF5D81" d="M141.292,27.088l-4.386,3.063c-0.639,0.446-1.389,0.683-2.169,0.683
		s-1.53-0.236-2.169-0.683l-4.385-3.063h-6.032c-5.809,0-10.533-4.726-10.533-10.534V-37.8c0-5.81,4.725-10.534,10.533-10.534h5.873
		c0.205,0,0.404,0.062,0.572,0.18l5.118,3.576c0.603,0.422,1.443,0.422,2.045,0l5.117-3.576c0.169-0.118,0.369-0.18,0.574-0.18
		h43.874v-72.29c0,0-82,0-82.867,0c-5.267,0-9.533,4.268-9.533,9.533V28.366c0,5.266,4.267,9.533,9.533,9.533
		c0.203,0,82.867,0,82.867,0V27.088H141.292z"/>
	
		<path display="inline" fill="#FFC85E" stroke="#FFFFFF" stroke-width="1.8007" stroke-linecap="round" stroke-linejoin="round" stroke-miterlimit="10" d="
		M195.007-47.333h-53.556l-5.118,3.574c-0.479,0.336-1.037,0.502-1.596,0.502s-1.117-0.166-1.596-0.502l-5.117-3.574h-0.308
		c-1.053,0-4.698,0-5.565,0c-5.266,0-9.532,4.268-9.532,9.532v54.354c0,5.264,4.267,9.533,9.532,9.533c0.204,0,2.579,0,6.349,0
		l4.642,3.243c0.479,0.336,1.037,0.502,1.596,0.502s1.117-0.166,1.596-0.502l4.644-3.243c21.592,0,54.03,0,54.03,0V-47.333z"/>
	<g display="inline">
		
			<polyline fill="none" stroke="#231F20" stroke-width="7" stroke-linecap="round" stroke-linejoin="round" stroke-miterlimit="10" points="
			156.861,-19.665 167.861,-8.941 156.861,1.783 		"/>
	</g>
	<g display="inline">
		
			<path fill="#DDDDDC" stroke="#404041" stroke-width="4" stroke-linecap="round" stroke-linejoin="round" stroke-miterlimit="10" d="
			M396.911-180.863H277.369c-11.525,0-20.869,9.344-20.869,20.87V-55.49c-8.062,1.822-14.086,9.015-14.086,17.627
			s6.024,15.805,14.086,17.627v97.504c0,11.525,9.344,20.869,20.869,20.869h119.542c11.525,0,20.869-9.344,20.869-20.869v-237.261
			C417.78-171.519,408.437-180.863,396.911-180.863z"/>
		<g>
			<rect x="275.641" y="-37.863" fill="#96E072" width="123" height="123"/>
		</g>
	</g>
</g>
<g id="tab_13" display="none">
	<g display="inline">
		<path fill="#DDDDDC" d="M267.411,0H20.869C9.344,0,0,9.344,0,20.87v370.261C0,402.657,9.344,412,20.869,412h246.542
			c11.525,0,20.869-9.344,20.869-20.869V20.87C288.28,9.344,278.937,0,267.411,0z"/>
		<g>
			<rect x="18.141" y="14" fill="#96E072" width="123" height="123"/>
			<rect x="18.141" y="144" fill="#96E072" width="123" height="123"/>
		</g>
		<g>
			<path fill="#F26522" d="M122.733,74.401c-0.404-11.021-4.832-20.989-11.871-28.515c-0.727-0.778-1.484-1.525-2.268-2.25
				c-7.52-6.954-17.441-11.308-28.396-11.693c-0.535-0.019-1.061-0.083-1.6-0.078c-0.539-0.002-1.061,0.061-1.598,0.083
				C66.05,32.351,56.136,36.724,48.63,43.69c-0.785,0.727-1.541,1.477-2.268,2.259c-7.025,7.531-11.432,17.51-11.82,28.533
				c-0.018,0.534-0.078,1.058-0.078,1.6c0.002,0.536,0.063,1.062,0.084,1.598c0.404,11.021,4.824,20.988,11.867,28.512
				c0.729,0.781,1.484,1.528,2.268,2.253c7.52,6.955,17.445,11.311,28.4,11.694c0.535,0.019,1.059,0.078,1.596,0.08
				c0.541,0,1.066-0.064,1.6-0.085c10.955-0.402,20.871-4.776,28.379-11.746c0.779-0.725,1.537-1.473,2.262-2.256
				c7.029-7.536,11.434-17.514,11.814-28.537c0.021-0.532,0.086-1.054,0.084-1.594C122.819,75.461,122.753,74.936,122.733,74.401z"
				/>
			<path fill="#C95722" d="M122.817,76.002c0.002-0.541-0.064-1.063-0.084-1.6l-24.027,0.02c0.404-11.048,4.99-21.041,12.281-28.397
				c-0.725-0.78-1.475-1.537-2.258-2.261c-7.867,7.932-12.816,18.729-13.217,30.664L80.235,74.44l-0.043-42.493
				c-0.531-0.021-1.053-0.084-1.592-0.083c-0.541,0-1.066,0.063-1.6,0.084l0.037,42.497l-15.275,0.013
				c-0.424-11.933-5.389-22.722-13.277-30.639c-0.777,0.727-1.525,1.485-2.25,2.268c7.301,7.34,11.908,17.326,12.33,28.376
				l-24.023,0.02c-0.02,0.536-0.084,1.062-0.078,1.602c-0.002,0.539,0.063,1.061,0.082,1.596l24.023-0.022
				c-0.4,11.049-4.99,21.047-12.279,28.396c0.725,0.783,1.477,1.539,2.258,2.268c7.869-7.933,12.814-18.734,13.217-30.664
				l15.277-0.018l0.039,42.501c0.535,0.018,1.059,0.079,1.6,0.077c0.535-0.001,1.061-0.063,1.596-0.082l-0.039-42.496l15.275-0.017
				c0.426,11.933,5.393,22.724,13.277,30.645c0.781-0.729,1.527-1.484,2.252-2.269c-7.305-7.342-11.912-17.329-12.336-28.379
				l24.029-0.02C122.755,77.063,122.815,76.54,122.817,76.002z"/>
			
				<path fill="none" stroke="#231F20" stroke-width="2.5539" stroke-linecap="round" stroke-linejoin="round" stroke-miterlimit="10" d="
				M82.601,83.205c-0.004,2.125-1.729,3.845-3.855,3.843c-2.125-0.004-3.844-1.73-3.842-3.854"/>
			<circle fill="#231F20" cx="90.037" cy="69.729" r="4.065"/>
			<circle fill="#231F20" cx="68.623" cy="69.694" r="4.065"/>
		</g>
		<g>
			<rect x="148.141" y="14" fill="#96E072" width="123" height="123"/>
			<rect x="148.141" y="144" fill="#BBBDBF" width="123" height="123"/>
		</g>
		<g>
			<rect x="18.141" y="274.807" fill="#96E072" width="123" height="123"/>
		</g>
		<g>
			<rect x="148.141" y="274.807" fill="#96E072" width="123" height="123"/>
		</g>
		<g>
			<path fill="#FFFFFF" d="M249.13,309.432c-1.484-0.332-2.957,0.602-3.289,2.086l-2.892,12.924l-12.57-14.15
				c-1.011-1.137-2.752-1.24-3.889-0.23c-1.139,1.012-1.24,2.752-0.23,3.889l7.736,8.709l-9.2,10.355l-9.2-10.355l7.736-8.709
				c1.011-1.137,0.908-2.879-0.23-3.889c-1.137-1.01-2.877-0.908-3.888,0.229l-7.303,8.221l-6.899-7.766
				c-1.01-1.139-2.751-1.24-3.889-0.23s-1.241,2.752-0.23,3.889l7.334,8.256l-9.2,10.355l-9.199-10.355l8.07-9.084
				c1.011-1.137,0.907-2.879-0.229-3.889c-1.138-1.012-2.879-0.908-3.889,0.229l-9.661,10.875c-0.007,0.008-0.013,0.014-0.02,0.021
				l-2.68,3.018l-2.754-12.311c-0.332-1.484-1.806-2.418-3.29-2.086s-2.419,1.805-2.087,3.289l12.151,54.318
				c0.287,1.281,1.425,2.152,2.686,2.152c0.199,0,0.402-0.021,0.604-0.066c1.484-0.332,2.419-1.805,2.087-3.289l-1.424-6.365
				l7.574,8.527c0.004,0.004,0.01,0.008,0.013,0.012c0.042,0.047,0.089,0.092,0.135,0.137c0.025,0.025,0.05,0.051,0.076,0.074
				c0.003,0.002,0.005,0.006,0.007,0.006c0.067,0.061,0.136,0.115,0.206,0.168c0.022,0.016,0.045,0.029,0.066,0.043
				c0.056,0.039,0.11,0.076,0.168,0.109c0.026,0.016,0.054,0.029,0.082,0.043c0.054,0.029,0.109,0.059,0.165,0.084
				c0.027,0.012,0.056,0.023,0.082,0.035c0.06,0.023,0.118,0.047,0.178,0.066c0.026,0.01,0.052,0.018,0.079,0.025
				c0.063,0.02,0.129,0.037,0.193,0.053c0.023,0.004,0.045,0.01,0.068,0.014c0.074,0.016,0.149,0.027,0.226,0.035
				c0.014,0.002,0.026,0.004,0.041,0.006c0.091,0.01,0.182,0.016,0.273,0.016c0.027,0,0.054-0.004,0.08-0.006
				c0.061,0,0.121-0.002,0.18-0.008c0.039-0.004,0.077-0.012,0.114-0.016c0.051-0.008,0.101-0.014,0.15-0.023
				c0.04-0.008,0.079-0.018,0.118-0.027c0.048-0.01,0.094-0.023,0.141-0.037c0.041-0.012,0.081-0.023,0.12-0.039
				c0.044-0.014,0.087-0.031,0.13-0.047c0.042-0.018,0.083-0.035,0.124-0.055c0.039-0.018,0.077-0.037,0.115-0.057
				c0.043-0.023,0.087-0.045,0.128-0.07c0.031-0.018,0.063-0.039,0.092-0.059c0.167-0.107,0.324-0.234,0.469-0.381
				c0.026-0.027,0.055-0.055,0.079-0.082c0.007-0.008,0.015-0.012,0.021-0.02l10.825-12.186l10.825,12.186
				c0.006,0.006,0.011,0.012,0.017,0.016c0.033,0.039,0.07,0.074,0.106,0.109c0.035,0.035,0.069,0.07,0.104,0.104
				c0.001,0,0.002,0,0.003,0c0.046,0.043,0.096,0.08,0.144,0.119c0.058,0.043,0.115,0.084,0.175,0.123
				c0.038,0.025,0.075,0.051,0.114,0.074c0.038,0.021,0.077,0.041,0.116,0.063c0.042,0.021,0.084,0.043,0.127,0.064
				c0.038,0.018,0.077,0.033,0.115,0.049c0.046,0.018,0.092,0.035,0.138,0.053c0.039,0.012,0.077,0.023,0.115,0.035
				c0.049,0.016,0.098,0.027,0.146,0.039c0.038,0.01,0.075,0.018,0.114,0.025c0.051,0.012,0.104,0.018,0.155,0.025
				c0.036,0.004,0.073,0.01,0.109,0.014c0.062,0.006,0.123,0.008,0.185,0.01c0.025,0.002,0.051,0.004,0.076,0.004
				c0.092,0,0.184-0.006,0.275-0.016c0.012,0,0.023-0.002,0.035-0.004c0.078-0.01,0.155-0.021,0.232-0.037
				c0.02-0.004,0.04-0.008,0.061-0.012c0.068-0.018,0.136-0.035,0.203-0.055c0.022-0.008,0.046-0.014,0.069-0.021
				c0.063-0.023,0.126-0.047,0.188-0.072c0.023-0.01,0.048-0.02,0.071-0.029c0.062-0.029,0.122-0.061,0.182-0.092
				c0.022-0.012,0.044-0.023,0.066-0.035c0.067-0.041,0.134-0.084,0.198-0.129c0.012-0.01,0.023-0.016,0.036-0.025
				c0.072-0.051,0.143-0.107,0.21-0.168c0.004-0.002,0.007-0.006,0.011-0.01c0.016-0.016,0.031-0.031,0.047-0.047
				c0.057-0.053,0.112-0.107,0.163-0.164c0.003-0.004,0.006-0.006,0.01-0.01l8.487-9.553l-1.654,7.391
				c-0.331,1.484,0.603,2.957,2.087,3.289c0.203,0.045,0.405,0.066,0.604,0.066c1.261,0,2.398-0.871,2.685-2.152l12.152-54.318
				C251.549,311.237,250.615,309.764,249.13,309.432z M241.467,331.069l-3.701,16.545l-9.285-10.451l9.2-10.355L241.467,331.069z
				 M186.603,347l-3.702-16.547l3.241-3.646l9.2,10.355L186.603,347z M199.026,341.309l9.199,10.355l-9.199,10.357l-9.199-10.357
				L199.026,341.309z M202.711,337.163l9.2-10.355l9.199,10.355l-9.199,10.355L202.711,337.163z M224.795,341.309l9.2,10.357
				l-9.199,10.355l-9.2-10.357L224.795,341.309z"/>
			<g>
				<path fill="#2B388F" d="M253.931,316.245h-83.356c-2.41,0-4.363-1.953-4.363-4.363c0-2.412,1.953-4.365,4.363-4.365h83.356
					c2.41,0,4.364,1.953,4.364,4.365C258.295,314.292,256.341,316.245,253.931,316.245z"/>
			</g>
		</g>
		<g>
			
				<path fill="none" stroke="#6D6E70" stroke-width="8.0001" stroke-linecap="round" stroke-linejoin="round" stroke-miterlimit="10" d="
				M189.058,214.518v-29.702c0-11.516,9.336-20.852,20.853-20.852l0,0c11.516,0,20.851,9.336,20.851,20.852v27.694"/>
			
				<path fill="#6D6E70" stroke="#6D6E70" stroke-width="4.308" stroke-linecap="round" stroke-linejoin="round" stroke-miterlimit="10" d="
				M181.7,197.269v21.816c0,15.578,12.631,28.207,28.21,28.207c15.578,0,28.207-12.629,28.207-28.207v-21.816H181.7z"/>
			<circle fill="#231F20" cx="209.909" cy="215.915" r="6.893"/>
			
				<line fill="none" stroke="#231F20" stroke-width="6.462" stroke-linecap="round" stroke-linejoin="round" stroke-miterlimit="10" x1="209.91" y1="216.893" x2="209.91" y2="230.444"/>
		</g>
	</g>
</g>
<g id="tab_13_1_" display="none">
	<g display="inline">
		<path fill="#6D6E70" d="M267.411,0H20.869C9.344,0,0,9.344,0,20.87v370.261C0,402.657,9.344,412,20.869,412h246.542
			c11.525,0,20.869-9.344,20.869-20.869V20.87C288.28,9.344,278.937,0,267.411,0z"/>
		<g>
			<rect x="18.141" y="14" fill="#96E072" width="123" height="123"/>
			<rect x="18.141" y="144" fill="#96E072" width="123" height="123"/>
		</g>
		<g>
			<path fill="#F26522" d="M122.733,74.401c-0.404-11.021-4.832-20.989-11.871-28.515c-0.727-0.778-1.484-1.525-2.268-2.25
				c-7.52-6.954-17.441-11.308-28.396-11.693c-0.535-0.019-1.061-0.083-1.6-0.078c-0.539-0.002-1.061,0.061-1.598,0.083
				C66.05,32.351,56.136,36.724,48.63,43.69c-0.785,0.727-1.541,1.477-2.268,2.259c-7.025,7.531-11.432,17.51-11.82,28.533
				c-0.018,0.534-0.078,1.058-0.078,1.6c0.002,0.536,0.063,1.062,0.084,1.598c0.404,11.021,4.824,20.988,11.867,28.512
				c0.729,0.781,1.484,1.528,2.268,2.253c7.52,6.955,17.445,11.311,28.4,11.694c0.535,0.019,1.059,0.078,1.596,0.08
				c0.541,0,1.066-0.064,1.6-0.085c10.955-0.402,20.871-4.776,28.379-11.746c0.779-0.725,1.537-1.473,2.262-2.256
				c7.029-7.536,11.434-17.514,11.814-28.537c0.021-0.532,0.086-1.054,0.084-1.594C122.819,75.461,122.753,74.936,122.733,74.401z"
				/>
			<path fill="#C95722" d="M122.817,76.002c0.002-0.541-0.064-1.063-0.084-1.6l-24.027,0.02c0.404-11.048,4.99-21.041,12.281-28.397
				c-0.725-0.78-1.475-1.537-2.258-2.261c-7.867,7.932-12.816,18.729-13.217,30.664L80.235,74.44l-0.043-42.493
				c-0.531-0.021-1.053-0.084-1.592-0.083c-0.541,0-1.066,0.063-1.6,0.084l0.037,42.497l-15.275,0.013
				c-0.424-11.933-5.389-22.722-13.277-30.639c-0.777,0.727-1.525,1.485-2.25,2.268c7.301,7.34,11.908,17.326,12.33,28.376
				l-24.023,0.02c-0.02,0.536-0.084,1.062-0.078,1.602c-0.002,0.539,0.063,1.061,0.082,1.596l24.023-0.022
				c-0.4,11.049-4.99,21.047-12.279,28.396c0.725,0.783,1.477,1.539,2.258,2.268c7.869-7.933,12.814-18.734,13.217-30.664
				l15.277-0.018l0.039,42.501c0.535,0.018,1.059,0.079,1.6,0.077c0.535-0.001,1.061-0.063,1.596-0.082l-0.039-42.496l15.275-0.017
				c0.426,11.933,5.393,22.724,13.277,30.645c0.781-0.729,1.527-1.484,2.252-2.269c-7.305-7.342-11.912-17.329-12.336-28.379
				l24.029-0.02C122.755,77.063,122.815,76.54,122.817,76.002z"/>
			
				<path fill="none" stroke="#231F20" stroke-width="2.5539" stroke-linecap="round" stroke-linejoin="round" stroke-miterlimit="10" d="
				M82.601,83.205c-0.004,2.125-1.729,3.845-3.855,3.843c-2.125-0.004-3.844-1.73-3.842-3.854"/>
			<circle fill="#231F20" cx="90.037" cy="69.729" r="4.065"/>
			<circle fill="#231F20" cx="68.623" cy="69.694" r="4.065"/>
		</g>
		<g>
			<rect x="148.141" y="14" fill="#96E072" width="123" height="123"/>
			<rect x="148.141" y="144" fill="#BBBDBF" width="123" height="123"/>
		</g>
		<g>
			<rect x="18.141" y="274.807" fill="#96E072" width="123" height="123"/>
		</g>
		<g>
			<rect x="148.141" y="274.807" fill="#96E072" width="123" height="123"/>
		</g>
		<g>
			<path fill="#FFFFFF" d="M249.13,309.432c-1.484-0.332-2.957,0.602-3.289,2.086l-2.892,12.924l-12.57-14.15
				c-1.011-1.137-2.752-1.24-3.889-0.23c-1.139,1.012-1.24,2.752-0.23,3.889l7.736,8.709l-9.2,10.355l-9.2-10.355l7.736-8.709
				c1.011-1.137,0.908-2.879-0.23-3.889c-1.137-1.01-2.877-0.908-3.888,0.229l-7.303,8.221l-6.899-7.766
				c-1.01-1.139-2.751-1.24-3.889-0.23s-1.241,2.752-0.23,3.889l7.334,8.256l-9.2,10.355l-9.199-10.355l8.07-9.084
				c1.011-1.137,0.907-2.879-0.229-3.889c-1.138-1.012-2.879-0.908-3.889,0.229l-9.661,10.875c-0.007,0.008-0.013,0.014-0.02,0.021
				l-2.68,3.018l-2.754-12.311c-0.332-1.484-1.806-2.418-3.29-2.086s-2.419,1.805-2.087,3.289l12.151,54.318
				c0.287,1.281,1.425,2.152,2.686,2.152c0.199,0,0.402-0.021,0.604-0.066c1.484-0.332,2.419-1.805,2.087-3.289l-1.424-6.365
				l7.574,8.527c0.004,0.004,0.01,0.008,0.013,0.012c0.042,0.047,0.089,0.092,0.135,0.137c0.025,0.025,0.05,0.051,0.076,0.074
				c0.003,0.002,0.005,0.006,0.007,0.006c0.067,0.061,0.136,0.115,0.206,0.168c0.022,0.016,0.045,0.029,0.066,0.043
				c0.056,0.039,0.11,0.076,0.168,0.109c0.026,0.016,0.054,0.029,0.082,0.043c0.054,0.029,0.109,0.059,0.165,0.084
				c0.027,0.012,0.056,0.023,0.082,0.035c0.06,0.023,0.118,0.047,0.178,0.066c0.026,0.01,0.052,0.018,0.079,0.025
				c0.063,0.02,0.129,0.037,0.193,0.053c0.023,0.004,0.045,0.01,0.068,0.014c0.074,0.016,0.149,0.027,0.226,0.035
				c0.014,0.002,0.026,0.004,0.041,0.006c0.091,0.01,0.182,0.016,0.273,0.016c0.027,0,0.054-0.004,0.08-0.006
				c0.061,0,0.121-0.002,0.18-0.008c0.039-0.004,0.077-0.012,0.114-0.016c0.051-0.008,0.101-0.014,0.15-0.023
				c0.04-0.008,0.079-0.018,0.118-0.027c0.048-0.01,0.094-0.023,0.141-0.037c0.041-0.012,0.081-0.023,0.12-0.039
				c0.044-0.014,0.087-0.031,0.13-0.047c0.042-0.018,0.083-0.035,0.124-0.055c0.039-0.018,0.077-0.037,0.115-0.057
				c0.043-0.023,0.087-0.045,0.128-0.07c0.031-0.018,0.063-0.039,0.092-0.059c0.167-0.107,0.324-0.234,0.469-0.381
				c0.026-0.027,0.055-0.055,0.079-0.082c0.007-0.008,0.015-0.012,0.021-0.02l10.825-12.186l10.825,12.186
				c0.006,0.006,0.011,0.012,0.017,0.016c0.033,0.039,0.07,0.074,0.106,0.109c0.035,0.035,0.069,0.07,0.104,0.104
				c0.001,0,0.002,0,0.003,0c0.046,0.043,0.096,0.08,0.144,0.119c0.058,0.043,0.115,0.084,0.175,0.123
				c0.038,0.025,0.075,0.051,0.114,0.074c0.038,0.021,0.077,0.041,0.116,0.063c0.042,0.021,0.084,0.043,0.127,0.064
				c0.038,0.018,0.077,0.033,0.115,0.049c0.046,0.018,0.092,0.035,0.138,0.053c0.039,0.012,0.077,0.023,0.115,0.035
				c0.049,0.016,0.098,0.027,0.146,0.039c0.038,0.01,0.075,0.018,0.114,0.025c0.051,0.012,0.104,0.018,0.155,0.025
				c0.036,0.004,0.073,0.01,0.109,0.014c0.062,0.006,0.123,0.008,0.185,0.01c0.025,0.002,0.051,0.004,0.076,0.004
				c0.092,0,0.184-0.006,0.275-0.016c0.012,0,0.023-0.002,0.035-0.004c0.078-0.01,0.155-0.021,0.232-0.037
				c0.02-0.004,0.04-0.008,0.061-0.012c0.068-0.018,0.136-0.035,0.203-0.055c0.022-0.008,0.046-0.014,0.069-0.021
				c0.063-0.023,0.126-0.047,0.188-0.072c0.023-0.01,0.048-0.02,0.071-0.029c0.062-0.029,0.122-0.061,0.182-0.092
				c0.022-0.012,0.044-0.023,0.066-0.035c0.067-0.041,0.134-0.084,0.198-0.129c0.012-0.01,0.023-0.016,0.036-0.025
				c0.072-0.051,0.143-0.107,0.21-0.168c0.004-0.002,0.007-0.006,0.011-0.01c0.016-0.016,0.031-0.031,0.047-0.047
				c0.057-0.053,0.112-0.107,0.163-0.164c0.003-0.004,0.006-0.006,0.01-0.01l8.487-9.553l-1.654,7.391
				c-0.331,1.484,0.603,2.957,2.087,3.289c0.203,0.045,0.405,0.066,0.604,0.066c1.261,0,2.398-0.871,2.685-2.152l12.152-54.318
				C251.549,311.237,250.615,309.764,249.13,309.432z M241.467,331.069l-3.701,16.545l-9.285-10.451l9.2-10.355L241.467,331.069z
				 M186.603,347l-3.702-16.547l3.241-3.646l9.2,10.355L186.603,347z M199.026,341.309l9.199,10.355l-9.199,10.357l-9.199-10.357
				L199.026,341.309z M202.711,337.163l9.2-10.355l9.199,10.355l-9.199,10.355L202.711,337.163z M224.795,341.309l9.2,10.357
				l-9.199,10.355l-9.2-10.357L224.795,341.309z"/>
			<g>
				<path fill="#2B388F" d="M253.931,316.245h-83.356c-2.41,0-4.363-1.953-4.363-4.363c0-2.412,1.953-4.365,4.363-4.365h83.356
					c2.41,0,4.364,1.953,4.364,4.365C258.295,314.292,256.341,316.245,253.931,316.245z"/>
			</g>
		</g>
		<g>
			
				<path fill="none" stroke="#6D6E70" stroke-width="8.0001" stroke-linecap="round" stroke-linejoin="round" stroke-miterlimit="10" d="
				M189.058,214.518v-29.702c0-11.516,9.336-20.852,20.853-20.852l0,0c11.516,0,20.851,9.336,20.851,20.852v27.694"/>
			
				<path fill="#6D6E70" stroke="#6D6E70" stroke-width="4.308" stroke-linecap="round" stroke-linejoin="round" stroke-miterlimit="10" d="
				M181.7,197.269v21.816c0,15.578,12.631,28.207,28.21,28.207c15.578,0,28.207-12.629,28.207-28.207v-21.816H181.7z"/>
			<circle fill="#231F20" cx="209.909" cy="215.915" r="6.893"/>
			
				<line fill="none" stroke="#231F20" stroke-width="6.462" stroke-linecap="round" stroke-linejoin="round" stroke-miterlimit="10" x1="209.91" y1="216.893" x2="209.91" y2="230.444"/>
		</g>
	</g>
</g>
<g id="tab13">
	<g>
		<path fill="#FFFFFF" d="M267.411,0H20.869C9.344,0,0,9.344,0,20.87v370.261C0,402.657,9.344,412,20.869,412h246.542
			c11.525,0,20.869-9.344,20.869-20.869V20.87C288.28,9.344,278.937,0,267.411,0z"/>
		<g>
			<rect x="18.141" y="14" fill="#96E072" width="123" height="123"/>
			<rect x="18.141" y="144" fill="#96E072" width="123" height="123"/>
		</g>
		<g>
			<path fill="#F26522" d="M122.733,74.401c-0.404-11.021-4.832-20.989-11.871-28.515c-0.727-0.778-1.484-1.525-2.268-2.25
				c-7.52-6.954-17.441-11.308-28.396-11.693c-0.535-0.019-1.061-0.083-1.6-0.078c-0.539-0.002-1.061,0.061-1.598,0.083
				C66.05,32.351,56.136,36.724,48.63,43.69c-0.785,0.727-1.541,1.477-2.268,2.259c-7.025,7.531-11.432,17.51-11.82,28.533
				c-0.018,0.534-0.078,1.058-0.078,1.6c0.002,0.536,0.063,1.062,0.084,1.598c0.404,11.021,4.824,20.988,11.867,28.512
				c0.729,0.781,1.484,1.528,2.268,2.253c7.52,6.955,17.445,11.311,28.4,11.694c0.535,0.019,1.059,0.078,1.596,0.08
				c0.541,0,1.066-0.064,1.6-0.085c10.955-0.402,20.871-4.776,28.379-11.746c0.779-0.725,1.537-1.473,2.262-2.256
				c7.029-7.536,11.434-17.514,11.814-28.537c0.021-0.532,0.086-1.054,0.084-1.594C122.819,75.461,122.753,74.936,122.733,74.401z"
				/>
			<path fill="#C95722" d="M122.817,76.002c0.002-0.541-0.064-1.063-0.084-1.6l-24.027,0.02c0.404-11.048,4.99-21.041,12.281-28.397
				c-0.725-0.78-1.475-1.537-2.258-2.261c-7.867,7.932-12.816,18.729-13.217,30.664L80.235,74.44l-0.043-42.493
				c-0.531-0.021-1.053-0.084-1.592-0.083c-0.541,0-1.066,0.063-1.6,0.084l0.037,42.497l-15.275,0.013
				c-0.424-11.933-5.389-22.722-13.277-30.639c-0.777,0.727-1.525,1.485-2.25,2.268c7.301,7.34,11.908,17.326,12.33,28.376
				l-24.023,0.02c-0.02,0.536-0.084,1.062-0.078,1.602c-0.002,0.539,0.063,1.061,0.082,1.596l24.023-0.022
				c-0.4,11.049-4.99,21.047-12.279,28.396c0.725,0.783,1.477,1.539,2.258,2.268c7.869-7.933,12.814-18.734,13.217-30.664
				l15.277-0.018l0.039,42.501c0.535,0.018,1.059,0.079,1.6,0.077c0.535-0.001,1.061-0.063,1.596-0.082l-0.039-42.496l15.275-0.017
				c0.426,11.933,5.393,22.724,13.277,30.645c0.781-0.729,1.527-1.484,2.252-2.269c-7.305-7.342-11.912-17.329-12.336-28.379
				l24.029-0.02C122.755,77.063,122.815,76.54,122.817,76.002z"/>
			
				<path fill="none" stroke="#231F20" stroke-width="2.5539" stroke-linecap="round" stroke-linejoin="round" stroke-miterlimit="10" d="
				M82.601,83.205c-0.004,2.125-1.729,3.845-3.855,3.843c-2.125-0.004-3.844-1.73-3.842-3.854"/>
			<circle fill="#231F20" cx="90.037" cy="69.729" r="4.065"/>
			<circle fill="#231F20" cx="68.623" cy="69.694" r="4.065"/>
		</g>
		<g>
			<rect x="148.141" y="14" fill="#96E072" width="123" height="123"/>
			<rect x="148.141" y="144" fill="#BBBDBF" width="123" height="123"/>
		</g>
		<g>
			<rect x="18.141" y="274.807" fill="#96E072" width="123" height="123"/>
		</g>
		<g>
			<rect x="148.141" y="274.807" fill="#96E072" width="123" height="123"/>
		</g>
		<g>
			<path fill="#FFFFFF" d="M249.13,309.432c-1.484-0.332-2.957,0.602-3.289,2.086l-2.892,12.924l-12.57-14.15
				c-1.011-1.137-2.752-1.24-3.889-0.23c-1.139,1.012-1.24,2.752-0.23,3.889l7.736,8.709l-9.2,10.355l-9.2-10.355l7.736-8.709
				c1.011-1.137,0.908-2.879-0.23-3.889c-1.137-1.01-2.877-0.908-3.888,0.229l-7.303,8.221l-6.899-7.766
				c-1.01-1.139-2.751-1.24-3.889-0.23s-1.241,2.752-0.23,3.889l7.334,8.256l-9.2,10.355l-9.199-10.355l8.07-9.084
				c1.011-1.137,0.907-2.879-0.229-3.889c-1.138-1.012-2.879-0.908-3.889,0.229l-9.661,10.875c-0.007,0.008-0.013,0.014-0.02,0.021
				l-2.68,3.018l-2.754-12.311c-0.332-1.484-1.806-2.418-3.29-2.086s-2.419,1.805-2.087,3.289l12.151,54.318
				c0.287,1.281,1.425,2.152,2.686,2.152c0.199,0,0.402-0.021,0.604-0.066c1.484-0.332,2.419-1.805,2.087-3.289l-1.424-6.365
				l7.574,8.527c0.004,0.004,0.01,0.008,0.013,0.012c0.042,0.047,0.089,0.092,0.135,0.137c0.025,0.025,0.05,0.051,0.076,0.074
				c0.003,0.002,0.005,0.006,0.007,0.006c0.067,0.061,0.136,0.115,0.206,0.168c0.022,0.016,0.045,0.029,0.066,0.043
				c0.056,0.039,0.11,0.076,0.168,0.109c0.026,0.016,0.054,0.029,0.082,0.043c0.054,0.029,0.109,0.059,0.165,0.084
				c0.027,0.012,0.056,0.023,0.082,0.035c0.06,0.023,0.118,0.047,0.178,0.066c0.026,0.01,0.052,0.018,0.079,0.025
				c0.063,0.02,0.129,0.037,0.193,0.053c0.023,0.004,0.045,0.01,0.068,0.014c0.074,0.016,0.149,0.027,0.226,0.035
				c0.014,0.002,0.026,0.004,0.041,0.006c0.091,0.01,0.182,0.016,0.273,0.016c0.027,0,0.054-0.004,0.08-0.006
				c0.061,0,0.121-0.002,0.18-0.008c0.039-0.004,0.077-0.012,0.114-0.016c0.051-0.008,0.101-0.014,0.15-0.023
				c0.04-0.008,0.079-0.018,0.118-0.027c0.048-0.01,0.094-0.023,0.141-0.037c0.041-0.012,0.081-0.023,0.12-0.039
				c0.044-0.014,0.087-0.031,0.13-0.047c0.042-0.018,0.083-0.035,0.124-0.055c0.039-0.018,0.077-0.037,0.115-0.057
				c0.043-0.023,0.087-0.045,0.128-0.07c0.031-0.018,0.063-0.039,0.092-0.059c0.167-0.107,0.324-0.234,0.469-0.381
				c0.026-0.027,0.055-0.055,0.079-0.082c0.007-0.008,0.015-0.012,0.021-0.02l10.825-12.186l10.825,12.186
				c0.006,0.006,0.011,0.012,0.017,0.016c0.033,0.039,0.07,0.074,0.106,0.109c0.035,0.035,0.069,0.07,0.104,0.104
				c0.001,0,0.002,0,0.003,0c0.046,0.043,0.096,0.08,0.144,0.119c0.058,0.043,0.115,0.084,0.175,0.123
				c0.038,0.025,0.075,0.051,0.114,0.074c0.038,0.021,0.077,0.041,0.116,0.063c0.042,0.021,0.084,0.043,0.127,0.064
				c0.038,0.018,0.077,0.033,0.115,0.049c0.046,0.018,0.092,0.035,0.138,0.053c0.039,0.012,0.077,0.023,0.115,0.035
				c0.049,0.016,0.098,0.027,0.146,0.039c0.038,0.01,0.075,0.018,0.114,0.025c0.051,0.012,0.104,0.018,0.155,0.025
				c0.036,0.004,0.073,0.01,0.109,0.014c0.062,0.006,0.123,0.008,0.185,0.01c0.025,0.002,0.051,0.004,0.076,0.004
				c0.092,0,0.184-0.006,0.275-0.016c0.012,0,0.023-0.002,0.035-0.004c0.078-0.01,0.155-0.021,0.232-0.037
				c0.02-0.004,0.04-0.008,0.061-0.012c0.068-0.018,0.136-0.035,0.203-0.055c0.022-0.008,0.046-0.014,0.069-0.021
				c0.063-0.023,0.126-0.047,0.188-0.072c0.023-0.01,0.048-0.02,0.071-0.029c0.062-0.029,0.122-0.061,0.182-0.092
				c0.022-0.012,0.044-0.023,0.066-0.035c0.067-0.041,0.134-0.084,0.198-0.129c0.012-0.01,0.023-0.016,0.036-0.025
				c0.072-0.051,0.143-0.107,0.21-0.168c0.004-0.002,0.007-0.006,0.011-0.01c0.016-0.016,0.031-0.031,0.047-0.047
				c0.057-0.053,0.112-0.107,0.163-0.164c0.003-0.004,0.006-0.006,0.01-0.01l8.487-9.553l-1.654,7.391
				c-0.331,1.484,0.603,2.957,2.087,3.289c0.203,0.045,0.405,0.066,0.604,0.066c1.261,0,2.398-0.871,2.685-2.152l12.152-54.318
				C251.549,311.237,250.615,309.764,249.13,309.432z M241.467,331.069l-3.701,16.545l-9.285-10.451l9.2-10.355L241.467,331.069z
				 M186.603,347l-3.702-16.547l3.241-3.646l9.2,10.355L186.603,347z M199.026,341.309l9.199,10.355l-9.199,10.357l-9.199-10.357
				L199.026,341.309z M202.711,337.163l9.2-10.355l9.199,10.355l-9.199,10.355L202.711,337.163z M224.795,341.309l9.2,10.357
				l-9.199,10.355l-9.2-10.357L224.795,341.309z"/>
			<g>
				<path fill="#2B388F" d="M253.931,316.245h-83.356c-2.41,0-4.363-1.953-4.363-4.363c0-2.412,1.953-4.365,4.363-4.365h83.356
					c2.41,0,4.364,1.953,4.364,4.365C258.295,314.292,256.341,316.245,253.931,316.245z"/>
			</g>
		</g>
		<g>
			
				<path fill="none" stroke="#6D6E70" stroke-width="8.0001" stroke-linecap="round" stroke-linejoin="round" stroke-miterlimit="10" d="
				M189.058,214.518v-29.702c0-11.516,9.336-20.852,20.853-20.852l0,0c11.516,0,20.851,9.336,20.851,20.852v27.694"/>
			
				<path fill="#6D6E70" stroke="#6D6E70" stroke-width="4.308" stroke-linecap="round" stroke-linejoin="round" stroke-miterlimit="10" d="
				M181.7,197.269v21.816c0,15.578,12.631,28.207,28.21,28.207c15.578,0,28.207-12.629,28.207-28.207v-21.816H181.7z"/>
			<circle fill="#231F20" cx="209.909" cy="215.915" r="6.893"/>
			
				<line fill="none" stroke="#231F20" stroke-width="6.462" stroke-linecap="round" stroke-linejoin="round" stroke-miterlimit="10" x1="209.91" y1="216.893" x2="209.91" y2="230.444"/>
		</g>
	</g>
</g>
<g id="prog_b_1_" display="none">
	<g display="inline">
		<path fill="#FFFFFF" d="M224.78,25.87c0-11.526-9.344-20.87-20.869-20.87H84.369C72.844,5,63.5,14.344,63.5,25.87v360.261
			C63.5,397.657,72.844,407,84.369,407h119.542c11.525,0,20.869-9.344,20.869-20.869V25.87z"/>
		<g>
			<path fill="#EF5D81" d="M141.467,348.167l-4.386,3.063c-0.639,0.445-1.389,0.682-2.169,0.682s-1.531-0.236-2.169-0.682
				l-4.386-3.063h-6.031c-5.81,0-10.534-4.727-10.534-10.535V135.848c0-5.81,4.725-10.534,10.534-10.534h5.873
				c0.205,0,0.403,0.063,0.572,0.181l5.118,3.575c0.602,0.422,1.442,0.422,2.045,0l5.117-3.575c0.169-0.118,0.369-0.181,0.574-0.181
				H185.5v-72.29c0,0-82,0-82.867,0c-5.267,0-9.533,4.268-9.533,9.533v286.887c0,5.266,4.267,9.533,9.533,9.533
				c0.203,0,82.867,0,82.867,0v-10.811H141.467z"/>
			
				<path fill="#FFC85E" stroke="#FFFFFF" stroke-width="1.8007" stroke-linecap="round" stroke-linejoin="round" stroke-miterlimit="10" d="
				M195.182,126.315h-53.556l-5.118,3.575c-0.479,0.336-1.038,0.502-1.596,0.502c-0.559,0-1.117-0.166-1.597-0.502l-5.116-3.575
				h-0.308c-1.053,0-4.698,0-5.565,0c-5.266,0-9.533,4.268-9.533,9.532v54.355c0,5.264,4.268,9.532,9.533,9.532
				c0.204,0,2.578,0,6.348,0l4.642,3.243c0.479,0.336,1.038,0.502,1.597,0.502c0.558,0,1.116-0.166,1.596-0.502l4.644-3.243
				c21.591,0,54.03,0,54.03,0V126.315z"/>
			
				<polygon fill="#231F20" stroke="#231F20" stroke-width="5.0061" stroke-linecap="round" stroke-linejoin="round" stroke-miterlimit="10" points="
				134.897,77.649 157.058,90.443 134.897,103.238 			"/>
			
				<path fill="#FFC85E" stroke="#FFFFFF" stroke-width="1.8007" stroke-linecap="round" stroke-linejoin="round" stroke-miterlimit="10" d="
				M195.182,199.845h-53.556l-5.118,3.575c-0.479,0.335-1.038,0.502-1.596,0.502c-0.559,0-1.117-0.167-1.597-0.502l-5.116-3.575
				h-0.308c-1.053,0-4.698,0-5.565,0c-5.266,0-9.533,4.268-9.533,9.533v54.354c0,5.264,4.268,9.533,9.533,9.533
				c0.204,0,2.578,0,6.348,0l4.642,3.244c0.479,0.336,1.038,0.502,1.597,0.502c0.558,0,1.116-0.166,1.596-0.502l4.644-3.244
				c21.591,0,54.03,0,54.03,0V199.845z"/>
			<g>
				
					<line fill="none" stroke="#231F20" stroke-width="7" stroke-linecap="round" stroke-linejoin="round" stroke-miterlimit="10" x1="144.207" y1="164.707" x2="166.89" y2="164.707"/>
				
					<polyline fill="none" stroke="#231F20" stroke-width="7" stroke-linecap="round" stroke-linejoin="round" stroke-miterlimit="10" points="
					157.035,153.984 168.035,164.707 157.035,175.432 				"/>
			</g>
			<g>
				
					<line fill="none" stroke="#231F20" stroke-width="7" stroke-linecap="round" stroke-linejoin="round" stroke-miterlimit="10" x1="156.122" y1="225.793" x2="156.122" y2="248.475"/>
				
					<polyline fill="none" stroke="#231F20" stroke-width="7" stroke-linecap="round" stroke-linejoin="round" stroke-miterlimit="10" points="
					166.845,238.622 156.122,249.622 145.397,238.622 				"/>
			</g>
			
				<path fill="#FFC85E" stroke="#FFFFFF" stroke-width="1.8007" stroke-linecap="round" stroke-linejoin="round" stroke-miterlimit="10" d="
				M195.182,273.844h-53.556l-5.118,3.576c-0.479,0.334-1.038,0.502-1.596,0.502c-0.559,0-1.117-0.168-1.597-0.502l-5.116-3.576
				h-0.308c-1.053,0-4.698,0-5.565,0c-5.266,0-9.533,4.268-9.533,9.533v54.354c0,5.264,4.268,9.533,9.533,9.533
				c0.204,0,2.578,0,6.348,0l4.642,3.244c0.479,0.336,1.038,0.502,1.597,0.502c0.558,0,1.116-0.166,1.596-0.502l4.644-3.244
				c21.591,0,54.03,0,54.03,0V273.844z"/>
			<g>
				
					<line fill="none" stroke="#231F20" stroke-width="7" stroke-linecap="round" stroke-linejoin="round" stroke-miterlimit="10" x1="156.124" y1="299.793" x2="156.124" y2="322.475"/>
				
					<polyline fill="none" stroke="#231F20" stroke-width="7" stroke-linecap="round" stroke-linejoin="round" stroke-miterlimit="10" points="
					166.847,312.622 156.124,323.622 145.399,312.622 				"/>
			</g>
		</g>
	</g>
</g>
<g id="prog_a_1_" display="none">
	<g display="inline">
		<path fill="#FFFFFF" d="M224.78,25.87c0-11.526-9.344-20.87-20.869-20.87H84.369C72.844,5,63.5,14.344,63.5,25.87v360.261
			C63.5,397.657,72.844,407,84.369,407h119.542c11.525,0,20.869-9.344,20.869-20.869V25.87z"/>
		<g>
			<path fill="#EF5D81" d="M141.467,348.167l-4.386,3.063c-0.639,0.445-1.389,0.682-2.169,0.682s-1.531-0.236-2.169-0.682
				l-4.386-3.063h-6.031c-5.81,0-10.534-4.727-10.534-10.535V135.848c0-5.81,4.725-10.534,10.534-10.534h5.873
				c0.205,0,0.403,0.063,0.572,0.181l5.118,3.575c0.602,0.422,1.442,0.422,2.045,0l5.117-3.575c0.169-0.118,0.369-0.181,0.574-0.181
				H185.5v-72.29c0,0-82,0-82.867,0c-5.267,0-9.533,4.268-9.533,9.533v286.887c0,5.266,4.267,9.533,9.533,9.533
				c0.203,0,82.867,0,82.867,0v-10.811H141.467z"/>
			
				<path fill="#FFC85E" stroke="#FFFFFF" stroke-width="1.8007" stroke-linecap="round" stroke-linejoin="round" stroke-miterlimit="10" d="
				M195.182,126.315h-53.556l-5.118,3.575c-0.479,0.336-1.038,0.502-1.596,0.502c-0.559,0-1.117-0.166-1.597-0.502l-5.116-3.575
				h-0.308c-1.053,0-4.698,0-5.565,0c-5.266,0-9.533,4.268-9.533,9.532v54.355c0,5.264,4.268,9.532,9.533,9.532
				c0.204,0,2.578,0,6.348,0l4.642,3.243c0.479,0.336,1.038,0.502,1.597,0.502c0.558,0,1.116-0.166,1.596-0.502l4.644-3.243
				c21.591,0,54.03,0,54.03,0V126.315z"/>
			
				<polygon fill="#231F20" stroke="#231F20" stroke-width="5.0061" stroke-linecap="round" stroke-linejoin="round" stroke-miterlimit="10" points="
				134.897,77.649 157.058,90.443 134.897,103.238 			"/>
			
				<path fill="#FFC85E" stroke="#FFFFFF" stroke-width="1.8007" stroke-linecap="round" stroke-linejoin="round" stroke-miterlimit="10" d="
				M195.182,199.845h-53.556l-5.118,3.575c-0.479,0.335-1.038,0.502-1.596,0.502c-0.559,0-1.117-0.167-1.597-0.502l-5.116-3.575
				h-0.308c-1.053,0-4.698,0-5.565,0c-5.266,0-9.533,4.268-9.533,9.533v54.354c0,5.264,4.268,9.533,9.533,9.533
				c0.204,0,2.578,0,6.348,0l4.642,3.244c0.479,0.336,1.038,0.502,1.597,0.502c0.558,0,1.116-0.166,1.596-0.502l4.644-3.244
				c21.591,0,54.03,0,54.03,0V199.845z"/>
			<g>
				
					<line fill="none" stroke="#231F20" stroke-width="7" stroke-linecap="round" stroke-linejoin="round" stroke-miterlimit="10" x1="156.122" y1="152.794" x2="156.122" y2="175.477"/>
				
					<polyline fill="none" stroke="#231F20" stroke-width="7" stroke-linecap="round" stroke-linejoin="round" stroke-miterlimit="10" points="
					166.845,165.622 156.122,176.622 145.397,165.622 				"/>
			</g>
			<g>
				
					<line fill="none" stroke="#231F20" stroke-width="7" stroke-linecap="round" stroke-linejoin="round" stroke-miterlimit="10" x1="156.121" y1="225.793" x2="156.121" y2="248.475"/>
				
					<polyline fill="none" stroke="#231F20" stroke-width="7" stroke-linecap="round" stroke-linejoin="round" stroke-miterlimit="10" points="
					166.845,238.622 156.121,249.622 145.397,238.622 				"/>
			</g>
			
				<path fill="#FFC85E" stroke="#FFFFFF" stroke-width="1.8007" stroke-linecap="round" stroke-linejoin="round" stroke-miterlimit="10" d="
				M195.182,273.844h-53.556l-5.118,3.576c-0.479,0.334-1.038,0.502-1.596,0.502c-0.559,0-1.117-0.168-1.597-0.502l-5.116-3.576
				h-0.308c-1.053,0-4.698,0-5.565,0c-5.266,0-9.533,4.268-9.533,9.533v54.354c0,5.264,4.268,9.533,9.533,9.533
				c0.204,0,2.578,0,6.348,0l4.642,3.244c0.479,0.336,1.038,0.502,1.597,0.502c0.558,0,1.116-0.166,1.596-0.502l4.644-3.244
				c21.591,0,54.03,0,54.03,0V273.844z"/>
			<g>
				
					<line fill="none" stroke="#231F20" stroke-width="7" stroke-linecap="round" stroke-linejoin="round" stroke-miterlimit="10" x1="144.207" y1="311.708" x2="166.89" y2="311.708"/>
				
					<polyline fill="none" stroke="#231F20" stroke-width="7" stroke-linecap="round" stroke-linejoin="round" stroke-miterlimit="10" points="
					157.035,300.985 168.035,311.708 157.035,322.432 				"/>
			</g>
		</g>
	</g>
</g>
<g id="prog_b" display="none">
	<g display="inline">
		<path fill="#FFFFFF" d="M224.78,87.37c0-11.526-9.344-20.87-20.869-20.87H84.369C72.844,66.5,63.5,75.844,63.5,87.37v237.261
			c0,11.525,9.344,20.869,20.869,20.869h119.542c11.525,0,20.869-9.344,20.869-20.869V87.37z"/>
		<g>
			<path fill="#EF5D81" d="M141.467,274.452l-4.386,3.063c-0.639,0.445-1.389,0.682-2.169,0.682s-1.53-0.236-2.169-0.682
				l-4.385-3.063h-6.032c-5.809,0-10.533-4.727-10.533-10.535v-54.354c0-5.81,4.725-10.535,10.533-10.535h5.873
				c0.205,0,0.404,0.062,0.572,0.18l5.118,3.576c0.603,0.422,1.443,0.422,2.045,0l5.117-3.576c0.169-0.118,0.369-0.18,0.574-0.18
				H185.5v-72.29c0,0-82,0-82.867,0c-5.267,0-9.533,4.268-9.533,9.533v139.458c0,5.266,4.267,9.533,9.533,9.533
				c0.203,0,82.867,0,82.867,0v-10.811H141.467z"/>
			
				<path fill="#FFC85E" stroke="#FFFFFF" stroke-width="1.8007" stroke-linecap="round" stroke-linejoin="round" stroke-miterlimit="10" d="
				M195.182,200.03h-53.556l-5.118,3.574c-0.479,0.336-1.037,0.502-1.596,0.502s-1.117-0.166-1.596-0.502l-5.117-3.574h-0.308
				c-1.053,0-4.698,0-5.565,0c-5.266,0-9.532,4.268-9.532,9.533v54.354c0,5.264,4.267,9.533,9.532,9.533c0.204,0,2.579,0,6.349,0
				l4.642,3.244c0.479,0.336,1.037,0.502,1.596,0.502s1.117-0.166,1.596-0.502l4.644-3.244c21.592,0,54.03,0,54.03,0V200.03z"/>
			
				<polygon fill="#231F20" stroke="#231F20" stroke-width="5.0061" stroke-linecap="round" stroke-linejoin="round" stroke-miterlimit="10" points="
				134.897,151.363 157.058,164.158 134.897,176.952 			"/>
			<g>
				
					<line fill="none" stroke="#231F20" stroke-width="7" stroke-linecap="round" stroke-linejoin="round" stroke-miterlimit="10" x1="156.122" y1="226.508" x2="156.122" y2="249.19"/>
				
					<polyline fill="none" stroke="#231F20" stroke-width="7" stroke-linecap="round" stroke-linejoin="round" stroke-miterlimit="10" points="
					166.846,239.336 156.122,250.336 145.398,239.336 				"/>
			</g>
		</g>
	</g>
</g>
<g id="prog_a" display="none">
	<g display="inline">
		<path fill="#FFFFFF" d="M224.78,87.37c0-11.526-9.344-20.87-20.869-20.87H84.369C72.844,66.5,63.5,75.844,63.5,87.37v237.261
			c0,11.525,9.344,20.869,20.869,20.869h119.542c11.525,0,20.869-9.344,20.869-20.869V87.37z"/>
		<g>
			<g>
				<path fill="#EF5D81" d="M141.466,311.167l-4.386,3.063c-0.639,0.445-1.389,0.682-2.169,0.682s-1.531-0.236-2.169-0.682
					l-4.386-3.063h-6.031c-5.81,0-10.534-4.727-10.534-10.535V172.848c0-5.81,4.725-10.534,10.534-10.534h5.873
					c0.205,0,0.403,0.063,0.572,0.181l5.118,3.575c0.602,0.422,1.442,0.422,2.045,0l5.117-3.575
					c0.169-0.118,0.369-0.181,0.574-0.181H185.5v-72.29c0,0-82,0-82.868,0c-5.267,0-9.533,4.268-9.533,9.534v212.887
					c0,5.266,4.267,9.533,9.533,9.533c0.203,0,82.868,0,82.868,0v-10.811H141.466z"/>
				
					<path fill="#FFC85E" stroke="#FFFFFF" stroke-width="1.8007" stroke-linecap="round" stroke-linejoin="round" stroke-miterlimit="10" d="
					M195.182,163.315h-53.556l-5.118,3.575c-0.479,0.336-1.038,0.502-1.596,0.502c-0.559,0-1.117-0.166-1.597-0.502l-5.116-3.575
					h-0.308c-1.053,0-4.698,0-5.565,0c-5.266,0-9.533,4.268-9.533,9.532v54.356c0,5.264,4.268,9.531,9.533,9.531
					c0.204,0,2.578,0,6.348,0l4.642,3.244c0.479,0.336,1.038,0.502,1.597,0.502c0.558,0,1.116-0.166,1.596-0.502l4.644-3.244
					c21.591,0,54.031,0,54.031,0V163.315z"/>
				
					<polygon fill="#231F20" stroke="#231F20" stroke-width="5.0061" stroke-linecap="round" stroke-linejoin="round" stroke-miterlimit="10" points="
					134.897,114.649 157.057,127.444 134.897,140.238 				"/>
				
					<path fill="#FFC85E" stroke="#FFFFFF" stroke-width="1.8007" stroke-linecap="round" stroke-linejoin="round" stroke-miterlimit="10" d="
					M195.182,236.844h-53.556l-5.118,3.576c-0.479,0.334-1.038,0.502-1.596,0.502c-0.559,0-1.117-0.168-1.597-0.502l-5.116-3.576
					h-0.308c-1.053,0-4.698,0-5.565,0c-5.266,0-9.533,4.268-9.533,9.533v54.354c0,5.264,4.268,9.533,9.533,9.533
					c0.204,0,2.578,0,6.348,0l4.642,3.244c0.479,0.336,1.038,0.502,1.597,0.502c0.558,0,1.116-0.166,1.596-0.502l4.644-3.244
					c21.591,0,54.031,0,54.031,0V236.844z"/>
			</g>
			<g>
				
					<line fill="none" stroke="#231F20" stroke-width="7" stroke-linecap="round" stroke-linejoin="round" stroke-miterlimit="10" x1="144.207" y1="201.708" x2="166.89" y2="201.708"/>
				
					<polyline fill="none" stroke="#231F20" stroke-width="7" stroke-linecap="round" stroke-linejoin="round" stroke-miterlimit="10" points="
					157.035,190.984 168.035,201.708 157.035,212.431 				"/>
			</g>
			<g>
				
					<line fill="none" stroke="#231F20" stroke-width="7" stroke-linecap="round" stroke-linejoin="round" stroke-miterlimit="10" x1="156.121" y1="262.793" x2="156.121" y2="285.475"/>
				
					<polyline fill="none" stroke="#231F20" stroke-width="7" stroke-linecap="round" stroke-linejoin="round" stroke-miterlimit="10" points="
					166.845,275.622 156.121,286.622 145.397,275.622 				"/>
			</g>
		</g>
	</g>
</g>
<g id="tablero12" display="none">
	<g display="inline">
		<path fill="#DDDDDC" d="M267.411,66.5H20.869C9.344,66.5,0,75.844,0,87.37v237.261C0,336.157,9.344,345.5,20.869,345.5h246.542
			c11.525,0,20.869-9.344,20.869-20.869V87.37C288.28,75.844,278.937,66.5,267.411,66.5z"/>
		<g>
			<rect x="18.141" y="79.5" fill="#96E072" width="123" height="123"/>
			<rect x="18.141" y="209.5" fill="#96E072" width="123" height="123"/>
		</g>
		<g>
			<path fill="#F26522" d="M122.733,139.901c-0.404-11.021-4.832-20.989-11.871-28.515c-0.727-0.778-1.484-1.524-2.268-2.249
				c-7.52-6.955-17.441-11.309-28.396-11.693c-0.535-0.019-1.061-0.083-1.6-0.078c-0.539-0.002-1.061,0.061-1.598,0.083
				c-10.951,0.402-20.865,4.775-28.371,11.742c-0.785,0.727-1.541,1.477-2.268,2.259c-7.025,7.531-11.432,17.51-11.82,28.533
				c-0.018,0.534-0.078,1.058-0.078,1.6c0.002,0.536,0.063,1.062,0.084,1.598c0.404,11.021,4.824,20.988,11.867,28.512
				c0.729,0.781,1.484,1.528,2.268,2.253c7.52,6.955,17.445,11.311,28.4,11.694c0.535,0.019,1.059,0.078,1.596,0.08
				c0.541,0,1.066-0.064,1.6-0.085c10.955-0.402,20.871-4.776,28.379-11.746c0.779-0.725,1.537-1.473,2.262-2.256
				c7.029-7.536,11.434-17.514,11.814-28.537c0.021-0.532,0.086-1.054,0.084-1.594C122.819,140.961,122.753,140.436,122.733,139.901
				z"/>
			<path fill="#C95722" d="M122.817,141.502c0.002-0.541-0.064-1.063-0.084-1.6l-24.027,0.02
				c0.404-11.048,4.99-21.041,12.281-28.397c-0.725-0.78-1.475-1.537-2.258-2.261c-7.867,7.931-12.816,18.729-13.217,30.664
				l-15.277,0.013l-0.043-42.493c-0.531-0.021-1.053-0.084-1.592-0.083c-0.541,0-1.066,0.063-1.6,0.084l0.037,42.497l-15.275,0.013
				c-0.424-11.933-5.389-22.722-13.277-30.639c-0.777,0.727-1.525,1.485-2.25,2.268c7.301,7.34,11.908,17.326,12.33,28.376
				l-24.023,0.02c-0.02,0.536-0.084,1.062-0.078,1.602c-0.002,0.539,0.063,1.061,0.082,1.596l24.023-0.022
				c-0.4,11.049-4.99,21.047-12.279,28.396c0.725,0.783,1.477,1.539,2.258,2.268c7.869-7.933,12.814-18.734,13.217-30.664
				l15.277-0.018l0.039,42.501c0.535,0.018,1.059,0.079,1.6,0.077c0.535-0.001,1.061-0.063,1.596-0.082l-0.039-42.496l15.275-0.017
				c0.426,11.933,5.393,22.724,13.277,30.645c0.781-0.729,1.527-1.484,2.252-2.269c-7.305-7.342-11.912-17.329-12.336-28.379
				l24.029-0.02C122.755,142.563,122.815,142.04,122.817,141.502z"/>
			
				<path fill="none" stroke="#231F20" stroke-width="2.5539" stroke-linecap="round" stroke-linejoin="round" stroke-miterlimit="10" d="
				M82.601,148.705c-0.004,2.125-1.729,3.845-3.855,3.843c-2.125-0.004-3.844-1.73-3.842-3.854"/>
			<circle fill="#231F20" cx="90.037" cy="135.229" r="4.065"/>
			<circle fill="#231F20" cx="68.623" cy="135.194" r="4.065"/>
		</g>
		<g>
			<rect x="148.141" y="79.5" fill="#96E072" width="123" height="123"/>
			<rect x="148.141" y="209.5" fill="#96E072" width="123" height="123"/>
		</g>
		<g>
			<path fill="#FFFFFF" d="M249.13,244.932c-1.484-0.332-2.957,0.602-3.289,2.086l-2.892,12.924l-12.57-14.15
				c-1.011-1.137-2.752-1.24-3.889-0.23c-1.139,1.012-1.24,2.752-0.23,3.889l7.736,8.709l-9.2,10.355l-9.2-10.355l7.736-8.709
				c1.011-1.137,0.908-2.879-0.23-3.889c-1.137-1.01-2.877-0.908-3.888,0.229l-7.303,8.221l-6.899-7.766
				c-1.01-1.139-2.751-1.24-3.889-0.23s-1.241,2.752-0.23,3.889l7.334,8.256l-9.2,10.355l-9.199-10.355l8.07-9.084
				c1.011-1.137,0.907-2.879-0.229-3.889c-1.138-1.012-2.879-0.908-3.889,0.229l-9.661,10.875c-0.007,0.008-0.013,0.014-0.02,0.021
				l-2.68,3.018l-2.754-12.311c-0.332-1.484-1.806-2.418-3.29-2.086s-2.419,1.805-2.087,3.289l12.151,54.318
				c0.287,1.281,1.425,2.152,2.686,2.152c0.199,0,0.402-0.021,0.604-0.066c1.484-0.332,2.419-1.805,2.087-3.289l-1.424-6.365
				l7.574,8.527c0.004,0.004,0.01,0.008,0.013,0.012c0.042,0.047,0.089,0.092,0.135,0.137c0.025,0.025,0.05,0.051,0.076,0.074
				c0.003,0.002,0.005,0.006,0.007,0.006c0.067,0.061,0.136,0.115,0.206,0.168c0.022,0.016,0.045,0.029,0.066,0.043
				c0.056,0.039,0.11,0.076,0.168,0.109c0.026,0.016,0.054,0.029,0.082,0.043c0.054,0.029,0.109,0.059,0.165,0.084
				c0.027,0.012,0.056,0.023,0.082,0.035c0.06,0.023,0.118,0.047,0.178,0.066c0.026,0.01,0.052,0.018,0.079,0.025
				c0.063,0.02,0.129,0.037,0.193,0.053c0.023,0.004,0.045,0.01,0.068,0.014c0.074,0.016,0.149,0.027,0.226,0.035
				c0.014,0.002,0.026,0.004,0.041,0.006c0.091,0.01,0.182,0.016,0.273,0.016c0.027,0,0.054-0.004,0.08-0.006
				c0.061,0,0.121-0.002,0.18-0.008c0.039-0.004,0.077-0.012,0.114-0.016c0.051-0.008,0.101-0.014,0.15-0.023
				c0.04-0.008,0.079-0.018,0.118-0.027c0.048-0.01,0.094-0.023,0.141-0.037c0.041-0.012,0.081-0.023,0.12-0.039
				c0.044-0.014,0.087-0.031,0.13-0.047c0.042-0.018,0.083-0.035,0.124-0.055c0.039-0.018,0.077-0.037,0.115-0.057
				c0.043-0.023,0.087-0.045,0.128-0.07c0.031-0.018,0.063-0.039,0.092-0.059c0.167-0.107,0.324-0.234,0.469-0.381
				c0.026-0.027,0.055-0.055,0.079-0.082c0.007-0.008,0.015-0.012,0.021-0.02l10.825-12.186l10.825,12.186
				c0.006,0.006,0.011,0.012,0.017,0.016c0.033,0.039,0.07,0.074,0.106,0.109c0.035,0.035,0.069,0.07,0.104,0.104
				c0.001,0,0.002,0,0.003,0c0.046,0.043,0.096,0.08,0.144,0.119c0.058,0.043,0.115,0.084,0.175,0.123
				c0.038,0.025,0.075,0.051,0.114,0.074c0.038,0.021,0.077,0.041,0.116,0.063c0.042,0.021,0.084,0.043,0.127,0.064
				c0.038,0.018,0.077,0.033,0.115,0.049c0.046,0.018,0.092,0.035,0.138,0.053c0.039,0.012,0.077,0.023,0.115,0.035
				c0.049,0.016,0.098,0.027,0.146,0.039c0.038,0.01,0.075,0.018,0.114,0.025c0.051,0.012,0.104,0.018,0.155,0.025
				c0.036,0.004,0.073,0.01,0.109,0.014c0.062,0.006,0.123,0.008,0.185,0.01c0.025,0.002,0.051,0.004,0.076,0.004
				c0.092,0,0.184-0.006,0.275-0.016c0.012,0,0.023-0.002,0.035-0.004c0.078-0.01,0.155-0.021,0.232-0.037
				c0.02-0.004,0.04-0.008,0.061-0.012c0.068-0.018,0.136-0.035,0.203-0.055c0.022-0.008,0.046-0.014,0.069-0.021
				c0.063-0.023,0.126-0.047,0.188-0.072c0.023-0.01,0.048-0.02,0.071-0.029c0.062-0.029,0.122-0.061,0.182-0.092
				c0.022-0.012,0.044-0.023,0.066-0.035c0.067-0.041,0.134-0.084,0.198-0.129c0.012-0.01,0.023-0.016,0.036-0.025
				c0.072-0.051,0.143-0.107,0.21-0.168c0.004-0.002,0.007-0.006,0.011-0.01c0.016-0.016,0.031-0.031,0.047-0.047
				c0.057-0.053,0.112-0.107,0.163-0.164c0.003-0.004,0.006-0.006,0.01-0.01l8.487-9.553l-1.654,7.391
				c-0.331,1.484,0.603,2.957,2.087,3.289c0.203,0.045,0.405,0.066,0.604,0.066c1.261,0,2.398-0.871,2.685-2.152l12.152-54.318
				C251.549,246.737,250.615,245.264,249.13,244.932z M241.467,266.569l-3.701,16.545l-9.285-10.451l9.2-10.355L241.467,266.569z
				 M186.603,282.5l-3.702-16.547l3.241-3.646l9.2,10.355L186.603,282.5z M199.026,276.809l9.199,10.355l-9.199,10.357
				l-9.199-10.357L199.026,276.809z M202.711,272.663l9.2-10.355l9.199,10.355l-9.199,10.355L202.711,272.663z M224.795,276.809
				l9.2,10.357l-9.199,10.355l-9.2-10.357L224.795,276.809z"/>
			<g>
				<path fill="#2B388F" d="M253.931,251.745h-83.356c-2.41,0-4.363-1.953-4.363-4.363c0-2.412,1.953-4.365,4.363-4.365h83.356
					c2.41,0,4.364,1.953,4.364,4.365C258.295,249.792,256.341,251.745,253.931,251.745z"/>
			</g>
		</g>
		<path fill="#DDDDDC" d="M267.411,66.5H20.869C9.344,66.5,0,75.844,0,87.37v237.261C0,336.157,9.344,345.5,20.869,345.5h246.542
			c11.525,0,20.869-9.344,20.869-20.869V87.37C288.28,75.844,278.937,66.5,267.411,66.5z"/>
		<g>
			<rect x="18.141" y="79.5" fill="#96E072" width="123" height="123"/>
			<rect x="18.141" y="209.5" fill="#96E072" width="123" height="123"/>
		</g>
		<g>
			<path fill="#F26522" d="M122.733,139.901c-0.404-11.021-4.832-20.989-11.871-28.515c-0.727-0.778-1.484-1.524-2.268-2.249
				c-7.52-6.955-17.441-11.309-28.396-11.693c-0.535-0.019-1.061-0.083-1.6-0.078c-0.539-0.002-1.061,0.061-1.598,0.083
				c-10.951,0.402-20.865,4.775-28.371,11.742c-0.785,0.727-1.541,1.477-2.268,2.259c-7.025,7.531-11.432,17.51-11.82,28.533
				c-0.018,0.534-0.078,1.058-0.078,1.6c0.002,0.536,0.063,1.062,0.084,1.598c0.404,11.021,4.824,20.988,11.867,28.512
				c0.729,0.781,1.484,1.528,2.268,2.253c7.52,6.955,17.445,11.311,28.4,11.694c0.535,0.019,1.059,0.078,1.596,0.08
				c0.541,0,1.066-0.064,1.6-0.085c10.955-0.402,20.871-4.776,28.379-11.746c0.779-0.725,1.537-1.473,2.262-2.256
				c7.029-7.536,11.434-17.514,11.814-28.537c0.021-0.532,0.086-1.054,0.084-1.594C122.819,140.961,122.753,140.436,122.733,139.901
				z"/>
			<path fill="#C95722" d="M122.817,141.502c0.002-0.541-0.064-1.063-0.084-1.6l-24.027,0.02
				c0.404-11.048,4.99-21.041,12.281-28.397c-0.725-0.78-1.475-1.537-2.258-2.261c-7.867,7.931-12.816,18.729-13.217,30.664
				l-15.277,0.013l-0.043-42.493c-0.531-0.021-1.053-0.084-1.592-0.083c-0.541,0-1.066,0.063-1.6,0.084l0.037,42.497l-15.275,0.013
				c-0.424-11.933-5.389-22.722-13.277-30.639c-0.777,0.727-1.525,1.485-2.25,2.268c7.301,7.34,11.908,17.326,12.33,28.376
				l-24.023,0.02c-0.02,0.536-0.084,1.062-0.078,1.602c-0.002,0.539,0.063,1.061,0.082,1.596l24.023-0.022
				c-0.4,11.049-4.99,21.047-12.279,28.396c0.725,0.783,1.477,1.539,2.258,2.268c7.869-7.933,12.814-18.734,13.217-30.664
				l15.277-0.018l0.039,42.501c0.535,0.018,1.059,0.079,1.6,0.077c0.535-0.001,1.061-0.063,1.596-0.082l-0.039-42.496l15.275-0.017
				c0.426,11.933,5.393,22.724,13.277,30.645c0.781-0.729,1.527-1.484,2.252-2.269c-7.305-7.342-11.912-17.329-12.336-28.379
				l24.029-0.02C122.755,142.563,122.815,142.04,122.817,141.502z"/>
			
				<path fill="none" stroke="#231F20" stroke-width="2.5539" stroke-linecap="round" stroke-linejoin="round" stroke-miterlimit="10" d="
				M82.601,148.705c-0.004,2.125-1.729,3.845-3.855,3.843c-2.125-0.004-3.844-1.73-3.842-3.854"/>
			<circle fill="#231F20" cx="90.037" cy="135.229" r="4.065"/>
			<circle fill="#231F20" cx="68.623" cy="135.194" r="4.065"/>
		</g>
		<g>
			<rect x="148.141" y="79.5" fill="#96E072" width="123" height="123"/>
			<rect x="148.141" y="209.5" fill="#96E072" width="123" height="123"/>
		</g>
		<g>
			<path fill="#FFFFFF" d="M249.13,244.932c-1.484-0.332-2.957,0.602-3.289,2.086l-2.892,12.924l-12.57-14.15
				c-1.011-1.137-2.752-1.24-3.889-0.23c-1.139,1.012-1.24,2.752-0.23,3.889l7.736,8.709l-9.2,10.355l-9.2-10.355l7.736-8.709
				c1.011-1.137,0.908-2.879-0.23-3.889c-1.137-1.01-2.877-0.908-3.888,0.229l-7.303,8.221l-6.899-7.766
				c-1.01-1.139-2.751-1.24-3.889-0.23s-1.241,2.752-0.23,3.889l7.334,8.256l-9.2,10.355l-9.199-10.355l8.07-9.084
				c1.011-1.137,0.907-2.879-0.229-3.889c-1.138-1.012-2.879-0.908-3.889,0.229l-9.661,10.875c-0.007,0.008-0.013,0.014-0.02,0.021
				l-2.68,3.018l-2.754-12.311c-0.332-1.484-1.806-2.418-3.29-2.086s-2.419,1.805-2.087,3.289l12.151,54.318
				c0.287,1.281,1.425,2.152,2.686,2.152c0.199,0,0.402-0.021,0.604-0.066c1.484-0.332,2.419-1.805,2.087-3.289l-1.424-6.365
				l7.574,8.527c0.004,0.004,0.01,0.008,0.013,0.012c0.042,0.047,0.089,0.092,0.135,0.137c0.025,0.025,0.05,0.051,0.076,0.074
				c0.003,0.002,0.005,0.006,0.007,0.006c0.067,0.061,0.136,0.115,0.206,0.168c0.022,0.016,0.045,0.029,0.066,0.043
				c0.056,0.039,0.11,0.076,0.168,0.109c0.026,0.016,0.054,0.029,0.082,0.043c0.054,0.029,0.109,0.059,0.165,0.084
				c0.027,0.012,0.056,0.023,0.082,0.035c0.06,0.023,0.118,0.047,0.178,0.066c0.026,0.01,0.052,0.018,0.079,0.025
				c0.063,0.02,0.129,0.037,0.193,0.053c0.023,0.004,0.045,0.01,0.068,0.014c0.074,0.016,0.149,0.027,0.226,0.035
				c0.014,0.002,0.026,0.004,0.041,0.006c0.091,0.01,0.182,0.016,0.273,0.016c0.027,0,0.054-0.004,0.08-0.006
				c0.061,0,0.121-0.002,0.18-0.008c0.039-0.004,0.077-0.012,0.114-0.016c0.051-0.008,0.101-0.014,0.15-0.023
				c0.04-0.008,0.079-0.018,0.118-0.027c0.048-0.01,0.094-0.023,0.141-0.037c0.041-0.012,0.081-0.023,0.12-0.039
				c0.044-0.014,0.087-0.031,0.13-0.047c0.042-0.018,0.083-0.035,0.124-0.055c0.039-0.018,0.077-0.037,0.115-0.057
				c0.043-0.023,0.087-0.045,0.128-0.07c0.031-0.018,0.063-0.039,0.092-0.059c0.167-0.107,0.324-0.234,0.469-0.381
				c0.026-0.027,0.055-0.055,0.079-0.082c0.007-0.008,0.015-0.012,0.021-0.02l10.825-12.186l10.825,12.186
				c0.006,0.006,0.011,0.012,0.017,0.016c0.033,0.039,0.07,0.074,0.106,0.109c0.035,0.035,0.069,0.07,0.104,0.104
				c0.001,0,0.002,0,0.003,0c0.046,0.043,0.096,0.08,0.144,0.119c0.058,0.043,0.115,0.084,0.175,0.123
				c0.038,0.025,0.075,0.051,0.114,0.074c0.038,0.021,0.077,0.041,0.116,0.063c0.042,0.021,0.084,0.043,0.127,0.064
				c0.038,0.018,0.077,0.033,0.115,0.049c0.046,0.018,0.092,0.035,0.138,0.053c0.039,0.012,0.077,0.023,0.115,0.035
				c0.049,0.016,0.098,0.027,0.146,0.039c0.038,0.01,0.075,0.018,0.114,0.025c0.051,0.012,0.104,0.018,0.155,0.025
				c0.036,0.004,0.073,0.01,0.109,0.014c0.062,0.006,0.123,0.008,0.185,0.01c0.025,0.002,0.051,0.004,0.076,0.004
				c0.092,0,0.184-0.006,0.275-0.016c0.012,0,0.023-0.002,0.035-0.004c0.078-0.01,0.155-0.021,0.232-0.037
				c0.02-0.004,0.04-0.008,0.061-0.012c0.068-0.018,0.136-0.035,0.203-0.055c0.022-0.008,0.046-0.014,0.069-0.021
				c0.063-0.023,0.126-0.047,0.188-0.072c0.023-0.01,0.048-0.02,0.071-0.029c0.062-0.029,0.122-0.061,0.182-0.092
				c0.022-0.012,0.044-0.023,0.066-0.035c0.067-0.041,0.134-0.084,0.198-0.129c0.012-0.01,0.023-0.016,0.036-0.025
				c0.072-0.051,0.143-0.107,0.21-0.168c0.004-0.002,0.007-0.006,0.011-0.01c0.016-0.016,0.031-0.031,0.047-0.047
				c0.057-0.053,0.112-0.107,0.163-0.164c0.003-0.004,0.006-0.006,0.01-0.01l8.487-9.553l-1.654,7.391
				c-0.331,1.484,0.603,2.957,2.087,3.289c0.203,0.045,0.405,0.066,0.604,0.066c1.261,0,2.398-0.871,2.685-2.152l12.152-54.318
				C251.549,246.737,250.615,245.264,249.13,244.932z M241.467,266.569l-3.701,16.545l-9.285-10.451l9.2-10.355L241.467,266.569z
				 M186.603,282.5l-3.702-16.547l3.241-3.646l9.2,10.355L186.603,282.5z M199.026,276.809l9.199,10.355l-9.199,10.357
				l-9.199-10.357L199.026,276.809z M202.711,272.663l9.2-10.355l9.199,10.355l-9.199,10.355L202.711,272.663z M224.795,276.809
				l9.2,10.357l-9.199,10.355l-9.2-10.357L224.795,276.809z"/>
			<g>
				<path fill="#2B388F" d="M253.931,251.745h-83.356c-2.41,0-4.363-1.953-4.363-4.363c0-2.412,1.953-4.365,4.363-4.365h83.356
					c2.41,0,4.364,1.953,4.364,4.365C258.295,249.792,256.341,251.745,253.931,251.745z"/>
			</g>
		</g>
	</g>
</g>
<g id="tablero_12" display="none">
	<g display="inline">
		<path fill="#DDDDDC" d="M267.411,66.5H20.869C9.344,66.5,0,75.844,0,87.37v237.261C0,336.157,9.344,345.5,20.869,345.5h246.542
			c11.525,0,20.869-9.344,20.869-20.869V87.37C288.28,75.844,278.937,66.5,267.411,66.5z"/>
		<g>
			<rect x="18.141" y="79.5" fill="#96E072" width="123" height="123"/>
			<rect x="18.141" y="209.5" fill="#96E072" width="123" height="123"/>
		</g>
		<g>
			<path fill="#F26522" d="M122.733,139.901c-0.404-11.021-4.832-20.989-11.871-28.515c-0.727-0.778-1.484-1.524-2.268-2.249
				c-7.52-6.955-17.441-11.309-28.396-11.693c-0.535-0.019-1.061-0.083-1.6-0.078c-0.539-0.002-1.061,0.061-1.598,0.083
				c-10.951,0.402-20.865,4.775-28.371,11.742c-0.785,0.727-1.541,1.477-2.268,2.259c-7.025,7.531-11.432,17.51-11.82,28.533
				c-0.018,0.534-0.078,1.058-0.078,1.6c0.002,0.536,0.063,1.062,0.084,1.598c0.404,11.021,4.824,20.988,11.867,28.512
				c0.729,0.781,1.484,1.528,2.268,2.253c7.52,6.955,17.445,11.311,28.4,11.694c0.535,0.019,1.059,0.078,1.596,0.08
				c0.541,0,1.066-0.064,1.6-0.085c10.955-0.402,20.871-4.776,28.379-11.746c0.779-0.725,1.537-1.473,2.262-2.256
				c7.029-7.536,11.434-17.514,11.814-28.537c0.021-0.532,0.086-1.054,0.084-1.594C122.819,140.961,122.753,140.436,122.733,139.901
				z"/>
			<path fill="#C95722" d="M122.817,141.502c0.002-0.541-0.064-1.063-0.084-1.6l-24.027,0.02
				c0.404-11.048,4.99-21.041,12.281-28.397c-0.725-0.78-1.475-1.537-2.258-2.261c-7.867,7.931-12.816,18.729-13.217,30.664
				l-15.277,0.013l-0.043-42.493c-0.531-0.021-1.053-0.084-1.592-0.083c-0.541,0-1.066,0.063-1.6,0.084l0.037,42.497l-15.275,0.013
				c-0.424-11.933-5.389-22.722-13.277-30.639c-0.777,0.727-1.525,1.485-2.25,2.268c7.301,7.34,11.908,17.326,12.33,28.376
				l-24.023,0.02c-0.02,0.536-0.084,1.062-0.078,1.602c-0.002,0.539,0.063,1.061,0.082,1.596l24.023-0.022
				c-0.4,11.049-4.99,21.047-12.279,28.396c0.725,0.783,1.477,1.539,2.258,2.268c7.869-7.933,12.814-18.734,13.217-30.664
				l15.277-0.018l0.039,42.501c0.535,0.018,1.059,0.079,1.6,0.077c0.535-0.001,1.061-0.063,1.596-0.082l-0.039-42.496l15.275-0.017
				c0.426,11.933,5.393,22.724,13.277,30.645c0.781-0.729,1.527-1.484,2.252-2.269c-7.305-7.342-11.912-17.329-12.336-28.379
				l24.029-0.02C122.755,142.563,122.815,142.04,122.817,141.502z"/>
			
				<path fill="none" stroke="#231F20" stroke-width="2.5539" stroke-linecap="round" stroke-linejoin="round" stroke-miterlimit="10" d="
				M82.601,148.705c-0.004,2.125-1.729,3.845-3.855,3.843c-2.125-0.004-3.844-1.73-3.842-3.854"/>
			<circle fill="#231F20" cx="90.037" cy="135.229" r="4.065"/>
			<circle fill="#231F20" cx="68.623" cy="135.194" r="4.065"/>
		</g>
		<g>
			<rect x="148.141" y="79.5" fill="#96E072" width="123" height="123"/>
			<rect x="148.141" y="209.5" fill="#96E072" width="123" height="123"/>
		</g>
		<g>
			<path fill="#FFFFFF" d="M249.13,244.932c-1.484-0.332-2.957,0.602-3.289,2.086l-2.892,12.924l-12.57-14.15
				c-1.011-1.137-2.752-1.24-3.889-0.23c-1.139,1.012-1.24,2.752-0.23,3.889l7.736,8.709l-9.2,10.355l-9.2-10.355l7.736-8.709
				c1.011-1.137,0.908-2.879-0.23-3.889c-1.137-1.01-2.877-0.908-3.888,0.229l-7.303,8.221l-6.899-7.766
				c-1.01-1.139-2.751-1.24-3.889-0.23s-1.241,2.752-0.23,3.889l7.334,8.256l-9.2,10.355l-9.199-10.355l8.07-9.084
				c1.011-1.137,0.907-2.879-0.229-3.889c-1.138-1.012-2.879-0.908-3.889,0.229l-9.661,10.875c-0.007,0.008-0.013,0.014-0.02,0.021
				l-2.68,3.018l-2.754-12.311c-0.332-1.484-1.806-2.418-3.29-2.086s-2.419,1.805-2.087,3.289l12.151,54.318
				c0.287,1.281,1.425,2.152,2.686,2.152c0.199,0,0.402-0.021,0.604-0.066c1.484-0.332,2.419-1.805,2.087-3.289l-1.424-6.365
				l7.574,8.527c0.004,0.004,0.01,0.008,0.013,0.012c0.042,0.047,0.089,0.092,0.135,0.137c0.025,0.025,0.05,0.051,0.076,0.074
				c0.003,0.002,0.005,0.006,0.007,0.006c0.067,0.061,0.136,0.115,0.206,0.168c0.022,0.016,0.045,0.029,0.066,0.043
				c0.056,0.039,0.11,0.076,0.168,0.109c0.026,0.016,0.054,0.029,0.082,0.043c0.054,0.029,0.109,0.059,0.165,0.084
				c0.027,0.012,0.056,0.023,0.082,0.035c0.06,0.023,0.118,0.047,0.178,0.066c0.026,0.01,0.052,0.018,0.079,0.025
				c0.063,0.02,0.129,0.037,0.193,0.053c0.023,0.004,0.045,0.01,0.068,0.014c0.074,0.016,0.149,0.027,0.226,0.035
				c0.014,0.002,0.026,0.004,0.041,0.006c0.091,0.01,0.182,0.016,0.273,0.016c0.027,0,0.054-0.004,0.08-0.006
				c0.061,0,0.121-0.002,0.18-0.008c0.039-0.004,0.077-0.012,0.114-0.016c0.051-0.008,0.101-0.014,0.15-0.023
				c0.04-0.008,0.079-0.018,0.118-0.027c0.048-0.01,0.094-0.023,0.141-0.037c0.041-0.012,0.081-0.023,0.12-0.039
				c0.044-0.014,0.087-0.031,0.13-0.047c0.042-0.018,0.083-0.035,0.124-0.055c0.039-0.018,0.077-0.037,0.115-0.057
				c0.043-0.023,0.087-0.045,0.128-0.07c0.031-0.018,0.063-0.039,0.092-0.059c0.167-0.107,0.324-0.234,0.469-0.381
				c0.026-0.027,0.055-0.055,0.079-0.082c0.007-0.008,0.015-0.012,0.021-0.02l10.825-12.186l10.825,12.186
				c0.006,0.006,0.011,0.012,0.017,0.016c0.033,0.039,0.07,0.074,0.106,0.109c0.035,0.035,0.069,0.07,0.104,0.104
				c0.001,0,0.002,0,0.003,0c0.046,0.043,0.096,0.08,0.144,0.119c0.058,0.043,0.115,0.084,0.175,0.123
				c0.038,0.025,0.075,0.051,0.114,0.074c0.038,0.021,0.077,0.041,0.116,0.063c0.042,0.021,0.084,0.043,0.127,0.064
				c0.038,0.018,0.077,0.033,0.115,0.049c0.046,0.018,0.092,0.035,0.138,0.053c0.039,0.012,0.077,0.023,0.115,0.035
				c0.049,0.016,0.098,0.027,0.146,0.039c0.038,0.01,0.075,0.018,0.114,0.025c0.051,0.012,0.104,0.018,0.155,0.025
				c0.036,0.004,0.073,0.01,0.109,0.014c0.062,0.006,0.123,0.008,0.185,0.01c0.025,0.002,0.051,0.004,0.076,0.004
				c0.092,0,0.184-0.006,0.275-0.016c0.012,0,0.023-0.002,0.035-0.004c0.078-0.01,0.155-0.021,0.232-0.037
				c0.02-0.004,0.04-0.008,0.061-0.012c0.068-0.018,0.136-0.035,0.203-0.055c0.022-0.008,0.046-0.014,0.069-0.021
				c0.063-0.023,0.126-0.047,0.188-0.072c0.023-0.01,0.048-0.02,0.071-0.029c0.062-0.029,0.122-0.061,0.182-0.092
				c0.022-0.012,0.044-0.023,0.066-0.035c0.067-0.041,0.134-0.084,0.198-0.129c0.012-0.01,0.023-0.016,0.036-0.025
				c0.072-0.051,0.143-0.107,0.21-0.168c0.004-0.002,0.007-0.006,0.011-0.01c0.016-0.016,0.031-0.031,0.047-0.047
				c0.057-0.053,0.112-0.107,0.163-0.164c0.003-0.004,0.006-0.006,0.01-0.01l8.487-9.553l-1.654,7.391
				c-0.331,1.484,0.603,2.957,2.087,3.289c0.203,0.045,0.405,0.066,0.604,0.066c1.261,0,2.398-0.871,2.685-2.152l12.152-54.318
				C251.549,246.737,250.615,245.264,249.13,244.932z M241.467,266.569l-3.701,16.545l-9.285-10.451l9.2-10.355L241.467,266.569z
				 M186.603,282.5l-3.702-16.547l3.241-3.646l9.2,10.355L186.603,282.5z M199.026,276.809l9.199,10.355l-9.199,10.357
				l-9.199-10.357L199.026,276.809z M202.711,272.663l9.2-10.355l9.199,10.355l-9.199,10.355L202.711,272.663z M224.795,276.809
				l9.2,10.357l-9.199,10.355l-9.2-10.357L224.795,276.809z"/>
			<g>
				<path fill="#2B388F" d="M253.931,251.745h-83.356c-2.41,0-4.363-1.953-4.363-4.363c0-2.412,1.953-4.365,4.363-4.365h83.356
					c2.41,0,4.364,1.953,4.364,4.365C258.295,249.792,256.341,251.745,253.931,251.745z"/>
			</g>
		</g>
		<path fill="#6D6E70" d="M267.411,66.5H20.869C9.344,66.5,0,75.844,0,87.37v237.261C0,336.157,9.344,345.5,20.869,345.5h246.542
			c11.525,0,20.869-9.344,20.869-20.869V87.37C288.28,75.844,278.937,66.5,267.411,66.5z"/>
		<g>
			<rect x="18.141" y="79.5" fill="#96E072" width="123" height="123"/>
			<rect x="18.141" y="209.5" fill="#96E072" width="123" height="123"/>
		</g>
		<g>
			<path fill="#F26522" d="M122.733,139.901c-0.404-11.021-4.832-20.989-11.871-28.515c-0.727-0.778-1.484-1.524-2.268-2.249
				c-7.52-6.955-17.441-11.309-28.396-11.693c-0.535-0.019-1.061-0.083-1.6-0.078c-0.539-0.002-1.061,0.061-1.598,0.083
				c-10.951,0.402-20.865,4.775-28.371,11.742c-0.785,0.727-1.541,1.477-2.268,2.259c-7.025,7.531-11.432,17.51-11.82,28.533
				c-0.018,0.534-0.078,1.058-0.078,1.6c0.002,0.536,0.063,1.062,0.084,1.598c0.404,11.021,4.824,20.988,11.867,28.512
				c0.729,0.781,1.484,1.528,2.268,2.253c7.52,6.955,17.445,11.311,28.4,11.694c0.535,0.019,1.059,0.078,1.596,0.08
				c0.541,0,1.066-0.064,1.6-0.085c10.955-0.402,20.871-4.776,28.379-11.746c0.779-0.725,1.537-1.473,2.262-2.256
				c7.029-7.536,11.434-17.514,11.814-28.537c0.021-0.532,0.086-1.054,0.084-1.594C122.819,140.961,122.753,140.436,122.733,139.901
				z"/>
			<path fill="#C95722" d="M122.817,141.502c0.002-0.541-0.064-1.063-0.084-1.6l-24.027,0.02
				c0.404-11.048,4.99-21.041,12.281-28.397c-0.725-0.78-1.475-1.537-2.258-2.261c-7.867,7.931-12.816,18.729-13.217,30.664
				l-15.277,0.013l-0.043-42.493c-0.531-0.021-1.053-0.084-1.592-0.083c-0.541,0-1.066,0.063-1.6,0.084l0.037,42.497l-15.275,0.013
				c-0.424-11.933-5.389-22.722-13.277-30.639c-0.777,0.727-1.525,1.485-2.25,2.268c7.301,7.34,11.908,17.326,12.33,28.376
				l-24.023,0.02c-0.02,0.536-0.084,1.062-0.078,1.602c-0.002,0.539,0.063,1.061,0.082,1.596l24.023-0.022
				c-0.4,11.049-4.99,21.047-12.279,28.396c0.725,0.783,1.477,1.539,2.258,2.268c7.869-7.933,12.814-18.734,13.217-30.664
				l15.277-0.018l0.039,42.501c0.535,0.018,1.059,0.079,1.6,0.077c0.535-0.001,1.061-0.063,1.596-0.082l-0.039-42.496l15.275-0.017
				c0.426,11.933,5.393,22.724,13.277,30.645c0.781-0.729,1.527-1.484,2.252-2.269c-7.305-7.342-11.912-17.329-12.336-28.379
				l24.029-0.02C122.755,142.563,122.815,142.04,122.817,141.502z"/>
			
				<path fill="none" stroke="#231F20" stroke-width="2.5539" stroke-linecap="round" stroke-linejoin="round" stroke-miterlimit="10" d="
				M82.601,148.705c-0.004,2.125-1.729,3.845-3.855,3.843c-2.125-0.004-3.844-1.73-3.842-3.854"/>
			<circle fill="#231F20" cx="90.037" cy="135.229" r="4.065"/>
			<circle fill="#231F20" cx="68.623" cy="135.194" r="4.065"/>
		</g>
		<g>
			<rect x="148.141" y="79.5" fill="#96E072" width="123" height="123"/>
			<rect x="148.141" y="209.5" fill="#96E072" width="123" height="123"/>
		</g>
		<g>
			<path fill="#FFFFFF" d="M249.13,244.932c-1.484-0.332-2.957,0.602-3.289,2.086l-2.892,12.924l-12.57-14.15
				c-1.011-1.137-2.752-1.24-3.889-0.23c-1.139,1.012-1.24,2.752-0.23,3.889l7.736,8.709l-9.2,10.355l-9.2-10.355l7.736-8.709
				c1.011-1.137,0.908-2.879-0.23-3.889c-1.137-1.01-2.877-0.908-3.888,0.229l-7.303,8.221l-6.899-7.766
				c-1.01-1.139-2.751-1.24-3.889-0.23s-1.241,2.752-0.23,3.889l7.334,8.256l-9.2,10.355l-9.199-10.355l8.07-9.084
				c1.011-1.137,0.907-2.879-0.229-3.889c-1.138-1.012-2.879-0.908-3.889,0.229l-9.661,10.875c-0.007,0.008-0.013,0.014-0.02,0.021
				l-2.68,3.018l-2.754-12.311c-0.332-1.484-1.806-2.418-3.29-2.086s-2.419,1.805-2.087,3.289l12.151,54.318
				c0.287,1.281,1.425,2.152,2.686,2.152c0.199,0,0.402-0.021,0.604-0.066c1.484-0.332,2.419-1.805,2.087-3.289l-1.424-6.365
				l7.574,8.527c0.004,0.004,0.01,0.008,0.013,0.012c0.042,0.047,0.089,0.092,0.135,0.137c0.025,0.025,0.05,0.051,0.076,0.074
				c0.003,0.002,0.005,0.006,0.007,0.006c0.067,0.061,0.136,0.115,0.206,0.168c0.022,0.016,0.045,0.029,0.066,0.043
				c0.056,0.039,0.11,0.076,0.168,0.109c0.026,0.016,0.054,0.029,0.082,0.043c0.054,0.029,0.109,0.059,0.165,0.084
				c0.027,0.012,0.056,0.023,0.082,0.035c0.06,0.023,0.118,0.047,0.178,0.066c0.026,0.01,0.052,0.018,0.079,0.025
				c0.063,0.02,0.129,0.037,0.193,0.053c0.023,0.004,0.045,0.01,0.068,0.014c0.074,0.016,0.149,0.027,0.226,0.035
				c0.014,0.002,0.026,0.004,0.041,0.006c0.091,0.01,0.182,0.016,0.273,0.016c0.027,0,0.054-0.004,0.08-0.006
				c0.061,0,0.121-0.002,0.18-0.008c0.039-0.004,0.077-0.012,0.114-0.016c0.051-0.008,0.101-0.014,0.15-0.023
				c0.04-0.008,0.079-0.018,0.118-0.027c0.048-0.01,0.094-0.023,0.141-0.037c0.041-0.012,0.081-0.023,0.12-0.039
				c0.044-0.014,0.087-0.031,0.13-0.047c0.042-0.018,0.083-0.035,0.124-0.055c0.039-0.018,0.077-0.037,0.115-0.057
				c0.043-0.023,0.087-0.045,0.128-0.07c0.031-0.018,0.063-0.039,0.092-0.059c0.167-0.107,0.324-0.234,0.469-0.381
				c0.026-0.027,0.055-0.055,0.079-0.082c0.007-0.008,0.015-0.012,0.021-0.02l10.825-12.186l10.825,12.186
				c0.006,0.006,0.011,0.012,0.017,0.016c0.033,0.039,0.07,0.074,0.106,0.109c0.035,0.035,0.069,0.07,0.104,0.104
				c0.001,0,0.002,0,0.003,0c0.046,0.043,0.096,0.08,0.144,0.119c0.058,0.043,0.115,0.084,0.175,0.123
				c0.038,0.025,0.075,0.051,0.114,0.074c0.038,0.021,0.077,0.041,0.116,0.063c0.042,0.021,0.084,0.043,0.127,0.064
				c0.038,0.018,0.077,0.033,0.115,0.049c0.046,0.018,0.092,0.035,0.138,0.053c0.039,0.012,0.077,0.023,0.115,0.035
				c0.049,0.016,0.098,0.027,0.146,0.039c0.038,0.01,0.075,0.018,0.114,0.025c0.051,0.012,0.104,0.018,0.155,0.025
				c0.036,0.004,0.073,0.01,0.109,0.014c0.062,0.006,0.123,0.008,0.185,0.01c0.025,0.002,0.051,0.004,0.076,0.004
				c0.092,0,0.184-0.006,0.275-0.016c0.012,0,0.023-0.002,0.035-0.004c0.078-0.01,0.155-0.021,0.232-0.037
				c0.02-0.004,0.04-0.008,0.061-0.012c0.068-0.018,0.136-0.035,0.203-0.055c0.022-0.008,0.046-0.014,0.069-0.021
				c0.063-0.023,0.126-0.047,0.188-0.072c0.023-0.01,0.048-0.02,0.071-0.029c0.062-0.029,0.122-0.061,0.182-0.092
				c0.022-0.012,0.044-0.023,0.066-0.035c0.067-0.041,0.134-0.084,0.198-0.129c0.012-0.01,0.023-0.016,0.036-0.025
				c0.072-0.051,0.143-0.107,0.21-0.168c0.004-0.002,0.007-0.006,0.011-0.01c0.016-0.016,0.031-0.031,0.047-0.047
				c0.057-0.053,0.112-0.107,0.163-0.164c0.003-0.004,0.006-0.006,0.01-0.01l8.487-9.553l-1.654,7.391
				c-0.331,1.484,0.603,2.957,2.087,3.289c0.203,0.045,0.405,0.066,0.604,0.066c1.261,0,2.398-0.871,2.685-2.152l12.152-54.318
				C251.549,246.737,250.615,245.264,249.13,244.932z M241.467,266.569l-3.701,16.545l-9.285-10.451l9.2-10.355L241.467,266.569z
				 M186.603,282.5l-3.702-16.547l3.241-3.646l9.2,10.355L186.603,282.5z M199.026,276.809l9.199,10.355l-9.199,10.357
				l-9.199-10.357L199.026,276.809z M202.711,272.663l9.2-10.355l9.199,10.355l-9.199,10.355L202.711,272.663z M224.795,276.809
				l9.2,10.357l-9.199,10.355l-9.2-10.357L224.795,276.809z"/>
			<g>
				<path fill="#2B388F" d="M253.931,251.745h-83.356c-2.41,0-4.363-1.953-4.363-4.363c0-2.412,1.953-4.365,4.363-4.365h83.356
					c2.41,0,4.364,1.953,4.364,4.365C258.295,249.792,256.341,251.745,253.931,251.745z"/>
			</g>
		</g>
	</g>
</g>
<g id="tablero12_1_" display="none">
	<g display="inline">
		<path fill="#DDDDDC" d="M267.411,66.5H20.869C9.344,66.5,0,75.844,0,87.37v237.261C0,336.157,9.344,345.5,20.869,345.5h246.542
			c11.525,0,20.869-9.344,20.869-20.869V87.37C288.28,75.844,278.937,66.5,267.411,66.5z"/>
		<g>
			<rect x="18.141" y="79.5" fill="#96E072" width="123" height="123"/>
			<rect x="18.141" y="209.5" fill="#96E072" width="123" height="123"/>
		</g>
		<g>
			<path fill="#F26522" d="M122.733,139.901c-0.404-11.021-4.832-20.989-11.871-28.515c-0.727-0.778-1.484-1.524-2.268-2.249
				c-7.52-6.955-17.441-11.309-28.396-11.693c-0.535-0.019-1.061-0.083-1.6-0.078c-0.539-0.002-1.061,0.061-1.598,0.083
				c-10.951,0.402-20.865,4.775-28.371,11.742c-0.785,0.727-1.541,1.477-2.268,2.259c-7.025,7.531-11.432,17.51-11.82,28.533
				c-0.018,0.534-0.078,1.058-0.078,1.6c0.002,0.536,0.063,1.062,0.084,1.598c0.404,11.021,4.824,20.988,11.867,28.512
				c0.729,0.781,1.484,1.528,2.268,2.253c7.52,6.955,17.445,11.311,28.4,11.694c0.535,0.019,1.059,0.078,1.596,0.08
				c0.541,0,1.066-0.064,1.6-0.085c10.955-0.402,20.871-4.776,28.379-11.746c0.779-0.725,1.537-1.473,2.262-2.256
				c7.029-7.536,11.434-17.514,11.814-28.537c0.021-0.532,0.086-1.054,0.084-1.594C122.819,140.961,122.753,140.436,122.733,139.901
				z"/>
			<path fill="#C95722" d="M122.817,141.502c0.002-0.541-0.064-1.063-0.084-1.6l-24.027,0.02
				c0.404-11.048,4.99-21.041,12.281-28.397c-0.725-0.78-1.475-1.537-2.258-2.261c-7.867,7.931-12.816,18.729-13.217,30.664
				l-15.277,0.013l-0.043-42.493c-0.531-0.021-1.053-0.084-1.592-0.083c-0.541,0-1.066,0.063-1.6,0.084l0.037,42.497l-15.275,0.013
				c-0.424-11.933-5.389-22.722-13.277-30.639c-0.777,0.727-1.525,1.485-2.25,2.268c7.301,7.34,11.908,17.326,12.33,28.376
				l-24.023,0.02c-0.02,0.536-0.084,1.062-0.078,1.602c-0.002,0.539,0.063,1.061,0.082,1.596l24.023-0.022
				c-0.4,11.049-4.99,21.047-12.279,28.396c0.725,0.783,1.477,1.539,2.258,2.268c7.869-7.933,12.814-18.734,13.217-30.664
				l15.277-0.018l0.039,42.501c0.535,0.018,1.059,0.079,1.6,0.077c0.535-0.001,1.061-0.063,1.596-0.082l-0.039-42.496l15.275-0.017
				c0.426,11.933,5.393,22.724,13.277,30.645c0.781-0.729,1.527-1.484,2.252-2.269c-7.305-7.342-11.912-17.329-12.336-28.379
				l24.029-0.02C122.755,142.563,122.815,142.04,122.817,141.502z"/>
			
				<path fill="none" stroke="#231F20" stroke-width="2.5539" stroke-linecap="round" stroke-linejoin="round" stroke-miterlimit="10" d="
				M82.601,148.705c-0.004,2.125-1.729,3.845-3.855,3.843c-2.125-0.004-3.844-1.73-3.842-3.854"/>
			<circle fill="#231F20" cx="90.037" cy="135.229" r="4.065"/>
			<circle fill="#231F20" cx="68.623" cy="135.194" r="4.065"/>
		</g>
		<g>
			<rect x="148.141" y="79.5" fill="#96E072" width="123" height="123"/>
			<rect x="148.141" y="209.5" fill="#96E072" width="123" height="123"/>
		</g>
		<g>
			<path fill="#FFFFFF" d="M249.13,244.932c-1.484-0.332-2.957,0.602-3.289,2.086l-2.892,12.924l-12.57-14.15
				c-1.011-1.137-2.752-1.24-3.889-0.23c-1.139,1.012-1.24,2.752-0.23,3.889l7.736,8.709l-9.2,10.355l-9.2-10.355l7.736-8.709
				c1.011-1.137,0.908-2.879-0.23-3.889c-1.137-1.01-2.877-0.908-3.888,0.229l-7.303,8.221l-6.899-7.766
				c-1.01-1.139-2.751-1.24-3.889-0.23s-1.241,2.752-0.23,3.889l7.334,8.256l-9.2,10.355l-9.199-10.355l8.07-9.084
				c1.011-1.137,0.907-2.879-0.229-3.889c-1.138-1.012-2.879-0.908-3.889,0.229l-9.661,10.875c-0.007,0.008-0.013,0.014-0.02,0.021
				l-2.68,3.018l-2.754-12.311c-0.332-1.484-1.806-2.418-3.29-2.086s-2.419,1.805-2.087,3.289l12.151,54.318
				c0.287,1.281,1.425,2.152,2.686,2.152c0.199,0,0.402-0.021,0.604-0.066c1.484-0.332,2.419-1.805,2.087-3.289l-1.424-6.365
				l7.574,8.527c0.004,0.004,0.01,0.008,0.013,0.012c0.042,0.047,0.089,0.092,0.135,0.137c0.025,0.025,0.05,0.051,0.076,0.074
				c0.003,0.002,0.005,0.006,0.007,0.006c0.067,0.061,0.136,0.115,0.206,0.168c0.022,0.016,0.045,0.029,0.066,0.043
				c0.056,0.039,0.11,0.076,0.168,0.109c0.026,0.016,0.054,0.029,0.082,0.043c0.054,0.029,0.109,0.059,0.165,0.084
				c0.027,0.012,0.056,0.023,0.082,0.035c0.06,0.023,0.118,0.047,0.178,0.066c0.026,0.01,0.052,0.018,0.079,0.025
				c0.063,0.02,0.129,0.037,0.193,0.053c0.023,0.004,0.045,0.01,0.068,0.014c0.074,0.016,0.149,0.027,0.226,0.035
				c0.014,0.002,0.026,0.004,0.041,0.006c0.091,0.01,0.182,0.016,0.273,0.016c0.027,0,0.054-0.004,0.08-0.006
				c0.061,0,0.121-0.002,0.18-0.008c0.039-0.004,0.077-0.012,0.114-0.016c0.051-0.008,0.101-0.014,0.15-0.023
				c0.04-0.008,0.079-0.018,0.118-0.027c0.048-0.01,0.094-0.023,0.141-0.037c0.041-0.012,0.081-0.023,0.12-0.039
				c0.044-0.014,0.087-0.031,0.13-0.047c0.042-0.018,0.083-0.035,0.124-0.055c0.039-0.018,0.077-0.037,0.115-0.057
				c0.043-0.023,0.087-0.045,0.128-0.07c0.031-0.018,0.063-0.039,0.092-0.059c0.167-0.107,0.324-0.234,0.469-0.381
				c0.026-0.027,0.055-0.055,0.079-0.082c0.007-0.008,0.015-0.012,0.021-0.02l10.825-12.186l10.825,12.186
				c0.006,0.006,0.011,0.012,0.017,0.016c0.033,0.039,0.07,0.074,0.106,0.109c0.035,0.035,0.069,0.07,0.104,0.104
				c0.001,0,0.002,0,0.003,0c0.046,0.043,0.096,0.08,0.144,0.119c0.058,0.043,0.115,0.084,0.175,0.123
				c0.038,0.025,0.075,0.051,0.114,0.074c0.038,0.021,0.077,0.041,0.116,0.063c0.042,0.021,0.084,0.043,0.127,0.064
				c0.038,0.018,0.077,0.033,0.115,0.049c0.046,0.018,0.092,0.035,0.138,0.053c0.039,0.012,0.077,0.023,0.115,0.035
				c0.049,0.016,0.098,0.027,0.146,0.039c0.038,0.01,0.075,0.018,0.114,0.025c0.051,0.012,0.104,0.018,0.155,0.025
				c0.036,0.004,0.073,0.01,0.109,0.014c0.062,0.006,0.123,0.008,0.185,0.01c0.025,0.002,0.051,0.004,0.076,0.004
				c0.092,0,0.184-0.006,0.275-0.016c0.012,0,0.023-0.002,0.035-0.004c0.078-0.01,0.155-0.021,0.232-0.037
				c0.02-0.004,0.04-0.008,0.061-0.012c0.068-0.018,0.136-0.035,0.203-0.055c0.022-0.008,0.046-0.014,0.069-0.021
				c0.063-0.023,0.126-0.047,0.188-0.072c0.023-0.01,0.048-0.02,0.071-0.029c0.062-0.029,0.122-0.061,0.182-0.092
				c0.022-0.012,0.044-0.023,0.066-0.035c0.067-0.041,0.134-0.084,0.198-0.129c0.012-0.01,0.023-0.016,0.036-0.025
				c0.072-0.051,0.143-0.107,0.21-0.168c0.004-0.002,0.007-0.006,0.011-0.01c0.016-0.016,0.031-0.031,0.047-0.047
				c0.057-0.053,0.112-0.107,0.163-0.164c0.003-0.004,0.006-0.006,0.01-0.01l8.487-9.553l-1.654,7.391
				c-0.331,1.484,0.603,2.957,2.087,3.289c0.203,0.045,0.405,0.066,0.604,0.066c1.261,0,2.398-0.871,2.685-2.152l12.152-54.318
				C251.549,246.737,250.615,245.264,249.13,244.932z M241.467,266.569l-3.701,16.545l-9.285-10.451l9.2-10.355L241.467,266.569z
				 M186.603,282.5l-3.702-16.547l3.241-3.646l9.2,10.355L186.603,282.5z M199.026,276.809l9.199,10.355l-9.199,10.357
				l-9.199-10.357L199.026,276.809z M202.711,272.663l9.2-10.355l9.199,10.355l-9.199,10.355L202.711,272.663z M224.795,276.809
				l9.2,10.357l-9.199,10.355l-9.2-10.357L224.795,276.809z"/>
			<g>
				<path fill="#2B388F" d="M253.931,251.745h-83.356c-2.41,0-4.363-1.953-4.363-4.363c0-2.412,1.953-4.365,4.363-4.365h83.356
					c2.41,0,4.364,1.953,4.364,4.365C258.295,249.792,256.341,251.745,253.931,251.745z"/>
			</g>
		</g>
		<path fill="#FFFFFF" d="M267.411,66.5H20.869C9.344,66.5,0,75.844,0,87.37v237.261C0,336.157,9.344,345.5,20.869,345.5h246.542
			c11.525,0,20.869-9.344,20.869-20.869V87.37C288.28,75.844,278.937,66.5,267.411,66.5z"/>
		<g>
			<rect x="18.141" y="79.5" fill="#96E072" width="123" height="123"/>
			<rect x="18.141" y="209.5" fill="#96E072" width="123" height="123"/>
		</g>
		<g>
			<path fill="#F26522" d="M122.733,139.901c-0.404-11.021-4.832-20.989-11.871-28.515c-0.727-0.778-1.484-1.524-2.268-2.249
				c-7.52-6.955-17.441-11.309-28.396-11.693c-0.535-0.019-1.061-0.083-1.6-0.078c-0.539-0.002-1.061,0.061-1.598,0.083
				c-10.951,0.402-20.865,4.775-28.371,11.742c-0.785,0.727-1.541,1.477-2.268,2.259c-7.025,7.531-11.432,17.51-11.82,28.533
				c-0.018,0.534-0.078,1.058-0.078,1.6c0.002,0.536,0.063,1.062,0.084,1.598c0.404,11.021,4.824,20.988,11.867,28.512
				c0.729,0.781,1.484,1.528,2.268,2.253c7.52,6.955,17.445,11.311,28.4,11.694c0.535,0.019,1.059,0.078,1.596,0.08
				c0.541,0,1.066-0.064,1.6-0.085c10.955-0.402,20.871-4.776,28.379-11.746c0.779-0.725,1.537-1.473,2.262-2.256
				c7.029-7.536,11.434-17.514,11.814-28.537c0.021-0.532,0.086-1.054,0.084-1.594C122.819,140.961,122.753,140.436,122.733,139.901
				z"/>
			<path fill="#C95722" d="M122.817,141.502c0.002-0.541-0.064-1.063-0.084-1.6l-24.027,0.02
				c0.404-11.048,4.99-21.041,12.281-28.397c-0.725-0.78-1.475-1.537-2.258-2.261c-7.867,7.931-12.816,18.729-13.217,30.664
				l-15.277,0.013l-0.043-42.493c-0.531-0.021-1.053-0.084-1.592-0.083c-0.541,0-1.066,0.063-1.6,0.084l0.037,42.497l-15.275,0.013
				c-0.424-11.933-5.389-22.722-13.277-30.639c-0.777,0.727-1.525,1.485-2.25,2.268c7.301,7.34,11.908,17.326,12.33,28.376
				l-24.023,0.02c-0.02,0.536-0.084,1.062-0.078,1.602c-0.002,0.539,0.063,1.061,0.082,1.596l24.023-0.022
				c-0.4,11.049-4.99,21.047-12.279,28.396c0.725,0.783,1.477,1.539,2.258,2.268c7.869-7.933,12.814-18.734,13.217-30.664
				l15.277-0.018l0.039,42.501c0.535,0.018,1.059,0.079,1.6,0.077c0.535-0.001,1.061-0.063,1.596-0.082l-0.039-42.496l15.275-0.017
				c0.426,11.933,5.393,22.724,13.277,30.645c0.781-0.729,1.527-1.484,2.252-2.269c-7.305-7.342-11.912-17.329-12.336-28.379
				l24.029-0.02C122.755,142.563,122.815,142.04,122.817,141.502z"/>
			
				<path fill="none" stroke="#231F20" stroke-width="2.5539" stroke-linecap="round" stroke-linejoin="round" stroke-miterlimit="10" d="
				M82.601,148.705c-0.004,2.125-1.729,3.845-3.855,3.843c-2.125-0.004-3.844-1.73-3.842-3.854"/>
			<circle fill="#231F20" cx="90.037" cy="135.229" r="4.065"/>
			<circle fill="#231F20" cx="68.623" cy="135.194" r="4.065"/>
		</g>
		<g>
			<rect x="148.141" y="79.5" fill="#96E072" width="123" height="123"/>
			<rect x="148.141" y="209.5" fill="#96E072" width="123" height="123"/>
		</g>
		<g>
			<path fill="#FFFFFF" d="M249.13,244.932c-1.484-0.332-2.957,0.602-3.289,2.086l-2.892,12.924l-12.57-14.15
				c-1.011-1.137-2.752-1.24-3.889-0.23c-1.139,1.012-1.24,2.752-0.23,3.889l7.736,8.709l-9.2,10.355l-9.2-10.355l7.736-8.709
				c1.011-1.137,0.908-2.879-0.23-3.889c-1.137-1.01-2.877-0.908-3.888,0.229l-7.303,8.221l-6.899-7.766
				c-1.01-1.139-2.751-1.24-3.889-0.23s-1.241,2.752-0.23,3.889l7.334,8.256l-9.2,10.355l-9.199-10.355l8.07-9.084
				c1.011-1.137,0.907-2.879-0.229-3.889c-1.138-1.012-2.879-0.908-3.889,0.229l-9.661,10.875c-0.007,0.008-0.013,0.014-0.02,0.021
				l-2.68,3.018l-2.754-12.311c-0.332-1.484-1.806-2.418-3.29-2.086s-2.419,1.805-2.087,3.289l12.151,54.318
				c0.287,1.281,1.425,2.152,2.686,2.152c0.199,0,0.402-0.021,0.604-0.066c1.484-0.332,2.419-1.805,2.087-3.289l-1.424-6.365
				l7.574,8.527c0.004,0.004,0.01,0.008,0.013,0.012c0.042,0.047,0.089,0.092,0.135,0.137c0.025,0.025,0.05,0.051,0.076,0.074
				c0.003,0.002,0.005,0.006,0.007,0.006c0.067,0.061,0.136,0.115,0.206,0.168c0.022,0.016,0.045,0.029,0.066,0.043
				c0.056,0.039,0.11,0.076,0.168,0.109c0.026,0.016,0.054,0.029,0.082,0.043c0.054,0.029,0.109,0.059,0.165,0.084
				c0.027,0.012,0.056,0.023,0.082,0.035c0.06,0.023,0.118,0.047,0.178,0.066c0.026,0.01,0.052,0.018,0.079,0.025
				c0.063,0.02,0.129,0.037,0.193,0.053c0.023,0.004,0.045,0.01,0.068,0.014c0.074,0.016,0.149,0.027,0.226,0.035
				c0.014,0.002,0.026,0.004,0.041,0.006c0.091,0.01,0.182,0.016,0.273,0.016c0.027,0,0.054-0.004,0.08-0.006
				c0.061,0,0.121-0.002,0.18-0.008c0.039-0.004,0.077-0.012,0.114-0.016c0.051-0.008,0.101-0.014,0.15-0.023
				c0.04-0.008,0.079-0.018,0.118-0.027c0.048-0.01,0.094-0.023,0.141-0.037c0.041-0.012,0.081-0.023,0.12-0.039
				c0.044-0.014,0.087-0.031,0.13-0.047c0.042-0.018,0.083-0.035,0.124-0.055c0.039-0.018,0.077-0.037,0.115-0.057
				c0.043-0.023,0.087-0.045,0.128-0.07c0.031-0.018,0.063-0.039,0.092-0.059c0.167-0.107,0.324-0.234,0.469-0.381
				c0.026-0.027,0.055-0.055,0.079-0.082c0.007-0.008,0.015-0.012,0.021-0.02l10.825-12.186l10.825,12.186
				c0.006,0.006,0.011,0.012,0.017,0.016c0.033,0.039,0.07,0.074,0.106,0.109c0.035,0.035,0.069,0.07,0.104,0.104
				c0.001,0,0.002,0,0.003,0c0.046,0.043,0.096,0.08,0.144,0.119c0.058,0.043,0.115,0.084,0.175,0.123
				c0.038,0.025,0.075,0.051,0.114,0.074c0.038,0.021,0.077,0.041,0.116,0.063c0.042,0.021,0.084,0.043,0.127,0.064
				c0.038,0.018,0.077,0.033,0.115,0.049c0.046,0.018,0.092,0.035,0.138,0.053c0.039,0.012,0.077,0.023,0.115,0.035
				c0.049,0.016,0.098,0.027,0.146,0.039c0.038,0.01,0.075,0.018,0.114,0.025c0.051,0.012,0.104,0.018,0.155,0.025
				c0.036,0.004,0.073,0.01,0.109,0.014c0.062,0.006,0.123,0.008,0.185,0.01c0.025,0.002,0.051,0.004,0.076,0.004
				c0.092,0,0.184-0.006,0.275-0.016c0.012,0,0.023-0.002,0.035-0.004c0.078-0.01,0.155-0.021,0.232-0.037
				c0.02-0.004,0.04-0.008,0.061-0.012c0.068-0.018,0.136-0.035,0.203-0.055c0.022-0.008,0.046-0.014,0.069-0.021
				c0.063-0.023,0.126-0.047,0.188-0.072c0.023-0.01,0.048-0.02,0.071-0.029c0.062-0.029,0.122-0.061,0.182-0.092
				c0.022-0.012,0.044-0.023,0.066-0.035c0.067-0.041,0.134-0.084,0.198-0.129c0.012-0.01,0.023-0.016,0.036-0.025
				c0.072-0.051,0.143-0.107,0.21-0.168c0.004-0.002,0.007-0.006,0.011-0.01c0.016-0.016,0.031-0.031,0.047-0.047
				c0.057-0.053,0.112-0.107,0.163-0.164c0.003-0.004,0.006-0.006,0.01-0.01l8.487-9.553l-1.654,7.391
				c-0.331,1.484,0.603,2.957,2.087,3.289c0.203,0.045,0.405,0.066,0.604,0.066c1.261,0,2.398-0.871,2.685-2.152l12.152-54.318
				C251.549,246.737,250.615,245.264,249.13,244.932z M241.467,266.569l-3.701,16.545l-9.285-10.451l9.2-10.355L241.467,266.569z
				 M186.603,282.5l-3.702-16.547l3.241-3.646l9.2,10.355L186.603,282.5z M199.026,276.809l9.199,10.355l-9.199,10.357
				l-9.199-10.357L199.026,276.809z M202.711,272.663l9.2-10.355l9.199,10.355l-9.199,10.355L202.711,272.663z M224.795,276.809
				l9.2,10.357l-9.199,10.355l-9.2-10.357L224.795,276.809z"/>
			<g>
				<path fill="#2B388F" d="M253.931,251.745h-83.356c-2.41,0-4.363-1.953-4.363-4.363c0-2.412,1.953-4.365,4.363-4.365h83.356
					c2.41,0,4.364,1.953,4.364,4.365C258.295,249.792,256.341,251.745,253.931,251.745z"/>
			</g>
		</g>
	</g>
</g>
</svg>
