<?xml version="1.0" encoding="utf-8"?>
<!-- Generator: Adobe Illustrator 16.0.0, SVG Export Plug-In . SVG Version: 6.00 Build 0)  -->
<!DOCTYPE svg PUBLIC "-//W3C//DTD SVG 1.1//EN" "http://www.w3.org/Graphics/SVG/1.1/DTD/svg11.dtd">
<svg version="1.1" xmlns="http://www.w3.org/2000/svg" xmlns:xlink="http://www.w3.org/1999/xlink" x="0px" y="0px"
	 width="161.28px" height="402px" viewBox="0 0 161.28 402" enable-background="new 0 0 161.28 402" xml:space="preserve">
<g id="cositas" display="none">
	
		<path display="inline" fill="#FFFFFF" stroke="#404041" stroke-width="4" stroke-linecap="round" stroke-linejoin="round" stroke-miterlimit="10" d="
		M146.696-42.863c0-8.729,6.185-16.012,14.409-17.71v-104.42c0-11.526-9.344-20.87-20.869-20.87H20.695
		c-11.525,0-20.869,9.344-20.869,20.87V72.268c0,11.525,9.344,20.869,20.869,20.869h119.542c11.525,0,20.869-9.344,20.869-20.869
		v-97.421C152.881-26.851,146.696-34.133,146.696-42.863z"/>
	<path display="inline" fill="#EF5D81" d="M77.792,22.088l-4.386,3.063c-0.639,0.446-1.389,0.683-2.169,0.683
		s-1.53-0.236-2.169-0.683l-4.385-3.063h-6.032c-5.809,0-10.533-4.726-10.533-10.534V-42.8c0-5.81,4.725-10.534,10.533-10.534h5.873
		c0.205,0,0.404,0.062,0.572,0.18l5.118,3.576c0.603,0.422,1.443,0.422,2.045,0l5.117-3.576c0.169-0.118,0.369-0.18,0.574-0.18
		h43.874v-72.29c0,0-82,0-82.867,0c-5.267,0-9.533,4.268-9.533,9.533V23.366c0,5.266,4.267,9.533,9.533,9.533
		c0.203,0,82.867,0,82.867,0V22.088H77.792z"/>
	
		<path display="inline" fill="#FFC85E" stroke="#FFFFFF" stroke-width="1.8007" stroke-linecap="round" stroke-linejoin="round" stroke-miterlimit="10" d="
		M131.507-52.333H77.951l-5.118,3.574c-0.479,0.336-1.037,0.502-1.596,0.502s-1.117-0.166-1.596-0.502l-5.117-3.574h-0.308
		c-1.053,0-4.698,0-5.565,0c-5.266,0-9.532,4.268-9.532,9.532v54.354c0,5.264,4.267,9.533,9.532,9.533c0.204,0,2.579,0,6.349,0
		l4.642,3.243c0.479,0.336,1.037,0.502,1.596,0.502s1.117-0.166,1.596-0.502l4.644-3.243c21.592,0,54.03,0,54.03,0V-52.333z"/>
	<g display="inline">
		
			<polyline fill="none" stroke="#231F20" stroke-width="7" stroke-linecap="round" stroke-linejoin="round" stroke-miterlimit="10" points="
			93.361,-24.665 104.361,-13.941 93.361,-3.217 		"/>
	</g>
</g>
<g id="tab13" display="none">
	<g display="inline">
		<path fill="#FFFFFF" d="M203.911-5H-42.631C-54.156-5-63.5,4.344-63.5,15.87v370.261c0,11.525,9.344,20.869,20.869,20.869h246.542
			c11.525,0,20.869-9.344,20.869-20.869V15.87C224.78,4.344,215.437-5,203.911-5z"/>
		<g>
			
				<rect x="-39.034" y="18.595" fill="#DDDDDC" stroke="#DDDDDC" stroke-width="8" stroke-miterlimit="10" width="240.35" height="364.616"/>
			<g>
				<rect x="-39.034" y="18.595" fill="#96E072" width="116.85" height="116.85"/>
				<rect x="-39.034" y="142.095" fill="#96E072" width="116.85" height="116.851"/>
			</g>
			<g>
				<path fill="#F26522" d="M60.329,75.977c-0.384-10.47-4.59-19.94-11.277-27.089c-0.69-0.74-1.41-1.449-2.154-2.138
					c-7.144-6.606-16.569-10.743-26.977-11.108c-0.508-0.018-1.007-0.078-1.52-0.074c-0.512-0.001-1.008,0.058-1.518,0.079
					C6.479,36.028-2.939,40.183-10.069,46.801c-0.746,0.69-1.464,1.402-2.154,2.146c-6.674,7.155-10.86,16.634-11.229,27.106
					c-0.017,0.508-0.074,1.005-0.074,1.52c0.002,0.509,0.06,1.008,0.08,1.518c0.384,10.47,4.583,19.939,11.273,27.086
					c0.692,0.742,1.41,1.452,2.154,2.141c7.144,6.607,16.573,10.745,26.98,11.109c0.508,0.018,1.006,0.074,1.516,0.076
					c0.514,0,1.013-0.061,1.52-0.081c10.407-0.382,19.828-4.538,26.96-11.159c0.74-0.688,1.46-1.399,2.148-2.143
					c6.678-7.16,10.862-16.638,11.224-27.11c0.021-0.506,0.082-1.001,0.08-1.514C60.411,76.983,60.347,76.484,60.329,75.977z"/>
				<path fill="#C95722" d="M60.409,77.497c0.002-0.514-0.062-1.01-0.08-1.52l-22.826,0.019C37.887,65.5,42.244,56.007,49.17,49.019
					c-0.688-0.742-1.401-1.46-2.145-2.148c-7.474,7.535-12.175,17.793-12.556,29.131l-14.514,0.012l-0.041-40.369
					c-0.505-0.02-1-0.08-1.512-0.079c-0.514,0-1.013,0.06-1.52,0.08l0.036,40.372L2.407,76.03
					C2.004,64.694-2.712,54.445-10.207,46.923c-0.738,0.69-1.449,1.411-2.137,2.154c6.936,6.973,11.313,16.46,11.713,26.957
					l-22.822,0.019c-0.019,0.51-0.08,1.009-0.074,1.521c-0.002,0.512,0.06,1.008,0.078,1.516l22.822-0.021
					c-0.38,10.497-4.741,19.995-11.666,26.976c0.688,0.744,1.403,1.462,2.145,2.154c7.476-7.536,12.174-17.797,12.556-29.131
					l14.513-0.017l0.037,40.376c0.508,0.017,1.006,0.075,1.52,0.073c0.509-0.001,1.008-0.059,1.516-0.078l-0.037-40.372
					l14.512-0.016c0.404,11.336,5.123,21.587,12.613,29.112c0.742-0.693,1.451-1.41,2.14-2.155
					c-6.939-6.975-11.317-16.462-11.719-26.96l22.828-0.019C60.349,78.504,60.407,78.008,60.409,77.497z"/>
				
					<path fill="none" stroke="#231F20" stroke-width="2.4262" stroke-linecap="round" stroke-linejoin="round" stroke-miterlimit="10" d="
					M22.203,84.34c-0.004,2.019-1.642,3.653-3.663,3.651c-2.019-0.004-3.652-1.644-3.65-3.662"/>
				<path fill="#231F20" d="M33.129,71.544c-0.005,2.134-1.737,3.86-3.871,3.857c-2.132-0.005-3.857-1.735-3.854-3.87
					c0.003-2.131,1.735-3.857,3.869-3.854C31.408,67.681,33.131,69.414,33.129,71.544z"/>
				<circle fill="#231F20" cx="8.924" cy="71.504" r="3.862"/>
			</g>
			<g>
				<rect x="84.466" y="18.595" fill="#96E072" width="116.85" height="116.85"/>
				<rect x="84.466" y="142.095" fill="#BBBDBF" width="116.85" height="116.851"/>
			</g>
			<g>
				<rect x="-39.034" y="266.362" fill="#96E072" width="116.85" height="116.85"/>
			</g>
			<g>
				<rect x="84.466" y="266.362" fill="#96E072" width="116.85" height="116.85"/>
			</g>
			<g>
				<path fill="#FFFFFF" d="M180.405,299.256c-1.41-0.316-2.81,0.57-3.124,1.98l-2.748,12.278l-11.941-13.442
					c-0.96-1.08-2.614-1.179-3.693-0.22c-1.082,0.962-1.179,2.614-0.22,3.694l7.35,8.273l-8.74,9.838l-8.74-9.838l7.35-8.273
					c0.96-1.08,0.862-2.734-0.219-3.694c-1.08-0.959-2.733-0.862-3.693,0.218l-6.938,7.809l-6.554-7.377
					c-0.96-1.082-2.613-1.178-3.694-0.219c-1.08,0.959-1.18,2.614-0.219,3.694l6.967,7.843l-8.74,9.838l-8.738-9.838l7.666-8.63
					c0.961-1.079,0.862-2.735-0.218-3.694c-1.081-0.961-2.735-0.862-3.694,0.217l-9.178,10.332c-0.007,0.008-0.012,0.013-0.02,0.02
					l-2.545,2.867l-2.616-11.695c-0.315-1.41-1.716-2.297-3.126-1.98c-1.41,0.314-2.298,1.714-1.982,3.124l11.544,51.603
					c0.272,1.217,1.354,2.045,2.552,2.045c0.189,0,0.382-0.021,0.574-0.063c1.41-0.315,2.298-1.714,1.982-3.124l-1.354-6.047
					l7.196,8.1c0.003,0.004,0.009,0.008,0.012,0.012c0.04,0.045,0.085,0.088,0.128,0.13c0.024,0.024,0.048,0.048,0.072,0.071
					c0.004,0.001,0.005,0.005,0.007,0.005c0.063,0.058,0.129,0.109,0.196,0.159c0.021,0.016,0.042,0.028,0.063,0.041
					c0.053,0.037,0.105,0.072,0.16,0.104c0.024,0.016,0.051,0.028,0.078,0.041c0.051,0.028,0.104,0.057,0.156,0.08
					c0.025,0.012,0.053,0.022,0.078,0.033c0.057,0.022,0.111,0.045,0.168,0.063c0.025,0.009,0.05,0.017,0.076,0.024
					c0.061,0.018,0.122,0.035,0.184,0.05c0.021,0.003,0.043,0.009,0.064,0.013c0.07,0.016,0.143,0.026,0.215,0.033
					c0.013,0.002,0.024,0.004,0.039,0.006c0.086,0.01,0.172,0.016,0.26,0.016c0.025,0,0.051-0.004,0.076-0.006
					c0.057,0,0.114-0.002,0.17-0.008c0.037-0.004,0.073-0.012,0.109-0.015c0.047-0.008,0.095-0.013,0.143-0.022
					c0.037-0.008,0.074-0.017,0.111-0.025c0.046-0.01,0.09-0.023,0.135-0.035c0.039-0.012,0.076-0.023,0.113-0.037
					c0.042-0.014,0.083-0.03,0.123-0.045c0.041-0.018,0.08-0.033,0.118-0.053c0.037-0.016,0.073-0.035,0.11-0.053
					c0.04-0.023,0.082-0.043,0.121-0.067c0.029-0.017,0.059-0.037,0.087-0.056c0.159-0.102,0.308-0.223,0.445-0.361
					c0.024-0.026,0.052-0.053,0.075-0.078c0.006-0.008,0.014-0.012,0.02-0.02l10.283-11.576l10.285,11.576
					c0.005,0.006,0.01,0.012,0.016,0.016c0.031,0.037,0.066,0.07,0.101,0.104s0.065,0.066,0.1,0.099c0.001,0,0.001,0,0.003,0
					c0.043,0.041,0.091,0.076,0.137,0.113c0.055,0.04,0.109,0.079,0.166,0.116c0.035,0.025,0.07,0.049,0.107,0.071
					c0.037,0.021,0.074,0.038,0.111,0.06c0.039,0.02,0.08,0.041,0.12,0.061c0.036,0.018,0.073,0.031,0.109,0.047
					c0.044,0.017,0.087,0.033,0.131,0.05c0.037,0.011,0.073,0.022,0.109,0.034c0.046,0.014,0.093,0.025,0.14,0.037
					c0.036,0.009,0.071,0.016,0.108,0.023c0.048,0.012,0.099,0.017,0.147,0.023c0.034,0.004,0.069,0.01,0.104,0.014
					c0.059,0.006,0.117,0.008,0.176,0.01c0.023,0.002,0.049,0.004,0.072,0.004c0.088,0,0.174-0.006,0.262-0.016
					c0.012,0,0.021-0.002,0.033-0.004c0.074-0.009,0.147-0.02,0.221-0.035c0.019-0.004,0.038-0.008,0.058-0.011
					c0.065-0.017,0.129-0.034,0.192-0.052c0.021-0.008,0.045-0.014,0.066-0.021c0.06-0.021,0.119-0.044,0.18-0.068
					c0.021-0.009,0.045-0.018,0.067-0.027c0.058-0.027,0.116-0.058,0.173-0.088c0.021-0.011,0.041-0.021,0.063-0.033
					c0.064-0.039,0.127-0.08,0.188-0.122c0.011-0.009,0.022-0.015,0.034-0.024c0.068-0.048,0.136-0.102,0.199-0.159
					c0.004-0.002,0.007-0.006,0.011-0.009c0.015-0.016,0.029-0.03,0.044-0.045c0.055-0.051,0.107-0.102,0.155-0.156
					c0.003-0.004,0.006-0.006,0.009-0.01l8.063-9.074l-1.571,7.021c-0.314,1.41,0.572,2.809,1.982,3.124
					c0.193,0.042,0.385,0.063,0.574,0.063c1.197,0,2.278-0.828,2.551-2.045l11.545-51.603
					C182.703,300.97,181.816,299.571,180.405,299.256z M173.125,319.811l-3.516,15.717l-8.82-9.928l8.74-9.838L173.125,319.811z
					 M121.004,334.946l-3.517-15.72l3.079-3.464l8.74,9.838L121.004,334.946z M132.807,329.539l8.74,9.838l-8.74,9.839l-8.738-9.839
					L132.807,329.539z M136.308,325.6l8.739-9.838l8.74,9.838l-8.74,9.838L136.308,325.6z M157.287,329.539l8.74,9.84l-8.739,9.837
					l-8.74-9.839L157.287,329.539z"/>
				<g>
					<path fill="#2B388F" d="M184.967,305.727h-79.189c-2.289,0-4.145-1.855-4.145-4.145c0-2.291,1.855-4.146,4.145-4.146h79.189
						c2.289,0,4.146,1.855,4.146,4.146C189.112,303.872,187.256,305.727,184.967,305.727z"/>
				</g>
			</g>
			<g>
				
					<path fill="none" stroke="#6D6E70" stroke-width="7.6001" stroke-linecap="round" stroke-linejoin="round" stroke-miterlimit="10" d="
					M123.337,209.087v-28.217c0-10.94,8.869-19.809,19.81-19.809l0,0c10.939,0,19.809,8.869,19.809,19.809v26.31"/>
				
					<path fill="#6D6E70" stroke="#6D6E70" stroke-width="4.0926" stroke-linecap="round" stroke-linejoin="round" stroke-miterlimit="10" d="
					M116.348,192.7v20.725c0,14.8,11.999,26.797,26.799,26.797c14.799,0,26.797-11.997,26.797-26.797V192.7H116.348z"/>
				<circle fill="#231F20" cx="143.145" cy="210.415" r="6.548"/>
				
					<line fill="none" stroke="#231F20" stroke-width="6.1389" stroke-linecap="round" stroke-linejoin="round" stroke-miterlimit="10" x1="143.146" y1="211.344" x2="143.146" y2="224.217"/>
			</g>
		</g>
	</g>
</g>
<g id="tab_13_1_" display="none">
	<g display="inline">
		<path fill="#6D6E70" d="M203.911-5H-42.631C-54.156-5-63.5,4.344-63.5,15.87v370.261c0,11.525,9.344,20.869,20.869,20.869h246.542
			c11.525,0,20.869-9.344,20.869-20.869V15.87C224.78,4.344,215.437-5,203.911-5z"/>
		<g>
			
				<rect x="-39.034" y="18.595" fill="#DDDDDC" stroke="#DDDDDC" stroke-width="8" stroke-miterlimit="10" width="240.35" height="364.616"/>
			<g>
				<rect x="-39.034" y="18.595" fill="#96E072" width="116.85" height="116.85"/>
				<rect x="-39.034" y="142.095" fill="#96E072" width="116.85" height="116.851"/>
			</g>
			<g>
				<path fill="#F26522" d="M60.329,75.977c-0.384-10.47-4.59-19.94-11.277-27.089c-0.69-0.74-1.41-1.449-2.154-2.138
					c-7.144-6.606-16.569-10.743-26.977-11.108c-0.508-0.018-1.007-0.078-1.52-0.074c-0.512-0.001-1.008,0.058-1.518,0.079
					C6.479,36.028-2.939,40.183-10.069,46.801c-0.746,0.69-1.464,1.402-2.154,2.146c-6.674,7.155-10.86,16.634-11.229,27.106
					c-0.017,0.508-0.074,1.005-0.074,1.52c0.002,0.509,0.06,1.008,0.08,1.518c0.384,10.47,4.583,19.939,11.273,27.086
					c0.692,0.742,1.41,1.452,2.154,2.141c7.144,6.607,16.573,10.745,26.98,11.109c0.508,0.018,1.006,0.074,1.516,0.076
					c0.514,0,1.013-0.061,1.52-0.081c10.407-0.382,19.828-4.538,26.96-11.159c0.74-0.688,1.46-1.399,2.148-2.143
					c6.678-7.16,10.862-16.638,11.224-27.11c0.021-0.506,0.082-1.001,0.08-1.514C60.411,76.983,60.347,76.484,60.329,75.977z"/>
				<path fill="#C95722" d="M60.409,77.497c0.002-0.514-0.062-1.01-0.08-1.52l-22.826,0.019C37.887,65.5,42.244,56.007,49.17,49.019
					c-0.688-0.742-1.401-1.46-2.145-2.148c-7.474,7.535-12.175,17.793-12.556,29.131l-14.514,0.012l-0.041-40.369
					c-0.505-0.02-1-0.08-1.512-0.079c-0.514,0-1.013,0.06-1.52,0.08l0.036,40.372L2.407,76.03
					C2.004,64.694-2.712,54.445-10.207,46.923c-0.738,0.69-1.449,1.411-2.137,2.154c6.936,6.973,11.313,16.46,11.713,26.957
					l-22.822,0.019c-0.019,0.51-0.08,1.009-0.074,1.521c-0.002,0.512,0.06,1.008,0.078,1.516l22.822-0.021
					c-0.38,10.497-4.741,19.995-11.666,26.976c0.688,0.744,1.403,1.462,2.145,2.154c7.476-7.536,12.174-17.797,12.556-29.131
					l14.513-0.017l0.037,40.376c0.508,0.017,1.006,0.075,1.52,0.073c0.509-0.001,1.008-0.059,1.516-0.078l-0.037-40.372
					l14.512-0.016c0.404,11.336,5.123,21.587,12.613,29.112c0.742-0.693,1.451-1.41,2.14-2.155
					c-6.939-6.975-11.317-16.462-11.719-26.96l22.828-0.019C60.349,78.504,60.407,78.008,60.409,77.497z"/>
				
					<path fill="none" stroke="#231F20" stroke-width="2.4262" stroke-linecap="round" stroke-linejoin="round" stroke-miterlimit="10" d="
					M22.203,84.34c-0.004,2.019-1.642,3.653-3.663,3.651c-2.019-0.004-3.652-1.644-3.65-3.662"/>
				<path fill="#231F20" d="M33.129,71.544c-0.005,2.134-1.737,3.86-3.871,3.857c-2.132-0.005-3.857-1.735-3.854-3.87
					c0.003-2.131,1.735-3.857,3.869-3.854C31.408,67.681,33.131,69.414,33.129,71.544z"/>
				<circle fill="#231F20" cx="8.924" cy="71.504" r="3.862"/>
			</g>
			<g>
				<rect x="84.466" y="18.595" fill="#96E072" width="116.85" height="116.85"/>
				<rect x="84.466" y="142.095" fill="#BBBDBF" width="116.85" height="116.851"/>
			</g>
			<g>
				<rect x="-39.034" y="266.362" fill="#96E072" width="116.85" height="116.85"/>
			</g>
			<g>
				<rect x="84.466" y="266.362" fill="#96E072" width="116.85" height="116.85"/>
			</g>
			<g>
				<path fill="#FFFFFF" d="M180.405,299.256c-1.41-0.316-2.81,0.57-3.124,1.98l-2.748,12.278l-11.941-13.442
					c-0.96-1.08-2.614-1.179-3.693-0.22c-1.082,0.962-1.179,2.614-0.22,3.694l7.35,8.273l-8.74,9.838l-8.74-9.838l7.35-8.273
					c0.96-1.08,0.862-2.734-0.219-3.694c-1.08-0.959-2.733-0.862-3.693,0.218l-6.938,7.809l-6.554-7.377
					c-0.96-1.082-2.613-1.178-3.694-0.219c-1.08,0.959-1.18,2.614-0.219,3.694l6.967,7.843l-8.74,9.838l-8.738-9.838l7.666-8.63
					c0.961-1.079,0.862-2.735-0.218-3.694c-1.081-0.961-2.735-0.862-3.694,0.217l-9.178,10.332c-0.007,0.008-0.012,0.013-0.02,0.02
					l-2.545,2.867l-2.616-11.695c-0.315-1.41-1.716-2.297-3.126-1.98c-1.41,0.314-2.298,1.714-1.982,3.124l11.544,51.603
					c0.272,1.217,1.354,2.045,2.552,2.045c0.189,0,0.382-0.021,0.574-0.063c1.41-0.315,2.298-1.714,1.982-3.124l-1.354-6.047
					l7.196,8.1c0.003,0.004,0.009,0.008,0.012,0.012c0.04,0.045,0.085,0.088,0.128,0.13c0.024,0.024,0.048,0.048,0.072,0.071
					c0.004,0.001,0.005,0.005,0.007,0.005c0.063,0.058,0.129,0.109,0.196,0.159c0.021,0.016,0.042,0.028,0.063,0.041
					c0.053,0.037,0.105,0.072,0.16,0.104c0.024,0.016,0.051,0.028,0.078,0.041c0.051,0.028,0.104,0.057,0.156,0.08
					c0.025,0.012,0.053,0.022,0.078,0.033c0.057,0.022,0.111,0.045,0.168,0.063c0.025,0.009,0.05,0.017,0.076,0.024
					c0.061,0.018,0.122,0.035,0.184,0.05c0.021,0.003,0.043,0.009,0.064,0.013c0.07,0.016,0.143,0.026,0.215,0.033
					c0.013,0.002,0.024,0.004,0.039,0.006c0.086,0.01,0.172,0.016,0.26,0.016c0.025,0,0.051-0.004,0.076-0.006
					c0.057,0,0.114-0.002,0.17-0.008c0.037-0.004,0.073-0.012,0.109-0.015c0.047-0.008,0.095-0.013,0.143-0.022
					c0.037-0.008,0.074-0.017,0.111-0.025c0.046-0.01,0.09-0.023,0.135-0.035c0.039-0.012,0.076-0.023,0.113-0.037
					c0.042-0.014,0.083-0.03,0.123-0.045c0.041-0.018,0.08-0.033,0.118-0.053c0.037-0.016,0.073-0.035,0.11-0.053
					c0.04-0.023,0.082-0.043,0.121-0.067c0.029-0.017,0.059-0.037,0.087-0.056c0.159-0.102,0.308-0.223,0.445-0.361
					c0.024-0.026,0.052-0.053,0.075-0.078c0.006-0.008,0.014-0.012,0.02-0.02l10.283-11.576l10.285,11.576
					c0.005,0.006,0.01,0.012,0.016,0.016c0.031,0.037,0.066,0.07,0.101,0.104s0.065,0.066,0.1,0.099c0.001,0,0.001,0,0.003,0
					c0.043,0.041,0.091,0.076,0.137,0.113c0.055,0.04,0.109,0.079,0.166,0.116c0.035,0.025,0.07,0.049,0.107,0.071
					c0.037,0.021,0.074,0.038,0.111,0.06c0.039,0.02,0.08,0.041,0.12,0.061c0.036,0.018,0.073,0.031,0.109,0.047
					c0.044,0.017,0.087,0.033,0.131,0.05c0.037,0.011,0.073,0.022,0.109,0.034c0.046,0.014,0.093,0.025,0.14,0.037
					c0.036,0.009,0.071,0.016,0.108,0.023c0.048,0.012,0.099,0.017,0.147,0.023c0.034,0.004,0.069,0.01,0.104,0.014
					c0.059,0.006,0.117,0.008,0.176,0.01c0.023,0.002,0.049,0.004,0.072,0.004c0.088,0,0.174-0.006,0.262-0.016
					c0.012,0,0.021-0.002,0.033-0.004c0.074-0.009,0.147-0.02,0.221-0.035c0.019-0.004,0.038-0.008,0.058-0.011
					c0.065-0.017,0.129-0.034,0.192-0.052c0.021-0.008,0.045-0.014,0.066-0.021c0.06-0.021,0.119-0.044,0.18-0.068
					c0.021-0.009,0.045-0.018,0.067-0.027c0.058-0.027,0.116-0.058,0.173-0.088c0.021-0.011,0.041-0.021,0.063-0.033
					c0.064-0.039,0.127-0.08,0.188-0.122c0.011-0.009,0.022-0.015,0.034-0.024c0.068-0.048,0.136-0.102,0.199-0.159
					c0.004-0.002,0.007-0.006,0.011-0.009c0.015-0.016,0.029-0.03,0.044-0.045c0.055-0.051,0.107-0.102,0.155-0.156
					c0.003-0.004,0.006-0.006,0.009-0.01l8.063-9.074l-1.571,7.021c-0.314,1.41,0.572,2.809,1.982,3.124
					c0.193,0.042,0.385,0.063,0.574,0.063c1.197,0,2.278-0.828,2.551-2.045l11.545-51.603
					C182.703,300.97,181.816,299.571,180.405,299.256z M173.125,319.811l-3.516,15.717l-8.82-9.928l8.74-9.838L173.125,319.811z
					 M121.004,334.946l-3.517-15.72l3.079-3.464l8.74,9.838L121.004,334.946z M132.807,329.539l8.74,9.838l-8.74,9.839l-8.738-9.839
					L132.807,329.539z M136.308,325.6l8.739-9.838l8.74,9.838l-8.74,9.838L136.308,325.6z M157.287,329.539l8.74,9.84l-8.739,9.837
					l-8.74-9.839L157.287,329.539z"/>
				<g>
					<path fill="#2B388F" d="M184.967,305.727h-79.189c-2.289,0-4.145-1.855-4.145-4.145c0-2.291,1.855-4.146,4.145-4.146h79.189
						c2.289,0,4.146,1.855,4.146,4.146C189.112,303.872,187.256,305.727,184.967,305.727z"/>
				</g>
			</g>
			<g>
				
					<path fill="none" stroke="#6D6E70" stroke-width="7.6001" stroke-linecap="round" stroke-linejoin="round" stroke-miterlimit="10" d="
					M123.337,209.087v-28.217c0-10.94,8.869-19.809,19.81-19.809l0,0c10.939,0,19.809,8.869,19.809,19.809v26.31"/>
				
					<path fill="#6D6E70" stroke="#6D6E70" stroke-width="4.0926" stroke-linecap="round" stroke-linejoin="round" stroke-miterlimit="10" d="
					M116.348,192.7v20.725c0,14.8,11.999,26.797,26.799,26.797c14.799,0,26.797-11.997,26.797-26.797V192.7H116.348z"/>
				<circle fill="#231F20" cx="143.145" cy="210.415" r="6.548"/>
				
					<line fill="none" stroke="#231F20" stroke-width="6.1389" stroke-linecap="round" stroke-linejoin="round" stroke-miterlimit="10" x1="143.146" y1="211.344" x2="143.146" y2="224.217"/>
			</g>
		</g>
	</g>
</g>
<g id="prog_b_1_">
	<g>
		<path fill="#FFFFFF" d="M161.28,20.87C161.28,9.344,151.937,0,140.411,0H20.869C9.344,0,0,9.344,0,20.87v360.261
			C0,392.657,9.344,402,20.869,402h119.542c11.525,0,20.869-9.344,20.869-20.869V20.87z"/>
		<g>
			<path fill="#EF5D81" d="M77.967,343.167l-4.386,3.063c-0.639,0.445-1.389,0.682-2.169,0.682s-1.531-0.236-2.169-0.682
				l-4.386-3.063h-6.031c-5.81,0-10.534-4.727-10.534-10.535V130.848c0-5.81,4.725-10.534,10.534-10.534h5.873
				c0.205,0,0.403,0.063,0.572,0.181l5.118,3.575c0.602,0.422,1.442,0.422,2.045,0l5.117-3.575c0.169-0.118,0.369-0.181,0.574-0.181
				H122v-72.29c0,0-82,0-82.867,0c-5.267,0-9.533,4.268-9.533,9.533v286.887c0,5.266,4.267,9.533,9.533,9.533
				c0.203,0,82.867,0,82.867,0v-10.811H77.967z"/>
			
				<path fill="#FFC85E" stroke="#FFFFFF" stroke-width="1.8007" stroke-linecap="round" stroke-linejoin="round" stroke-miterlimit="10" d="
				M131.682,121.315H78.126l-5.118,3.575c-0.479,0.336-1.038,0.502-1.596,0.502c-0.559,0-1.117-0.166-1.597-0.502l-5.116-3.575
				h-0.308c-1.053,0-4.698,0-5.565,0c-5.266,0-9.533,4.268-9.533,9.532v54.355c0,5.264,4.268,9.532,9.533,9.532
				c0.204,0,2.578,0,6.348,0l4.642,3.243c0.479,0.336,1.038,0.502,1.597,0.502c0.558,0,1.116-0.166,1.596-0.502l4.644-3.243
				c21.591,0,54.03,0,54.03,0V121.315z"/>
			
				<polygon fill="#231F20" stroke="#231F20" stroke-width="5.0061" stroke-linecap="round" stroke-linejoin="round" stroke-miterlimit="10" points="
				71.397,72.649 93.558,85.443 71.397,98.238 			"/>
			
				<path fill="#FFC85E" stroke="#FFFFFF" stroke-width="1.8007" stroke-linecap="round" stroke-linejoin="round" stroke-miterlimit="10" d="
				M131.682,194.845H78.126l-5.118,3.575c-0.479,0.335-1.038,0.502-1.596,0.502c-0.559,0-1.117-0.167-1.597-0.502l-5.116-3.575
				h-0.308c-1.053,0-4.698,0-5.565,0c-5.266,0-9.533,4.268-9.533,9.533v54.354c0,5.264,4.268,9.533,9.533,9.533
				c0.204,0,2.578,0,6.348,0l4.642,3.244c0.479,0.336,1.038,0.502,1.597,0.502c0.558,0,1.116-0.166,1.596-0.502l4.644-3.244
				c21.591,0,54.03,0,54.03,0V194.845z"/>
			<g>
				
					<line fill="none" stroke="#231F20" stroke-width="7" stroke-linecap="round" stroke-linejoin="round" stroke-miterlimit="10" x1="80.707" y1="159.707" x2="103.39" y2="159.707"/>
				
					<polyline fill="none" stroke="#231F20" stroke-width="7" stroke-linecap="round" stroke-linejoin="round" stroke-miterlimit="10" points="
					93.535,148.984 104.535,159.707 93.535,170.432 				"/>
			</g>
			<g>
				
					<line fill="none" stroke="#231F20" stroke-width="7" stroke-linecap="round" stroke-linejoin="round" stroke-miterlimit="10" x1="92.622" y1="220.793" x2="92.622" y2="243.475"/>
				
					<polyline fill="none" stroke="#231F20" stroke-width="7" stroke-linecap="round" stroke-linejoin="round" stroke-miterlimit="10" points="
					103.345,233.622 92.622,244.622 81.897,233.622 				"/>
			</g>
			
				<path fill="#FFC85E" stroke="#FFFFFF" stroke-width="1.8007" stroke-linecap="round" stroke-linejoin="round" stroke-miterlimit="10" d="
				M131.682,268.844H78.126l-5.118,3.576c-0.479,0.334-1.038,0.502-1.596,0.502c-0.559,0-1.117-0.168-1.597-0.502l-5.116-3.576
				h-0.308c-1.053,0-4.698,0-5.565,0c-5.266,0-9.533,4.268-9.533,9.533v54.354c0,5.264,4.268,9.533,9.533,9.533
				c0.204,0,2.578,0,6.348,0l4.642,3.244c0.479,0.336,1.038,0.502,1.597,0.502c0.558,0,1.116-0.166,1.596-0.502l4.644-3.244
				c21.591,0,54.03,0,54.03,0V268.844z"/>
			<g>
				
					<line fill="none" stroke="#231F20" stroke-width="7" stroke-linecap="round" stroke-linejoin="round" stroke-miterlimit="10" x1="92.624" y1="294.793" x2="92.624" y2="317.475"/>
				
					<polyline fill="none" stroke="#231F20" stroke-width="7" stroke-linecap="round" stroke-linejoin="round" stroke-miterlimit="10" points="
					103.347,307.622 92.624,318.622 81.899,307.622 				"/>
			</g>
		</g>
	</g>
</g>
<g id="prog_a_1_" display="none">
	<g display="inline">
		<path fill="#FFFFFF" d="M161.28,20.87C161.28,9.344,151.937,0,140.411,0H20.869C9.344,0,0,9.344,0,20.87v360.261
			C0,392.657,9.344,402,20.869,402h119.542c11.525,0,20.869-9.344,20.869-20.869V20.87z"/>
		<g>
			<path fill="#EF5D81" d="M77.967,343.167l-4.386,3.063c-0.639,0.445-1.389,0.682-2.169,0.682s-1.531-0.236-2.169-0.682
				l-4.386-3.063h-6.031c-5.81,0-10.534-4.727-10.534-10.535V130.848c0-5.81,4.725-10.534,10.534-10.534h5.873
				c0.205,0,0.403,0.063,0.572,0.181l5.118,3.575c0.602,0.422,1.442,0.422,2.045,0l5.117-3.575c0.169-0.118,0.369-0.181,0.574-0.181
				H122v-72.29c0,0-82,0-82.867,0c-5.267,0-9.533,4.268-9.533,9.533v286.887c0,5.266,4.267,9.533,9.533,9.533
				c0.203,0,82.867,0,82.867,0v-10.811H77.967z"/>
			
				<path fill="#FFC85E" stroke="#FFFFFF" stroke-width="1.8007" stroke-linecap="round" stroke-linejoin="round" stroke-miterlimit="10" d="
				M131.682,121.315H78.126l-5.118,3.575c-0.479,0.336-1.038,0.502-1.596,0.502c-0.559,0-1.117-0.166-1.597-0.502l-5.116-3.575
				h-0.308c-1.053,0-4.698,0-5.565,0c-5.266,0-9.533,4.268-9.533,9.532v54.355c0,5.264,4.268,9.532,9.533,9.532
				c0.204,0,2.578,0,6.348,0l4.642,3.243c0.479,0.336,1.038,0.502,1.597,0.502c0.558,0,1.116-0.166,1.596-0.502l4.644-3.243
				c21.591,0,54.03,0,54.03,0V121.315z"/>
			
				<polygon fill="#231F20" stroke="#231F20" stroke-width="5.0061" stroke-linecap="round" stroke-linejoin="round" stroke-miterlimit="10" points="
				71.397,72.649 93.558,85.443 71.397,98.238 			"/>
			
				<path fill="#FFC85E" stroke="#FFFFFF" stroke-width="1.8007" stroke-linecap="round" stroke-linejoin="round" stroke-miterlimit="10" d="
				M131.682,194.845H78.126l-5.118,3.575c-0.479,0.335-1.038,0.502-1.596,0.502c-0.559,0-1.117-0.167-1.597-0.502l-5.116-3.575
				h-0.308c-1.053,0-4.698,0-5.565,0c-5.266,0-9.533,4.268-9.533,9.533v54.354c0,5.264,4.268,9.533,9.533,9.533
				c0.204,0,2.578,0,6.348,0l4.642,3.244c0.479,0.336,1.038,0.502,1.597,0.502c0.558,0,1.116-0.166,1.596-0.502l4.644-3.244
				c21.591,0,54.03,0,54.03,0V194.845z"/>
			<g>
				
					<line fill="none" stroke="#231F20" stroke-width="7" stroke-linecap="round" stroke-linejoin="round" stroke-miterlimit="10" x1="92.622" y1="147.794" x2="92.622" y2="170.477"/>
				
					<polyline fill="none" stroke="#231F20" stroke-width="7" stroke-linecap="round" stroke-linejoin="round" stroke-miterlimit="10" points="
					103.345,160.622 92.622,171.622 81.897,160.622 				"/>
			</g>
			<g>
				
					<line fill="none" stroke="#231F20" stroke-width="7" stroke-linecap="round" stroke-linejoin="round" stroke-miterlimit="10" x1="92.621" y1="220.793" x2="92.621" y2="243.475"/>
				
					<polyline fill="none" stroke="#231F20" stroke-width="7" stroke-linecap="round" stroke-linejoin="round" stroke-miterlimit="10" points="
					103.345,233.622 92.621,244.622 81.897,233.622 				"/>
			</g>
			
				<path fill="#FFC85E" stroke="#FFFFFF" stroke-width="1.8007" stroke-linecap="round" stroke-linejoin="round" stroke-miterlimit="10" d="
				M131.682,268.844H78.126l-5.118,3.576c-0.479,0.334-1.038,0.502-1.596,0.502c-0.559,0-1.117-0.168-1.597-0.502l-5.116-3.576
				h-0.308c-1.053,0-4.698,0-5.565,0c-5.266,0-9.533,4.268-9.533,9.533v54.354c0,5.264,4.268,9.533,9.533,9.533
				c0.204,0,2.578,0,6.348,0l4.642,3.244c0.479,0.336,1.038,0.502,1.597,0.502c0.558,0,1.116-0.166,1.596-0.502l4.644-3.244
				c21.591,0,54.03,0,54.03,0V268.844z"/>
			<g>
				
					<line fill="none" stroke="#231F20" stroke-width="7" stroke-linecap="round" stroke-linejoin="round" stroke-miterlimit="10" x1="80.707" y1="306.708" x2="103.39" y2="306.708"/>
				
					<polyline fill="none" stroke="#231F20" stroke-width="7" stroke-linecap="round" stroke-linejoin="round" stroke-miterlimit="10" points="
					93.535,295.985 104.535,306.708 93.535,317.432 				"/>
			</g>
		</g>
	</g>
</g>
<g id="prog_b" display="none">
	<g display="inline">
		<path fill="#FFFFFF" d="M161.28,82.37c0-11.526-9.344-20.87-20.869-20.87H20.869C9.344,61.5,0,70.844,0,82.37v237.261
			C0,331.157,9.344,340.5,20.869,340.5h119.542c11.525,0,20.869-9.344,20.869-20.869V82.37z"/>
		<g>
			<path fill="#EF5D81" d="M77.967,269.452l-4.386,3.063c-0.639,0.445-1.389,0.682-2.169,0.682s-1.53-0.236-2.169-0.682
				l-4.385-3.063h-6.032c-5.809,0-10.533-4.727-10.533-10.535v-54.354c0-5.81,4.725-10.535,10.533-10.535h5.873
				c0.205,0,0.404,0.062,0.572,0.18l5.118,3.576c0.603,0.422,1.443,0.422,2.045,0l5.117-3.576c0.169-0.118,0.369-0.18,0.574-0.18
				H122v-72.29c0,0-82,0-82.867,0c-5.267,0-9.533,4.268-9.533,9.533v139.458c0,5.266,4.267,9.533,9.533,9.533
				c0.203,0,82.867,0,82.867,0v-10.811H77.967z"/>
			
				<path fill="#FFC85E" stroke="#FFFFFF" stroke-width="1.8007" stroke-linecap="round" stroke-linejoin="round" stroke-miterlimit="10" d="
				M131.682,195.03H78.126l-5.118,3.574c-0.479,0.336-1.037,0.502-1.596,0.502s-1.117-0.166-1.596-0.502l-5.117-3.574h-0.308
				c-1.053,0-4.698,0-5.565,0c-5.266,0-9.532,4.268-9.532,9.533v54.354c0,5.264,4.267,9.533,9.532,9.533c0.204,0,2.579,0,6.349,0
				l4.642,3.244c0.479,0.336,1.037,0.502,1.596,0.502s1.117-0.166,1.596-0.502l4.644-3.244c21.592,0,54.03,0,54.03,0V195.03z"/>
			
				<polygon fill="#231F20" stroke="#231F20" stroke-width="5.0061" stroke-linecap="round" stroke-linejoin="round" stroke-miterlimit="10" points="
				71.397,146.363 93.558,159.158 71.397,171.952 			"/>
			<g>
				
					<line fill="none" stroke="#231F20" stroke-width="7" stroke-linecap="round" stroke-linejoin="round" stroke-miterlimit="10" x1="92.622" y1="221.508" x2="92.622" y2="244.19"/>
				
					<polyline fill="none" stroke="#231F20" stroke-width="7" stroke-linecap="round" stroke-linejoin="round" stroke-miterlimit="10" points="
					103.346,234.336 92.622,245.336 81.898,234.336 				"/>
			</g>
		</g>
	</g>
</g>
<g id="prog_a" display="none">
	<g display="inline">
		<path fill="#FFFFFF" d="M161.28,82.37c0-11.526-9.344-20.87-20.869-20.87H20.869C9.344,61.5,0,70.844,0,82.37v237.261
			C0,331.157,9.344,340.5,20.869,340.5h119.542c11.525,0,20.869-9.344,20.869-20.869V82.37z"/>
		<g>
			<g>
				<path fill="#EF5D81" d="M77.966,306.167l-4.386,3.063c-0.639,0.445-1.389,0.682-2.169,0.682s-1.531-0.236-2.169-0.682
					l-4.386-3.063h-6.031c-5.81,0-10.534-4.727-10.534-10.535V167.848c0-5.81,4.725-10.534,10.534-10.534h5.873
					c0.205,0,0.403,0.063,0.572,0.181l5.118,3.575c0.602,0.422,1.442,0.422,2.045,0l5.117-3.575
					c0.169-0.118,0.369-0.181,0.574-0.181H122v-72.29c0,0-82,0-82.868,0c-5.267,0-9.533,4.268-9.533,9.534v212.887
					c0,5.266,4.267,9.533,9.533,9.533c0.203,0,82.868,0,82.868,0v-10.811H77.966z"/>
				
					<path fill="#FFC85E" stroke="#FFFFFF" stroke-width="1.8007" stroke-linecap="round" stroke-linejoin="round" stroke-miterlimit="10" d="
					M131.682,158.315H78.125l-5.118,3.575c-0.479,0.336-1.038,0.502-1.596,0.502c-0.559,0-1.117-0.166-1.597-0.502l-5.116-3.575
					h-0.308c-1.053,0-4.698,0-5.565,0c-5.266,0-9.533,4.268-9.533,9.532v54.356c0,5.264,4.268,9.531,9.533,9.531
					c0.204,0,2.578,0,6.348,0l4.642,3.244c0.479,0.336,1.038,0.502,1.597,0.502c0.558,0,1.116-0.166,1.596-0.502l4.644-3.244
					c21.591,0,54.031,0,54.031,0V158.315z"/>
				
					<polygon fill="#231F20" stroke="#231F20" stroke-width="5.0061" stroke-linecap="round" stroke-linejoin="round" stroke-miterlimit="10" points="
					71.397,109.649 93.557,122.444 71.397,135.238 				"/>
				
					<path fill="#FFC85E" stroke="#FFFFFF" stroke-width="1.8007" stroke-linecap="round" stroke-linejoin="round" stroke-miterlimit="10" d="
					M131.682,231.844H78.125l-5.118,3.576c-0.479,0.334-1.038,0.502-1.596,0.502c-0.559,0-1.117-0.168-1.597-0.502l-5.116-3.576
					h-0.308c-1.053,0-4.698,0-5.565,0c-5.266,0-9.533,4.268-9.533,9.533v54.354c0,5.264,4.268,9.533,9.533,9.533
					c0.204,0,2.578,0,6.348,0l4.642,3.244c0.479,0.336,1.038,0.502,1.597,0.502c0.558,0,1.116-0.166,1.596-0.502l4.644-3.244
					c21.591,0,54.031,0,54.031,0V231.844z"/>
			</g>
			<g>
				
					<line fill="none" stroke="#231F20" stroke-width="7" stroke-linecap="round" stroke-linejoin="round" stroke-miterlimit="10" x1="80.707" y1="196.708" x2="103.39" y2="196.708"/>
				
					<polyline fill="none" stroke="#231F20" stroke-width="7" stroke-linecap="round" stroke-linejoin="round" stroke-miterlimit="10" points="
					93.535,185.984 104.535,196.708 93.535,207.431 				"/>
			</g>
			<g>
				
					<line fill="none" stroke="#231F20" stroke-width="7" stroke-linecap="round" stroke-linejoin="round" stroke-miterlimit="10" x1="92.621" y1="257.793" x2="92.621" y2="280.475"/>
				
					<polyline fill="none" stroke="#231F20" stroke-width="7" stroke-linecap="round" stroke-linejoin="round" stroke-miterlimit="10" points="
					103.345,270.622 92.621,281.622 81.897,270.622 				"/>
			</g>
		</g>
	</g>
</g>
<g id="tablero12_1_" display="none">
	<g display="inline">
		<path fill="#FFFFFF" d="M203.911,61.5H-42.631c-11.525,0-20.869,9.344-20.869,20.87v237.261c0,11.525,9.344,20.869,20.869,20.869
			h246.542c11.525,0,20.869-9.344,20.869-20.869V82.37C224.78,70.844,215.437,61.5,203.911,61.5z"/>
		
			<rect x="-39.034" y="80.825" fill="#DDDDDC" stroke="#DDDDDC" stroke-width="8" stroke-miterlimit="10" width="240.35" height="240.35"/>
		<g>
			<rect x="-39.034" y="80.825" fill="#96E072" width="116.85" height="116.85"/>
			<rect x="-39.034" y="204.326" fill="#96E072" width="116.85" height="116.85"/>
		</g>
		<g>
			<path fill="#F26522" d="M60.329,138.207c-0.384-10.47-4.59-19.94-11.277-27.089c-0.69-0.739-1.41-1.448-2.154-2.137
				c-7.144-6.607-16.569-10.743-26.977-11.109c-0.508-0.018-1.007-0.078-1.52-0.074c-0.512-0.002-1.008,0.058-1.518,0.079
				c-10.403,0.382-19.822,4.536-26.952,11.154c-0.746,0.69-1.464,1.403-2.154,2.146c-6.674,7.155-10.86,16.634-11.229,27.106
				c-0.017,0.508-0.074,1.005-0.074,1.52c0.002,0.51,0.06,1.009,0.08,1.518c0.384,10.469,4.583,19.939,11.273,27.086
				c0.692,0.742,1.41,1.452,2.154,2.141c7.144,6.607,16.573,10.745,26.98,11.109c0.508,0.018,1.006,0.074,1.516,0.076
				c0.514,0,1.013-0.062,1.52-0.081c10.407-0.382,19.828-4.538,26.96-11.159c0.74-0.688,1.46-1.399,2.148-2.143
				c6.678-7.159,10.862-16.638,11.224-27.11c0.021-0.506,0.082-1.001,0.08-1.514C60.411,139.213,60.347,138.714,60.329,138.207z"/>
			<path fill="#C95722" d="M60.409,139.727c0.002-0.514-0.062-1.01-0.08-1.52l-22.826,0.019
				c0.384-10.495,4.741-19.989,11.667-26.978c-0.688-0.741-1.401-1.46-2.145-2.147c-7.474,7.535-12.175,17.793-12.556,29.131
				l-14.514,0.012l-0.041-40.369c-0.505-0.02-1-0.08-1.512-0.079c-0.514,0-1.013,0.061-1.52,0.08l0.036,40.372L2.407,138.26
				c-0.403-11.336-5.119-21.586-12.614-29.107c-0.738,0.69-1.449,1.411-2.137,2.154c6.936,6.973,11.313,16.46,11.713,26.957
				l-22.822,0.019c-0.019,0.509-0.08,1.009-0.074,1.521c-0.002,0.512,0.06,1.008,0.078,1.516l22.822-0.021
				c-0.38,10.497-4.741,19.995-11.666,26.976c0.688,0.744,1.403,1.462,2.145,2.154c7.476-7.536,12.174-17.797,12.556-29.131
				l14.513-0.017l0.037,40.376c0.508,0.017,1.006,0.075,1.52,0.073c0.509-0.001,1.008-0.06,1.516-0.078l-0.037-40.371l14.512-0.016
				c0.404,11.336,5.123,21.587,12.613,29.112c0.742-0.693,1.451-1.41,2.14-2.155c-6.939-6.975-11.317-16.462-11.719-26.96
				l22.828-0.019C60.349,140.734,60.407,140.238,60.409,139.727z"/>
			
				<path fill="none" stroke="#231F20" stroke-width="2.4262" stroke-linecap="round" stroke-linejoin="round" stroke-miterlimit="10" d="
				M22.203,146.57c-0.004,2.019-1.642,3.652-3.663,3.651c-2.019-0.004-3.652-1.644-3.65-3.662"/>
			<circle fill="#231F20" cx="29.267" cy="133.768" r="3.862"/>
			<circle fill="#231F20" cx="8.924" cy="133.734" r="3.862"/>
		</g>
		<g>
			<rect x="84.466" y="80.825" fill="#96E072" width="116.85" height="116.85"/>
			<rect x="84.466" y="204.326" fill="#96E072" width="116.85" height="116.85"/>
		</g>
		<g>
			<path fill="#FFFFFF" d="M180.405,237.985c-1.41-0.314-2.81,0.572-3.124,1.982l-2.748,12.277l-11.941-13.443
				c-0.96-1.079-2.614-1.178-3.693-0.219c-1.082,0.961-1.179,2.615-0.22,3.695l7.35,8.273l-8.74,9.838l-8.74-9.838l7.35-8.273
				c0.96-1.08,0.862-2.735-0.219-3.695c-1.08-0.959-2.733-0.862-3.693,0.218l-6.938,7.81l-6.554-7.377
				c-0.96-1.082-2.613-1.179-3.694-0.219c-1.08,0.959-1.18,2.613-0.219,3.693l6.967,7.844l-8.74,9.838l-8.738-9.838l7.666-8.631
				c0.961-1.079,0.862-2.734-0.218-3.693c-1.081-0.961-2.735-0.863-3.694,0.217l-9.178,10.331c-0.007,0.008-0.012,0.013-0.02,0.021
				l-2.545,2.867l-2.616-11.695c-0.315-1.41-1.716-2.297-3.126-1.982c-1.41,0.316-2.298,1.715-1.982,3.125l11.544,51.603
				c0.272,1.218,1.354,2.045,2.552,2.045c0.189,0,0.382-0.021,0.574-0.063c1.41-0.314,2.298-1.714,1.982-3.124l-1.354-6.048
				l7.196,8.102c0.003,0.004,0.009,0.008,0.012,0.012c0.04,0.044,0.085,0.087,0.128,0.129c0.024,0.024,0.048,0.049,0.072,0.07
				c0.004,0.002,0.005,0.006,0.007,0.006c0.063,0.059,0.129,0.109,0.196,0.16c0.021,0.015,0.042,0.027,0.063,0.041
				c0.053,0.037,0.105,0.072,0.16,0.104c0.024,0.015,0.051,0.027,0.078,0.041c0.051,0.027,0.104,0.056,0.156,0.08
				c0.025,0.011,0.053,0.021,0.078,0.033c0.057,0.021,0.111,0.045,0.168,0.063c0.025,0.01,0.05,0.018,0.076,0.024
				c0.061,0.019,0.122,0.035,0.184,0.05c0.021,0.004,0.043,0.01,0.064,0.014c0.07,0.015,0.143,0.025,0.215,0.033
				c0.013,0.002,0.024,0.004,0.039,0.006c0.086,0.009,0.172,0.014,0.26,0.014c0.025,0,0.051-0.003,0.076-0.005
				c0.057,0,0.114-0.002,0.17-0.007c0.037-0.004,0.073-0.012,0.109-0.016c0.047-0.008,0.095-0.013,0.143-0.021
				c0.037-0.008,0.074-0.018,0.111-0.026c0.046-0.009,0.09-0.022,0.135-0.036c0.039-0.01,0.076-0.021,0.113-0.037
				c0.042-0.012,0.083-0.029,0.123-0.044c0.041-0.017,0.08-0.033,0.118-0.052c0.037-0.017,0.073-0.035,0.11-0.054
				c0.04-0.022,0.082-0.043,0.121-0.067c0.029-0.016,0.059-0.037,0.087-0.055c0.159-0.103,0.308-0.223,0.445-0.362
				c0.024-0.026,0.052-0.052,0.075-0.078c0.006-0.007,0.014-0.011,0.02-0.019l10.283-11.576l10.285,11.576
				c0.005,0.006,0.01,0.012,0.016,0.016c0.031,0.037,0.066,0.07,0.101,0.104s0.065,0.066,0.1,0.098c0.001,0,0.001,0,0.003,0
				c0.043,0.041,0.091,0.076,0.137,0.113c0.055,0.041,0.109,0.08,0.166,0.117c0.035,0.023,0.07,0.049,0.107,0.07
				c0.037,0.021,0.074,0.039,0.111,0.06c0.039,0.021,0.08,0.041,0.12,0.062c0.036,0.017,0.073,0.031,0.109,0.046
				c0.044,0.017,0.087,0.034,0.131,0.05c0.037,0.012,0.073,0.023,0.109,0.033c0.046,0.016,0.093,0.027,0.14,0.037
				c0.036,0.01,0.071,0.018,0.108,0.025c0.048,0.011,0.099,0.016,0.147,0.023c0.034,0.004,0.069,0.01,0.104,0.014
				c0.059,0.005,0.117,0.007,0.176,0.009c0.023,0.002,0.049,0.003,0.072,0.003c0.088,0,0.174-0.005,0.262-0.014
				c0.012,0,0.021-0.002,0.033-0.004c0.074-0.01,0.147-0.021,0.221-0.035c0.019-0.004,0.038-0.008,0.058-0.012
				c0.065-0.017,0.129-0.033,0.192-0.052c0.021-0.007,0.045-0.013,0.066-0.021c0.06-0.021,0.119-0.045,0.18-0.068
				c0.021-0.01,0.045-0.019,0.067-0.027c0.058-0.028,0.116-0.059,0.173-0.088c0.021-0.012,0.041-0.022,0.063-0.033
				c0.064-0.039,0.127-0.08,0.188-0.123c0.011-0.009,0.022-0.015,0.034-0.023c0.068-0.049,0.136-0.103,0.199-0.16
				c0.004-0.002,0.007-0.006,0.011-0.009c0.015-0.015,0.029-0.03,0.044-0.045c0.055-0.05,0.107-0.103,0.155-0.155
				c0.003-0.004,0.006-0.006,0.009-0.01l8.063-9.075l-1.571,7.021c-0.314,1.41,0.572,2.81,1.982,3.124
				c0.193,0.043,0.385,0.063,0.574,0.063c1.197,0,2.278-0.827,2.551-2.045l11.545-51.603
				C182.703,239.7,181.816,238.301,180.405,237.985z M173.125,258.541l-3.516,15.718l-8.82-9.929l8.74-9.838L173.125,258.541z
				 M121.004,273.675l-3.517-15.72l3.079-3.464l8.74,9.838L121.004,273.675z M132.807,268.268l8.74,9.838l-8.74,9.84l-8.738-9.84
				L132.807,268.268z M136.308,264.33l8.739-9.838l8.74,9.838l-8.74,9.837L136.308,264.33z M157.287,268.268l8.74,9.84l-8.739,9.838
				l-8.74-9.84L157.287,268.268z"/>
			<g>
				<path fill="#2B388F" d="M184.967,244.458h-79.189c-2.289,0-4.145-1.855-4.145-4.145c0-2.292,1.855-4.147,4.145-4.147h79.189
					c2.289,0,4.146,1.855,4.146,4.147C189.112,242.602,187.256,244.458,184.967,244.458z"/>
			</g>
		</g>
		<g>
			<rect x="-39.034" y="80.825" fill="#96E072" width="116.85" height="116.85"/>
			<rect x="-39.034" y="204.326" fill="#96E072" width="116.85" height="116.85"/>
		</g>
		<g>
			<path fill="#F26522" d="M60.329,138.207c-0.384-10.47-4.59-19.94-11.277-27.089c-0.69-0.739-1.41-1.448-2.154-2.137
				c-7.144-6.607-16.569-10.743-26.977-11.109c-0.508-0.018-1.007-0.078-1.52-0.074c-0.512-0.002-1.008,0.058-1.518,0.079
				c-10.403,0.382-19.822,4.536-26.952,11.154c-0.746,0.69-1.464,1.403-2.154,2.146c-6.674,7.155-10.86,16.634-11.229,27.106
				c-0.017,0.508-0.074,1.005-0.074,1.52c0.002,0.51,0.06,1.009,0.08,1.518c0.384,10.469,4.583,19.939,11.273,27.086
				c0.692,0.742,1.41,1.452,2.154,2.141c7.144,6.607,16.573,10.745,26.98,11.109c0.508,0.018,1.006,0.074,1.516,0.076
				c0.514,0,1.013-0.062,1.52-0.081c10.407-0.382,19.828-4.538,26.96-11.159c0.74-0.688,1.46-1.399,2.148-2.143
				c6.678-7.159,10.862-16.638,11.224-27.11c0.021-0.506,0.082-1.001,0.08-1.514C60.411,139.213,60.347,138.714,60.329,138.207z"/>
			<path fill="#C95722" d="M60.409,139.727c0.002-0.514-0.062-1.01-0.08-1.52l-22.826,0.019
				c0.384-10.495,4.741-19.989,11.667-26.978c-0.688-0.741-1.401-1.46-2.145-2.147c-7.474,7.535-12.175,17.793-12.556,29.131
				l-14.514,0.012l-0.041-40.369c-0.505-0.02-1-0.08-1.512-0.079c-0.514,0-1.013,0.061-1.52,0.08l0.036,40.372L2.407,138.26
				c-0.403-11.336-5.119-21.586-12.614-29.107c-0.738,0.69-1.449,1.411-2.137,2.154c6.936,6.973,11.313,16.46,11.713,26.957
				l-22.822,0.019c-0.019,0.509-0.08,1.009-0.074,1.521c-0.002,0.512,0.06,1.008,0.078,1.516l22.822-0.021
				c-0.38,10.497-4.741,19.995-11.666,26.976c0.688,0.744,1.403,1.462,2.145,2.154c7.476-7.536,12.174-17.797,12.556-29.131
				l14.513-0.017l0.037,40.376c0.508,0.017,1.006,0.075,1.52,0.073c0.509-0.001,1.008-0.06,1.516-0.078l-0.037-40.371l14.512-0.016
				c0.404,11.336,5.123,21.587,12.613,29.112c0.742-0.693,1.451-1.41,2.14-2.155c-6.939-6.975-11.317-16.462-11.719-26.96
				l22.828-0.019C60.349,140.734,60.407,140.238,60.409,139.727z"/>
			
				<path fill="none" stroke="#231F20" stroke-width="2.4262" stroke-linecap="round" stroke-linejoin="round" stroke-miterlimit="10" d="
				M22.203,146.57c-0.004,2.019-1.642,3.652-3.663,3.651c-2.019-0.004-3.652-1.644-3.65-3.662"/>
			<circle fill="#231F20" cx="29.267" cy="133.768" r="3.862"/>
			<circle fill="#231F20" cx="8.924" cy="133.734" r="3.862"/>
		</g>
		<g>
			<rect x="84.466" y="80.825" fill="#96E072" width="116.85" height="116.85"/>
			<rect x="84.466" y="204.326" fill="#96E072" width="116.85" height="116.85"/>
		</g>
		<g>
			<path fill="#FFFFFF" d="M180.405,237.985c-1.41-0.314-2.81,0.572-3.124,1.982l-2.748,12.277l-11.941-13.443
				c-0.96-1.079-2.614-1.178-3.693-0.219c-1.082,0.961-1.179,2.615-0.22,3.695l7.35,8.273l-8.74,9.838l-8.74-9.838l7.35-8.273
				c0.96-1.08,0.862-2.735-0.219-3.695c-1.08-0.959-2.733-0.862-3.693,0.218l-6.938,7.81l-6.554-7.377
				c-0.96-1.082-2.613-1.179-3.694-0.219c-1.08,0.959-1.18,2.613-0.219,3.693l6.967,7.844l-8.74,9.838l-8.738-9.838l7.666-8.631
				c0.961-1.079,0.862-2.734-0.218-3.693c-1.081-0.961-2.735-0.863-3.694,0.217l-9.178,10.331c-0.007,0.008-0.012,0.013-0.02,0.021
				l-2.545,2.867l-2.616-11.695c-0.315-1.41-1.716-2.297-3.126-1.982c-1.41,0.316-2.298,1.715-1.982,3.125l11.544,51.603
				c0.272,1.218,1.354,2.045,2.552,2.045c0.189,0,0.382-0.021,0.574-0.063c1.41-0.314,2.298-1.714,1.982-3.124l-1.354-6.048
				l7.196,8.102c0.003,0.004,0.009,0.008,0.012,0.012c0.04,0.044,0.085,0.087,0.128,0.129c0.024,0.024,0.048,0.049,0.072,0.07
				c0.004,0.002,0.005,0.006,0.007,0.006c0.063,0.059,0.129,0.109,0.196,0.16c0.021,0.015,0.042,0.027,0.063,0.041
				c0.053,0.037,0.105,0.072,0.16,0.104c0.024,0.015,0.051,0.027,0.078,0.041c0.051,0.027,0.104,0.056,0.156,0.08
				c0.025,0.011,0.053,0.021,0.078,0.033c0.057,0.021,0.111,0.045,0.168,0.063c0.025,0.01,0.05,0.018,0.076,0.024
				c0.061,0.019,0.122,0.035,0.184,0.05c0.021,0.004,0.043,0.01,0.064,0.014c0.07,0.015,0.143,0.025,0.215,0.033
				c0.013,0.002,0.024,0.004,0.039,0.006c0.086,0.009,0.172,0.014,0.26,0.014c0.025,0,0.051-0.003,0.076-0.005
				c0.057,0,0.114-0.002,0.17-0.007c0.037-0.004,0.073-0.012,0.109-0.016c0.047-0.008,0.095-0.013,0.143-0.021
				c0.037-0.008,0.074-0.018,0.111-0.026c0.046-0.009,0.09-0.022,0.135-0.036c0.039-0.01,0.076-0.021,0.113-0.037
				c0.042-0.012,0.083-0.029,0.123-0.044c0.041-0.017,0.08-0.033,0.118-0.052c0.037-0.017,0.073-0.035,0.11-0.054
				c0.04-0.022,0.082-0.043,0.121-0.067c0.029-0.016,0.059-0.037,0.087-0.055c0.159-0.103,0.308-0.223,0.445-0.362
				c0.024-0.026,0.052-0.052,0.075-0.078c0.006-0.007,0.014-0.011,0.02-0.019l10.283-11.576l10.285,11.576
				c0.005,0.006,0.01,0.012,0.016,0.016c0.031,0.037,0.066,0.07,0.101,0.104s0.065,0.066,0.1,0.098c0.001,0,0.001,0,0.003,0
				c0.043,0.041,0.091,0.076,0.137,0.113c0.055,0.041,0.109,0.08,0.166,0.117c0.035,0.023,0.07,0.049,0.107,0.07
				c0.037,0.021,0.074,0.039,0.111,0.06c0.039,0.021,0.08,0.041,0.12,0.062c0.036,0.017,0.073,0.031,0.109,0.046
				c0.044,0.017,0.087,0.034,0.131,0.05c0.037,0.012,0.073,0.023,0.109,0.033c0.046,0.016,0.093,0.027,0.14,0.037
				c0.036,0.01,0.071,0.018,0.108,0.025c0.048,0.011,0.099,0.016,0.147,0.023c0.034,0.004,0.069,0.01,0.104,0.014
				c0.059,0.005,0.117,0.007,0.176,0.009c0.023,0.002,0.049,0.003,0.072,0.003c0.088,0,0.174-0.005,0.262-0.014
				c0.012,0,0.021-0.002,0.033-0.004c0.074-0.01,0.147-0.021,0.221-0.035c0.019-0.004,0.038-0.008,0.058-0.012
				c0.065-0.017,0.129-0.033,0.192-0.052c0.021-0.007,0.045-0.013,0.066-0.021c0.06-0.021,0.119-0.045,0.18-0.068
				c0.021-0.01,0.045-0.019,0.067-0.027c0.058-0.028,0.116-0.059,0.173-0.088c0.021-0.012,0.041-0.022,0.063-0.033
				c0.064-0.039,0.127-0.08,0.188-0.123c0.011-0.009,0.022-0.015,0.034-0.023c0.068-0.049,0.136-0.103,0.199-0.16
				c0.004-0.002,0.007-0.006,0.011-0.009c0.015-0.015,0.029-0.03,0.044-0.045c0.055-0.05,0.107-0.103,0.155-0.155
				c0.003-0.004,0.006-0.006,0.009-0.01l8.063-9.075l-1.571,7.021c-0.314,1.41,0.572,2.81,1.982,3.124
				c0.193,0.043,0.385,0.063,0.574,0.063c1.197,0,2.278-0.827,2.551-2.045l11.545-51.603
				C182.703,239.7,181.816,238.301,180.405,237.985z M173.125,258.541l-3.516,15.718l-8.82-9.929l8.74-9.838L173.125,258.541z
				 M121.004,273.675l-3.517-15.72l3.079-3.464l8.74,9.838L121.004,273.675z M132.807,268.268l8.74,9.838l-8.74,9.84l-8.738-9.84
				L132.807,268.268z M136.308,264.33l8.739-9.838l8.74,9.838l-8.74,9.837L136.308,264.33z M157.287,268.268l8.74,9.84l-8.739,9.838
				l-8.74-9.84L157.287,268.268z"/>
			<g>
				<path fill="#2B388F" d="M184.967,244.458h-79.189c-2.289,0-4.145-1.855-4.145-4.145c0-2.292,1.855-4.147,4.145-4.147h79.189
					c2.289,0,4.146,1.855,4.146,4.147C189.112,242.602,187.256,244.458,184.967,244.458z"/>
			</g>
		</g>
	</g>
</g>
<g id="tablero_12" display="none">
	<g display="inline">
		<path fill="#6D6E70" d="M203.911,61.5H-42.631c-11.525,0-20.869,9.344-20.869,20.87v237.261c0,11.525,9.344,20.869,20.869,20.869
			h246.542c11.525,0,20.869-9.344,20.869-20.869V82.37C224.78,70.844,215.437,61.5,203.911,61.5z"/>
		
			<rect x="-39.034" y="80.825" fill="#DDDDDC" stroke="#DDDDDC" stroke-width="8" stroke-miterlimit="10" width="240.35" height="240.35"/>
		<g>
			<rect x="-39.034" y="80.825" fill="#96E072" width="116.85" height="116.85"/>
			<rect x="-39.034" y="204.326" fill="#96E072" width="116.85" height="116.85"/>
		</g>
		<g>
			<path fill="#F26522" d="M60.329,138.207c-0.384-10.47-4.59-19.94-11.277-27.089c-0.69-0.739-1.41-1.448-2.154-2.137
				c-7.144-6.607-16.569-10.743-26.977-11.109c-0.508-0.018-1.007-0.078-1.52-0.074c-0.512-0.002-1.008,0.058-1.518,0.079
				c-10.403,0.382-19.822,4.536-26.952,11.154c-0.746,0.69-1.464,1.403-2.154,2.146c-6.674,7.155-10.86,16.634-11.229,27.106
				c-0.017,0.508-0.074,1.005-0.074,1.52c0.002,0.51,0.06,1.009,0.08,1.518c0.384,10.469,4.583,19.939,11.273,27.086
				c0.692,0.742,1.41,1.452,2.154,2.141c7.144,6.607,16.573,10.745,26.98,11.109c0.508,0.018,1.006,0.074,1.516,0.076
				c0.514,0,1.013-0.062,1.52-0.081c10.407-0.382,19.828-4.538,26.96-11.159c0.74-0.688,1.46-1.399,2.148-2.143
				c6.678-7.159,10.862-16.638,11.224-27.11c0.021-0.506,0.082-1.001,0.08-1.514C60.411,139.213,60.347,138.714,60.329,138.207z"/>
			<path fill="#C95722" d="M60.409,139.727c0.002-0.514-0.062-1.01-0.08-1.52l-22.826,0.019
				c0.384-10.495,4.741-19.989,11.667-26.978c-0.688-0.741-1.401-1.46-2.145-2.147c-7.474,7.535-12.175,17.793-12.556,29.131
				l-14.514,0.012l-0.041-40.369c-0.505-0.02-1-0.08-1.512-0.079c-0.514,0-1.013,0.061-1.52,0.08l0.036,40.372L2.407,138.26
				c-0.403-11.336-5.119-21.586-12.614-29.107c-0.738,0.69-1.449,1.411-2.137,2.154c6.936,6.973,11.313,16.46,11.713,26.957
				l-22.822,0.019c-0.019,0.509-0.08,1.009-0.074,1.521c-0.002,0.512,0.06,1.008,0.078,1.516l22.822-0.021
				c-0.38,10.497-4.741,19.995-11.666,26.976c0.688,0.744,1.403,1.462,2.145,2.154c7.476-7.536,12.174-17.797,12.556-29.131
				l14.513-0.017l0.037,40.376c0.508,0.017,1.006,0.075,1.52,0.073c0.509-0.001,1.008-0.06,1.516-0.078l-0.037-40.371l14.512-0.016
				c0.404,11.336,5.123,21.587,12.613,29.112c0.742-0.693,1.451-1.41,2.14-2.155c-6.939-6.975-11.317-16.462-11.719-26.96
				l22.828-0.019C60.349,140.734,60.407,140.238,60.409,139.727z"/>
			
				<path fill="none" stroke="#231F20" stroke-width="2.4262" stroke-linecap="round" stroke-linejoin="round" stroke-miterlimit="10" d="
				M22.203,146.57c-0.004,2.019-1.642,3.652-3.663,3.651c-2.019-0.004-3.652-1.644-3.65-3.662"/>
			<circle fill="#231F20" cx="29.267" cy="133.768" r="3.862"/>
			<circle fill="#231F20" cx="8.924" cy="133.734" r="3.862"/>
		</g>
		<g>
			<rect x="84.466" y="80.825" fill="#96E072" width="116.85" height="116.85"/>
			<rect x="84.466" y="204.326" fill="#96E072" width="116.85" height="116.85"/>
		</g>
		<g>
			<path fill="#FFFFFF" d="M180.405,237.985c-1.41-0.314-2.81,0.572-3.124,1.982l-2.748,12.277l-11.941-13.443
				c-0.96-1.079-2.614-1.178-3.693-0.219c-1.082,0.961-1.179,2.615-0.22,3.695l7.35,8.273l-8.74,9.838l-8.74-9.838l7.35-8.273
				c0.96-1.08,0.862-2.735-0.219-3.695c-1.08-0.959-2.733-0.862-3.693,0.218l-6.938,7.81l-6.554-7.377
				c-0.96-1.082-2.613-1.179-3.694-0.219c-1.08,0.959-1.18,2.613-0.219,3.693l6.967,7.844l-8.74,9.838l-8.738-9.838l7.666-8.631
				c0.961-1.079,0.862-2.734-0.218-3.693c-1.081-0.961-2.735-0.863-3.694,0.217l-9.178,10.331c-0.007,0.008-0.012,0.013-0.02,0.021
				l-2.545,2.867l-2.616-11.695c-0.315-1.41-1.716-2.297-3.126-1.982c-1.41,0.316-2.298,1.715-1.982,3.125l11.544,51.603
				c0.272,1.218,1.354,2.045,2.552,2.045c0.189,0,0.382-0.021,0.574-0.063c1.41-0.314,2.298-1.714,1.982-3.124l-1.354-6.048
				l7.196,8.102c0.003,0.004,0.009,0.008,0.012,0.012c0.04,0.044,0.085,0.087,0.128,0.129c0.024,0.024,0.048,0.049,0.072,0.07
				c0.004,0.002,0.005,0.006,0.007,0.006c0.063,0.059,0.129,0.109,0.196,0.16c0.021,0.015,0.042,0.027,0.063,0.041
				c0.053,0.037,0.105,0.072,0.16,0.104c0.024,0.015,0.051,0.027,0.078,0.041c0.051,0.027,0.104,0.056,0.156,0.08
				c0.025,0.011,0.053,0.021,0.078,0.033c0.057,0.021,0.111,0.045,0.168,0.063c0.025,0.01,0.05,0.018,0.076,0.024
				c0.061,0.019,0.122,0.035,0.184,0.05c0.021,0.004,0.043,0.01,0.064,0.014c0.07,0.015,0.143,0.025,0.215,0.033
				c0.013,0.002,0.024,0.004,0.039,0.006c0.086,0.009,0.172,0.014,0.26,0.014c0.025,0,0.051-0.003,0.076-0.005
				c0.057,0,0.114-0.002,0.17-0.007c0.037-0.004,0.073-0.012,0.109-0.016c0.047-0.008,0.095-0.013,0.143-0.021
				c0.037-0.008,0.074-0.018,0.111-0.026c0.046-0.009,0.09-0.022,0.135-0.036c0.039-0.01,0.076-0.021,0.113-0.037
				c0.042-0.012,0.083-0.029,0.123-0.044c0.041-0.017,0.08-0.033,0.118-0.052c0.037-0.017,0.073-0.035,0.11-0.054
				c0.04-0.022,0.082-0.043,0.121-0.067c0.029-0.016,0.059-0.037,0.087-0.055c0.159-0.103,0.308-0.223,0.445-0.362
				c0.024-0.026,0.052-0.052,0.075-0.078c0.006-0.007,0.014-0.011,0.02-0.019l10.283-11.576l10.285,11.576
				c0.005,0.006,0.01,0.012,0.016,0.016c0.031,0.037,0.066,0.07,0.101,0.104s0.065,0.066,0.1,0.098c0.001,0,0.001,0,0.003,0
				c0.043,0.041,0.091,0.076,0.137,0.113c0.055,0.041,0.109,0.08,0.166,0.117c0.035,0.023,0.07,0.049,0.107,0.07
				c0.037,0.021,0.074,0.039,0.111,0.06c0.039,0.021,0.08,0.041,0.12,0.062c0.036,0.017,0.073,0.031,0.109,0.046
				c0.044,0.017,0.087,0.034,0.131,0.05c0.037,0.012,0.073,0.023,0.109,0.033c0.046,0.016,0.093,0.027,0.14,0.037
				c0.036,0.01,0.071,0.018,0.108,0.025c0.048,0.011,0.099,0.016,0.147,0.023c0.034,0.004,0.069,0.01,0.104,0.014
				c0.059,0.005,0.117,0.007,0.176,0.009c0.023,0.002,0.049,0.003,0.072,0.003c0.088,0,0.174-0.005,0.262-0.014
				c0.012,0,0.021-0.002,0.033-0.004c0.074-0.01,0.147-0.021,0.221-0.035c0.019-0.004,0.038-0.008,0.058-0.012
				c0.065-0.017,0.129-0.033,0.192-0.052c0.021-0.007,0.045-0.013,0.066-0.021c0.06-0.021,0.119-0.045,0.18-0.068
				c0.021-0.01,0.045-0.019,0.067-0.027c0.058-0.028,0.116-0.059,0.173-0.088c0.021-0.012,0.041-0.022,0.063-0.033
				c0.064-0.039,0.127-0.08,0.188-0.123c0.011-0.009,0.022-0.015,0.034-0.023c0.068-0.049,0.136-0.103,0.199-0.16
				c0.004-0.002,0.007-0.006,0.011-0.009c0.015-0.015,0.029-0.03,0.044-0.045c0.055-0.05,0.107-0.103,0.155-0.155
				c0.003-0.004,0.006-0.006,0.009-0.01l8.063-9.075l-1.571,7.021c-0.314,1.41,0.572,2.81,1.982,3.124
				c0.193,0.043,0.385,0.063,0.574,0.063c1.197,0,2.278-0.827,2.551-2.045l11.545-51.603
				C182.703,239.7,181.816,238.301,180.405,237.985z M173.125,258.541l-3.516,15.718l-8.82-9.929l8.74-9.838L173.125,258.541z
				 M121.004,273.675l-3.517-15.72l3.079-3.464l8.74,9.838L121.004,273.675z M132.807,268.268l8.74,9.838l-8.74,9.84l-8.738-9.84
				L132.807,268.268z M136.308,264.33l8.739-9.838l8.74,9.838l-8.74,9.837L136.308,264.33z M157.287,268.268l8.74,9.84l-8.739,9.838
				l-8.74-9.84L157.287,268.268z"/>
			<g>
				<path fill="#2B388F" d="M184.967,244.458h-79.189c-2.289,0-4.145-1.855-4.145-4.145c0-2.292,1.855-4.147,4.145-4.147h79.189
					c2.289,0,4.146,1.855,4.146,4.147C189.112,242.602,187.256,244.458,184.967,244.458z"/>
			</g>
		</g>
		<g>
			<rect x="-39.034" y="80.825" fill="#96E072" width="116.85" height="116.85"/>
			<rect x="-39.034" y="204.326" fill="#96E072" width="116.85" height="116.85"/>
		</g>
		<g>
			<path fill="#F26522" d="M60.329,138.207c-0.384-10.47-4.59-19.94-11.277-27.089c-0.69-0.739-1.41-1.448-2.154-2.137
				c-7.144-6.607-16.569-10.743-26.977-11.109c-0.508-0.018-1.007-0.078-1.52-0.074c-0.512-0.002-1.008,0.058-1.518,0.079
				c-10.403,0.382-19.822,4.536-26.952,11.154c-0.746,0.69-1.464,1.403-2.154,2.146c-6.674,7.155-10.86,16.634-11.229,27.106
				c-0.017,0.508-0.074,1.005-0.074,1.52c0.002,0.51,0.06,1.009,0.08,1.518c0.384,10.469,4.583,19.939,11.273,27.086
				c0.692,0.742,1.41,1.452,2.154,2.141c7.144,6.607,16.573,10.745,26.98,11.109c0.508,0.018,1.006,0.074,1.516,0.076
				c0.514,0,1.013-0.062,1.52-0.081c10.407-0.382,19.828-4.538,26.96-11.159c0.74-0.688,1.46-1.399,2.148-2.143
				c6.678-7.159,10.862-16.638,11.224-27.11c0.021-0.506,0.082-1.001,0.08-1.514C60.411,139.213,60.347,138.714,60.329,138.207z"/>
			<path fill="#C95722" d="M60.409,139.727c0.002-0.514-0.062-1.01-0.08-1.52l-22.826,0.019
				c0.384-10.495,4.741-19.989,11.667-26.978c-0.688-0.741-1.401-1.46-2.145-2.147c-7.474,7.535-12.175,17.793-12.556,29.131
				l-14.514,0.012l-0.041-40.369c-0.505-0.02-1-0.08-1.512-0.079c-0.514,0-1.013,0.061-1.52,0.08l0.036,40.372L2.407,138.26
				c-0.403-11.336-5.119-21.586-12.614-29.107c-0.738,0.69-1.449,1.411-2.137,2.154c6.936,6.973,11.313,16.46,11.713,26.957
				l-22.822,0.019c-0.019,0.509-0.08,1.009-0.074,1.521c-0.002,0.512,0.06,1.008,0.078,1.516l22.822-0.021
				c-0.38,10.497-4.741,19.995-11.666,26.976c0.688,0.744,1.403,1.462,2.145,2.154c7.476-7.536,12.174-17.797,12.556-29.131
				l14.513-0.017l0.037,40.376c0.508,0.017,1.006,0.075,1.52,0.073c0.509-0.001,1.008-0.06,1.516-0.078l-0.037-40.371l14.512-0.016
				c0.404,11.336,5.123,21.587,12.613,29.112c0.742-0.693,1.451-1.41,2.14-2.155c-6.939-6.975-11.317-16.462-11.719-26.96
				l22.828-0.019C60.349,140.734,60.407,140.238,60.409,139.727z"/>
			
				<path fill="none" stroke="#231F20" stroke-width="2.4262" stroke-linecap="round" stroke-linejoin="round" stroke-miterlimit="10" d="
				M22.203,146.57c-0.004,2.019-1.642,3.652-3.663,3.651c-2.019-0.004-3.652-1.644-3.65-3.662"/>
			<circle fill="#231F20" cx="29.267" cy="133.768" r="3.862"/>
			<circle fill="#231F20" cx="8.924" cy="133.734" r="3.862"/>
		</g>
		<g>
			<rect x="84.466" y="80.825" fill="#96E072" width="116.85" height="116.85"/>
			<rect x="84.466" y="204.326" fill="#96E072" width="116.85" height="116.85"/>
		</g>
		<g>
			<path fill="#FFFFFF" d="M180.405,237.985c-1.41-0.314-2.81,0.572-3.124,1.982l-2.748,12.277l-11.941-13.443
				c-0.96-1.079-2.614-1.178-3.693-0.219c-1.082,0.961-1.179,2.615-0.22,3.695l7.35,8.273l-8.74,9.838l-8.74-9.838l7.35-8.273
				c0.96-1.08,0.862-2.735-0.219-3.695c-1.08-0.959-2.733-0.862-3.693,0.218l-6.938,7.81l-6.554-7.377
				c-0.96-1.082-2.613-1.179-3.694-0.219c-1.08,0.959-1.18,2.613-0.219,3.693l6.967,7.844l-8.74,9.838l-8.738-9.838l7.666-8.631
				c0.961-1.079,0.862-2.734-0.218-3.693c-1.081-0.961-2.735-0.863-3.694,0.217l-9.178,10.331c-0.007,0.008-0.012,0.013-0.02,0.021
				l-2.545,2.867l-2.616-11.695c-0.315-1.41-1.716-2.297-3.126-1.982c-1.41,0.316-2.298,1.715-1.982,3.125l11.544,51.603
				c0.272,1.218,1.354,2.045,2.552,2.045c0.189,0,0.382-0.021,0.574-0.063c1.41-0.314,2.298-1.714,1.982-3.124l-1.354-6.048
				l7.196,8.102c0.003,0.004,0.009,0.008,0.012,0.012c0.04,0.044,0.085,0.087,0.128,0.129c0.024,0.024,0.048,0.049,0.072,0.07
				c0.004,0.002,0.005,0.006,0.007,0.006c0.063,0.059,0.129,0.109,0.196,0.16c0.021,0.015,0.042,0.027,0.063,0.041
				c0.053,0.037,0.105,0.072,0.16,0.104c0.024,0.015,0.051,0.027,0.078,0.041c0.051,0.027,0.104,0.056,0.156,0.08
				c0.025,0.011,0.053,0.021,0.078,0.033c0.057,0.021,0.111,0.045,0.168,0.063c0.025,0.01,0.05,0.018,0.076,0.024
				c0.061,0.019,0.122,0.035,0.184,0.05c0.021,0.004,0.043,0.01,0.064,0.014c0.07,0.015,0.143,0.025,0.215,0.033
				c0.013,0.002,0.024,0.004,0.039,0.006c0.086,0.009,0.172,0.014,0.26,0.014c0.025,0,0.051-0.003,0.076-0.005
				c0.057,0,0.114-0.002,0.17-0.007c0.037-0.004,0.073-0.012,0.109-0.016c0.047-0.008,0.095-0.013,0.143-0.021
				c0.037-0.008,0.074-0.018,0.111-0.026c0.046-0.009,0.09-0.022,0.135-0.036c0.039-0.01,0.076-0.021,0.113-0.037
				c0.042-0.012,0.083-0.029,0.123-0.044c0.041-0.017,0.08-0.033,0.118-0.052c0.037-0.017,0.073-0.035,0.11-0.054
				c0.04-0.022,0.082-0.043,0.121-0.067c0.029-0.016,0.059-0.037,0.087-0.055c0.159-0.103,0.308-0.223,0.445-0.362
				c0.024-0.026,0.052-0.052,0.075-0.078c0.006-0.007,0.014-0.011,0.02-0.019l10.283-11.576l10.285,11.576
				c0.005,0.006,0.01,0.012,0.016,0.016c0.031,0.037,0.066,0.07,0.101,0.104s0.065,0.066,0.1,0.098c0.001,0,0.001,0,0.003,0
				c0.043,0.041,0.091,0.076,0.137,0.113c0.055,0.041,0.109,0.08,0.166,0.117c0.035,0.023,0.07,0.049,0.107,0.07
				c0.037,0.021,0.074,0.039,0.111,0.06c0.039,0.021,0.08,0.041,0.12,0.062c0.036,0.017,0.073,0.031,0.109,0.046
				c0.044,0.017,0.087,0.034,0.131,0.05c0.037,0.012,0.073,0.023,0.109,0.033c0.046,0.016,0.093,0.027,0.14,0.037
				c0.036,0.01,0.071,0.018,0.108,0.025c0.048,0.011,0.099,0.016,0.147,0.023c0.034,0.004,0.069,0.01,0.104,0.014
				c0.059,0.005,0.117,0.007,0.176,0.009c0.023,0.002,0.049,0.003,0.072,0.003c0.088,0,0.174-0.005,0.262-0.014
				c0.012,0,0.021-0.002,0.033-0.004c0.074-0.01,0.147-0.021,0.221-0.035c0.019-0.004,0.038-0.008,0.058-0.012
				c0.065-0.017,0.129-0.033,0.192-0.052c0.021-0.007,0.045-0.013,0.066-0.021c0.06-0.021,0.119-0.045,0.18-0.068
				c0.021-0.01,0.045-0.019,0.067-0.027c0.058-0.028,0.116-0.059,0.173-0.088c0.021-0.012,0.041-0.022,0.063-0.033
				c0.064-0.039,0.127-0.08,0.188-0.123c0.011-0.009,0.022-0.015,0.034-0.023c0.068-0.049,0.136-0.103,0.199-0.16
				c0.004-0.002,0.007-0.006,0.011-0.009c0.015-0.015,0.029-0.03,0.044-0.045c0.055-0.05,0.107-0.103,0.155-0.155
				c0.003-0.004,0.006-0.006,0.009-0.01l8.063-9.075l-1.571,7.021c-0.314,1.41,0.572,2.81,1.982,3.124
				c0.193,0.043,0.385,0.063,0.574,0.063c1.197,0,2.278-0.827,2.551-2.045l11.545-51.603
				C182.703,239.7,181.816,238.301,180.405,237.985z M173.125,258.541l-3.516,15.718l-8.82-9.929l8.74-9.838L173.125,258.541z
				 M121.004,273.675l-3.517-15.72l3.079-3.464l8.74,9.838L121.004,273.675z M132.807,268.268l8.74,9.838l-8.74,9.84l-8.738-9.84
				L132.807,268.268z M136.308,264.33l8.739-9.838l8.74,9.838l-8.74,9.837L136.308,264.33z M157.287,268.268l8.74,9.84l-8.739,9.838
				l-8.74-9.84L157.287,268.268z"/>
			<g>
				<path fill="#2B388F" d="M184.967,244.458h-79.189c-2.289,0-4.145-1.855-4.145-4.145c0-2.292,1.855-4.147,4.145-4.147h79.189
					c2.289,0,4.146,1.855,4.146,4.147C189.112,242.602,187.256,244.458,184.967,244.458z"/>
			</g>
		</g>
	</g>
</g>
</svg>
