<?xml version="1.0" encoding="utf-8"?><svg xmlns:xlink="http://www.w3.org/1999/xlink" id="tutorial2_12_modif" image-rendering="auto" baseProfile="basic" version="1.1" x="0px" y="0px" width="800" height="450" xmlns="http://www.w3.org/2000/svg"><defs><symbol id="mano_abierta" overflow="visible"><g id="mano abierta_0.0"><path fill="#F59120" d="M123.85,18.25Q123.8,15.3 122.7,12.75 121.6,10.2 119.7,8.25 117.75,6.3 115.2,5.25 112.65,4.15 109.75,4.15 108.8,4.15 107.8,4.25 106.85,4.4 106,4.65 105.1,4.85 104.25,5.25 103.4,5.6 102.6,6.05 101.05,6.95 99.8,8.25 98.5,9.5 97.55,11.1 97.1,11.9 96.75,12.75 96.4,13.55 96.15,14.5 95.9,15.35 95.8,16.3 95.65,17.25 95.65,18.25L95.65,37.85Q94.8,37.8 93.95,37.8L93.95,14.1Q93.9,11.15 92.8,8.6 91.7,6.05 89.8,4.1 87.85,2.15 85.3,1.1 82.75,0 79.85,0 78.9,0 77.9,0.1 76.95,0.25 76.1,0.5 75.2,0.7 74.35,1.1 73.5,1.45 72.7,1.9 71.15,2.85 69.9,4.1 68.6,5.4 67.65,6.95 67.2,7.75 66.85,8.6 66.5,9.4 66.25,10.35 66,11.2 65.9,12.2 65.75,13.1 65.75,14.1L65.75,37.8 64.1,37.8 64.1,14.1Q64.1,11.15 63,8.6 61.95,6.05 60,4.1 58.05,2.15 55.5,1.1 52.95,0 50.05,0 49.1,0 48.1,0.1 47.15,0.25 46.3,0.5 45.4,0.7 44.55,1.1 43.7,1.45 42.9,1.9 41.35,2.85 40.1,4.1 38.8,5.4 37.85,6.95 37.4,7.75 37.05,8.6 36.7,9.4 36.45,10.35 36.2,11.2 36.1,12.2 35.95,13.1 35.95,14.1L35.95,73.45 24.5,62.05Q24,61.5 23.4,61.05 22.85,60.6 22.3,60.25 21.7,59.85 21.1,59.5 20.45,59.15 19.85,58.9 19.2,58.65 18.55,58.45 17.85,58.3 17.25,58.15 16.55,58 15.9,57.95 15.2,57.9 14.55,57.9 13.85,57.9 13.2,57.95 12.5,58 11.85,58.15 11.2,58.3 10.5,58.45 9.85,58.65 9.25,58.9 8.6,59.15 8,59.5 7.35,59.85 6.8,60.25 6.2,60.6 5.6,61.05 5.05,61.5 4.55,62.05 3.2,63.4 2.25,65.05 1.8,65.8 1.5,66.65 1.15,67.5 0.9,68.4 0.65,69.3 0.55,70.15 0.4,71.05 0.45,72 0.4,72.9 0.55,73.8 0.65,74.65 0.9,75.55 1.15,76.45 1.5,77.3 1.8,78.15 2.25,78.95 3.2,80.55 4.55,81.95L47.45,124.85Q47.9,125.25 48.4,125.7 48.85,126.1 49.4,126.45 49.95,126.85 50.45,127.15 51,127.45 51.55,127.7 52.1,127.95 52.7,128.15 53.3,128.35 53.9,128.5L123.8,128.5 123.8,78.4 123.85,78.35 123.85,18.25"/></g>
</symbol><symbol id="pieza prog1_0.0.1" overflow="visible"><path fill="#EE5D80" d="M113.5,66.1L38.25,66.1 38.25,129.25 113.5,129.25 113.5,66.1"/>
</symbol><symbol id="pieza prog1_0.0.3" overflow="visible"><path fill="#EE5D80" d="M122,60.225L39.125,60.225Q38.464,60.221 37.825,60.3 37.197,60.383 36.6,60.55 35.983,60.726 35.4,60.975 34.829,61.215 34.3,61.525 33.765,61.831 33.275,62.2 32.799,62.583 32.375,63.025 31.934,63.449 31.55,63.925 31.181,64.415 30.875,64.95 30.565,65.479 30.325,66.05 30.076,66.633 29.9,67.25 29.733,67.848 29.65,68.475 29.571,69.114 29.575,69.775L29.575,209.25Q29.571,209.911 29.65,210.55 29.733,211.178 29.9,211.775 30.076,212.392 30.325,212.975 30.565,213.546 30.875,214.075 31.181,214.611 31.55,215.1 31.934,215.576 32.375,216 32.799,216.441 33.275,216.825 33.765,217.194 34.3,217.5 34.829,217.81 35.4,218.05 35.983,218.3 36.6,218.475 37.197,218.642 37.825,218.725 38.464,218.805 39.125,218.8L122,218.8 122.025,218.775 122.025,207.975 122,207.925 77.95,207.925 73.55,211Q73.084,211.33 72.55,211.5 71.995,211.672 71.4,211.675 70.819,211.672 70.275,211.5 69.742,211.33 69.275,211L64.85,207.925 58.825,207.925Q56.644,207.908 54.75,207.1 52.847,206.288 51.4,204.85 49.963,203.403 49.15,201.5 48.341,199.606 48.325,197.425L48.325,143.075Q48.329,142.35 48.425,141.65 48.517,140.946 48.7,140.275 48.884,139.619 49.15,139 49.424,138.364 49.775,137.775 50.115,137.2 50.525,136.675 50.931,136.133 51.4,135.65 51.884,135.181 52.425,134.775 52.95,134.353 53.525,134 54.114,133.661 54.75,133.4 55.382,133.134 56.05,132.95 56.708,132.767 57.4,132.675 58.1,132.579 58.825,132.575L64.7,132.575Q64.854,132.578 65,132.625 65.134,132.667 65.25,132.75L70.375,136.325Q70.608,136.49 70.875,136.575 71.145,136.653 71.425,136.65 71.693,136.653 71.95,136.575 72.217,136.49 72.45,136.325L77.575,132.75Q77.69,132.667 77.825,132.625 77.971,132.578 78.125,132.575L122,132.575 122.025,132.55 122.025,60.25 122,60.225"/>
</symbol><symbol id="pieza prog1_0.0.4" overflow="visible"><g><path fill="#EE5D80" d="M61.8,108.875L61.825,108.875 83.975,96.075 83.975,96.025 61.825,83.225 61.775,83.25 61.775,108.85 61.8,108.875"/><path fill="#EE5D80" stroke-width="5" stroke-linecap="round" stroke-linejoin="round" d="M83.95,96.05L61.8,83.25 61.8,108.85 83.95,96.05"/><path fill="none" stroke="#EE5D80" stroke-width="5" stroke-linecap="round" stroke-linejoin="round" d="M83.95,96.05L61.8,83.25 61.8,108.85 83.95,96.05"/></g>
</symbol><symbol id="pieza prog1_0.0.5" overflow="visible"><g><path fill="#FFC85F" d="M64.7,133.525L58.825,133.525Q58.164,133.521 57.525,133.6 56.898,133.683 56.3,133.85 55.683,134.026 55.1,134.275 54.529,134.515 54,134.825 53.464,135.131 52.975,135.5 52.499,135.883 52.075,136.325 51.634,136.749 51.25,137.225 50.881,137.715 50.575,138.25 50.265,138.78 50.025,139.35 49.776,139.933 49.6,140.55 49.433,141.147 49.35,141.775 49.271,142.414 49.275,143.075L49.275,197.425Q49.271,198.086 49.35,198.725 49.433,199.365 49.6,199.975 49.776,200.579 50.025,201.15 50.265,201.733 50.575,202.275 50.881,202.797 51.25,203.275 51.634,203.764 52.075,204.2 52.499,204.629 52.975,205 53.464,205.382 54,205.7 54.529,206.01 55.1,206.25 55.683,206.499 56.3,206.675 56.898,206.841 57.525,206.925 58.164,207.005 58.825,207L65.175,207 69.8,210.25Q70.164,210.501 70.575,210.625 70.991,210.75 71.425,210.75 71.844,210.75 72.25,210.625 72.66,210.501 73.025,210.25L77.675,207 131.7,207 131.725,206.975 131.725,133.55 131.7,133.525 78.1,133.525 73,137.1Q72.635,137.35 72.225,137.475 71.833,137.599 71.425,137.6 71.004,137.599 70.6,137.475 70.203,137.35 69.85,137.1L64.7,133.525"/><path fill="#FFC85F" stroke-width="1.8" stroke-linecap="round" stroke-linejoin="round" d="M131.7,206.975L131.7,133.55 78.125,133.55 73.025,137.125Q72.285,137.627 71.425,137.625 71.005,137.625 70.6,137.5 70.19,137.376 69.825,137.125L64.7,133.55 58.825,133.55Q57.245,133.551 55.825,134.025 54.394,134.515 53.2,135.4 52.017,136.267 51.15,137.45 50.265,138.644 49.775,140.075 49.301,141.496 49.3,143.075L49.3,197.425Q49.301,199.017 49.775,200.45 50.265,201.881 51.15,203.075 52.017,204.258 53.2,205.125 54.394,205.997 55.825,206.475 57.245,206.962 58.825,206.975L65.175,206.975 69.825,210.225Q70.19,210.476 70.6,210.6 71.005,210.725 71.425,210.725 71.845,210.725 72.25,210.6 72.66,210.476 73.025,210.225L77.65,206.975 131.7,206.975"/><path fill="none" stroke="#FFF" stroke-width="1.8" stroke-linecap="round" stroke-linejoin="round" d="M131.7,206.975L131.7,133.55 78.125,133.55 73.025,137.125Q72.285,137.627 71.425,137.625 71.005,137.625 70.6,137.5 70.19,137.376 69.825,137.125L64.7,133.55 58.825,133.55Q57.245,133.551 55.825,134.025 54.394,134.515 53.2,135.4 52.017,136.267 51.15,137.45 50.265,138.644 49.775,140.075 49.301,141.496 49.3,143.075L49.3,197.425Q49.301,199.017 49.775,200.45 50.265,201.881 51.15,203.075 52.017,204.258 53.2,205.125 54.394,205.997 55.825,206.475 57.245,206.962 58.825,206.975L65.175,206.975 69.825,210.225Q70.19,210.476 70.6,210.6 71.005,210.725 71.425,210.725 71.845,210.725 72.25,210.6 72.66,210.476 73.025,210.225L77.65,206.975 131.7,206.975"/></g>
</symbol><symbol id="pieza prog1_0.0.6" overflow="visible"><g><path fill="#221F1F" d="M71.4,110.525L71.425,110.525 93.575,97.725 93.575,97.675 71.425,84.875 71.375,84.9 71.375,110.5 71.4,110.525"/><path fill="#221F1F" stroke-width="5" stroke-linecap="round" stroke-linejoin="round" d="M93.55,97.7L71.4,84.9 71.4,110.5 93.55,97.7"/><path fill="none" stroke="#221F1F" stroke-width="5" stroke-linecap="round" stroke-linejoin="round" d="M93.55,97.7L71.4,84.9 71.4,110.5 93.55,97.7"/></g>
</symbol><symbol id="pieza_prog1" overflow="visible"><g><g id="pieza prog1_0.0.0"><g><path fill="#FFF" d="M140.4,-0.025L20.875,-0.025Q17.984,-0.026 15.325,0.7 12.66,1.449 10.325,2.825 7.998,4.198 6.1,6.1 4.198,7.998 2.825,10.325 1.449,12.66 0.7,15.325 -0.026,17.985 -0.025,20.875L-0.025,258.125Q-0.026,261.028 0.7,263.7 1.449,266.353 2.825,268.675 4.199,271.002 6.1,272.9 7.998,274.802 10.325,276.175 12.66,277.551 15.325,278.3 17.984,279.026 20.875,279.025L140.4,279.025Q143.303,279.026 145.975,278.3 148.628,277.551 150.95,276.175 153.289,274.802 155.2,272.9 157.089,271.002 158.45,268.675 159.826,266.353 160.575,263.7 161.313,261.028 161.325,258.125L161.3,255.85 161.275,258.125Q161.264,261.016 160.525,263.675 159.79,266.34 158.425,268.675 157.065,270.99 155.175,272.875 153.278,274.777 150.95,276.15 148.616,277.515 145.95,278.25 143.291,278.989 140.4,279L20.875,279Q17.984,278.989 15.325,278.25 12.659,277.515 10.325,276.15 8.01,274.777 6.125,272.875 4.222,270.99 2.85,268.675 1.485,266.34 0.75,263.675 0.01,261.016 0,258.125L0,20.875Q0.01,17.984 0.75,15.325 1.485,12.66 2.85,10.325 4.222,8.01 6.125,6.125 8.01,4.222 10.325,2.85 12.659,1.485 15.325,0.75 17.984,0.011 20.875,0L140.4,0Q144.751,0.033 148.525,1.65 152.306,3.263 155.175,6.125 158.037,8.981 159.65,12.75 161.254,16.524 161.275,20.875L161.275,125.3Q158.803,125.815 156.625,126.95 154.44,128.089 152.65,129.75 150.866,131.402 149.575,133.475 148.279,135.564 147.575,137.975 146.879,140.376 146.875,143 146.894,146.284 147.975,149.2 149.054,152.131 151,154.5 152.938,156.853 155.55,158.45 158.172,160.05 161.275,160.7L161.275,160.675Q158.187,160.021 155.575,158.425 152.964,156.825 151.025,154.475 149.08,152.117 148,149.2 146.922,146.283 146.9,143 146.902,141.909 147.025,140.85 147.152,139.789 147.4,138.775 147.645,137.764 148,136.8 148.348,135.833 148.8,134.925 149.264,134.007 149.825,133.15 150.38,132.302 151.025,131.525 151.659,130.75 152.375,130.05 153.101,129.345 153.9,128.725 154.702,128.105 155.575,127.575 156.446,127.051 157.375,126.625 158.296,126.197 159.275,125.875 160.263,125.549 161.325,125.3L161.325,20.875Q161.29,16.512 159.675,12.725 158.061,8.956 155.2,6.1 152.33,3.227 148.55,1.6 144.763,-0.002 140.4,-0.025"/><path fill="#FFF" d="M148.525,1.65Q144.751,0.033 140.4,0L20.875,0Q17.984,0.011 15.325,0.75 12.659,1.485 10.325,2.85 8.01,4.222 6.125,6.125 4.222,8.01 2.85,10.325 1.485,12.66 0.75,15.325 0.01,17.984 0,20.875L0,258.125Q0.01,261.016 0.75,263.675 1.485,266.34 2.85,268.675 4.222,270.99 6.125,272.875 8.01,274.777 10.325,276.15 12.659,277.515 15.325,278.25 17.984,278.989 20.875,279L140.4,279Q143.291,278.989 145.95,278.25 148.616,277.515 150.95,276.15 153.278,274.777 155.175,272.875 157.065,270.99 158.425,268.675 159.79,266.34 160.525,263.675 161.264,261.016 161.275,258.125L161.3,255.85 161.275,160.7Q158.172,160.05 155.55,158.45 152.938,156.853 151,154.5 149.054,152.131 147.975,149.2 146.894,146.284 146.875,143 146.879,140.376 147.575,137.975 148.279,135.564 149.575,133.475 150.866,131.402 152.65,129.75 154.44,128.089 156.625,126.95 158.803,125.815 161.275,125.3L161.275,20.875Q161.254,16.524 159.65,12.75 158.037,8.981 155.175,6.125 152.306,3.263 148.525,1.65"/><path fill="none" stroke="#414141" stroke-width="4" stroke-linecap="round" stroke-linejoin="round" d="M161.275,160.7L161.3,255.85"/><path fill="none" stroke="#414141" stroke-width="4" stroke-linecap="round" stroke-linejoin="round" d="M161.3,255.85L161.275,258.125Q161.264,261.016 160.525,263.675 159.79,266.34 158.425,268.675 157.065,270.99 155.175,272.875 153.278,274.777 150.95,276.15 148.616,277.515 145.95,278.25 143.291,278.989 140.4,279L20.875,279Q17.984,278.989 15.325,278.25 12.659,277.515 10.325,276.15 8.01,274.777 6.125,272.875 4.222,270.99 2.85,268.675 1.485,266.34 0.75,263.675 0.01,261.016 0,258.125L0,20.875Q0.01,17.984 0.75,15.325 1.485,12.66 2.85,10.325 4.222,8.01 6.125,6.125 8.01,4.222 10.325,2.85 12.659,1.485 15.325,0.75 17.984,0.011 20.875,0L140.4,0Q144.751,0.033 148.525,1.65 152.306,3.263 155.175,6.125 158.037,8.981 159.65,12.75 161.254,16.524 161.275,20.875L161.275,125.3Q158.803,125.815 156.625,126.95 154.44,128.089 152.65,129.75 150.866,131.402 149.575,133.475 148.279,135.564 147.575,137.975 146.879,140.376 146.875,143 146.894,146.284 147.975,149.2 149.054,152.131 151,154.5 152.938,156.853 155.55,158.45 158.172,160.05 161.275,160.7"/></g></g><use xlink:href="#pieza prog1_0.0.1"/><use xlink:href="#Timeline_1_copy" transform="matrix(1 0 0 1 29.6 60.25)" opacity="0.5"/><use xlink:href="#pieza prog1_0.0.3"/><use xlink:href="#pieza prog1_0.0.4"/><use xlink:href="#pieza prog1_0.0.5"/><use xlink:href="#pieza prog1_0.0.6"/></g>
</symbol><symbol id="Timeline_1_copy" overflow="visible"><path fill="#00A44F" d="M92.4,-0.025L9.525,-0.025Q8.864,-0.029 8.225,0.05 7.597,0.133 7,0.3 6.383,0.476 5.8,0.725 5.229,0.965 4.7,1.275 4.165,1.581 3.675,1.95 3.199,2.333 2.775,2.775 2.334,3.199 1.95,3.675 1.581,4.165 1.275,4.7 0.965,5.229 0.725,5.8 0.476,6.383 0.3,7 0.133,7.598 0.05,8.225 -0.029,8.864 -0.025,9.525L-0.025,63.875Q-0.029,64.536 0.05,65.175 0.133,65.815 0.3,66.425 0.476,67.029 0.725,67.6 0.965,68.184 1.275,68.725 1.581,69.247 1.95,69.725 2.334,70.214 2.775,70.65 3.199,71.091 3.675,71.475 4.165,71.844 4.7,72.15 5.229,72.46 5.8,72.7 6.383,72.949 7,73.125 7.597,73.292 8.225,73.375 8.864,73.455 9.525,73.45L35.9,73.45 40.525,76.7Q40.891,76.95 41.3,77.075 41.718,77.201 42.15,77.2 42.57,77.201 42.975,77.075 43.384,76.95 43.75,76.7L48.4,73.45 92.4,73.45 92.425,73.425 92.425,0 92.4,-0.025"/>
</symbol></defs><g id="Scene_1" overflow="visible"><g style="display:none;"><g><path fill="#BB2B82" d="M690.937,304.394Q690.937,287.217 678.804,275.083 666.67,262.95 649.494,262.95 632.317,262.95 620.183,275.083 608.05,287.217 608.05,304.394 608.05,321.57 620.183,333.704 632.317,345.837 649.494,345.837 666.67,345.837 678.804,333.704 690.937,321.57 690.937,304.394"/><g><path fill="#FFF" d="M669.271,304.367L641.35,320.484 641.35,320.557 641.387,320.557 669.308,304.403 669.308,304.33 641.387,288.213 641.313,288.25 641.35,289.968 641.35,288.25 669.271,304.367"/><path fill="#FFF" d="M641.35,320.484L669.271,304.367 641.35,288.25 641.35,289.968Q641.348,290.233 641.35,290.516 641.348,290.904 641.35,291.283 641.342,305.878 641.35,320.484"/><path fill="none" stroke="#FFF" stroke-width="5" stroke-linecap="round" stroke-linejoin="round" d="M641.35,290.516Q641.348,290.233 641.35,289.968M641.35,291.283Q641.348,290.904 641.35,290.516M641.35,320.484Q641.342,305.878 641.35,291.283"/><path fill="none" stroke="#FFF" stroke-width="5" stroke-linecap="round" stroke-linejoin="round" d="M669.271,304.367L641.35,320.484M641.35,289.968L641.35,288.25 669.271,304.367"/></g></g><animate attributeName="display" repeatCount="indefinite" dur="7.708s" keyTimes="0;0.773;0.778;1" values="none;inline;none;none"/></g><g style="display:none;"><g><path fill="#BB2B82" d="M690.937,304.394Q690.937,287.217 678.804,275.083 666.67,262.95 649.494,262.95 632.317,262.95 620.183,275.083 608.05,287.217 608.05,304.394 608.05,321.57 620.183,333.704 632.317,345.837 649.494,345.837 666.67,345.837 678.804,333.704 690.937,321.57 690.937,304.394"/><g><path fill="#FFF" d="M669.308,304.403L669.308,304.33 641.387,288.213 641.313,288.25 641.35,289.968 641.35,288.25 669.271,304.367 641.35,320.484 641.35,320.557 641.387,320.557 669.308,304.403"/><path fill="#FFF" d="M641.35,320.484L669.271,304.367 641.35,288.25 641.35,289.968Q641.348,290.233 641.35,290.516 641.348,290.904 641.35,291.283 641.342,305.878 641.35,320.484"/><path fill="none" stroke="#FFF" stroke-width="5" stroke-linecap="round" stroke-linejoin="round" d="M641.35,290.516Q641.348,290.233 641.35,289.968M641.35,291.283Q641.348,290.904 641.35,290.516M641.35,320.484Q641.342,305.878 641.35,291.283"/><path fill="none" stroke="#FFF" stroke-width="5" stroke-linecap="round" stroke-linejoin="round" d="M641.35,289.968L641.35,288.25 669.271,304.367 641.35,320.484"/></g></g><animate attributeName="display" repeatCount="indefinite" dur="7.708s" keyTimes="0;0.697;0.773;1" values="none;inline;none;none"/></g><g style="display:none;"><g><path fill="#EE5D80" d="M690.937,304.394Q690.937,287.217 678.804,275.083 666.67,262.95 649.494,262.95 632.317,262.95 620.183,275.083 608.05,287.217 608.05,304.394 608.05,321.57 620.183,333.704 632.317,345.837 649.494,345.837 666.67,345.837 678.804,333.704 690.937,321.57 690.937,304.394"/><g><path fill="#FFF" d="M669.308,304.403L669.308,304.33 641.387,288.213 641.313,288.25 641.35,289.968 641.35,288.25 669.271,304.367 641.35,320.484 641.35,320.557 641.387,320.557 669.308,304.403"/><path fill="#FFF" d="M641.35,320.484L669.271,304.367 641.35,288.25 641.35,289.968Q641.348,290.233 641.35,290.516 641.348,290.904 641.35,291.283 641.342,305.878 641.35,320.484"/><path fill="none" stroke="#FFF" stroke-width="5" stroke-linecap="round" stroke-linejoin="round" d="M641.35,290.516Q641.348,290.233 641.35,289.968M641.35,291.283Q641.348,290.904 641.35,290.516M641.35,320.484Q641.342,305.878 641.35,291.283"/><path fill="none" stroke="#FFF" stroke-width="5" stroke-linecap="round" stroke-linejoin="round" d="M641.35,289.968L641.35,288.25 669.271,304.367 641.35,320.484"/></g></g><animate attributeName="display" repeatCount="indefinite" dur="7.708s" keyTimes="0;0.692;0.697;1" values="none;inline;none;none"/></g><g><g><path fill="#EE5D80" d="M687.147,304.373Q687.147,288.718 676.088,277.659 665.029,266.6 649.373,266.6 633.718,266.6 622.659,277.659 611.6,288.718 611.6,304.373 611.6,320.029 622.659,331.088 633.718,342.147 649.373,342.147 665.029,342.147 676.088,331.088 687.147,320.029 687.147,304.373"/><g><path fill="#FFF" d="M667.382,304.423L667.382,304.356 641.933,289.667 641.867,289.7 641.9,291.266 641.9,289.7 667.349,304.39 641.9,319.079 641.9,319.146 641.933,319.146 667.382,304.423"/><path fill="#FFF" d="M641.9,319.079L667.349,304.39 641.9,289.7 641.9,291.266Q641.898,291.507 641.9,291.765 641.898,292.119 641.9,292.465 641.892,305.767 641.9,319.079"/><path fill="none" stroke="#FFF" stroke-width="5" stroke-linecap="round" stroke-linejoin="round" d="M641.9,291.765Q641.898,291.507 641.9,291.266M641.9,292.465Q641.898,292.119 641.9,291.765M641.9,319.079Q641.892,305.767 641.9,292.465"/><path fill="none" stroke="#FFF" stroke-width="5" stroke-linecap="round" stroke-linejoin="round" d="M641.9,291.266L641.9,289.7 667.349,304.39 641.9,319.079"/></g></g><animate attributeName="display" repeatCount="indefinite" dur="7.708s" keyTimes="0;0.692;0.778;1" values="inline;none;inline;inline"/></g><g style="display:none;"><path fill="none" stroke="#999" stroke-width="10" stroke-linecap="round" stroke-linejoin="round" d="M649.85,203.781L649.85,204.736"/><path fill="none" stroke="#999" stroke-width="10" stroke-linecap="round" stroke-linejoin="round" d="M708.132,223.229L707.103,224.258"/><path fill="none" stroke="#999" stroke-width="10" stroke-linecap="round" stroke-linejoin="round" d="M591.632,223.222L592.903,224.493"/><animate attributeName="display" repeatCount="indefinite" dur="7.708s" keyTimes="0;0.708;0.714;1" values="none;inline;none;none"/></g><g style="display:none;"><path fill="none" stroke="#999" stroke-width="10" stroke-linecap="round" stroke-linejoin="round" d="M649.85,206.233L649.85,216.906"/><path fill="none" stroke="#999" stroke-width="10" stroke-linecap="round" stroke-linejoin="round" d="M706.332,225.029L698.15,233.211"/><path fill="none" stroke="#999" stroke-width="10" stroke-linecap="round" stroke-linejoin="round" d="M593.229,224.819L600.883,232.473"/><animate attributeName="display" repeatCount="indefinite" dur="7.708s" keyTimes="0;0.703;0.708;1" values="none;inline;none;none"/></g><g style="display:none;"><path fill="none" stroke="#999" stroke-width="10" stroke-linecap="round" stroke-linejoin="round" d="M649.85,216.05L649.85,235.9"/><path fill="none" stroke="#999" stroke-width="10" stroke-linecap="round" stroke-linejoin="round" d="M697.385,233.976L683.349,248.012"/><path fill="none" stroke="#999" stroke-width="10" stroke-linecap="round" stroke-linejoin="round" d="M602.325,233.915L616.361,247.951"/><animate attributeName="display" repeatCount="indefinite" dur="7.708s" keyTimes="0;0.692;0.703;1" values="none;inline;none;none"/></g><g id="pieza_tablero" transform="matrix(0.772 0 0 0.772 435.45 42.8)"><g><g id="pieza tablero_0.0.0"><g><path fill="#DCDCDB" d="M154.5,-0.025L34.95,-0.025Q32.059,-0.026 29.4,0.7 26.735,1.449 24.4,2.825 22.071,4.198 20.175,6.1 18.273,7.998 16.9,10.325 15.536,12.66 14.8,15.325 14.062,17.985 14.05,20.875L14.05,125.35Q13.054,125.572 12.1,125.9 11.136,126.237 10.225,126.675 9.321,127.114 8.475,127.65 7.615,128.18 6.825,128.8 6.038,129.421 5.325,130.125 4.622,130.838 4,131.625 3.369,132.402 2.825,133.25 2.278,134.096 1.825,135 1.374,135.897 1.025,136.85 0.684,137.816 0.45,138.825 0.216,139.828 0.1,140.875 -0.022,141.923 -0.025,143 -0.022,144.077 0.1,145.125 0.216,146.171 0.45,147.175 0.684,148.185 1.025,149.15 1.374,150.103 1.825,151 2.278,151.904 2.825,152.75 3.369,153.597 4,154.375 4.622,155.161 5.325,155.875 6.038,156.578 6.825,157.2 7.615,157.819 8.475,158.35 9.321,158.885 10.225,159.325 11.136,159.763 12.1,160.1 13.054,160.428 14.05,160.65L14.05,258.125Q14.062,261.028 14.8,263.7 15.536,266.353 16.9,268.675 18.273,271.002 20.175,272.9 22.071,274.802 24.4,276.175 26.735,277.551 29.4,278.3 32.059,279.026 34.95,279.025L154.5,279.025Q157.39,279.026 160.05,278.3 162.715,277.551 165.05,276.175 167.377,274.802 169.275,272.9 171.177,271.002 172.55,268.675 173.914,266.353 174.65,263.7 175.388,261.028 175.4,258.125L175.4,20.875Q175.365,16.512 173.75,12.725 172.136,8.956 169.275,6.1 166.405,3.227 162.625,1.6 158.851,-0.002 154.5,-0.025"/><path fill="#DCDCDB" stroke-width="4" stroke-linecap="round" stroke-linejoin="round" d="M175.375,20.875Q175.342,16.524 173.725,12.75 172.112,8.981 169.25,6.125 166.394,3.263 162.625,1.65 158.851,0.033 154.5,0L34.95,0Q32.059,0.011 29.4,0.75 26.747,1.485 24.425,2.85 22.097,4.222 20.2,6.125 18.297,8.01 16.925,10.325 15.56,12.66 14.825,15.325 14.086,17.984 14.075,20.875L14.075,125.375Q11.654,125.926 9.525,127.075 7.394,128.224 5.65,129.875 3.896,131.534 2.625,133.6 1.373,135.656 0.7,138.025 0.012,140.404 0,143 0.012,145.596 0.7,147.975 1.373,150.344 2.625,152.4 3.896,154.466 5.65,156.125 7.394,157.776 9.525,158.925 11.654,160.074 14.075,160.625L14.075,258.125Q14.086,261.016 14.825,263.675 15.56,266.34 16.925,268.675 18.297,270.99 20.2,272.875 22.097,274.777 24.425,276.15 26.747,277.515 29.4,278.25 32.059,278.989 34.95,279L154.5,279Q157.391,278.989 160.05,278.25 162.703,277.515 165.025,276.15 167.353,274.777 169.25,272.875 171.152,270.99 172.525,268.675 173.89,266.34 174.625,263.675 175.364,261.016 175.375,258.125L175.375,20.875"/><path fill="none" stroke="#414141" stroke-width="4" stroke-linecap="round" stroke-linejoin="round" d="M175.375,20.875Q175.342,16.524 173.725,12.75 172.112,8.981 169.25,6.125 166.394,3.263 162.625,1.65 158.851,0.033 154.5,0L34.95,0Q32.059,0.011 29.4,0.75 26.747,1.485 24.425,2.85 22.097,4.222 20.2,6.125 18.297,8.01 16.925,10.325 15.56,12.66 14.825,15.325 14.086,17.984 14.075,20.875L14.075,125.375Q11.654,125.926 9.525,127.075 7.394,128.224 5.65,129.875 3.896,131.534 2.625,133.6 1.373,135.656 0.7,138.025 0.012,140.404 0,143 0.012,145.596 0.7,147.975 1.373,150.344 2.625,152.4 3.896,154.466 5.65,156.125 7.394,157.776 9.525,158.925 11.654,160.074 14.075,160.625L14.075,258.125Q14.086,261.016 14.825,263.675 15.56,266.34 16.925,268.675 18.297,270.99 20.2,272.875 22.097,274.777 24.425,276.15 26.747,277.515 29.4,278.25 32.059,278.989 34.95,279L154.5,279Q157.391,278.989 160.05,278.25 162.703,277.515 165.025,276.15 167.353,274.777 169.25,272.875 171.152,270.99 172.525,268.675 173.89,266.34 174.625,263.675 175.364,261.016 175.375,258.125L175.375,20.875"/></g></g><g id="pieza tablero_0.0.1"><path fill="#9BCD72" d="M156.25,13L33.25,13 33.25,136 156.25,136 156.25,13"/></g><g id="pieza tablero_0.0.2"><path fill="#9BCD72" d="M156.25,143L33.25,143 33.25,266 156.25,266 156.25,143"/></g><g id="pieza tablero_0.0.3"><path fill="#F16623" d="M94.1,30.875L93.725,30.875 93.675,30.875 93.275,30.875 92.875,30.9 92.475,30.925 92.075,30.95Q90.438,31.005 88.825,31.175 87.215,31.356 85.65,31.65 84.084,31.945 82.55,32.35 81.011,32.749 79.525,33.25 78.042,33.749 76.6,34.35 75.157,34.965 73.775,35.675 72.399,36.365 71.075,37.15 69.74,37.957 68.475,38.85 67.22,39.718 66.025,40.675 64.823,41.65 63.7,42.7 63.104,43.237 62.525,43.8 61.962,44.366 61.425,44.95 60.375,46.086 59.4,47.3 58.417,48.507 57.525,49.775 56.645,51.04 55.85,52.375 55.04,53.712 54.325,55.1 53.627,56.481 53.025,57.925 52.41,59.379 51.9,60.875 51.398,62.361 51,63.9 50.595,65.446 50.3,67.025 50.005,68.614 49.825,70.25 49.654,71.875 49.6,73.525L49.575,73.925 49.55,74.3 49.525,74.7 49.525,75.125 49.525,75.525 49.55,75.925 49.575,76.325 49.6,76.725Q49.667,78.375 49.85,80 50.018,81.624 50.3,83.2 50.595,84.779 51,86.325 51.411,87.865 51.925,89.35 52.436,90.846 53.05,92.3 53.664,93.743 54.375,95.125 55.076,96.513 55.875,97.85 56.682,99.185 57.575,100.45 58.467,101.718 59.45,102.925 60.425,104.126 61.475,105.25 62.025,105.834 62.6,106.4 63.166,106.963 63.75,107.5 64.875,108.55 66.075,109.525 67.283,110.482 68.55,111.35 69.804,112.229 71.125,113.025 72.463,113.823 73.85,114.525 75.231,115.222 76.675,115.825 78.117,116.427 79.6,116.925 81.086,117.426 82.625,117.825 84.16,118.218 85.725,118.5 87.289,118.795 88.9,118.975 90.526,119.146 92.175,119.2L92.575,119.225 92.975,119.25 93.375,119.275 93.775,119.3 94.175,119.275 94.575,119.25 94.975,119.225 95.375,119.2Q97.012,119.146 98.625,118.975 100.235,118.795 101.8,118.5 103.379,118.205 104.925,117.8 106.453,117.402 107.925,116.9 109.408,116.401 110.85,115.8 112.294,115.183 113.675,114.475 115.063,113.772 116.4,112.975 117.722,112.179 118.975,111.3 120.242,110.42 121.45,109.45 122.65,108.488 123.775,107.45L124.925,106.35Q125.487,105.784 126.025,105.2 127.076,104.063 128.05,102.85 129.033,101.643 129.925,100.375 130.817,99.11 131.625,97.775 132.423,96.438 133.125,95.05 133.835,93.668 134.45,92.225 135.052,90.771 135.55,89.275 136.065,87.789 136.475,86.25 136.868,84.704 137.15,83.125 137.445,81.536 137.625,79.9 137.796,78.275 137.85,76.625L137.875,76.225 137.9,75.85 137.925,75.45 137.95,75.025 137.925,74.625 137.9,74.225 137.875,73.825 137.85,73.425Q137.778,71.366 137.525,69.35 137.264,67.327 136.825,65.375 136.384,63.432 135.775,61.55 135.166,59.657 134.4,57.85 132.868,54.234 130.75,50.975 128.622,47.725 125.975,44.9 125.425,44.317 124.85,43.75L123.7,42.65Q120.87,40.028 117.625,37.925 114.376,35.835 110.775,34.325 108.98,33.571 107.1,32.975 105.23,32.379 103.3,31.95 101.36,31.525 99.35,31.275 97.333,31.023 95.275,30.95L94.875,30.925 94.5,30.9 94.1,30.875"/></g><g id="pieza tablero_0.0.4"><path fill="#C85828" d="M94.1,30.875L93.7,30.875 93.275,30.875 92.875,30.9 92.475,30.925 92.05,30.975 92.1,73.45 76.875,73.45Q76.715,68.986 75.75,64.775 74.767,60.544 73.05,56.65 71.33,52.754 68.95,49.275 66.567,45.803 63.55,42.825L62.4,43.95Q61.838,44.516 61.3,45.15 62.389,46.246 63.4,47.425 64.421,48.604 65.35,49.85 66.269,51.1 67.1,52.425 67.937,53.747 68.675,55.125 69.399,56.492 70.025,57.925 70.666,59.376 71.2,60.875 71.729,62.359 72.15,63.9 72.57,65.445 72.875,67.025 73.184,68.589 73.375,70.2 73.559,71.825 73.625,73.475L49.6,73.525 49.575,73.925 49.55,74.325 49.525,74.725 49.525,75.125 49.525,75.525 49.55,75.925 49.575,76.325 49.625,76.75 73.625,76.725Q73.56,78.375 73.375,80 73.196,81.611 72.9,83.175 72.596,84.755 72.175,86.3 71.755,87.841 71.225,89.325 70.703,90.822 70.075,92.275 69.437,93.707 68.7,95.075 67.975,96.453 67.15,97.775 66.307,99.1 65.375,100.35 64.459,101.596 63.45,102.775 62.44,103.967 61.35,105.125 61.887,105.709 62.45,106.275 63.016,106.838 63.65,107.375 64.83,106.195 65.925,104.925 67.024,103.636 68.025,102.275 69.023,100.927 69.925,99.5 70.816,98.08 71.6,96.6 72.391,95.098 73.075,93.525 73.758,91.974 74.325,90.375 74.897,88.756 75.35,87.075 75.8,85.406 76.125,83.7 76.439,82.001 76.625,80.25 76.815,78.501 76.875,76.725L92.1,76.7 92.175,119.2 92.575,119.225 92.975,119.25 93.375,119.275 93.75,119.3 93.775,119.3 94.175,119.275 94.575,119.25 94.975,119.225 95.4,119.175 95.35,76.7 110.575,76.7Q110.635,78.476 110.825,80.225 111.023,81.976 111.35,83.675 111.675,85.381 112.125,87.05 112.579,88.718 113.15,90.325 113.717,91.937 114.4,93.5 115.096,95.06 115.9,96.55 116.683,98.043 117.575,99.475 118.476,100.904 119.475,102.25 120.474,103.599 121.575,104.875 122.67,106.145 123.85,107.325L123.9,107.325 125.05,106.225Q125.613,105.646 126.15,105 123.406,102.239 121.2,99.025 119.009,95.816 117.425,92.225 115.824,88.617 114.9,84.7 113.992,80.817 113.825,76.7L137.85,76.625 137.875,76.225 137.9,75.85 137.925,75.45 137.95,75.05 137.925,74.625 137.9,74.225 137.875,73.825 137.825,73.4 113.825,73.425Q113.889,71.788 114.075,70.175 114.254,68.551 114.55,66.975 114.855,65.395 115.275,63.85 115.696,62.31 116.225,60.825 116.746,59.34 117.375,57.9 118.013,56.455 118.75,55.075 119.487,53.697 120.325,52.375 121.156,51.051 122.075,49.8 122.991,48.554 124,47.375 125.011,46.183 126.1,45.025 125.563,44.442 125,43.875 124.434,43.312 123.8,42.775 122.62,43.967 121.525,45.25 120.425,46.527 119.425,47.875 118.44,49.222 117.55,50.65 116.646,52.082 115.85,53.575 115.058,55.065 114.375,56.625 113.692,58.176 113.125,59.775 112.554,61.394 112.1,63.075 111.663,64.743 111.35,66.45 111.023,68.149 110.825,69.9 110.635,71.65 110.575,73.425L95.35,73.45 95.275,30.95 94.875,30.925 94.5,30.9 94.1,30.875"/></g><g id="pieza tablero_0.0.5"><path fill="none" stroke="#221F1F" stroke-width="2.54" stroke-linecap="round" stroke-linejoin="round" d="M91.125,84.925Q90.04,83.836 90,82.2M91.125,84.925Q92.212,86.009 93.85,86.05 94.653,86.046 95.35,85.75 96.046,85.453 96.575,84.925 97.102,84.397 97.4,83.7 97.696,83.003 97.7,82.2"/></g><g id="pieza tablero_0.0.6"><path fill="#221F1F" d="M109.15,68.75Q109.15,67.05 107.95,65.85 106.8,64.7 105.1,64.7 103.4,64.7 102.2,65.85 101.05,67.05 101.05,68.75 101.05,70.45 102.2,71.6 103.4,72.8 105.1,72.8 106.8,72.8 107.95,71.6 109.15,70.45 109.15,68.75"/></g><g id="pieza tablero_0.0.7"><path fill="#221F1F" d="M87.75,68.7Q87.75,67 86.55,65.8 85.4,64.65 83.7,64.65 82,64.65 80.8,65.8 79.65,67 79.65,68.7 79.65,70.4 80.8,71.55 82,72.75 83.7,72.75 85.4,72.75 86.55,71.55 87.75,70.4 87.75,68.7"/></g><g id="pieza tablero_0.0.8"><path fill="#FFF" d="M81.175,177.975L80.925,177.975Q80.623,177.969 80.325,178.025 79.904,178.111 79.525,178.325 79.138,178.549 78.825,178.9L69.175,189.775 66.525,192.75 63.775,180.525Q63.488,179.375 62.55,178.775 61.871,178.349 61.075,178.35 60.773,178.343 60.45,178.4 60,178.512 59.625,178.75 59.242,178.976 58.95,179.3 58.67,179.627 58.5,180.025 58.324,180.417 58.275,180.85 58.227,181.292 58.325,181.75L70.475,236.05Q70.591,236.543 70.85,236.95 71.108,237.343 71.475,237.625 71.837,237.916 72.275,238.075 72.714,238.24 73.2,238.25 73.51,238.246 73.825,238.175 74.275,238.075 74.65,237.85 75.022,237.61 75.3,237.275 75.593,236.959 75.775,236.575 75.938,236.17 75.975,235.725 76.021,235.296 75.925,234.85L74.525,228.6 82.025,237.025 82.175,237.175 82.25,237.25 82.45,237.425 82.525,237.475 82.7,237.6 82.775,237.625 82.95,237.725 83.025,237.75 83.225,237.825 83.3,237.85 83.5,237.9 83.55,237.925 83.8,237.95 84.1,237.975 84.175,237.975 84.375,237.95 84.475,237.95 84.625,237.925 84.75,237.9 84.9,237.85 85.025,237.8 85.15,237.775 85.275,237.7 85.4,237.65 85.525,237.575 85.625,237.525Q85.879,237.355 86.1,237.125L86.175,237.05 97,224.875 107.8,237.025 107.925,237.15 108.025,237.275 108.175,237.375 108.35,237.5 108.45,237.575 108.575,237.65 108.7,237.7 108.825,237.75 108.975,237.825 109.075,237.85 109.225,237.9 109.35,237.925 109.5,237.95 109.625,237.95 109.8,237.975 109.875,237.975 110.15,237.95 110.425,237.925 110.5,237.9 110.7,237.85 110.775,237.825 110.95,237.75 111.025,237.725 111.2,237.625 111.275,237.6 111.475,237.45 111.725,237.275 111.775,237.2 111.95,237.05 120.35,227.575 118.725,234.85Q118.628,235.294 118.675,235.725 118.724,236.17 118.9,236.575 119.07,236.959 119.35,237.275 119.642,237.61 120.025,237.85 120.4,238.075 120.85,238.175 121.153,238.246 121.45,238.25 121.933,238.24 122.375,238.075 122.824,237.916 123.2,237.625 123.554,237.343 123.8,236.95 124.059,236.545 124.175,236.05L136.325,181.75Q136.56,180.577 135.975,179.625 135.377,178.688 134.225,178.4 133.909,178.341 133.6,178.35L133.325,178.35Q132.891,178.399 132.5,178.575 132.102,178.745 131.775,179.025 131.452,179.316 131.225,179.7 130.988,180.075 130.875,180.525L128,193.375 115.475,179.275Q115.09,178.839 114.6,178.6 114.11,178.374 113.575,178.35L113.4,178.35Q112.943,178.352 112.5,178.5 111.984,178.671 111.55,179.05 111.199,179.351 110.975,179.725 110.762,180.117 110.675,180.55 110.586,180.971 110.625,181.4 110.659,181.825 110.825,182.225 110.996,182.628 111.3,182.975L119.025,191.675 109.875,201.975 100.725,191.675 108.45,182.975Q108.829,182.542 109,182.025 109.165,181.51 109.125,180.975 109.101,180.428 108.875,179.925 108.636,179.434 108.2,179.05 107.853,178.745 107.45,178.575 107.05,178.396 106.625,178.35L106.35,178.35Q106.06,178.344 105.775,178.4 105.341,178.486 104.95,178.7 104.577,178.924 104.275,179.275L97,187.475 90.125,179.725Q89.729,179.301 89.225,179.075 88.735,178.837 88.2,178.8L88.025,178.8Q87.567,178.801 87.125,178.95 86.608,179.12 86.175,179.5 85.837,179.813 85.625,180.2 85.398,180.58 85.3,181 85.21,181.422 85.25,181.85 85.296,182.275 85.475,182.675 85.646,183.078 85.95,183.425L93.25,191.675 84.1,201.975 74.95,191.675 83,182.6Q83.38,182.165 83.55,181.65 83.728,181.135 83.7,180.6 83.663,180.053 83.425,179.55 83.198,179.058 82.775,178.675 82.428,178.371 82.025,178.2 81.612,178.022 81.175,177.975 M126.5,200.1L122.825,216.55 113.6,206.175 122.75,195.875 126.5,200.1 M109.875,210.375L119.025,220.675 109.875,230.975 100.725,220.675 109.875,210.375 M71.225,195.875L80.375,206.175 71.7,215.925 68.025,199.475 71.225,195.875 M93.25,220.675L84.1,230.975 74.95,220.675 84.1,210.375 93.25,220.675 M87.85,206.175L97,195.875 106.15,206.175 97,216.475 87.85,206.175"/></g><g id="pieza tablero_0.0.9"><path fill="#2A3B8E" d="M139.025,176.525L55.675,176.525Q54.938,176.529 54.275,176.75 53.62,176.972 53.075,177.375 52.528,177.778 52.125,178.325 51.722,178.871 51.5,179.525 51.279,180.188 51.275,180.925 51.271,181.376 51.35,181.8 51.434,182.23 51.6,182.625 51.944,183.421 52.55,184.025 53.154,184.631 53.95,184.975 54.346,185.141 54.775,185.225 55.212,185.318 55.675,185.325L139.025,185.325Q139.749,185.32 140.4,185.1 141.066,184.878 141.625,184.475 142.172,184.059 142.575,183.5 142.978,182.955 143.2,182.3 143.421,181.65 143.425,180.925 143.421,180.188 143.2,179.525 142.978,178.871 142.575,178.325 142.172,177.778 141.625,177.375 141.066,176.972 140.4,176.75 139.749,176.529 139.025,176.525"/></g></g></g><g id="pieza_prog2" transform="matrix(0.772 0 0 0.772 81.95 42.8)"><g><g id="pieza prog2_0.0.0"><g><path fill="#FFF" d="M140.4,-0.025L20.875,-0.025Q17.972,-0.026 15.3,0.7 12.647,1.449 10.325,2.825 7.996,4.198 6.1,6.1 4.198,7.998 2.825,10.325 1.449,12.66 0.7,15.325 -0.026,17.985 -0.025,20.875L-0.025,258.125Q-0.026,261.028 0.7,263.7 1.449,266.353 2.825,268.675 4.198,271.002 6.1,272.9 7.996,274.802 10.325,276.175 12.647,277.551 15.3,278.3 17.972,279.026 20.875,279.025L140.4,279.025Q143.303,279.026 145.975,278.3 148.628,277.551 150.95,276.175 153.289,274.802 155.2,272.9 157.089,271.002 158.45,268.675 159.826,266.353 160.575,263.7 161.313,261.028 161.325,258.125L161.3,255.85 161.275,258.125Q161.264,261.016 160.525,263.675 159.79,266.34 158.425,268.675 157.065,270.99 155.175,272.875 153.278,274.777 150.95,276.15 148.616,277.515 145.95,278.25 143.291,278.989 140.4,279L20.875,279Q17.984,278.989 15.325,278.25 12.66,277.515 10.325,276.15 8.01,274.777 6.125,272.875 4.222,270.99 2.85,268.675 1.485,266.34 0.75,263.675 0.011,261.016 0,258.125L0,20.875Q0.011,17.984 0.75,15.325 1.485,12.66 2.85,10.325 4.222,8.01 6.125,6.125 8.01,4.222 10.325,2.85 12.66,1.485 15.325,0.75 17.984,0.011 20.875,0L140.4,0Q144.751,0.033 148.525,1.65 152.306,3.263 155.175,6.125 158.037,8.981 159.65,12.75 161.254,16.524 161.275,20.875L161.275,125.3Q158.803,125.815 156.625,126.95 154.44,128.089 152.65,129.75 150.866,131.402 149.575,133.475 148.279,135.564 147.575,137.975 146.879,140.376 146.875,143 146.894,146.284 147.975,149.2 149.054,152.131 151,154.5 152.938,156.853 155.55,158.45 158.172,160.05 161.275,160.7L161.275,160.675Q158.187,160.021 155.575,158.425 152.965,156.825 151.025,154.475 149.082,152.117 148,149.2 146.922,146.283 146.9,143 146.902,141.911 147.025,140.85 147.152,139.789 147.4,138.775 147.645,137.764 148,136.8 148.348,135.833 148.8,134.925 149.265,134.007 149.825,133.15 150.381,132.302 151.025,131.525 151.659,130.75 152.375,130.05 153.101,129.345 153.9,128.725 154.702,128.105 155.575,127.575 156.446,127.051 157.375,126.625 158.296,126.197 159.275,125.875 160.263,125.549 161.325,125.3L161.325,20.875Q161.29,16.512 159.675,12.725 158.061,8.956 155.2,6.1 152.33,3.227 148.55,1.6 144.763,-0.002 140.4,-0.025"/><path fill="#FFF" d="M148.525,1.65Q144.751,0.033 140.4,0L20.875,0Q17.984,0.011 15.325,0.75 12.66,1.485 10.325,2.85 8.01,4.222 6.125,6.125 4.222,8.01 2.85,10.325 1.485,12.66 0.75,15.325 0.011,17.984 0,20.875L0,258.125Q0.011,261.016 0.75,263.675 1.485,266.34 2.85,268.675 4.222,270.99 6.125,272.875 8.01,274.777 10.325,276.15 12.66,277.515 15.325,278.25 17.984,278.989 20.875,279L140.4,279Q143.291,278.989 145.95,278.25 148.616,277.515 150.95,276.15 153.278,274.777 155.175,272.875 157.065,270.99 158.425,268.675 159.79,266.34 160.525,263.675 161.264,261.016 161.275,258.125L161.3,255.85 161.275,160.7Q158.172,160.05 155.55,158.45 152.938,156.853 151,154.5 149.054,152.131 147.975,149.2 146.894,146.284 146.875,143 146.879,140.376 147.575,137.975 148.279,135.564 149.575,133.475 150.866,131.402 152.65,129.75 154.44,128.089 156.625,126.95 158.803,125.815 161.275,125.3L161.275,20.875Q161.254,16.524 159.65,12.75 158.037,8.981 155.175,6.125 152.306,3.263 148.525,1.65"/><path fill="none" stroke="#414141" stroke-width="4" stroke-linecap="round" stroke-linejoin="round" d="M161.275,160.7L161.3,255.85"/><path fill="none" stroke="#414141" stroke-width="4" stroke-linecap="round" stroke-linejoin="round" d="M161.3,255.85L161.275,258.125Q161.264,261.016 160.525,263.675 159.79,266.34 158.425,268.675 157.065,270.99 155.175,272.875 153.278,274.777 150.95,276.15 148.616,277.515 145.95,278.25 143.291,278.989 140.4,279L20.875,279Q17.984,278.989 15.325,278.25 12.66,277.515 10.325,276.15 8.01,274.777 6.125,272.875 4.222,270.99 2.85,268.675 1.485,266.34 0.75,263.675 0.011,261.016 0,258.125L0,20.875Q0.011,17.984 0.75,15.325 1.485,12.66 2.85,10.325 4.222,8.01 6.125,6.125 8.01,4.222 10.325,2.85 12.66,1.485 15.325,0.75 17.984,0.011 20.875,0L140.4,0Q144.751,0.033 148.525,1.65 152.306,3.263 155.175,6.125 158.037,8.981 159.65,12.75 161.254,16.524 161.275,20.875L161.275,125.3Q158.803,125.815 156.625,126.95 154.44,128.089 152.65,129.75 150.866,131.402 149.575,133.475 148.279,135.564 147.575,137.975 146.879,140.376 146.875,143 146.894,146.284 147.975,149.2 149.054,152.131 151,154.5 152.938,156.853 155.55,158.45 158.172,160.05 161.275,160.7"/></g></g><g id="pieza prog2_0.0.1"><path fill="#EE5D80" d="M113.5,28.3L38.25,28.3 38.25,91.45 113.5,91.45 113.5,28.3"/></g><g id="Timeline_1" transform="matrix(1 0 0 1 29.6 22.5)" opacity="0.5"><path fill="#00A44F" d="M92.4,-0.025L9.525,-0.025Q8.864,-0.029 8.225,0.05 7.597,0.133 7,0.3 6.383,0.476 5.8,0.725 5.229,0.965 4.7,1.275 4.165,1.581 3.675,1.95 3.199,2.333 2.775,2.775 2.334,3.199 1.95,3.675 1.581,4.165 1.275,4.7 0.965,5.229 0.725,5.8 0.476,6.383 0.3,7 0.133,7.597 0.05,8.225 -0.029,8.864 -0.025,9.525L-0.025,63.875Q-0.029,64.536 0.05,65.175 0.133,65.816 0.3,66.425 0.476,67.029 0.725,67.6 0.965,68.183 1.275,68.725 1.581,69.248 1.95,69.725 2.334,70.214 2.775,70.65 3.199,71.091 3.675,71.475 4.165,71.844 4.7,72.15 5.229,72.46 5.8,72.7 6.383,72.949 7,73.125 7.597,73.292 8.225,73.375 8.864,73.455 9.525,73.45L35.9,73.45 40.525,76.7Q40.891,76.951 41.3,77.075 41.718,77.201 42.15,77.2 42.57,77.201 42.975,77.075 43.384,76.951 43.75,76.7L48.4,73.45 92.4,73.45 92.425,73.425 92.425,0 92.4,-0.025"/></g><g id="pieza prog2_0.0.3"><path fill="#EE5D80" d="M122,22.475L39.125,22.475Q38.464,22.471 37.825,22.55 37.197,22.633 36.6,22.8 35.983,22.976 35.4,23.225 34.829,23.465 34.3,23.775 33.765,24.081 33.275,24.45 32.799,24.833 32.375,25.275 31.934,25.699 31.55,26.175 31.181,26.665 30.875,27.2 30.565,27.729 30.325,28.3 30.076,28.883 29.9,29.5 29.733,30.097 29.65,30.725 29.571,31.364 29.575,32.025L29.575,244.925Q29.571,245.586 29.65,246.225 29.733,246.865 29.9,247.475 30.076,248.079 30.325,248.65 30.565,249.221 30.875,249.75 31.181,250.285 31.55,250.775 31.934,251.251 32.375,251.675 32.799,252.116 33.275,252.5 33.765,252.869 34.3,253.175 34.829,253.485 35.4,253.725 35.983,253.975 36.6,254.15 37.197,254.315 37.825,254.4 38.464,254.491 39.125,254.5L122,254.5 122.025,254.45 122.025,243.65 122,243.6 77.95,243.625 73.55,246.675Q73.084,247.005 72.55,247.175 71.995,247.347 71.4,247.35 70.819,247.347 70.275,247.175 69.74,247.005 69.275,246.675L64.85,243.6 58.825,243.6Q56.643,243.583 54.75,242.775 52.847,241.963 51.4,240.525 49.962,239.09 49.15,237.2 48.339,235.293 48.325,233.1L48.325,105.325Q48.329,104.6 48.425,103.9 48.517,103.196 48.7,102.525 48.884,101.869 49.15,101.25 49.424,100.614 49.775,100.025 50.115,99.45 50.525,98.925 50.931,98.383 51.4,97.9 51.883,97.431 52.425,97.025 52.95,96.603 53.525,96.25 54.114,95.911 54.75,95.65 55.382,95.384 56.05,95.2 56.709,95.017 57.4,94.925 58.1,94.829 58.825,94.825L64.7,94.825Q64.853,94.828 65,94.875 65.133,94.916 65.25,95L70.375,98.575Q70.607,98.74 70.875,98.825 71.131,98.903 71.4,98.9 71.681,98.903 71.95,98.825 72.218,98.74 72.45,98.575L77.575,95Q77.691,94.916 77.825,94.875 77.971,94.828 78.125,94.825L122,94.825 122.025,94.8 122.025,22.5 122,22.475"/></g><g id="pieza prog2_0.0.4"><g><path fill="#EE5D80" d="M83.975,58.275L83.975,58.225 61.825,45.425 61.775,45.45 61.8,46.65 61.8,45.45 83.95,58.25 61.8,71.05 61.8,71.075 61.825,71.075 83.975,58.275"/><path fill="#EE5D80" d="M61.8,71.05L83.95,58.25 61.8,45.45 61.8,46.65Q61.798,46.85 61.8,47.05 61.794,59.05 61.8,71.05"/><path fill="none" stroke="#EE5D80" stroke-width="5" stroke-linecap="round" stroke-linejoin="round" d="M61.8,47.05Q61.798,46.85 61.8,46.65M61.8,71.05Q61.794,59.05 61.8,47.05"/><path fill="none" stroke="#EE5D80" stroke-width="5" stroke-linecap="round" stroke-linejoin="round" d="M61.8,46.65L61.8,45.45 83.95,58.25 61.8,71.05"/></g></g><g id="pieza prog2_0.0.5"><g><path fill="#FFC85F" d="M64.7,95.725L58.825,95.725Q58.164,95.721 57.525,95.8 56.898,95.883 56.3,96.05 55.683,96.226 55.1,96.475 54.529,96.715 54,97.025 53.465,97.331 52.975,97.7 52.499,98.083 52.075,98.525 51.633,98.949 51.25,99.425 50.881,99.915 50.575,100.45 50.265,100.98 50.025,101.55 49.776,102.133 49.6,102.75 49.433,103.347 49.35,103.975 49.271,104.614 49.275,105.275L49.275,159.625Q49.271,160.286 49.35,160.925 49.433,161.565 49.6,162.175 49.776,162.779 50.025,163.35 50.265,163.933 50.575,164.475 50.881,164.997 51.25,165.475 51.633,165.964 52.075,166.4 52.499,166.828 52.975,167.2 53.465,167.582 54,167.9 54.529,168.21 55.1,168.45 55.683,168.7 56.3,168.875 56.898,169.042 57.525,169.125 58.164,169.205 58.825,169.2L65.175,169.2 69.8,172.45Q70.164,172.701 70.575,172.825 70.992,172.95 71.425,172.95 71.844,172.95 72.25,172.825 72.659,172.701 73.025,172.45L77.675,169.2 131.7,169.2 131.725,169.175 131.725,95.75 131.7,95.725 78.125,95.725 73,99.3Q72.634,99.55 72.225,99.675 71.834,99.799 71.425,99.8 71.005,99.799 70.6,99.675 70.203,99.55 69.85,99.3L64.7,95.725"/><path fill="#FFC85F" stroke-width="1.8" stroke-linecap="round" stroke-linejoin="round" d="M131.7,169.175L131.7,95.75 78.125,95.75 73.025,99.325Q72.284,99.827 71.425,99.825 71.005,99.825 70.6,99.7 70.19,99.576 69.825,99.325L64.7,95.75 58.825,95.75Q57.246,95.751 55.825,96.225 54.394,96.715 53.2,97.6 52.017,98.467 51.15,99.65 50.265,100.844 49.775,102.275 49.301,103.696 49.3,105.275L49.3,159.65Q49.301,161.229 49.775,162.65 50.265,164.081 51.15,165.275 52.017,166.458 53.2,167.325 54.394,168.197 55.825,168.675 57.246,169.162 58.825,169.175L65.175,169.175 69.825,172.425Q70.19,172.676 70.6,172.8 71.005,172.925 71.425,172.925 71.845,172.925 72.25,172.8 72.66,172.676 73.025,172.425L77.65,169.175 131.7,169.175"/><path fill="none" stroke="#FFF" stroke-width="1.8" stroke-linecap="round" stroke-linejoin="round" d="M131.7,169.175L131.7,95.75 78.125,95.75 73.025,99.325Q72.284,99.827 71.425,99.825 71.005,99.825 70.6,99.7 70.19,99.576 69.825,99.325L64.7,95.75 58.825,95.75Q57.246,95.751 55.825,96.225 54.394,96.715 53.2,97.6 52.017,98.467 51.15,99.65 50.265,100.844 49.775,102.275 49.301,103.696 49.3,105.275L49.3,159.65Q49.301,161.229 49.775,162.65 50.265,164.081 51.15,165.275 52.017,166.458 53.2,167.325 54.394,168.197 55.825,168.675 57.246,169.162 58.825,169.175L65.175,169.175 69.825,172.425Q70.19,172.676 70.6,172.8 71.005,172.925 71.425,172.925 71.845,172.925 72.25,172.8 72.66,172.676 73.025,172.425L77.65,169.175 131.7,169.175"/></g></g><g id="pieza prog2_0.0.6"><g><path fill="#221F1F" d="M93.6,59.95L93.6,59.9 71.45,47.1 71.4,47.1 93.55,59.9 71.4,72.7 71.4,72.75 71.45,72.75 93.6,59.95"/><path fill="#221F1F" d="M71.4,48.3Q71.4,48.5 71.4,48.7 71.4,60.7 71.4,72.7L93.55,59.9 71.4,47.1 71.4,48.3"/><path fill="none" stroke="#221F1F" stroke-width="5" stroke-linecap="round" stroke-linejoin="round" d="M71.4,48.3L71.4,47.1M71.4,48.7Q71.4,48.5 71.4,48.3M71.4,72.7Q71.4,60.7 71.4,48.7"/><path fill="none" stroke="#221F1F" stroke-width="5" stroke-linecap="round" stroke-linejoin="round" d="M71.4,47.1L93.55,59.9 71.4,72.7"/></g></g><g id="pieza prog2_0.0.7"><g><path fill="#FFC85F" d="M64.7,169.275L58.825,169.275Q58.164,169.271 57.525,169.35 56.898,169.433 56.3,169.6 55.683,169.776 55.1,170.025 54.529,170.265 54,170.575 53.465,170.881 52.975,171.25 52.499,171.633 52.075,172.075 51.633,172.499 51.25,172.975 50.881,173.465 50.575,174 50.265,174.53 50.025,175.1 49.776,175.683 49.6,176.3 49.433,176.897 49.35,177.525 49.271,178.164 49.275,178.825L49.275,233.175Q49.271,233.836 49.35,234.475 49.433,235.115 49.6,235.725 49.776,236.329 50.025,236.9 50.265,237.483 50.575,238.025 50.881,238.547 51.25,239.025 51.633,239.514 52.075,239.95 52.499,240.379 52.975,240.75 53.465,241.132 54,241.45 54.529,241.76 55.1,242 55.683,242.249 56.3,242.425 56.898,242.591 57.525,242.675 58.164,242.755 58.825,242.75L65.175,242.75 69.8,246Q70.164,246.251 70.575,246.375 70.992,246.5 71.425,246.5 71.844,246.5 72.25,246.375 72.659,246.251 73.025,246L77.675,242.75 131.7,242.75 131.725,242.725 131.725,169.3 131.7,169.275 78.125,169.275 73,172.85Q72.634,173.1 72.225,173.225 71.832,173.349 71.425,173.35 71.004,173.35 70.6,173.225 70.202,173.1 69.85,172.85L64.7,169.275"/><path fill="#FFC85F" stroke-width="1.8" stroke-linecap="round" stroke-linejoin="round" d="M131.7,242.725L131.7,169.3 78.125,169.3 73.025,172.875Q72.284,173.376 71.425,173.375 71.005,173.375 70.6,173.25 70.19,173.125 69.825,172.875L64.7,169.3 58.825,169.3Q57.246,169.301 55.825,169.775 54.394,170.265 53.2,171.15 52.017,172.017 51.15,173.2 50.265,174.394 49.775,175.825 49.301,177.246 49.3,178.825L49.3,233.175Q49.301,234.767 49.775,236.2 50.265,237.631 51.15,238.825 52.017,240.008 53.2,240.875 54.394,241.747 55.825,242.225 57.246,242.712 58.825,242.725L65.175,242.725 69.825,245.975Q70.19,246.226 70.6,246.35 71.005,246.475 71.425,246.475 71.845,246.475 72.25,246.35 72.66,246.226 73.025,245.975L77.65,242.725 131.7,242.725"/><path fill="none" stroke="#FFF" stroke-width="1.8" stroke-linecap="round" stroke-linejoin="round" d="M131.7,242.725L131.7,169.3 78.125,169.3 73.025,172.875Q72.284,173.376 71.425,173.375 71.005,173.375 70.6,173.25 70.19,173.125 69.825,172.875L64.7,169.3 58.825,169.3Q57.246,169.301 55.825,169.775 54.394,170.265 53.2,171.15 52.017,172.017 51.15,173.2 50.265,174.394 49.775,175.825 49.301,177.246 49.3,178.825L49.3,233.175Q49.301,234.767 49.775,236.2 50.265,237.631 51.15,238.825 52.017,240.008 53.2,240.875 54.394,241.747 55.825,242.225 57.246,242.712 58.825,242.725L65.175,242.725 69.825,245.975Q70.19,246.226 70.6,246.35 71.005,246.475 71.425,246.475 71.845,246.475 72.25,246.35 72.66,246.226 73.025,245.975L77.65,242.725 131.7,242.725"/></g></g></g></g><g style="display:none;"><use xlink:href="#pieza_prog1" transform="matrix(0.772 0 0 0.772 321.05 42.8)"/><animate attributeName="display" repeatCount="indefinite" dur="7.708s" keyTimes="0;0.384;1" values="none;inline;inline"/></g><g style="display:none;"><g id="pieza_prog1_selec" transform="matrix(0.772 0 0 0.772 239.85 42.8)"><animateTransform attributeName="transform" additive="replace" type="translate" repeatCount="indefinite" dur="7.708s" keyTimes="0;0.259;0.265;0.27;0.276;0.281;0.286;0.292;0.297;0.303;0.308;0.314;0.319;0.324;0.33;0.335;0.341;0.346;0.351;1" values="239.85,42.8;239.85,42.8;243.35,42.8;246.9,42.8;250.4,42.8;253.95,42.8;257.45,42.8;264.5,42.8;271.5,42.8;278.55,42.8;285.55,42.8;292.6,42.8;299.6,42.8;306.65,42.8;309.1,42.8;311.55,42.8;314.05,42.8;316.5,42.8;318.95,42.8;318.95,42.8" calcMode="discrete"/><animateTransform attributeName="transform" additive="sum" type="scale" repeatCount="indefinite" dur="7.708s" keyTimes="0;1" values="0.772,0.772;0.772,0.772" calcMode="discrete"/><g><g id="pieza prog1_selec_1.0.0"><g><path fill="#FFF" d="M140.4,-0.025L20.875,-0.025Q17.984,-0.026 15.325,0.7 12.66,1.449 10.325,2.825 7.998,4.198 6.1,6.1 4.198,7.998 2.825,10.325 1.449,12.66 0.7,15.325 -0.026,17.985 -0.025,20.875L-0.025,258.125Q-0.026,261.028 0.7,263.7 1.449,266.353 2.825,268.675 4.199,271.002 6.1,272.9 7.998,274.802 10.325,276.175 12.66,277.551 15.325,278.3 17.984,279.026 20.875,279.025L140.4,279.025Q143.303,279.026 145.975,278.3 148.628,277.551 150.95,276.175 153.289,274.802 155.2,272.9 157.089,271.002 158.45,268.675 159.826,266.353 160.575,263.7 161.313,261.028 161.325,258.125L161.3,255.85 161.275,258.125Q161.264,261.016 160.525,263.675 159.79,266.34 158.425,268.675 157.065,270.99 155.175,272.875 153.278,274.777 150.95,276.15 148.616,277.515 145.95,278.25 143.291,278.989 140.4,279L20.875,279Q17.984,278.989 15.325,278.25 12.659,277.515 10.325,276.15 8.01,274.777 6.125,272.875 4.222,270.99 2.85,268.675 1.485,266.34 0.75,263.675 0.01,261.016 0,258.125L0,20.875Q0.01,17.984 0.75,15.325 1.485,12.66 2.85,10.325 4.222,8.01 6.125,6.125 8.01,4.222 10.325,2.85 12.659,1.485 15.325,0.75 17.984,0.011 20.875,0L140.4,0Q144.751,0.033 148.525,1.65 152.306,3.263 155.175,6.125 158.037,8.981 159.65,12.75 161.254,16.524 161.275,20.875L161.275,125.3Q158.803,125.815 156.625,126.95 154.44,128.089 152.65,129.75 150.866,131.402 149.575,133.475 148.279,135.564 147.575,137.975 146.879,140.376 146.875,143 146.894,146.284 147.975,149.2 149.054,152.131 151,154.5 152.938,156.853 155.55,158.45 158.172,160.05 161.275,160.7L161.275,160.675Q158.187,160.021 155.575,158.425 152.964,156.825 151.025,154.475 149.08,152.117 148,149.2 146.922,146.283 146.9,143 146.902,141.909 147.025,140.85 147.152,139.789 147.4,138.775 147.645,137.764 148,136.8 148.348,135.833 148.8,134.925 149.264,134.007 149.825,133.15 150.38,132.302 151.025,131.525 151.659,130.75 152.375,130.05 153.101,129.345 153.9,128.725 154.702,128.105 155.575,127.575 156.446,127.051 157.375,126.625 158.296,126.197 159.275,125.875 160.263,125.549 161.325,125.3L161.325,20.875Q161.29,16.512 159.675,12.725 158.061,8.956 155.2,6.1 152.33,3.227 148.55,1.6 144.763,-0.002 140.4,-0.025"/><path fill="#FFF" d="M148.525,1.65Q144.751,0.033 140.4,0L20.875,0Q17.984,0.011 15.325,0.75 12.659,1.485 10.325,2.85 8.01,4.222 6.125,6.125 4.222,8.01 2.85,10.325 1.485,12.66 0.75,15.325 0.01,17.984 0,20.875L0,258.125Q0.01,261.016 0.75,263.675 1.485,266.34 2.85,268.675 4.222,270.99 6.125,272.875 8.01,274.777 10.325,276.15 12.659,277.515 15.325,278.25 17.984,278.989 20.875,279L140.4,279Q143.291,278.989 145.95,278.25 148.616,277.515 150.95,276.15 153.278,274.777 155.175,272.875 157.065,270.99 158.425,268.675 159.79,266.34 160.525,263.675 161.264,261.016 161.275,258.125L161.3,255.85 161.275,160.7Q158.172,160.05 155.55,158.45 152.938,156.853 151,154.5 149.054,152.131 147.975,149.2 146.894,146.284 146.875,143 146.879,140.376 147.575,137.975 148.279,135.564 149.575,133.475 150.866,131.402 152.65,129.75 154.44,128.089 156.625,126.95 158.803,125.815 161.275,125.3L161.275,20.875Q161.254,16.524 159.65,12.75 158.037,8.981 155.175,6.125 152.306,3.263 148.525,1.65"/><path fill="none" stroke="#EE5D80" stroke-width="5" stroke-linecap="round" stroke-linejoin="round" d="M161.275,160.7L161.3,255.85"/><path fill="none" stroke="#EE5D80" stroke-width="5" stroke-linecap="round" stroke-linejoin="round" d="M161.3,255.85L161.275,258.125Q161.264,261.016 160.525,263.675 159.79,266.34 158.425,268.675 157.065,270.99 155.175,272.875 153.278,274.777 150.95,276.15 148.616,277.515 145.95,278.25 143.291,278.989 140.4,279L20.875,279Q17.984,278.989 15.325,278.25 12.659,277.515 10.325,276.15 8.01,274.777 6.125,272.875 4.222,270.99 2.85,268.675 1.485,266.34 0.75,263.675 0.01,261.016 0,258.125L0,20.875Q0.01,17.984 0.75,15.325 1.485,12.66 2.85,10.325 4.222,8.01 6.125,6.125 8.01,4.222 10.325,2.85 12.659,1.485 15.325,0.75 17.984,0.011 20.875,0L140.4,0Q144.751,0.033 148.525,1.65 152.306,3.263 155.175,6.125 158.037,8.981 159.65,12.75 161.254,16.524 161.275,20.875L161.275,125.3Q158.803,125.815 156.625,126.95 154.44,128.089 152.65,129.75 150.866,131.402 149.575,133.475 148.279,135.564 147.575,137.975 146.879,140.376 146.875,143 146.894,146.284 147.975,149.2 149.054,152.131 151,154.5 152.938,156.853 155.55,158.45 158.172,160.05 161.275,160.7"/></g></g><use xlink:href="#pieza prog1_0.0.1"/><use xlink:href="#Timeline_1_copy" transform="matrix(1 0 0 1 29.6 60.25)" opacity="0.5"/><use xlink:href="#pieza prog1_0.0.3"/><use xlink:href="#pieza prog1_0.0.4"/><use xlink:href="#pieza prog1_0.0.5"/><use xlink:href="#pieza prog1_0.0.6"/></g></g><animate attributeName="display" repeatCount="indefinite" dur="7.708s" keyTimes="0;0.216;0.384;1" values="none;inline;none;none"/></g><g><use xlink:href="#pieza_prog1" transform="matrix(0.772 0 0 0.772 239.85 42.8)"/><animate attributeName="display" repeatCount="indefinite" dur="7.708s" keyTimes="0;0.216;1" values="inline;none;none"/></g><g style="display:none;"><g id="mano_tap" transform="matrix(1 0 0 1 608 293.5)"><animateTransform attributeName="transform" additive="replace" type="translate" repeatCount="indefinite" dur="7.708s" keyTimes="0;0.692;0.693;0.778;0.779;0.784;0.789;0.795;0.8;0.805;0.811;0.816;0.822;0.827;0.832;0.838;1" values="670.05,358.1;670.05,358.1;670.05,358.124;670.05,358.124;670.05,358.1;677.6,360.7;685.15,363.3;692.65,365.85;700.2,368.45;707.75,371.05;709.85,371.75;711.95,372.5;714.05,373.2;716.1,373.9;718.2,374.65;720.3,375.35;720.3,375.35" calcMode="discrete"/><animateTransform attributeName="transform" additive="sum" type="scale" repeatCount="indefinite" dur="7.708s" keyTimes="0;0.692;0.693;0.778;0.779;1" values="1,1;1,1;0.932,0.932;0.932,0.932;1,1;1,1" calcMode="discrete"/><animateTransform attributeName="transform" additive="sum" type="translate" repeatCount="indefinite" dur="7.708s" keyTimes="0;0.692;0.693;0.778;0.779;1" values="-62.05,-64.6;-62.05,-64.6;-62.05,-64.65;-62.05,-64.65;-62.05,-64.6;-62.05,-64.6" calcMode="discrete"/><g id="mano tap_0.0"><path fill="#F59120" d="M99.977,38.621Q97.027,38.015 93.899,38.008L64.036,38.008 64.036,14.152Q64.035,13.421 63.964,12.708 63.889,11.988 63.746,11.294 63.606,10.602 63.403,9.933 63.195,9.268 62.925,8.634 62.653,8.001 62.322,7.398 61.996,6.796 61.616,6.234 60.851,5.101 59.891,4.135 58.925,3.17 57.792,2.4 57.23,2.02 56.628,1.694 56.02,1.368 55.381,1.101 54.748,0.831 54.082,0.623 53.413,0.414 52.721,0.27 52.033,0.131 51.319,0.062 50.605,-0.009 49.874,-0.01 47.91,-0.007 46.103,0.488 44.302,0.993 42.726,1.922 41.146,2.85 39.858,4.135 38.572,5.423 37.645,7.003 36.715,8.58 36.211,10.38 35.71,12.187 35.702,14.152L35.702,73.928 24.168,62.384Q23.127,61.346 21.945,60.566 21.357,60.182 20.739,59.86 20.121,59.535 19.482,59.278 18.843,59.018 18.183,58.82 17.523,58.626 16.853,58.498 16.188,58.368 15.513,58.301 14.832,58.237 14.152,58.239 13.471,58.237 12.791,58.301 12.115,58.368 11.45,58.498 10.78,58.626 10.12,58.82 9.461,59.018 8.822,59.278 8.183,59.535 7.564,59.86 6.947,60.182 6.359,60.566 5.177,61.346 4.135,62.384 2.752,63.777 1.829,65.408 0.908,67.036 0.447,68.806 -0.011,70.579 -0.01,72.401 -0.011,74.222 0.447,75.996 0.908,77.766 1.829,79.394 2.752,81.024 4.135,82.417L47.277,125.558Q47.62,125.904 47.983,126.223 48.351,126.541 48.731,126.826 49.113,127.115 49.511,127.377 49.906,127.636 50.311,127.865 50.715,128.097 51.132,128.302 51.554,128.504 51.984,128.676 52.409,128.846 52.846,128.987 53.284,129.132 53.729,129.247L124.062,129.247 124.073,129.226 124.073,68.182Q124.066,65.054 123.46,62.104 122.852,59.153 121.704,56.441 120.551,53.725 118.919,51.308 117.284,48.895 115.23,46.84 113.181,44.791 110.773,43.162 108.355,41.53 105.64,40.377 102.927,39.229 99.977,38.621"/></g></g><animate attributeName="display" repeatCount="indefinite" dur="7.708s" keyTimes="0;0.643;1" values="none;inline;inline"/></g><g style="display:none;"><use xlink:href="#mano_abierta" transform="matrix(1.068 0 0 1.068 363.2 171.3)"><animateTransform attributeName="transform" additive="replace" type="translate" dur="7.708s" keyTimes="0;1" values="0,0;0,0" fill="freeze"/><animateTransform attributeName="transform" additive="sum" type="translate" repeatCount="indefinite" dur="7.708s" keyTimes="0;0.384;0.389;0.395;0.4;0.405;0.411;0.416;0.459;0.465;0.47;0.476;0.481;0.487;0.492;0.497;0.503;0.508;0.514;0.519;0.524;0.53;0.535;0.541;0.546;0.551;0.557;0.562;0.568;0.572;0.573;1" values="429.473,240.296;429.473,240.296;429.47,240.315;429.413,240.281;429.358,240.298;429.407,240.266;429.453,240.282;429.45,240.3;429.45,240.3;436.75,245.3;444.1,250.3;451.4,255.3;458.7,260.3;466.05,265.35;473.35,270.35;480.65,275.35;488,280.35;495.3,285.35;506,289.8;516.7,294.25;527.4,298.7;538.1,303.15;548.8,307.6;559.5,312.05;570.2,316.55;580.9,321;591.6,325.45;602.3,329.9;613,334.35;623.7,338.8;0;0" calcMode="discrete"/><animateTransform attributeName="transform" additive="sum" type="translate" repeatCount="indefinite" dur="7.708s" keyTimes="0;0.573;0.578;0.584;0.589;0.595;0.6;0.605;0.611;0.616;0.622;0.627;0.632;1" values="0;623.7,338.8;634.4,343.25;645.1,347.7;647.85,348.85;650.65,350;653.4,351.15;656.2,352.3;658.95,353.5;661.75,354.65;664.5,355.8;667.3,356.95;670.05,358.1;670.05,358.1" calcMode="discrete"/><animateTransform attributeName="transform" additive="sum" type="scale" repeatCount="indefinite" dur="7.708s" keyTimes="0;0.384;0.389;0.395;0.4;0.405;0.411;0.416;0.572;0.573;1" values="1.068,1.068;1.068,1.068;1.057,1.057;1.045,1.045;1.034,1.034;1.023,1.023;1.011,1.011;1,1;1,1;1;1" calcMode="discrete"/><animateTransform attributeName="transform" additive="sum" type="translate" repeatCount="indefinite" dur="7.708s" keyTimes="0;0.389;0.395;0.4;0.405;0.411;0.572;0.573;1" values="-62.05,-64.6;-62.05,-64.6;-62,-64.6;-61.95,-64.6;-62,-64.6;-62.05,-64.6;-62.05,-64.6;0;0" calcMode="discrete"/><animateTransform attributeName="transform" additive="sum" type="translate" repeatCount="indefinite" dur="7.708s" keyTimes="0;0.573;1" values="0;-62.05,-64.6;-62.05,-64.6" calcMode="discrete"/></use><animate attributeName="display" repeatCount="indefinite" dur="7.708s" keyTimes="0;0.384;0.643;1" values="none;inline;none;none"/></g><g style="display:none;"><g id="mano_cerrada" transform="matrix(1 0 0 1 236.95 156.8)"><animateTransform attributeName="transform" additive="replace" type="translate" repeatCount="indefinite" dur="7.708s" keyTimes="0;0.259;0.265;0.27;0.276;0.281;0.286;0.292;0.297;0.303;0.308;0.314;0.319;0.324;0.33;0.335;0.341;0.346;0.351;1" values="236.95,156.8;236.95,156.8;240.3,156.7;243.65,156.6;247,156.5;250.35,156.4;253.7,156.3;266.05,155.95;278.35,155.6;290.7,155.25;303,154.85;315.35,154.5;327.65,154.15;340,153.8;344,153.7;347.95,153.55;351.95,153.45;355.9,153.3;359.9,153.2;359.9,153.2" calcMode="discrete"/><g id="mano cerrada_0.0"><path fill="#F59120" d="M123.45,46.8Q123.45,43.5 122.25,40.65 121,37.85 118.9,35.7 116.75,33.55 113.9,32.35 111.05,31.15 107.8,31.15 105.65,31.15 103.65,31.65 101.65,32.2 99.9,33.25 98.15,34.25 96.75,35.7 95.3,37.1 94.35,38.85 94.05,36.75 93.25,34.9 92.05,32.05 89.9,29.9 87.75,27.75 84.95,26.55 82.05,25.35 78.8,25.35 76.65,25.35 74.65,25.85 72.65,26.45 70.95,27.45 69.15,28.5 67.75,29.9 66.3,31.3 65.3,33.05 64.35,34.65 63.8,36.45L63.8,30.8Q63.8,27.9 62.75,25.35 61.65,22.8 59.7,20.85 57.8,18.9 55.25,17.85 52.7,16.75 49.75,16.75 48.75,16.75 47.85,16.85 46.9,17 46,17.25 45.1,17.45 44.25,17.85 43.4,18.2 42.65,18.65 41.05,19.55 39.8,20.85 38.5,22.1 37.6,23.7 37.15,24.5 36.8,25.35 36.4,26.15 36.2,27.05 35.95,27.95 35.8,28.9 35.7,29.8 35.7,30.8L35.55,79.05Q33.15,81.5 31.35,84.55 29.4,87.8 28.4,91.5 27.35,95.2 27.35,99.3 27.35,103.35 28.4,107.1 29.4,110.8 31.35,114.05 33.3,117.3 35.95,120 38.6,122.65 41.85,124.55 45.1,126.5 48.85,127.55 50.65,128.05 52.55,128.3 53.05,128.45 53.55,128.6L57.9,128.6Q58.05,128.55 58.25,128.6L69.95,128.65 69.95,128.6 123.45,128.6 123.45,55.55Q123.45,54.7 123.45,53.95L123.45,46.8"/></g></g><animate attributeName="display" repeatCount="indefinite" dur="7.708s" keyTimes="0;0.216;0.384;1" values="none;inline;none;none"/></g><g><use xlink:href="#mano_abierta" transform="matrix(1 0 0 1 336.05 294.4)"><animateTransform attributeName="transform" additive="replace" type="translate" repeatCount="indefinite" dur="7.708s" keyTimes="0;0.07;0.076;0.081;0.086;0.092;0.097;0.103;0.108;0.114;0.119;0.124;0.13;0.135;0.141;0.146;0.151;0.157;0.162;0.168;0.173;0.178;0.184;0.189;1" values="336.05,294.4;336.05,294.4;334,291.8;331.9,289.2;329.85,286.6;327.8,283.95;325.7,281.35;323.65,278.75;315,267.8;306.3,256.8;297.65,245.85;289,234.9;280.3,223.9;271.65,212.95;262.95,201.95;254.3,191;252.15,188.25;249.95,185.5;247.8,182.75;245.65,180.05;243.45,177.3;241.3,174.55;239.1,171.8;236.95,169.05;236.95,169.05" calcMode="discrete"/></use><animate attributeName="display" repeatCount="indefinite" dur="7.708s" keyTimes="0;0.216;1" values="inline;none;none"/></g></g></svg>